M48
; DRILL file KiCad 10.0.5 date 2026-08-03T17:09:44
; FORMAT={-:-/ absolute / metric / decimal}
; #@! TF.CreationDate,2026-08-03T17:09:44-04:00
; #@! TF.GenerationSoftware,Kicad,Pcbnew,10.0.5
; #@! TF.FileFunction,Plated,1,4,PTH
FMAT,2
METRIC
; #@! TA.AperFunction,Plated,PTH,ViaDrill
T1C0.300
; #@! TA.AperFunction,Plated,PTH,ComponentDrill
T2C0.500
; #@! TA.AperFunction,Plated,PTH,ComponentDrill
T3C0.600
; #@! TA.AperFunction,Plated,PTH,ComponentDrill
T4C0.800
; #@! TA.AperFunction,Plated,PTH,ComponentDrill
T5C1.000
; #@! TA.AperFunction,Plated,PTH,ComponentDrill
T6C1.200
; #@! TA.AperFunction,Plated,PTH,ComponentDrill
T7C2.200
%
G90
G05
T1
X98.044Y-105.664
X99.06Y-107.696
X99.135Y-99.06
X100.076Y-99.314
X100.076Y-101.854
X100.9Y-101.878
X101.7Y-101.851
X101.976Y-99.06
X102.476Y-98.298
X102.87Y-71.882
X102.87Y-77.216
X103.14Y-97.57
X103.909Y-97.79
X104.394Y-98.552
X104.648Y-70.866
X104.648Y-99.314
X105.156Y-106.172
X106.172Y-130.048
X107.188Y-123.444
X107.188Y-132.08
X107.696Y-73.876
X107.95Y-126.238
X108.204Y-74.676
X108.204Y-123.444
X108.458Y-75.692
X108.501Y-73.152
X108.516Y-126.804
X109.371Y-126.797
X109.982Y-78.486
X109.982Y-123.19
X110.632Y-123.698
X111.132Y-122.983
X111.252Y-71.91
X111.252Y-72.898
X111.852Y-122.273
X112.431Y-122.825
X112.522Y-64.262
X112.938Y-123.444
X113.255Y-131.84
X113.262Y-60.791
X114.3Y-60.706
X114.554Y-130.302
X115.062Y-65.278
X115.062Y-67.31
X115.316Y-66.064
X115.57Y-130.302
X116.586Y-130.302
X117.602Y-130.302
X118.872Y-65.786
X125.39Y-78.032
X125.408Y-79.1
X125.44Y-76.032
X125.476Y-76.962
X125.476Y-80.032
X126.238Y-80.264
X126.492Y-74.168
X126.94Y-82.332
X127.0Y-66.548
X127.34Y-74.032
X127.762Y-64.516
X127.762Y-69.85
X128.016Y-82.296
X128.27Y-74.93
X128.27Y-87.63
X128.94Y-82.332
X129.34Y-84.901
X129.342Y-64.82
X129.794Y-62.738
X130.098Y-74.013
X130.14Y-82.332
X130.374Y-66.537
X130.381Y-69.088
X130.69Y-74.676
X130.81Y-64.516
X131.29Y-70.982
X131.29Y-71.732
X131.826Y-81.534
X132.08Y-66.548
X132.588Y-86.36
X132.842Y-76.454
X133.604Y-81.788
X133.74Y-78.032
X133.79Y-74.632
X133.829Y-71.628
X133.855Y-70.866
X133.858Y-96.266
X135.128Y-68.326
X135.382Y-78.157
X135.636Y-73.406
X135.636Y-74.168
X135.89Y-82.55
X136.652Y-74.676
X137.414Y-74.93
X137.414Y-75.692
X137.714Y-78.186
X138.684Y-76.307
X139.192Y-110.49
X139.954Y-109.571
X140.143Y-71.86
X140.208Y-120.65
X140.97Y-72.39
X141.478Y-65.532
X141.478Y-66.294
X141.885Y-126.593
X142.24Y-68.58
X142.325Y-60.706
X142.494Y-66.294
X142.494Y-72.39
X142.494Y-123.19
X143.256Y-120.396
X143.764Y-119.634
X144.526Y-118.872
X144.78Y-72.898
X145.034Y-113.792
X145.034Y-118.11
X146.304Y-115.062
X147.32Y-76.962
X147.32Y-98.044
X147.32Y-99.06
X147.574Y-79.011
X147.574Y-110.236
X148.268Y-81.032
X148.336Y-104.902
X149.098Y-78.994
X149.098Y-104.14
X149.606Y-104.902
X150.368Y-104.14
X150.622Y-75.184
X150.897Y-104.902
X151.638Y-104.14
X152.146Y-82.804
X152.146Y-84.582
X152.197Y-104.902
X152.4Y-102.616
X152.908Y-81.788
X153.162Y-79.756
X153.416Y-104.648
X154.686Y-70.358
X154.686Y-76.2
X154.94Y-82.296
X155.702Y-90.79
X157.917Y-97.536
X158.425Y-91.44
X160.02Y-60.63
X160.02Y-63.246
X160.02Y-100.838
X160.508Y-107.442
X160.909Y-81.153
X161.29Y-75.438
X161.473Y-91.44
X161.524Y-107.442
X162.08Y-85.09
X162.306Y-102.108
X165.1Y-87.63
X167.64Y-77.978
X169.164Y-116.84
X169.418Y-76.2
X170.18Y-114.808
X172.466Y-115.316
X175.26Y-75.184
X175.26Y-80.01
X175.26Y-82.296
X175.26Y-85.344
X175.768Y-70.358
X177.292Y-122.758
X178.308Y-85.344
X183.134Y-118.364
X183.134Y-124.46
X187.452Y-73.152
X187.96Y-118.364
X187.96Y-124.46
X188.976Y-85.344
T2
X118.364Y-67.08
X119.364Y-67.08
X147.574Y-70.112
X147.574Y-71.112
T4
X122.428Y-96.271
X122.428Y-98.811
X122.428Y-101.351
X122.428Y-103.891
X122.428Y-106.431
X122.428Y-108.971
X122.428Y-111.511
X122.428Y-114.051
X122.428Y-116.591
X122.428Y-119.131
X122.428Y-121.671
X122.428Y-124.211
X122.428Y-126.751
X122.428Y-129.291
X122.428Y-131.831
X122.428Y-134.371
X122.428Y-136.911
X122.428Y-139.451
X122.428Y-141.991
X122.428Y-144.531
X137.668Y-96.271
X137.668Y-98.811
X137.668Y-101.351
X137.668Y-103.891
X137.668Y-106.431
X137.668Y-108.971
X137.668Y-111.511
X137.668Y-114.051
X137.668Y-116.591
X137.668Y-119.131
X137.668Y-121.671
X137.668Y-124.211
X137.668Y-126.751
X137.668Y-129.291
X137.668Y-131.831
X137.668Y-134.371
X137.668Y-136.911
X137.668Y-139.451
X137.668Y-141.991
X137.668Y-144.531
T5
X174.874Y-108.346
X177.374Y-108.346
X179.874Y-108.346
T6
X152.38Y-130.81
X162.58Y-130.81
T7
X172.974Y-101.346
X181.774Y-101.346
T3
G00X125.22Y-61.301
M15
G01X125.22Y-60.501
M16
G05
G00X125.22Y-65.631
M15
G01X125.22Y-64.531
M16
G05
G00X133.86Y-61.301
M15
G01X133.86Y-60.501
M16
G05
G00X133.86Y-65.631
M15
G01X133.86Y-64.531
M16
G05
T5
G00X177.38Y-64.778
M15
G01X177.38Y-65.778
M16
G05
G00X181.08Y-66.778
M15
G01X181.08Y-67.778
M16
G05
G00X182.88Y-64.778
M15
G01X182.88Y-65.778
M16
G05
G00X186.58Y-66.778
M15
G01X186.58Y-67.778
M16
G05
G00X188.98Y-64.778
M15
G01X188.98Y-65.778
M16
G05
M30
