%TF.GenerationSoftware,KiCad,Pcbnew,10.0.5*%
%TF.CreationDate,2026-08-03T17:09:23-04:00*%
%TF.ProjectId,Digichiver,44696769-6368-4697-9665-722e6b696361,0*%
%TF.SameCoordinates,Original*%
%TF.FileFunction,Legend,Bot*%
%TF.FilePolarity,Positive*%
%FSLAX46Y46*%
G04 Gerber Fmt 4.6, Leading zero omitted, Abs format (unit mm)*
G04 Created by KiCad (PCBNEW 10.0.5) date 2026-08-03 17:09:23*
%MOMM*%
%LPD*%
G01*
G04 APERTURE LIST*
%ADD10C,0.150000*%
%ADD11C,0.120000*%
G04 APERTURE END LIST*
D10*
X154216419Y-103290666D02*
X154168800Y-103338285D01*
X154168800Y-103338285D02*
X154121180Y-103481142D01*
X154121180Y-103481142D02*
X154121180Y-103576380D01*
X154121180Y-103576380D02*
X154168800Y-103719237D01*
X154168800Y-103719237D02*
X154264038Y-103814475D01*
X154264038Y-103814475D02*
X154359276Y-103862094D01*
X154359276Y-103862094D02*
X154549752Y-103909713D01*
X154549752Y-103909713D02*
X154692609Y-103909713D01*
X154692609Y-103909713D02*
X154883085Y-103862094D01*
X154883085Y-103862094D02*
X154978323Y-103814475D01*
X154978323Y-103814475D02*
X155073561Y-103719237D01*
X155073561Y-103719237D02*
X155121180Y-103576380D01*
X155121180Y-103576380D02*
X155121180Y-103481142D01*
X155121180Y-103481142D02*
X155073561Y-103338285D01*
X155073561Y-103338285D02*
X155025942Y-103290666D01*
X154121180Y-102338285D02*
X154121180Y-102909713D01*
X154121180Y-102623999D02*
X155121180Y-102623999D01*
X155121180Y-102623999D02*
X154978323Y-102719237D01*
X154978323Y-102719237D02*
X154883085Y-102814475D01*
X154883085Y-102814475D02*
X154835466Y-102909713D01*
X128658857Y-62684819D02*
X128992190Y-62208628D01*
X129230285Y-62684819D02*
X129230285Y-61684819D01*
X129230285Y-61684819D02*
X128849333Y-61684819D01*
X128849333Y-61684819D02*
X128754095Y-61732438D01*
X128754095Y-61732438D02*
X128706476Y-61780057D01*
X128706476Y-61780057D02*
X128658857Y-61875295D01*
X128658857Y-61875295D02*
X128658857Y-62018152D01*
X128658857Y-62018152D02*
X128706476Y-62113390D01*
X128706476Y-62113390D02*
X128754095Y-62161009D01*
X128754095Y-62161009D02*
X128849333Y-62208628D01*
X128849333Y-62208628D02*
X129230285Y-62208628D01*
X128277904Y-61780057D02*
X128230285Y-61732438D01*
X128230285Y-61732438D02*
X128135047Y-61684819D01*
X128135047Y-61684819D02*
X127896952Y-61684819D01*
X127896952Y-61684819D02*
X127801714Y-61732438D01*
X127801714Y-61732438D02*
X127754095Y-61780057D01*
X127754095Y-61780057D02*
X127706476Y-61875295D01*
X127706476Y-61875295D02*
X127706476Y-61970533D01*
X127706476Y-61970533D02*
X127754095Y-62113390D01*
X127754095Y-62113390D02*
X128325523Y-62684819D01*
X128325523Y-62684819D02*
X127706476Y-62684819D01*
X127087428Y-61684819D02*
X126992190Y-61684819D01*
X126992190Y-61684819D02*
X126896952Y-61732438D01*
X126896952Y-61732438D02*
X126849333Y-61780057D01*
X126849333Y-61780057D02*
X126801714Y-61875295D01*
X126801714Y-61875295D02*
X126754095Y-62065771D01*
X126754095Y-62065771D02*
X126754095Y-62303866D01*
X126754095Y-62303866D02*
X126801714Y-62494342D01*
X126801714Y-62494342D02*
X126849333Y-62589580D01*
X126849333Y-62589580D02*
X126896952Y-62637200D01*
X126896952Y-62637200D02*
X126992190Y-62684819D01*
X126992190Y-62684819D02*
X127087428Y-62684819D01*
X127087428Y-62684819D02*
X127182666Y-62637200D01*
X127182666Y-62637200D02*
X127230285Y-62589580D01*
X127230285Y-62589580D02*
X127277904Y-62494342D01*
X127277904Y-62494342D02*
X127325523Y-62303866D01*
X127325523Y-62303866D02*
X127325523Y-62065771D01*
X127325523Y-62065771D02*
X127277904Y-61875295D01*
X127277904Y-61875295D02*
X127230285Y-61780057D01*
X127230285Y-61780057D02*
X127182666Y-61732438D01*
X127182666Y-61732438D02*
X127087428Y-61684819D01*
X135294666Y-95465580D02*
X135342285Y-95513200D01*
X135342285Y-95513200D02*
X135485142Y-95560819D01*
X135485142Y-95560819D02*
X135580380Y-95560819D01*
X135580380Y-95560819D02*
X135723237Y-95513200D01*
X135723237Y-95513200D02*
X135818475Y-95417961D01*
X135818475Y-95417961D02*
X135866094Y-95322723D01*
X135866094Y-95322723D02*
X135913713Y-95132247D01*
X135913713Y-95132247D02*
X135913713Y-94989390D01*
X135913713Y-94989390D02*
X135866094Y-94798914D01*
X135866094Y-94798914D02*
X135818475Y-94703676D01*
X135818475Y-94703676D02*
X135723237Y-94608438D01*
X135723237Y-94608438D02*
X135580380Y-94560819D01*
X135580380Y-94560819D02*
X135485142Y-94560819D01*
X135485142Y-94560819D02*
X135342285Y-94608438D01*
X135342285Y-94608438D02*
X135294666Y-94656057D01*
X134961332Y-94560819D02*
X134342285Y-94560819D01*
X134342285Y-94560819D02*
X134675618Y-94941771D01*
X134675618Y-94941771D02*
X134532761Y-94941771D01*
X134532761Y-94941771D02*
X134437523Y-94989390D01*
X134437523Y-94989390D02*
X134389904Y-95037009D01*
X134389904Y-95037009D02*
X134342285Y-95132247D01*
X134342285Y-95132247D02*
X134342285Y-95370342D01*
X134342285Y-95370342D02*
X134389904Y-95465580D01*
X134389904Y-95465580D02*
X134437523Y-95513200D01*
X134437523Y-95513200D02*
X134532761Y-95560819D01*
X134532761Y-95560819D02*
X134818475Y-95560819D01*
X134818475Y-95560819D02*
X134913713Y-95513200D01*
X134913713Y-95513200D02*
X134961332Y-95465580D01*
X130827580Y-85689142D02*
X130875200Y-85641523D01*
X130875200Y-85641523D02*
X130922819Y-85498666D01*
X130922819Y-85498666D02*
X130922819Y-85403428D01*
X130922819Y-85403428D02*
X130875200Y-85260571D01*
X130875200Y-85260571D02*
X130779961Y-85165333D01*
X130779961Y-85165333D02*
X130684723Y-85117714D01*
X130684723Y-85117714D02*
X130494247Y-85070095D01*
X130494247Y-85070095D02*
X130351390Y-85070095D01*
X130351390Y-85070095D02*
X130160914Y-85117714D01*
X130160914Y-85117714D02*
X130065676Y-85165333D01*
X130065676Y-85165333D02*
X129970438Y-85260571D01*
X129970438Y-85260571D02*
X129922819Y-85403428D01*
X129922819Y-85403428D02*
X129922819Y-85498666D01*
X129922819Y-85498666D02*
X129970438Y-85641523D01*
X129970438Y-85641523D02*
X130018057Y-85689142D01*
X130922819Y-86641523D02*
X130922819Y-86070095D01*
X130922819Y-86355809D02*
X129922819Y-86355809D01*
X129922819Y-86355809D02*
X130065676Y-86260571D01*
X130065676Y-86260571D02*
X130160914Y-86165333D01*
X130160914Y-86165333D02*
X130208533Y-86070095D01*
X129922819Y-87260571D02*
X129922819Y-87355809D01*
X129922819Y-87355809D02*
X129970438Y-87451047D01*
X129970438Y-87451047D02*
X130018057Y-87498666D01*
X130018057Y-87498666D02*
X130113295Y-87546285D01*
X130113295Y-87546285D02*
X130303771Y-87593904D01*
X130303771Y-87593904D02*
X130541866Y-87593904D01*
X130541866Y-87593904D02*
X130732342Y-87546285D01*
X130732342Y-87546285D02*
X130827580Y-87498666D01*
X130827580Y-87498666D02*
X130875200Y-87451047D01*
X130875200Y-87451047D02*
X130922819Y-87355809D01*
X130922819Y-87355809D02*
X130922819Y-87260571D01*
X130922819Y-87260571D02*
X130875200Y-87165333D01*
X130875200Y-87165333D02*
X130827580Y-87117714D01*
X130827580Y-87117714D02*
X130732342Y-87070095D01*
X130732342Y-87070095D02*
X130541866Y-87022476D01*
X130541866Y-87022476D02*
X130303771Y-87022476D01*
X130303771Y-87022476D02*
X130113295Y-87070095D01*
X130113295Y-87070095D02*
X130018057Y-87117714D01*
X130018057Y-87117714D02*
X129970438Y-87165333D01*
X129970438Y-87165333D02*
X129922819Y-87260571D01*
X107862666Y-121517580D02*
X107910285Y-121565200D01*
X107910285Y-121565200D02*
X108053142Y-121612819D01*
X108053142Y-121612819D02*
X108148380Y-121612819D01*
X108148380Y-121612819D02*
X108291237Y-121565200D01*
X108291237Y-121565200D02*
X108386475Y-121469961D01*
X108386475Y-121469961D02*
X108434094Y-121374723D01*
X108434094Y-121374723D02*
X108481713Y-121184247D01*
X108481713Y-121184247D02*
X108481713Y-121041390D01*
X108481713Y-121041390D02*
X108434094Y-120850914D01*
X108434094Y-120850914D02*
X108386475Y-120755676D01*
X108386475Y-120755676D02*
X108291237Y-120660438D01*
X108291237Y-120660438D02*
X108148380Y-120612819D01*
X108148380Y-120612819D02*
X108053142Y-120612819D01*
X108053142Y-120612819D02*
X107910285Y-120660438D01*
X107910285Y-120660438D02*
X107862666Y-120708057D01*
X107386475Y-121612819D02*
X107195999Y-121612819D01*
X107195999Y-121612819D02*
X107100761Y-121565200D01*
X107100761Y-121565200D02*
X107053142Y-121517580D01*
X107053142Y-121517580D02*
X106957904Y-121374723D01*
X106957904Y-121374723D02*
X106910285Y-121184247D01*
X106910285Y-121184247D02*
X106910285Y-120803295D01*
X106910285Y-120803295D02*
X106957904Y-120708057D01*
X106957904Y-120708057D02*
X107005523Y-120660438D01*
X107005523Y-120660438D02*
X107100761Y-120612819D01*
X107100761Y-120612819D02*
X107291237Y-120612819D01*
X107291237Y-120612819D02*
X107386475Y-120660438D01*
X107386475Y-120660438D02*
X107434094Y-120708057D01*
X107434094Y-120708057D02*
X107481713Y-120803295D01*
X107481713Y-120803295D02*
X107481713Y-121041390D01*
X107481713Y-121041390D02*
X107434094Y-121136628D01*
X107434094Y-121136628D02*
X107386475Y-121184247D01*
X107386475Y-121184247D02*
X107291237Y-121231866D01*
X107291237Y-121231866D02*
X107100761Y-121231866D01*
X107100761Y-121231866D02*
X107005523Y-121184247D01*
X107005523Y-121184247D02*
X106957904Y-121136628D01*
X106957904Y-121136628D02*
X106910285Y-121041390D01*
X131282857Y-80741580D02*
X131330476Y-80789200D01*
X131330476Y-80789200D02*
X131473333Y-80836819D01*
X131473333Y-80836819D02*
X131568571Y-80836819D01*
X131568571Y-80836819D02*
X131711428Y-80789200D01*
X131711428Y-80789200D02*
X131806666Y-80693961D01*
X131806666Y-80693961D02*
X131854285Y-80598723D01*
X131854285Y-80598723D02*
X131901904Y-80408247D01*
X131901904Y-80408247D02*
X131901904Y-80265390D01*
X131901904Y-80265390D02*
X131854285Y-80074914D01*
X131854285Y-80074914D02*
X131806666Y-79979676D01*
X131806666Y-79979676D02*
X131711428Y-79884438D01*
X131711428Y-79884438D02*
X131568571Y-79836819D01*
X131568571Y-79836819D02*
X131473333Y-79836819D01*
X131473333Y-79836819D02*
X131330476Y-79884438D01*
X131330476Y-79884438D02*
X131282857Y-79932057D01*
X130330476Y-80836819D02*
X130901904Y-80836819D01*
X130616190Y-80836819D02*
X130616190Y-79836819D01*
X130616190Y-79836819D02*
X130711428Y-79979676D01*
X130711428Y-79979676D02*
X130806666Y-80074914D01*
X130806666Y-80074914D02*
X130901904Y-80122533D01*
X129473333Y-79836819D02*
X129663809Y-79836819D01*
X129663809Y-79836819D02*
X129759047Y-79884438D01*
X129759047Y-79884438D02*
X129806666Y-79932057D01*
X129806666Y-79932057D02*
X129901904Y-80074914D01*
X129901904Y-80074914D02*
X129949523Y-80265390D01*
X129949523Y-80265390D02*
X129949523Y-80646342D01*
X129949523Y-80646342D02*
X129901904Y-80741580D01*
X129901904Y-80741580D02*
X129854285Y-80789200D01*
X129854285Y-80789200D02*
X129759047Y-80836819D01*
X129759047Y-80836819D02*
X129568571Y-80836819D01*
X129568571Y-80836819D02*
X129473333Y-80789200D01*
X129473333Y-80789200D02*
X129425714Y-80741580D01*
X129425714Y-80741580D02*
X129378095Y-80646342D01*
X129378095Y-80646342D02*
X129378095Y-80408247D01*
X129378095Y-80408247D02*
X129425714Y-80313009D01*
X129425714Y-80313009D02*
X129473333Y-80265390D01*
X129473333Y-80265390D02*
X129568571Y-80217771D01*
X129568571Y-80217771D02*
X129759047Y-80217771D01*
X129759047Y-80217771D02*
X129854285Y-80265390D01*
X129854285Y-80265390D02*
X129901904Y-80313009D01*
X129901904Y-80313009D02*
X129949523Y-80408247D01*
X134599580Y-80383142D02*
X134647200Y-80335523D01*
X134647200Y-80335523D02*
X134694819Y-80192666D01*
X134694819Y-80192666D02*
X134694819Y-80097428D01*
X134694819Y-80097428D02*
X134647200Y-79954571D01*
X134647200Y-79954571D02*
X134551961Y-79859333D01*
X134551961Y-79859333D02*
X134456723Y-79811714D01*
X134456723Y-79811714D02*
X134266247Y-79764095D01*
X134266247Y-79764095D02*
X134123390Y-79764095D01*
X134123390Y-79764095D02*
X133932914Y-79811714D01*
X133932914Y-79811714D02*
X133837676Y-79859333D01*
X133837676Y-79859333D02*
X133742438Y-79954571D01*
X133742438Y-79954571D02*
X133694819Y-80097428D01*
X133694819Y-80097428D02*
X133694819Y-80192666D01*
X133694819Y-80192666D02*
X133742438Y-80335523D01*
X133742438Y-80335523D02*
X133790057Y-80383142D01*
X133790057Y-80764095D02*
X133742438Y-80811714D01*
X133742438Y-80811714D02*
X133694819Y-80906952D01*
X133694819Y-80906952D02*
X133694819Y-81145047D01*
X133694819Y-81145047D02*
X133742438Y-81240285D01*
X133742438Y-81240285D02*
X133790057Y-81287904D01*
X133790057Y-81287904D02*
X133885295Y-81335523D01*
X133885295Y-81335523D02*
X133980533Y-81335523D01*
X133980533Y-81335523D02*
X134123390Y-81287904D01*
X134123390Y-81287904D02*
X134694819Y-80716476D01*
X134694819Y-80716476D02*
X134694819Y-81335523D01*
X133694819Y-81954571D02*
X133694819Y-82049809D01*
X133694819Y-82049809D02*
X133742438Y-82145047D01*
X133742438Y-82145047D02*
X133790057Y-82192666D01*
X133790057Y-82192666D02*
X133885295Y-82240285D01*
X133885295Y-82240285D02*
X134075771Y-82287904D01*
X134075771Y-82287904D02*
X134313866Y-82287904D01*
X134313866Y-82287904D02*
X134504342Y-82240285D01*
X134504342Y-82240285D02*
X134599580Y-82192666D01*
X134599580Y-82192666D02*
X134647200Y-82145047D01*
X134647200Y-82145047D02*
X134694819Y-82049809D01*
X134694819Y-82049809D02*
X134694819Y-81954571D01*
X134694819Y-81954571D02*
X134647200Y-81859333D01*
X134647200Y-81859333D02*
X134599580Y-81811714D01*
X134599580Y-81811714D02*
X134504342Y-81764095D01*
X134504342Y-81764095D02*
X134313866Y-81716476D01*
X134313866Y-81716476D02*
X134075771Y-81716476D01*
X134075771Y-81716476D02*
X133885295Y-81764095D01*
X133885295Y-81764095D02*
X133790057Y-81811714D01*
X133790057Y-81811714D02*
X133742438Y-81859333D01*
X133742438Y-81859333D02*
X133694819Y-81954571D01*
X177238819Y-71747142D02*
X176762628Y-71413809D01*
X177238819Y-71175714D02*
X176238819Y-71175714D01*
X176238819Y-71175714D02*
X176238819Y-71556666D01*
X176238819Y-71556666D02*
X176286438Y-71651904D01*
X176286438Y-71651904D02*
X176334057Y-71699523D01*
X176334057Y-71699523D02*
X176429295Y-71747142D01*
X176429295Y-71747142D02*
X176572152Y-71747142D01*
X176572152Y-71747142D02*
X176667390Y-71699523D01*
X176667390Y-71699523D02*
X176715009Y-71651904D01*
X176715009Y-71651904D02*
X176762628Y-71556666D01*
X176762628Y-71556666D02*
X176762628Y-71175714D01*
X176238819Y-72080476D02*
X176238819Y-72699523D01*
X176238819Y-72699523D02*
X176619771Y-72366190D01*
X176619771Y-72366190D02*
X176619771Y-72509047D01*
X176619771Y-72509047D02*
X176667390Y-72604285D01*
X176667390Y-72604285D02*
X176715009Y-72651904D01*
X176715009Y-72651904D02*
X176810247Y-72699523D01*
X176810247Y-72699523D02*
X177048342Y-72699523D01*
X177048342Y-72699523D02*
X177143580Y-72651904D01*
X177143580Y-72651904D02*
X177191200Y-72604285D01*
X177191200Y-72604285D02*
X177238819Y-72509047D01*
X177238819Y-72509047D02*
X177238819Y-72223333D01*
X177238819Y-72223333D02*
X177191200Y-72128095D01*
X177191200Y-72128095D02*
X177143580Y-72080476D01*
X176238819Y-73556666D02*
X176238819Y-73366190D01*
X176238819Y-73366190D02*
X176286438Y-73270952D01*
X176286438Y-73270952D02*
X176334057Y-73223333D01*
X176334057Y-73223333D02*
X176476914Y-73128095D01*
X176476914Y-73128095D02*
X176667390Y-73080476D01*
X176667390Y-73080476D02*
X177048342Y-73080476D01*
X177048342Y-73080476D02*
X177143580Y-73128095D01*
X177143580Y-73128095D02*
X177191200Y-73175714D01*
X177191200Y-73175714D02*
X177238819Y-73270952D01*
X177238819Y-73270952D02*
X177238819Y-73461428D01*
X177238819Y-73461428D02*
X177191200Y-73556666D01*
X177191200Y-73556666D02*
X177143580Y-73604285D01*
X177143580Y-73604285D02*
X177048342Y-73651904D01*
X177048342Y-73651904D02*
X176810247Y-73651904D01*
X176810247Y-73651904D02*
X176715009Y-73604285D01*
X176715009Y-73604285D02*
X176667390Y-73556666D01*
X176667390Y-73556666D02*
X176619771Y-73461428D01*
X176619771Y-73461428D02*
X176619771Y-73270952D01*
X176619771Y-73270952D02*
X176667390Y-73175714D01*
X176667390Y-73175714D02*
X176715009Y-73128095D01*
X176715009Y-73128095D02*
X176810247Y-73080476D01*
X174886857Y-68541580D02*
X174934476Y-68589200D01*
X174934476Y-68589200D02*
X175077333Y-68636819D01*
X175077333Y-68636819D02*
X175172571Y-68636819D01*
X175172571Y-68636819D02*
X175315428Y-68589200D01*
X175315428Y-68589200D02*
X175410666Y-68493961D01*
X175410666Y-68493961D02*
X175458285Y-68398723D01*
X175458285Y-68398723D02*
X175505904Y-68208247D01*
X175505904Y-68208247D02*
X175505904Y-68065390D01*
X175505904Y-68065390D02*
X175458285Y-67874914D01*
X175458285Y-67874914D02*
X175410666Y-67779676D01*
X175410666Y-67779676D02*
X175315428Y-67684438D01*
X175315428Y-67684438D02*
X175172571Y-67636819D01*
X175172571Y-67636819D02*
X175077333Y-67636819D01*
X175077333Y-67636819D02*
X174934476Y-67684438D01*
X174934476Y-67684438D02*
X174886857Y-67732057D01*
X173982095Y-67636819D02*
X174458285Y-67636819D01*
X174458285Y-67636819D02*
X174505904Y-68113009D01*
X174505904Y-68113009D02*
X174458285Y-68065390D01*
X174458285Y-68065390D02*
X174363047Y-68017771D01*
X174363047Y-68017771D02*
X174124952Y-68017771D01*
X174124952Y-68017771D02*
X174029714Y-68065390D01*
X174029714Y-68065390D02*
X173982095Y-68113009D01*
X173982095Y-68113009D02*
X173934476Y-68208247D01*
X173934476Y-68208247D02*
X173934476Y-68446342D01*
X173934476Y-68446342D02*
X173982095Y-68541580D01*
X173982095Y-68541580D02*
X174029714Y-68589200D01*
X174029714Y-68589200D02*
X174124952Y-68636819D01*
X174124952Y-68636819D02*
X174363047Y-68636819D01*
X174363047Y-68636819D02*
X174458285Y-68589200D01*
X174458285Y-68589200D02*
X174505904Y-68541580D01*
X173029714Y-67636819D02*
X173505904Y-67636819D01*
X173505904Y-67636819D02*
X173553523Y-68113009D01*
X173553523Y-68113009D02*
X173505904Y-68065390D01*
X173505904Y-68065390D02*
X173410666Y-68017771D01*
X173410666Y-68017771D02*
X173172571Y-68017771D01*
X173172571Y-68017771D02*
X173077333Y-68065390D01*
X173077333Y-68065390D02*
X173029714Y-68113009D01*
X173029714Y-68113009D02*
X172982095Y-68208247D01*
X172982095Y-68208247D02*
X172982095Y-68446342D01*
X172982095Y-68446342D02*
X173029714Y-68541580D01*
X173029714Y-68541580D02*
X173077333Y-68589200D01*
X173077333Y-68589200D02*
X173172571Y-68636819D01*
X173172571Y-68636819D02*
X173410666Y-68636819D01*
X173410666Y-68636819D02*
X173505904Y-68589200D01*
X173505904Y-68589200D02*
X173553523Y-68541580D01*
X125349580Y-76319142D02*
X125397200Y-76271523D01*
X125397200Y-76271523D02*
X125444819Y-76128666D01*
X125444819Y-76128666D02*
X125444819Y-76033428D01*
X125444819Y-76033428D02*
X125397200Y-75890571D01*
X125397200Y-75890571D02*
X125301961Y-75795333D01*
X125301961Y-75795333D02*
X125206723Y-75747714D01*
X125206723Y-75747714D02*
X125016247Y-75700095D01*
X125016247Y-75700095D02*
X124873390Y-75700095D01*
X124873390Y-75700095D02*
X124682914Y-75747714D01*
X124682914Y-75747714D02*
X124587676Y-75795333D01*
X124587676Y-75795333D02*
X124492438Y-75890571D01*
X124492438Y-75890571D02*
X124444819Y-76033428D01*
X124444819Y-76033428D02*
X124444819Y-76128666D01*
X124444819Y-76128666D02*
X124492438Y-76271523D01*
X124492438Y-76271523D02*
X124540057Y-76319142D01*
X124540057Y-76700095D02*
X124492438Y-76747714D01*
X124492438Y-76747714D02*
X124444819Y-76842952D01*
X124444819Y-76842952D02*
X124444819Y-77081047D01*
X124444819Y-77081047D02*
X124492438Y-77176285D01*
X124492438Y-77176285D02*
X124540057Y-77223904D01*
X124540057Y-77223904D02*
X124635295Y-77271523D01*
X124635295Y-77271523D02*
X124730533Y-77271523D01*
X124730533Y-77271523D02*
X124873390Y-77223904D01*
X124873390Y-77223904D02*
X125444819Y-76652476D01*
X125444819Y-76652476D02*
X125444819Y-77271523D01*
X124778152Y-78128666D02*
X125444819Y-78128666D01*
X124397200Y-77890571D02*
X125111485Y-77652476D01*
X125111485Y-77652476D02*
X125111485Y-78271523D01*
X149636857Y-82318580D02*
X149684476Y-82366200D01*
X149684476Y-82366200D02*
X149827333Y-82413819D01*
X149827333Y-82413819D02*
X149922571Y-82413819D01*
X149922571Y-82413819D02*
X150065428Y-82366200D01*
X150065428Y-82366200D02*
X150160666Y-82270961D01*
X150160666Y-82270961D02*
X150208285Y-82175723D01*
X150208285Y-82175723D02*
X150255904Y-81985247D01*
X150255904Y-81985247D02*
X150255904Y-81842390D01*
X150255904Y-81842390D02*
X150208285Y-81651914D01*
X150208285Y-81651914D02*
X150160666Y-81556676D01*
X150160666Y-81556676D02*
X150065428Y-81461438D01*
X150065428Y-81461438D02*
X149922571Y-81413819D01*
X149922571Y-81413819D02*
X149827333Y-81413819D01*
X149827333Y-81413819D02*
X149684476Y-81461438D01*
X149684476Y-81461438D02*
X149636857Y-81509057D01*
X148779714Y-81747152D02*
X148779714Y-82413819D01*
X149017809Y-81366200D02*
X149255904Y-82080485D01*
X149255904Y-82080485D02*
X148636857Y-82080485D01*
X148065428Y-81413819D02*
X147970190Y-81413819D01*
X147970190Y-81413819D02*
X147874952Y-81461438D01*
X147874952Y-81461438D02*
X147827333Y-81509057D01*
X147827333Y-81509057D02*
X147779714Y-81604295D01*
X147779714Y-81604295D02*
X147732095Y-81794771D01*
X147732095Y-81794771D02*
X147732095Y-82032866D01*
X147732095Y-82032866D02*
X147779714Y-82223342D01*
X147779714Y-82223342D02*
X147827333Y-82318580D01*
X147827333Y-82318580D02*
X147874952Y-82366200D01*
X147874952Y-82366200D02*
X147970190Y-82413819D01*
X147970190Y-82413819D02*
X148065428Y-82413819D01*
X148065428Y-82413819D02*
X148160666Y-82366200D01*
X148160666Y-82366200D02*
X148208285Y-82318580D01*
X148208285Y-82318580D02*
X148255904Y-82223342D01*
X148255904Y-82223342D02*
X148303523Y-82032866D01*
X148303523Y-82032866D02*
X148303523Y-81794771D01*
X148303523Y-81794771D02*
X148255904Y-81604295D01*
X148255904Y-81604295D02*
X148208285Y-81509057D01*
X148208285Y-81509057D02*
X148160666Y-81461438D01*
X148160666Y-81461438D02*
X148065428Y-81413819D01*
X98844419Y-107354666D02*
X98796800Y-107402285D01*
X98796800Y-107402285D02*
X98749180Y-107545142D01*
X98749180Y-107545142D02*
X98749180Y-107640380D01*
X98749180Y-107640380D02*
X98796800Y-107783237D01*
X98796800Y-107783237D02*
X98892038Y-107878475D01*
X98892038Y-107878475D02*
X98987276Y-107926094D01*
X98987276Y-107926094D02*
X99177752Y-107973713D01*
X99177752Y-107973713D02*
X99320609Y-107973713D01*
X99320609Y-107973713D02*
X99511085Y-107926094D01*
X99511085Y-107926094D02*
X99606323Y-107878475D01*
X99606323Y-107878475D02*
X99701561Y-107783237D01*
X99701561Y-107783237D02*
X99749180Y-107640380D01*
X99749180Y-107640380D02*
X99749180Y-107545142D01*
X99749180Y-107545142D02*
X99701561Y-107402285D01*
X99701561Y-107402285D02*
X99653942Y-107354666D01*
X99749180Y-106497523D02*
X99749180Y-106687999D01*
X99749180Y-106687999D02*
X99701561Y-106783237D01*
X99701561Y-106783237D02*
X99653942Y-106830856D01*
X99653942Y-106830856D02*
X99511085Y-106926094D01*
X99511085Y-106926094D02*
X99320609Y-106973713D01*
X99320609Y-106973713D02*
X98939657Y-106973713D01*
X98939657Y-106973713D02*
X98844419Y-106926094D01*
X98844419Y-106926094D02*
X98796800Y-106878475D01*
X98796800Y-106878475D02*
X98749180Y-106783237D01*
X98749180Y-106783237D02*
X98749180Y-106592761D01*
X98749180Y-106592761D02*
X98796800Y-106497523D01*
X98796800Y-106497523D02*
X98844419Y-106449904D01*
X98844419Y-106449904D02*
X98939657Y-106402285D01*
X98939657Y-106402285D02*
X99177752Y-106402285D01*
X99177752Y-106402285D02*
X99272990Y-106449904D01*
X99272990Y-106449904D02*
X99320609Y-106497523D01*
X99320609Y-106497523D02*
X99368228Y-106592761D01*
X99368228Y-106592761D02*
X99368228Y-106783237D01*
X99368228Y-106783237D02*
X99320609Y-106878475D01*
X99320609Y-106878475D02*
X99272990Y-106926094D01*
X99272990Y-106926094D02*
X99177752Y-106973713D01*
X176141142Y-86144419D02*
X176093523Y-86096800D01*
X176093523Y-86096800D02*
X175950666Y-86049180D01*
X175950666Y-86049180D02*
X175855428Y-86049180D01*
X175855428Y-86049180D02*
X175712571Y-86096800D01*
X175712571Y-86096800D02*
X175617333Y-86192038D01*
X175617333Y-86192038D02*
X175569714Y-86287276D01*
X175569714Y-86287276D02*
X175522095Y-86477752D01*
X175522095Y-86477752D02*
X175522095Y-86620609D01*
X175522095Y-86620609D02*
X175569714Y-86811085D01*
X175569714Y-86811085D02*
X175617333Y-86906323D01*
X175617333Y-86906323D02*
X175712571Y-87001561D01*
X175712571Y-87001561D02*
X175855428Y-87049180D01*
X175855428Y-87049180D02*
X175950666Y-87049180D01*
X175950666Y-87049180D02*
X176093523Y-87001561D01*
X176093523Y-87001561D02*
X176141142Y-86953942D01*
X176474476Y-87049180D02*
X177093523Y-87049180D01*
X177093523Y-87049180D02*
X176760190Y-86668228D01*
X176760190Y-86668228D02*
X176903047Y-86668228D01*
X176903047Y-86668228D02*
X176998285Y-86620609D01*
X176998285Y-86620609D02*
X177045904Y-86572990D01*
X177045904Y-86572990D02*
X177093523Y-86477752D01*
X177093523Y-86477752D02*
X177093523Y-86239657D01*
X177093523Y-86239657D02*
X177045904Y-86144419D01*
X177045904Y-86144419D02*
X176998285Y-86096800D01*
X176998285Y-86096800D02*
X176903047Y-86049180D01*
X176903047Y-86049180D02*
X176617333Y-86049180D01*
X176617333Y-86049180D02*
X176522095Y-86096800D01*
X176522095Y-86096800D02*
X176474476Y-86144419D01*
X177712571Y-87049180D02*
X177807809Y-87049180D01*
X177807809Y-87049180D02*
X177903047Y-87001561D01*
X177903047Y-87001561D02*
X177950666Y-86953942D01*
X177950666Y-86953942D02*
X177998285Y-86858704D01*
X177998285Y-86858704D02*
X178045904Y-86668228D01*
X178045904Y-86668228D02*
X178045904Y-86430133D01*
X178045904Y-86430133D02*
X177998285Y-86239657D01*
X177998285Y-86239657D02*
X177950666Y-86144419D01*
X177950666Y-86144419D02*
X177903047Y-86096800D01*
X177903047Y-86096800D02*
X177807809Y-86049180D01*
X177807809Y-86049180D02*
X177712571Y-86049180D01*
X177712571Y-86049180D02*
X177617333Y-86096800D01*
X177617333Y-86096800D02*
X177569714Y-86144419D01*
X177569714Y-86144419D02*
X177522095Y-86239657D01*
X177522095Y-86239657D02*
X177474476Y-86430133D01*
X177474476Y-86430133D02*
X177474476Y-86668228D01*
X177474476Y-86668228D02*
X177522095Y-86858704D01*
X177522095Y-86858704D02*
X177569714Y-86953942D01*
X177569714Y-86953942D02*
X177617333Y-87001561D01*
X177617333Y-87001561D02*
X177712571Y-87049180D01*
X137294857Y-80115580D02*
X137342476Y-80163200D01*
X137342476Y-80163200D02*
X137485333Y-80210819D01*
X137485333Y-80210819D02*
X137580571Y-80210819D01*
X137580571Y-80210819D02*
X137723428Y-80163200D01*
X137723428Y-80163200D02*
X137818666Y-80067961D01*
X137818666Y-80067961D02*
X137866285Y-79972723D01*
X137866285Y-79972723D02*
X137913904Y-79782247D01*
X137913904Y-79782247D02*
X137913904Y-79639390D01*
X137913904Y-79639390D02*
X137866285Y-79448914D01*
X137866285Y-79448914D02*
X137818666Y-79353676D01*
X137818666Y-79353676D02*
X137723428Y-79258438D01*
X137723428Y-79258438D02*
X137580571Y-79210819D01*
X137580571Y-79210819D02*
X137485333Y-79210819D01*
X137485333Y-79210819D02*
X137342476Y-79258438D01*
X137342476Y-79258438D02*
X137294857Y-79306057D01*
X136342476Y-80210819D02*
X136913904Y-80210819D01*
X136628190Y-80210819D02*
X136628190Y-79210819D01*
X136628190Y-79210819D02*
X136723428Y-79353676D01*
X136723428Y-79353676D02*
X136818666Y-79448914D01*
X136818666Y-79448914D02*
X136913904Y-79496533D01*
X135866285Y-80210819D02*
X135675809Y-80210819D01*
X135675809Y-80210819D02*
X135580571Y-80163200D01*
X135580571Y-80163200D02*
X135532952Y-80115580D01*
X135532952Y-80115580D02*
X135437714Y-79972723D01*
X135437714Y-79972723D02*
X135390095Y-79782247D01*
X135390095Y-79782247D02*
X135390095Y-79401295D01*
X135390095Y-79401295D02*
X135437714Y-79306057D01*
X135437714Y-79306057D02*
X135485333Y-79258438D01*
X135485333Y-79258438D02*
X135580571Y-79210819D01*
X135580571Y-79210819D02*
X135771047Y-79210819D01*
X135771047Y-79210819D02*
X135866285Y-79258438D01*
X135866285Y-79258438D02*
X135913904Y-79306057D01*
X135913904Y-79306057D02*
X135961523Y-79401295D01*
X135961523Y-79401295D02*
X135961523Y-79639390D01*
X135961523Y-79639390D02*
X135913904Y-79734628D01*
X135913904Y-79734628D02*
X135866285Y-79782247D01*
X135866285Y-79782247D02*
X135771047Y-79829866D01*
X135771047Y-79829866D02*
X135580571Y-79829866D01*
X135580571Y-79829866D02*
X135485333Y-79782247D01*
X135485333Y-79782247D02*
X135437714Y-79734628D01*
X135437714Y-79734628D02*
X135390095Y-79639390D01*
X127799580Y-77889142D02*
X127847200Y-77841523D01*
X127847200Y-77841523D02*
X127894819Y-77698666D01*
X127894819Y-77698666D02*
X127894819Y-77603428D01*
X127894819Y-77603428D02*
X127847200Y-77460571D01*
X127847200Y-77460571D02*
X127751961Y-77365333D01*
X127751961Y-77365333D02*
X127656723Y-77317714D01*
X127656723Y-77317714D02*
X127466247Y-77270095D01*
X127466247Y-77270095D02*
X127323390Y-77270095D01*
X127323390Y-77270095D02*
X127132914Y-77317714D01*
X127132914Y-77317714D02*
X127037676Y-77365333D01*
X127037676Y-77365333D02*
X126942438Y-77460571D01*
X126942438Y-77460571D02*
X126894819Y-77603428D01*
X126894819Y-77603428D02*
X126894819Y-77698666D01*
X126894819Y-77698666D02*
X126942438Y-77841523D01*
X126942438Y-77841523D02*
X126990057Y-77889142D01*
X127894819Y-78841523D02*
X127894819Y-78270095D01*
X127894819Y-78555809D02*
X126894819Y-78555809D01*
X126894819Y-78555809D02*
X127037676Y-78460571D01*
X127037676Y-78460571D02*
X127132914Y-78365333D01*
X127132914Y-78365333D02*
X127180533Y-78270095D01*
X126894819Y-79174857D02*
X126894819Y-79841523D01*
X126894819Y-79841523D02*
X127894819Y-79412952D01*
X142786419Y-96146857D02*
X142738800Y-96194476D01*
X142738800Y-96194476D02*
X142691180Y-96337333D01*
X142691180Y-96337333D02*
X142691180Y-96432571D01*
X142691180Y-96432571D02*
X142738800Y-96575428D01*
X142738800Y-96575428D02*
X142834038Y-96670666D01*
X142834038Y-96670666D02*
X142929276Y-96718285D01*
X142929276Y-96718285D02*
X143119752Y-96765904D01*
X143119752Y-96765904D02*
X143262609Y-96765904D01*
X143262609Y-96765904D02*
X143453085Y-96718285D01*
X143453085Y-96718285D02*
X143548323Y-96670666D01*
X143548323Y-96670666D02*
X143643561Y-96575428D01*
X143643561Y-96575428D02*
X143691180Y-96432571D01*
X143691180Y-96432571D02*
X143691180Y-96337333D01*
X143691180Y-96337333D02*
X143643561Y-96194476D01*
X143643561Y-96194476D02*
X143595942Y-96146857D01*
X143357847Y-95289714D02*
X142691180Y-95289714D01*
X143738800Y-95527809D02*
X143024514Y-95765904D01*
X143024514Y-95765904D02*
X143024514Y-95146857D01*
X142691180Y-94242095D02*
X142691180Y-94813523D01*
X142691180Y-94527809D02*
X143691180Y-94527809D01*
X143691180Y-94527809D02*
X143548323Y-94623047D01*
X143548323Y-94623047D02*
X143453085Y-94718285D01*
X143453085Y-94718285D02*
X143405466Y-94813523D01*
X176060419Y-78112857D02*
X176012800Y-78160476D01*
X176012800Y-78160476D02*
X175965180Y-78303333D01*
X175965180Y-78303333D02*
X175965180Y-78398571D01*
X175965180Y-78398571D02*
X176012800Y-78541428D01*
X176012800Y-78541428D02*
X176108038Y-78636666D01*
X176108038Y-78636666D02*
X176203276Y-78684285D01*
X176203276Y-78684285D02*
X176393752Y-78731904D01*
X176393752Y-78731904D02*
X176536609Y-78731904D01*
X176536609Y-78731904D02*
X176727085Y-78684285D01*
X176727085Y-78684285D02*
X176822323Y-78636666D01*
X176822323Y-78636666D02*
X176917561Y-78541428D01*
X176917561Y-78541428D02*
X176965180Y-78398571D01*
X176965180Y-78398571D02*
X176965180Y-78303333D01*
X176965180Y-78303333D02*
X176917561Y-78160476D01*
X176917561Y-78160476D02*
X176869942Y-78112857D01*
X176631847Y-77255714D02*
X175965180Y-77255714D01*
X177012800Y-77493809D02*
X176298514Y-77731904D01*
X176298514Y-77731904D02*
X176298514Y-77112857D01*
X176536609Y-76589047D02*
X176584228Y-76684285D01*
X176584228Y-76684285D02*
X176631847Y-76731904D01*
X176631847Y-76731904D02*
X176727085Y-76779523D01*
X176727085Y-76779523D02*
X176774704Y-76779523D01*
X176774704Y-76779523D02*
X176869942Y-76731904D01*
X176869942Y-76731904D02*
X176917561Y-76684285D01*
X176917561Y-76684285D02*
X176965180Y-76589047D01*
X176965180Y-76589047D02*
X176965180Y-76398571D01*
X176965180Y-76398571D02*
X176917561Y-76303333D01*
X176917561Y-76303333D02*
X176869942Y-76255714D01*
X176869942Y-76255714D02*
X176774704Y-76208095D01*
X176774704Y-76208095D02*
X176727085Y-76208095D01*
X176727085Y-76208095D02*
X176631847Y-76255714D01*
X176631847Y-76255714D02*
X176584228Y-76303333D01*
X176584228Y-76303333D02*
X176536609Y-76398571D01*
X176536609Y-76398571D02*
X176536609Y-76589047D01*
X176536609Y-76589047D02*
X176488990Y-76684285D01*
X176488990Y-76684285D02*
X176441371Y-76731904D01*
X176441371Y-76731904D02*
X176346133Y-76779523D01*
X176346133Y-76779523D02*
X176155657Y-76779523D01*
X176155657Y-76779523D02*
X176060419Y-76731904D01*
X176060419Y-76731904D02*
X176012800Y-76684285D01*
X176012800Y-76684285D02*
X175965180Y-76589047D01*
X175965180Y-76589047D02*
X175965180Y-76398571D01*
X175965180Y-76398571D02*
X176012800Y-76303333D01*
X176012800Y-76303333D02*
X176060419Y-76255714D01*
X176060419Y-76255714D02*
X176155657Y-76208095D01*
X176155657Y-76208095D02*
X176346133Y-76208095D01*
X176346133Y-76208095D02*
X176441371Y-76255714D01*
X176441371Y-76255714D02*
X176488990Y-76303333D01*
X176488990Y-76303333D02*
X176536609Y-76398571D01*
X129082857Y-83191580D02*
X129130476Y-83239200D01*
X129130476Y-83239200D02*
X129273333Y-83286819D01*
X129273333Y-83286819D02*
X129368571Y-83286819D01*
X129368571Y-83286819D02*
X129511428Y-83239200D01*
X129511428Y-83239200D02*
X129606666Y-83143961D01*
X129606666Y-83143961D02*
X129654285Y-83048723D01*
X129654285Y-83048723D02*
X129701904Y-82858247D01*
X129701904Y-82858247D02*
X129701904Y-82715390D01*
X129701904Y-82715390D02*
X129654285Y-82524914D01*
X129654285Y-82524914D02*
X129606666Y-82429676D01*
X129606666Y-82429676D02*
X129511428Y-82334438D01*
X129511428Y-82334438D02*
X129368571Y-82286819D01*
X129368571Y-82286819D02*
X129273333Y-82286819D01*
X129273333Y-82286819D02*
X129130476Y-82334438D01*
X129130476Y-82334438D02*
X129082857Y-82382057D01*
X128701904Y-82382057D02*
X128654285Y-82334438D01*
X128654285Y-82334438D02*
X128559047Y-82286819D01*
X128559047Y-82286819D02*
X128320952Y-82286819D01*
X128320952Y-82286819D02*
X128225714Y-82334438D01*
X128225714Y-82334438D02*
X128178095Y-82382057D01*
X128178095Y-82382057D02*
X128130476Y-82477295D01*
X128130476Y-82477295D02*
X128130476Y-82572533D01*
X128130476Y-82572533D02*
X128178095Y-82715390D01*
X128178095Y-82715390D02*
X128749523Y-83286819D01*
X128749523Y-83286819D02*
X128130476Y-83286819D01*
X127178095Y-83286819D02*
X127749523Y-83286819D01*
X127463809Y-83286819D02*
X127463809Y-82286819D01*
X127463809Y-82286819D02*
X127559047Y-82429676D01*
X127559047Y-82429676D02*
X127654285Y-82524914D01*
X127654285Y-82524914D02*
X127749523Y-82572533D01*
X99734666Y-97387580D02*
X99782285Y-97435200D01*
X99782285Y-97435200D02*
X99925142Y-97482819D01*
X99925142Y-97482819D02*
X100020380Y-97482819D01*
X100020380Y-97482819D02*
X100163237Y-97435200D01*
X100163237Y-97435200D02*
X100258475Y-97339961D01*
X100258475Y-97339961D02*
X100306094Y-97244723D01*
X100306094Y-97244723D02*
X100353713Y-97054247D01*
X100353713Y-97054247D02*
X100353713Y-96911390D01*
X100353713Y-96911390D02*
X100306094Y-96720914D01*
X100306094Y-96720914D02*
X100258475Y-96625676D01*
X100258475Y-96625676D02*
X100163237Y-96530438D01*
X100163237Y-96530438D02*
X100020380Y-96482819D01*
X100020380Y-96482819D02*
X99925142Y-96482819D01*
X99925142Y-96482819D02*
X99782285Y-96530438D01*
X99782285Y-96530438D02*
X99734666Y-96578057D01*
X99401332Y-96482819D02*
X98734666Y-96482819D01*
X98734666Y-96482819D02*
X99163237Y-97482819D01*
X125032857Y-75191580D02*
X125080476Y-75239200D01*
X125080476Y-75239200D02*
X125223333Y-75286819D01*
X125223333Y-75286819D02*
X125318571Y-75286819D01*
X125318571Y-75286819D02*
X125461428Y-75239200D01*
X125461428Y-75239200D02*
X125556666Y-75143961D01*
X125556666Y-75143961D02*
X125604285Y-75048723D01*
X125604285Y-75048723D02*
X125651904Y-74858247D01*
X125651904Y-74858247D02*
X125651904Y-74715390D01*
X125651904Y-74715390D02*
X125604285Y-74524914D01*
X125604285Y-74524914D02*
X125556666Y-74429676D01*
X125556666Y-74429676D02*
X125461428Y-74334438D01*
X125461428Y-74334438D02*
X125318571Y-74286819D01*
X125318571Y-74286819D02*
X125223333Y-74286819D01*
X125223333Y-74286819D02*
X125080476Y-74334438D01*
X125080476Y-74334438D02*
X125032857Y-74382057D01*
X124651904Y-74382057D02*
X124604285Y-74334438D01*
X124604285Y-74334438D02*
X124509047Y-74286819D01*
X124509047Y-74286819D02*
X124270952Y-74286819D01*
X124270952Y-74286819D02*
X124175714Y-74334438D01*
X124175714Y-74334438D02*
X124128095Y-74382057D01*
X124128095Y-74382057D02*
X124080476Y-74477295D01*
X124080476Y-74477295D02*
X124080476Y-74572533D01*
X124080476Y-74572533D02*
X124128095Y-74715390D01*
X124128095Y-74715390D02*
X124699523Y-75286819D01*
X124699523Y-75286819D02*
X124080476Y-75286819D01*
X123175714Y-74286819D02*
X123651904Y-74286819D01*
X123651904Y-74286819D02*
X123699523Y-74763009D01*
X123699523Y-74763009D02*
X123651904Y-74715390D01*
X123651904Y-74715390D02*
X123556666Y-74667771D01*
X123556666Y-74667771D02*
X123318571Y-74667771D01*
X123318571Y-74667771D02*
X123223333Y-74715390D01*
X123223333Y-74715390D02*
X123175714Y-74763009D01*
X123175714Y-74763009D02*
X123128095Y-74858247D01*
X123128095Y-74858247D02*
X123128095Y-75096342D01*
X123128095Y-75096342D02*
X123175714Y-75191580D01*
X123175714Y-75191580D02*
X123223333Y-75239200D01*
X123223333Y-75239200D02*
X123318571Y-75286819D01*
X123318571Y-75286819D02*
X123556666Y-75286819D01*
X123556666Y-75286819D02*
X123651904Y-75239200D01*
X123651904Y-75239200D02*
X123699523Y-75191580D01*
X148738419Y-78207857D02*
X148690800Y-78255476D01*
X148690800Y-78255476D02*
X148643180Y-78398333D01*
X148643180Y-78398333D02*
X148643180Y-78493571D01*
X148643180Y-78493571D02*
X148690800Y-78636428D01*
X148690800Y-78636428D02*
X148786038Y-78731666D01*
X148786038Y-78731666D02*
X148881276Y-78779285D01*
X148881276Y-78779285D02*
X149071752Y-78826904D01*
X149071752Y-78826904D02*
X149214609Y-78826904D01*
X149214609Y-78826904D02*
X149405085Y-78779285D01*
X149405085Y-78779285D02*
X149500323Y-78731666D01*
X149500323Y-78731666D02*
X149595561Y-78636428D01*
X149595561Y-78636428D02*
X149643180Y-78493571D01*
X149643180Y-78493571D02*
X149643180Y-78398333D01*
X149643180Y-78398333D02*
X149595561Y-78255476D01*
X149595561Y-78255476D02*
X149547942Y-78207857D01*
X149643180Y-77874523D02*
X149643180Y-77255476D01*
X149643180Y-77255476D02*
X149262228Y-77588809D01*
X149262228Y-77588809D02*
X149262228Y-77445952D01*
X149262228Y-77445952D02*
X149214609Y-77350714D01*
X149214609Y-77350714D02*
X149166990Y-77303095D01*
X149166990Y-77303095D02*
X149071752Y-77255476D01*
X149071752Y-77255476D02*
X148833657Y-77255476D01*
X148833657Y-77255476D02*
X148738419Y-77303095D01*
X148738419Y-77303095D02*
X148690800Y-77350714D01*
X148690800Y-77350714D02*
X148643180Y-77445952D01*
X148643180Y-77445952D02*
X148643180Y-77731666D01*
X148643180Y-77731666D02*
X148690800Y-77826904D01*
X148690800Y-77826904D02*
X148738419Y-77874523D01*
X148643180Y-76779285D02*
X148643180Y-76588809D01*
X148643180Y-76588809D02*
X148690800Y-76493571D01*
X148690800Y-76493571D02*
X148738419Y-76445952D01*
X148738419Y-76445952D02*
X148881276Y-76350714D01*
X148881276Y-76350714D02*
X149071752Y-76303095D01*
X149071752Y-76303095D02*
X149452704Y-76303095D01*
X149452704Y-76303095D02*
X149547942Y-76350714D01*
X149547942Y-76350714D02*
X149595561Y-76398333D01*
X149595561Y-76398333D02*
X149643180Y-76493571D01*
X149643180Y-76493571D02*
X149643180Y-76684047D01*
X149643180Y-76684047D02*
X149595561Y-76779285D01*
X149595561Y-76779285D02*
X149547942Y-76826904D01*
X149547942Y-76826904D02*
X149452704Y-76874523D01*
X149452704Y-76874523D02*
X149214609Y-76874523D01*
X149214609Y-76874523D02*
X149119371Y-76826904D01*
X149119371Y-76826904D02*
X149071752Y-76779285D01*
X149071752Y-76779285D02*
X149024133Y-76684047D01*
X149024133Y-76684047D02*
X149024133Y-76493571D01*
X149024133Y-76493571D02*
X149071752Y-76398333D01*
X149071752Y-76398333D02*
X149119371Y-76350714D01*
X149119371Y-76350714D02*
X149214609Y-76303095D01*
X134499580Y-74489142D02*
X134547200Y-74441523D01*
X134547200Y-74441523D02*
X134594819Y-74298666D01*
X134594819Y-74298666D02*
X134594819Y-74203428D01*
X134594819Y-74203428D02*
X134547200Y-74060571D01*
X134547200Y-74060571D02*
X134451961Y-73965333D01*
X134451961Y-73965333D02*
X134356723Y-73917714D01*
X134356723Y-73917714D02*
X134166247Y-73870095D01*
X134166247Y-73870095D02*
X134023390Y-73870095D01*
X134023390Y-73870095D02*
X133832914Y-73917714D01*
X133832914Y-73917714D02*
X133737676Y-73965333D01*
X133737676Y-73965333D02*
X133642438Y-74060571D01*
X133642438Y-74060571D02*
X133594819Y-74203428D01*
X133594819Y-74203428D02*
X133594819Y-74298666D01*
X133594819Y-74298666D02*
X133642438Y-74441523D01*
X133642438Y-74441523D02*
X133690057Y-74489142D01*
X134594819Y-75441523D02*
X134594819Y-74870095D01*
X134594819Y-75155809D02*
X133594819Y-75155809D01*
X133594819Y-75155809D02*
X133737676Y-75060571D01*
X133737676Y-75060571D02*
X133832914Y-74965333D01*
X133832914Y-74965333D02*
X133880533Y-74870095D01*
X134023390Y-76012952D02*
X133975771Y-75917714D01*
X133975771Y-75917714D02*
X133928152Y-75870095D01*
X133928152Y-75870095D02*
X133832914Y-75822476D01*
X133832914Y-75822476D02*
X133785295Y-75822476D01*
X133785295Y-75822476D02*
X133690057Y-75870095D01*
X133690057Y-75870095D02*
X133642438Y-75917714D01*
X133642438Y-75917714D02*
X133594819Y-76012952D01*
X133594819Y-76012952D02*
X133594819Y-76203428D01*
X133594819Y-76203428D02*
X133642438Y-76298666D01*
X133642438Y-76298666D02*
X133690057Y-76346285D01*
X133690057Y-76346285D02*
X133785295Y-76393904D01*
X133785295Y-76393904D02*
X133832914Y-76393904D01*
X133832914Y-76393904D02*
X133928152Y-76346285D01*
X133928152Y-76346285D02*
X133975771Y-76298666D01*
X133975771Y-76298666D02*
X134023390Y-76203428D01*
X134023390Y-76203428D02*
X134023390Y-76012952D01*
X134023390Y-76012952D02*
X134071009Y-75917714D01*
X134071009Y-75917714D02*
X134118628Y-75870095D01*
X134118628Y-75870095D02*
X134213866Y-75822476D01*
X134213866Y-75822476D02*
X134404342Y-75822476D01*
X134404342Y-75822476D02*
X134499580Y-75870095D01*
X134499580Y-75870095D02*
X134547200Y-75917714D01*
X134547200Y-75917714D02*
X134594819Y-76012952D01*
X134594819Y-76012952D02*
X134594819Y-76203428D01*
X134594819Y-76203428D02*
X134547200Y-76298666D01*
X134547200Y-76298666D02*
X134499580Y-76346285D01*
X134499580Y-76346285D02*
X134404342Y-76393904D01*
X134404342Y-76393904D02*
X134213866Y-76393904D01*
X134213866Y-76393904D02*
X134118628Y-76346285D01*
X134118628Y-76346285D02*
X134071009Y-76298666D01*
X134071009Y-76298666D02*
X134023390Y-76203428D01*
X115370419Y-65944857D02*
X115322800Y-65992476D01*
X115322800Y-65992476D02*
X115275180Y-66135333D01*
X115275180Y-66135333D02*
X115275180Y-66230571D01*
X115275180Y-66230571D02*
X115322800Y-66373428D01*
X115322800Y-66373428D02*
X115418038Y-66468666D01*
X115418038Y-66468666D02*
X115513276Y-66516285D01*
X115513276Y-66516285D02*
X115703752Y-66563904D01*
X115703752Y-66563904D02*
X115846609Y-66563904D01*
X115846609Y-66563904D02*
X116037085Y-66516285D01*
X116037085Y-66516285D02*
X116132323Y-66468666D01*
X116132323Y-66468666D02*
X116227561Y-66373428D01*
X116227561Y-66373428D02*
X116275180Y-66230571D01*
X116275180Y-66230571D02*
X116275180Y-66135333D01*
X116275180Y-66135333D02*
X116227561Y-65992476D01*
X116227561Y-65992476D02*
X116179942Y-65944857D01*
X116275180Y-65611523D02*
X116275180Y-64992476D01*
X116275180Y-64992476D02*
X115894228Y-65325809D01*
X115894228Y-65325809D02*
X115894228Y-65182952D01*
X115894228Y-65182952D02*
X115846609Y-65087714D01*
X115846609Y-65087714D02*
X115798990Y-65040095D01*
X115798990Y-65040095D02*
X115703752Y-64992476D01*
X115703752Y-64992476D02*
X115465657Y-64992476D01*
X115465657Y-64992476D02*
X115370419Y-65040095D01*
X115370419Y-65040095D02*
X115322800Y-65087714D01*
X115322800Y-65087714D02*
X115275180Y-65182952D01*
X115275180Y-65182952D02*
X115275180Y-65468666D01*
X115275180Y-65468666D02*
X115322800Y-65563904D01*
X115322800Y-65563904D02*
X115370419Y-65611523D01*
X115941847Y-64135333D02*
X115275180Y-64135333D01*
X116322800Y-64373428D02*
X115608514Y-64611523D01*
X115608514Y-64611523D02*
X115608514Y-63992476D01*
X142277857Y-72028580D02*
X142325476Y-72076200D01*
X142325476Y-72076200D02*
X142468333Y-72123819D01*
X142468333Y-72123819D02*
X142563571Y-72123819D01*
X142563571Y-72123819D02*
X142706428Y-72076200D01*
X142706428Y-72076200D02*
X142801666Y-71980961D01*
X142801666Y-71980961D02*
X142849285Y-71885723D01*
X142849285Y-71885723D02*
X142896904Y-71695247D01*
X142896904Y-71695247D02*
X142896904Y-71552390D01*
X142896904Y-71552390D02*
X142849285Y-71361914D01*
X142849285Y-71361914D02*
X142801666Y-71266676D01*
X142801666Y-71266676D02*
X142706428Y-71171438D01*
X142706428Y-71171438D02*
X142563571Y-71123819D01*
X142563571Y-71123819D02*
X142468333Y-71123819D01*
X142468333Y-71123819D02*
X142325476Y-71171438D01*
X142325476Y-71171438D02*
X142277857Y-71219057D01*
X141944523Y-71123819D02*
X141325476Y-71123819D01*
X141325476Y-71123819D02*
X141658809Y-71504771D01*
X141658809Y-71504771D02*
X141515952Y-71504771D01*
X141515952Y-71504771D02*
X141420714Y-71552390D01*
X141420714Y-71552390D02*
X141373095Y-71600009D01*
X141373095Y-71600009D02*
X141325476Y-71695247D01*
X141325476Y-71695247D02*
X141325476Y-71933342D01*
X141325476Y-71933342D02*
X141373095Y-72028580D01*
X141373095Y-72028580D02*
X141420714Y-72076200D01*
X141420714Y-72076200D02*
X141515952Y-72123819D01*
X141515952Y-72123819D02*
X141801666Y-72123819D01*
X141801666Y-72123819D02*
X141896904Y-72076200D01*
X141896904Y-72076200D02*
X141944523Y-72028580D01*
X140944523Y-71219057D02*
X140896904Y-71171438D01*
X140896904Y-71171438D02*
X140801666Y-71123819D01*
X140801666Y-71123819D02*
X140563571Y-71123819D01*
X140563571Y-71123819D02*
X140468333Y-71171438D01*
X140468333Y-71171438D02*
X140420714Y-71219057D01*
X140420714Y-71219057D02*
X140373095Y-71314295D01*
X140373095Y-71314295D02*
X140373095Y-71409533D01*
X140373095Y-71409533D02*
X140420714Y-71552390D01*
X140420714Y-71552390D02*
X140992142Y-72123819D01*
X140992142Y-72123819D02*
X140373095Y-72123819D01*
X160345142Y-107226419D02*
X160297523Y-107178800D01*
X160297523Y-107178800D02*
X160154666Y-107131180D01*
X160154666Y-107131180D02*
X160059428Y-107131180D01*
X160059428Y-107131180D02*
X159916571Y-107178800D01*
X159916571Y-107178800D02*
X159821333Y-107274038D01*
X159821333Y-107274038D02*
X159773714Y-107369276D01*
X159773714Y-107369276D02*
X159726095Y-107559752D01*
X159726095Y-107559752D02*
X159726095Y-107702609D01*
X159726095Y-107702609D02*
X159773714Y-107893085D01*
X159773714Y-107893085D02*
X159821333Y-107988323D01*
X159821333Y-107988323D02*
X159916571Y-108083561D01*
X159916571Y-108083561D02*
X160059428Y-108131180D01*
X160059428Y-108131180D02*
X160154666Y-108131180D01*
X160154666Y-108131180D02*
X160297523Y-108083561D01*
X160297523Y-108083561D02*
X160345142Y-108035942D01*
X161249904Y-108131180D02*
X160773714Y-108131180D01*
X160773714Y-108131180D02*
X160726095Y-107654990D01*
X160726095Y-107654990D02*
X160773714Y-107702609D01*
X160773714Y-107702609D02*
X160868952Y-107750228D01*
X160868952Y-107750228D02*
X161107047Y-107750228D01*
X161107047Y-107750228D02*
X161202285Y-107702609D01*
X161202285Y-107702609D02*
X161249904Y-107654990D01*
X161249904Y-107654990D02*
X161297523Y-107559752D01*
X161297523Y-107559752D02*
X161297523Y-107321657D01*
X161297523Y-107321657D02*
X161249904Y-107226419D01*
X161249904Y-107226419D02*
X161202285Y-107178800D01*
X161202285Y-107178800D02*
X161107047Y-107131180D01*
X161107047Y-107131180D02*
X160868952Y-107131180D01*
X160868952Y-107131180D02*
X160773714Y-107178800D01*
X160773714Y-107178800D02*
X160726095Y-107226419D01*
X162154666Y-107797847D02*
X162154666Y-107131180D01*
X161916571Y-108178800D02*
X161678476Y-107464514D01*
X161678476Y-107464514D02*
X162297523Y-107464514D01*
X161644819Y-61333142D02*
X161168628Y-60999809D01*
X161644819Y-60761714D02*
X160644819Y-60761714D01*
X160644819Y-60761714D02*
X160644819Y-61142666D01*
X160644819Y-61142666D02*
X160692438Y-61237904D01*
X160692438Y-61237904D02*
X160740057Y-61285523D01*
X160740057Y-61285523D02*
X160835295Y-61333142D01*
X160835295Y-61333142D02*
X160978152Y-61333142D01*
X160978152Y-61333142D02*
X161073390Y-61285523D01*
X161073390Y-61285523D02*
X161121009Y-61237904D01*
X161121009Y-61237904D02*
X161168628Y-61142666D01*
X161168628Y-61142666D02*
X161168628Y-60761714D01*
X161644819Y-62285523D02*
X161644819Y-61714095D01*
X161644819Y-61999809D02*
X160644819Y-61999809D01*
X160644819Y-61999809D02*
X160787676Y-61904571D01*
X160787676Y-61904571D02*
X160882914Y-61809333D01*
X160882914Y-61809333D02*
X160930533Y-61714095D01*
X160644819Y-62904571D02*
X160644819Y-62999809D01*
X160644819Y-62999809D02*
X160692438Y-63095047D01*
X160692438Y-63095047D02*
X160740057Y-63142666D01*
X160740057Y-63142666D02*
X160835295Y-63190285D01*
X160835295Y-63190285D02*
X161025771Y-63237904D01*
X161025771Y-63237904D02*
X161263866Y-63237904D01*
X161263866Y-63237904D02*
X161454342Y-63190285D01*
X161454342Y-63190285D02*
X161549580Y-63142666D01*
X161549580Y-63142666D02*
X161597200Y-63095047D01*
X161597200Y-63095047D02*
X161644819Y-62999809D01*
X161644819Y-62999809D02*
X161644819Y-62904571D01*
X161644819Y-62904571D02*
X161597200Y-62809333D01*
X161597200Y-62809333D02*
X161549580Y-62761714D01*
X161549580Y-62761714D02*
X161454342Y-62714095D01*
X161454342Y-62714095D02*
X161263866Y-62666476D01*
X161263866Y-62666476D02*
X161025771Y-62666476D01*
X161025771Y-62666476D02*
X160835295Y-62714095D01*
X160835295Y-62714095D02*
X160740057Y-62761714D01*
X160740057Y-62761714D02*
X160692438Y-62809333D01*
X160692438Y-62809333D02*
X160644819Y-62904571D01*
X131452857Y-62684819D02*
X131786190Y-62208628D01*
X132024285Y-62684819D02*
X132024285Y-61684819D01*
X132024285Y-61684819D02*
X131643333Y-61684819D01*
X131643333Y-61684819D02*
X131548095Y-61732438D01*
X131548095Y-61732438D02*
X131500476Y-61780057D01*
X131500476Y-61780057D02*
X131452857Y-61875295D01*
X131452857Y-61875295D02*
X131452857Y-62018152D01*
X131452857Y-62018152D02*
X131500476Y-62113390D01*
X131500476Y-62113390D02*
X131548095Y-62161009D01*
X131548095Y-62161009D02*
X131643333Y-62208628D01*
X131643333Y-62208628D02*
X132024285Y-62208628D01*
X130500476Y-62684819D02*
X131071904Y-62684819D01*
X130786190Y-62684819D02*
X130786190Y-61684819D01*
X130786190Y-61684819D02*
X130881428Y-61827676D01*
X130881428Y-61827676D02*
X130976666Y-61922914D01*
X130976666Y-61922914D02*
X131071904Y-61970533D01*
X130024285Y-62684819D02*
X129833809Y-62684819D01*
X129833809Y-62684819D02*
X129738571Y-62637200D01*
X129738571Y-62637200D02*
X129690952Y-62589580D01*
X129690952Y-62589580D02*
X129595714Y-62446723D01*
X129595714Y-62446723D02*
X129548095Y-62256247D01*
X129548095Y-62256247D02*
X129548095Y-61875295D01*
X129548095Y-61875295D02*
X129595714Y-61780057D01*
X129595714Y-61780057D02*
X129643333Y-61732438D01*
X129643333Y-61732438D02*
X129738571Y-61684819D01*
X129738571Y-61684819D02*
X129929047Y-61684819D01*
X129929047Y-61684819D02*
X130024285Y-61732438D01*
X130024285Y-61732438D02*
X130071904Y-61780057D01*
X130071904Y-61780057D02*
X130119523Y-61875295D01*
X130119523Y-61875295D02*
X130119523Y-62113390D01*
X130119523Y-62113390D02*
X130071904Y-62208628D01*
X130071904Y-62208628D02*
X130024285Y-62256247D01*
X130024285Y-62256247D02*
X129929047Y-62303866D01*
X129929047Y-62303866D02*
X129738571Y-62303866D01*
X129738571Y-62303866D02*
X129643333Y-62256247D01*
X129643333Y-62256247D02*
X129595714Y-62208628D01*
X129595714Y-62208628D02*
X129548095Y-62113390D01*
X143136857Y-99414819D02*
X143470190Y-98938628D01*
X143708285Y-99414819D02*
X143708285Y-98414819D01*
X143708285Y-98414819D02*
X143327333Y-98414819D01*
X143327333Y-98414819D02*
X143232095Y-98462438D01*
X143232095Y-98462438D02*
X143184476Y-98510057D01*
X143184476Y-98510057D02*
X143136857Y-98605295D01*
X143136857Y-98605295D02*
X143136857Y-98748152D01*
X143136857Y-98748152D02*
X143184476Y-98843390D01*
X143184476Y-98843390D02*
X143232095Y-98891009D01*
X143232095Y-98891009D02*
X143327333Y-98938628D01*
X143327333Y-98938628D02*
X143708285Y-98938628D01*
X142755904Y-98510057D02*
X142708285Y-98462438D01*
X142708285Y-98462438D02*
X142613047Y-98414819D01*
X142613047Y-98414819D02*
X142374952Y-98414819D01*
X142374952Y-98414819D02*
X142279714Y-98462438D01*
X142279714Y-98462438D02*
X142232095Y-98510057D01*
X142232095Y-98510057D02*
X142184476Y-98605295D01*
X142184476Y-98605295D02*
X142184476Y-98700533D01*
X142184476Y-98700533D02*
X142232095Y-98843390D01*
X142232095Y-98843390D02*
X142803523Y-99414819D01*
X142803523Y-99414819D02*
X142184476Y-99414819D01*
X141851142Y-98414819D02*
X141232095Y-98414819D01*
X141232095Y-98414819D02*
X141565428Y-98795771D01*
X141565428Y-98795771D02*
X141422571Y-98795771D01*
X141422571Y-98795771D02*
X141327333Y-98843390D01*
X141327333Y-98843390D02*
X141279714Y-98891009D01*
X141279714Y-98891009D02*
X141232095Y-98986247D01*
X141232095Y-98986247D02*
X141232095Y-99224342D01*
X141232095Y-99224342D02*
X141279714Y-99319580D01*
X141279714Y-99319580D02*
X141327333Y-99367200D01*
X141327333Y-99367200D02*
X141422571Y-99414819D01*
X141422571Y-99414819D02*
X141708285Y-99414819D01*
X141708285Y-99414819D02*
X141803523Y-99367200D01*
X141803523Y-99367200D02*
X141851142Y-99319580D01*
X122830419Y-80144857D02*
X122782800Y-80192476D01*
X122782800Y-80192476D02*
X122735180Y-80335333D01*
X122735180Y-80335333D02*
X122735180Y-80430571D01*
X122735180Y-80430571D02*
X122782800Y-80573428D01*
X122782800Y-80573428D02*
X122878038Y-80668666D01*
X122878038Y-80668666D02*
X122973276Y-80716285D01*
X122973276Y-80716285D02*
X123163752Y-80763904D01*
X123163752Y-80763904D02*
X123306609Y-80763904D01*
X123306609Y-80763904D02*
X123497085Y-80716285D01*
X123497085Y-80716285D02*
X123592323Y-80668666D01*
X123592323Y-80668666D02*
X123687561Y-80573428D01*
X123687561Y-80573428D02*
X123735180Y-80430571D01*
X123735180Y-80430571D02*
X123735180Y-80335333D01*
X123735180Y-80335333D02*
X123687561Y-80192476D01*
X123687561Y-80192476D02*
X123639942Y-80144857D01*
X123639942Y-79763904D02*
X123687561Y-79716285D01*
X123687561Y-79716285D02*
X123735180Y-79621047D01*
X123735180Y-79621047D02*
X123735180Y-79382952D01*
X123735180Y-79382952D02*
X123687561Y-79287714D01*
X123687561Y-79287714D02*
X123639942Y-79240095D01*
X123639942Y-79240095D02*
X123544704Y-79192476D01*
X123544704Y-79192476D02*
X123449466Y-79192476D01*
X123449466Y-79192476D02*
X123306609Y-79240095D01*
X123306609Y-79240095D02*
X122735180Y-79811523D01*
X122735180Y-79811523D02*
X122735180Y-79192476D01*
X123735180Y-78859142D02*
X123735180Y-78240095D01*
X123735180Y-78240095D02*
X123354228Y-78573428D01*
X123354228Y-78573428D02*
X123354228Y-78430571D01*
X123354228Y-78430571D02*
X123306609Y-78335333D01*
X123306609Y-78335333D02*
X123258990Y-78287714D01*
X123258990Y-78287714D02*
X123163752Y-78240095D01*
X123163752Y-78240095D02*
X122925657Y-78240095D01*
X122925657Y-78240095D02*
X122830419Y-78287714D01*
X122830419Y-78287714D02*
X122782800Y-78335333D01*
X122782800Y-78335333D02*
X122735180Y-78430571D01*
X122735180Y-78430571D02*
X122735180Y-78716285D01*
X122735180Y-78716285D02*
X122782800Y-78811523D01*
X122782800Y-78811523D02*
X122830419Y-78859142D01*
X148470857Y-99514819D02*
X148804190Y-99038628D01*
X149042285Y-99514819D02*
X149042285Y-98514819D01*
X149042285Y-98514819D02*
X148661333Y-98514819D01*
X148661333Y-98514819D02*
X148566095Y-98562438D01*
X148566095Y-98562438D02*
X148518476Y-98610057D01*
X148518476Y-98610057D02*
X148470857Y-98705295D01*
X148470857Y-98705295D02*
X148470857Y-98848152D01*
X148470857Y-98848152D02*
X148518476Y-98943390D01*
X148518476Y-98943390D02*
X148566095Y-98991009D01*
X148566095Y-98991009D02*
X148661333Y-99038628D01*
X148661333Y-99038628D02*
X149042285Y-99038628D01*
X148089904Y-98610057D02*
X148042285Y-98562438D01*
X148042285Y-98562438D02*
X147947047Y-98514819D01*
X147947047Y-98514819D02*
X147708952Y-98514819D01*
X147708952Y-98514819D02*
X147613714Y-98562438D01*
X147613714Y-98562438D02*
X147566095Y-98610057D01*
X147566095Y-98610057D02*
X147518476Y-98705295D01*
X147518476Y-98705295D02*
X147518476Y-98800533D01*
X147518476Y-98800533D02*
X147566095Y-98943390D01*
X147566095Y-98943390D02*
X148137523Y-99514819D01*
X148137523Y-99514819D02*
X147518476Y-99514819D01*
X146566095Y-99514819D02*
X147137523Y-99514819D01*
X146851809Y-99514819D02*
X146851809Y-98514819D01*
X146851809Y-98514819D02*
X146947047Y-98657676D01*
X146947047Y-98657676D02*
X147042285Y-98752914D01*
X147042285Y-98752914D02*
X147137523Y-98800533D01*
X179270819Y-70731142D02*
X178794628Y-70397809D01*
X179270819Y-70159714D02*
X178270819Y-70159714D01*
X178270819Y-70159714D02*
X178270819Y-70540666D01*
X178270819Y-70540666D02*
X178318438Y-70635904D01*
X178318438Y-70635904D02*
X178366057Y-70683523D01*
X178366057Y-70683523D02*
X178461295Y-70731142D01*
X178461295Y-70731142D02*
X178604152Y-70731142D01*
X178604152Y-70731142D02*
X178699390Y-70683523D01*
X178699390Y-70683523D02*
X178747009Y-70635904D01*
X178747009Y-70635904D02*
X178794628Y-70540666D01*
X178794628Y-70540666D02*
X178794628Y-70159714D01*
X178270819Y-71064476D02*
X178270819Y-71683523D01*
X178270819Y-71683523D02*
X178651771Y-71350190D01*
X178651771Y-71350190D02*
X178651771Y-71493047D01*
X178651771Y-71493047D02*
X178699390Y-71588285D01*
X178699390Y-71588285D02*
X178747009Y-71635904D01*
X178747009Y-71635904D02*
X178842247Y-71683523D01*
X178842247Y-71683523D02*
X179080342Y-71683523D01*
X179080342Y-71683523D02*
X179175580Y-71635904D01*
X179175580Y-71635904D02*
X179223200Y-71588285D01*
X179223200Y-71588285D02*
X179270819Y-71493047D01*
X179270819Y-71493047D02*
X179270819Y-71207333D01*
X179270819Y-71207333D02*
X179223200Y-71112095D01*
X179223200Y-71112095D02*
X179175580Y-71064476D01*
X178604152Y-72540666D02*
X179270819Y-72540666D01*
X178223200Y-72302571D02*
X178937485Y-72064476D01*
X178937485Y-72064476D02*
X178937485Y-72683523D01*
X148470857Y-96879580D02*
X148518476Y-96927200D01*
X148518476Y-96927200D02*
X148661333Y-96974819D01*
X148661333Y-96974819D02*
X148756571Y-96974819D01*
X148756571Y-96974819D02*
X148899428Y-96927200D01*
X148899428Y-96927200D02*
X148994666Y-96831961D01*
X148994666Y-96831961D02*
X149042285Y-96736723D01*
X149042285Y-96736723D02*
X149089904Y-96546247D01*
X149089904Y-96546247D02*
X149089904Y-96403390D01*
X149089904Y-96403390D02*
X149042285Y-96212914D01*
X149042285Y-96212914D02*
X148994666Y-96117676D01*
X148994666Y-96117676D02*
X148899428Y-96022438D01*
X148899428Y-96022438D02*
X148756571Y-95974819D01*
X148756571Y-95974819D02*
X148661333Y-95974819D01*
X148661333Y-95974819D02*
X148518476Y-96022438D01*
X148518476Y-96022438D02*
X148470857Y-96070057D01*
X147613714Y-96308152D02*
X147613714Y-96974819D01*
X147851809Y-95927200D02*
X148089904Y-96641485D01*
X148089904Y-96641485D02*
X147470857Y-96641485D01*
X147137523Y-96070057D02*
X147089904Y-96022438D01*
X147089904Y-96022438D02*
X146994666Y-95974819D01*
X146994666Y-95974819D02*
X146756571Y-95974819D01*
X146756571Y-95974819D02*
X146661333Y-96022438D01*
X146661333Y-96022438D02*
X146613714Y-96070057D01*
X146613714Y-96070057D02*
X146566095Y-96165295D01*
X146566095Y-96165295D02*
X146566095Y-96260533D01*
X146566095Y-96260533D02*
X146613714Y-96403390D01*
X146613714Y-96403390D02*
X147185142Y-96974819D01*
X147185142Y-96974819D02*
X146566095Y-96974819D01*
X147104419Y-113704666D02*
X147056800Y-113752285D01*
X147056800Y-113752285D02*
X147009180Y-113895142D01*
X147009180Y-113895142D02*
X147009180Y-113990380D01*
X147009180Y-113990380D02*
X147056800Y-114133237D01*
X147056800Y-114133237D02*
X147152038Y-114228475D01*
X147152038Y-114228475D02*
X147247276Y-114276094D01*
X147247276Y-114276094D02*
X147437752Y-114323713D01*
X147437752Y-114323713D02*
X147580609Y-114323713D01*
X147580609Y-114323713D02*
X147771085Y-114276094D01*
X147771085Y-114276094D02*
X147866323Y-114228475D01*
X147866323Y-114228475D02*
X147961561Y-114133237D01*
X147961561Y-114133237D02*
X148009180Y-113990380D01*
X148009180Y-113990380D02*
X148009180Y-113895142D01*
X148009180Y-113895142D02*
X147961561Y-113752285D01*
X147961561Y-113752285D02*
X147913942Y-113704666D01*
X147913942Y-113323713D02*
X147961561Y-113276094D01*
X147961561Y-113276094D02*
X148009180Y-113180856D01*
X148009180Y-113180856D02*
X148009180Y-112942761D01*
X148009180Y-112942761D02*
X147961561Y-112847523D01*
X147961561Y-112847523D02*
X147913942Y-112799904D01*
X147913942Y-112799904D02*
X147818704Y-112752285D01*
X147818704Y-112752285D02*
X147723466Y-112752285D01*
X147723466Y-112752285D02*
X147580609Y-112799904D01*
X147580609Y-112799904D02*
X147009180Y-113371332D01*
X147009180Y-113371332D02*
X147009180Y-112752285D01*
X160619857Y-90639580D02*
X160667476Y-90687200D01*
X160667476Y-90687200D02*
X160810333Y-90734819D01*
X160810333Y-90734819D02*
X160905571Y-90734819D01*
X160905571Y-90734819D02*
X161048428Y-90687200D01*
X161048428Y-90687200D02*
X161143666Y-90591961D01*
X161143666Y-90591961D02*
X161191285Y-90496723D01*
X161191285Y-90496723D02*
X161238904Y-90306247D01*
X161238904Y-90306247D02*
X161238904Y-90163390D01*
X161238904Y-90163390D02*
X161191285Y-89972914D01*
X161191285Y-89972914D02*
X161143666Y-89877676D01*
X161143666Y-89877676D02*
X161048428Y-89782438D01*
X161048428Y-89782438D02*
X160905571Y-89734819D01*
X160905571Y-89734819D02*
X160810333Y-89734819D01*
X160810333Y-89734819D02*
X160667476Y-89782438D01*
X160667476Y-89782438D02*
X160619857Y-89830057D01*
X159762714Y-90068152D02*
X159762714Y-90734819D01*
X160000809Y-89687200D02*
X160238904Y-90401485D01*
X160238904Y-90401485D02*
X159619857Y-90401485D01*
X159334142Y-89734819D02*
X158667476Y-89734819D01*
X158667476Y-89734819D02*
X159096047Y-90734819D01*
X142277857Y-70504580D02*
X142325476Y-70552200D01*
X142325476Y-70552200D02*
X142468333Y-70599819D01*
X142468333Y-70599819D02*
X142563571Y-70599819D01*
X142563571Y-70599819D02*
X142706428Y-70552200D01*
X142706428Y-70552200D02*
X142801666Y-70456961D01*
X142801666Y-70456961D02*
X142849285Y-70361723D01*
X142849285Y-70361723D02*
X142896904Y-70171247D01*
X142896904Y-70171247D02*
X142896904Y-70028390D01*
X142896904Y-70028390D02*
X142849285Y-69837914D01*
X142849285Y-69837914D02*
X142801666Y-69742676D01*
X142801666Y-69742676D02*
X142706428Y-69647438D01*
X142706428Y-69647438D02*
X142563571Y-69599819D01*
X142563571Y-69599819D02*
X142468333Y-69599819D01*
X142468333Y-69599819D02*
X142325476Y-69647438D01*
X142325476Y-69647438D02*
X142277857Y-69695057D01*
X141944523Y-69599819D02*
X141325476Y-69599819D01*
X141325476Y-69599819D02*
X141658809Y-69980771D01*
X141658809Y-69980771D02*
X141515952Y-69980771D01*
X141515952Y-69980771D02*
X141420714Y-70028390D01*
X141420714Y-70028390D02*
X141373095Y-70076009D01*
X141373095Y-70076009D02*
X141325476Y-70171247D01*
X141325476Y-70171247D02*
X141325476Y-70409342D01*
X141325476Y-70409342D02*
X141373095Y-70504580D01*
X141373095Y-70504580D02*
X141420714Y-70552200D01*
X141420714Y-70552200D02*
X141515952Y-70599819D01*
X141515952Y-70599819D02*
X141801666Y-70599819D01*
X141801666Y-70599819D02*
X141896904Y-70552200D01*
X141896904Y-70552200D02*
X141944523Y-70504580D01*
X140420714Y-69599819D02*
X140896904Y-69599819D01*
X140896904Y-69599819D02*
X140944523Y-70076009D01*
X140944523Y-70076009D02*
X140896904Y-70028390D01*
X140896904Y-70028390D02*
X140801666Y-69980771D01*
X140801666Y-69980771D02*
X140563571Y-69980771D01*
X140563571Y-69980771D02*
X140468333Y-70028390D01*
X140468333Y-70028390D02*
X140420714Y-70076009D01*
X140420714Y-70076009D02*
X140373095Y-70171247D01*
X140373095Y-70171247D02*
X140373095Y-70409342D01*
X140373095Y-70409342D02*
X140420714Y-70504580D01*
X140420714Y-70504580D02*
X140468333Y-70552200D01*
X140468333Y-70552200D02*
X140563571Y-70599819D01*
X140563571Y-70599819D02*
X140801666Y-70599819D01*
X140801666Y-70599819D02*
X140896904Y-70552200D01*
X140896904Y-70552200D02*
X140944523Y-70504580D01*
X132099580Y-76889142D02*
X132147200Y-76841523D01*
X132147200Y-76841523D02*
X132194819Y-76698666D01*
X132194819Y-76698666D02*
X132194819Y-76603428D01*
X132194819Y-76603428D02*
X132147200Y-76460571D01*
X132147200Y-76460571D02*
X132051961Y-76365333D01*
X132051961Y-76365333D02*
X131956723Y-76317714D01*
X131956723Y-76317714D02*
X131766247Y-76270095D01*
X131766247Y-76270095D02*
X131623390Y-76270095D01*
X131623390Y-76270095D02*
X131432914Y-76317714D01*
X131432914Y-76317714D02*
X131337676Y-76365333D01*
X131337676Y-76365333D02*
X131242438Y-76460571D01*
X131242438Y-76460571D02*
X131194819Y-76603428D01*
X131194819Y-76603428D02*
X131194819Y-76698666D01*
X131194819Y-76698666D02*
X131242438Y-76841523D01*
X131242438Y-76841523D02*
X131290057Y-76889142D01*
X132194819Y-77841523D02*
X132194819Y-77270095D01*
X132194819Y-77555809D02*
X131194819Y-77555809D01*
X131194819Y-77555809D02*
X131337676Y-77460571D01*
X131337676Y-77460571D02*
X131432914Y-77365333D01*
X131432914Y-77365333D02*
X131480533Y-77270095D01*
X131194819Y-78746285D02*
X131194819Y-78270095D01*
X131194819Y-78270095D02*
X131671009Y-78222476D01*
X131671009Y-78222476D02*
X131623390Y-78270095D01*
X131623390Y-78270095D02*
X131575771Y-78365333D01*
X131575771Y-78365333D02*
X131575771Y-78603428D01*
X131575771Y-78603428D02*
X131623390Y-78698666D01*
X131623390Y-78698666D02*
X131671009Y-78746285D01*
X131671009Y-78746285D02*
X131766247Y-78793904D01*
X131766247Y-78793904D02*
X132004342Y-78793904D01*
X132004342Y-78793904D02*
X132099580Y-78746285D01*
X132099580Y-78746285D02*
X132147200Y-78698666D01*
X132147200Y-78698666D02*
X132194819Y-78603428D01*
X132194819Y-78603428D02*
X132194819Y-78365333D01*
X132194819Y-78365333D02*
X132147200Y-78270095D01*
X132147200Y-78270095D02*
X132099580Y-78222476D01*
X148470857Y-98244819D02*
X148804190Y-97768628D01*
X149042285Y-98244819D02*
X149042285Y-97244819D01*
X149042285Y-97244819D02*
X148661333Y-97244819D01*
X148661333Y-97244819D02*
X148566095Y-97292438D01*
X148566095Y-97292438D02*
X148518476Y-97340057D01*
X148518476Y-97340057D02*
X148470857Y-97435295D01*
X148470857Y-97435295D02*
X148470857Y-97578152D01*
X148470857Y-97578152D02*
X148518476Y-97673390D01*
X148518476Y-97673390D02*
X148566095Y-97721009D01*
X148566095Y-97721009D02*
X148661333Y-97768628D01*
X148661333Y-97768628D02*
X149042285Y-97768628D01*
X148089904Y-97340057D02*
X148042285Y-97292438D01*
X148042285Y-97292438D02*
X147947047Y-97244819D01*
X147947047Y-97244819D02*
X147708952Y-97244819D01*
X147708952Y-97244819D02*
X147613714Y-97292438D01*
X147613714Y-97292438D02*
X147566095Y-97340057D01*
X147566095Y-97340057D02*
X147518476Y-97435295D01*
X147518476Y-97435295D02*
X147518476Y-97530533D01*
X147518476Y-97530533D02*
X147566095Y-97673390D01*
X147566095Y-97673390D02*
X148137523Y-98244819D01*
X148137523Y-98244819D02*
X147518476Y-98244819D01*
X147137523Y-97340057D02*
X147089904Y-97292438D01*
X147089904Y-97292438D02*
X146994666Y-97244819D01*
X146994666Y-97244819D02*
X146756571Y-97244819D01*
X146756571Y-97244819D02*
X146661333Y-97292438D01*
X146661333Y-97292438D02*
X146613714Y-97340057D01*
X146613714Y-97340057D02*
X146566095Y-97435295D01*
X146566095Y-97435295D02*
X146566095Y-97530533D01*
X146566095Y-97530533D02*
X146613714Y-97673390D01*
X146613714Y-97673390D02*
X147185142Y-98244819D01*
X147185142Y-98244819D02*
X146566095Y-98244819D01*
X103544666Y-69955580D02*
X103592285Y-70003200D01*
X103592285Y-70003200D02*
X103735142Y-70050819D01*
X103735142Y-70050819D02*
X103830380Y-70050819D01*
X103830380Y-70050819D02*
X103973237Y-70003200D01*
X103973237Y-70003200D02*
X104068475Y-69907961D01*
X104068475Y-69907961D02*
X104116094Y-69812723D01*
X104116094Y-69812723D02*
X104163713Y-69622247D01*
X104163713Y-69622247D02*
X104163713Y-69479390D01*
X104163713Y-69479390D02*
X104116094Y-69288914D01*
X104116094Y-69288914D02*
X104068475Y-69193676D01*
X104068475Y-69193676D02*
X103973237Y-69098438D01*
X103973237Y-69098438D02*
X103830380Y-69050819D01*
X103830380Y-69050819D02*
X103735142Y-69050819D01*
X103735142Y-69050819D02*
X103592285Y-69098438D01*
X103592285Y-69098438D02*
X103544666Y-69146057D01*
X102639904Y-69050819D02*
X103116094Y-69050819D01*
X103116094Y-69050819D02*
X103163713Y-69527009D01*
X103163713Y-69527009D02*
X103116094Y-69479390D01*
X103116094Y-69479390D02*
X103020856Y-69431771D01*
X103020856Y-69431771D02*
X102782761Y-69431771D01*
X102782761Y-69431771D02*
X102687523Y-69479390D01*
X102687523Y-69479390D02*
X102639904Y-69527009D01*
X102639904Y-69527009D02*
X102592285Y-69622247D01*
X102592285Y-69622247D02*
X102592285Y-69860342D01*
X102592285Y-69860342D02*
X102639904Y-69955580D01*
X102639904Y-69955580D02*
X102687523Y-70003200D01*
X102687523Y-70003200D02*
X102782761Y-70050819D01*
X102782761Y-70050819D02*
X103020856Y-70050819D01*
X103020856Y-70050819D02*
X103116094Y-70003200D01*
X103116094Y-70003200D02*
X103163713Y-69955580D01*
X111467580Y-72223333D02*
X111515200Y-72175714D01*
X111515200Y-72175714D02*
X111562819Y-72032857D01*
X111562819Y-72032857D02*
X111562819Y-71937619D01*
X111562819Y-71937619D02*
X111515200Y-71794762D01*
X111515200Y-71794762D02*
X111419961Y-71699524D01*
X111419961Y-71699524D02*
X111324723Y-71651905D01*
X111324723Y-71651905D02*
X111134247Y-71604286D01*
X111134247Y-71604286D02*
X110991390Y-71604286D01*
X110991390Y-71604286D02*
X110800914Y-71651905D01*
X110800914Y-71651905D02*
X110705676Y-71699524D01*
X110705676Y-71699524D02*
X110610438Y-71794762D01*
X110610438Y-71794762D02*
X110562819Y-71937619D01*
X110562819Y-71937619D02*
X110562819Y-72032857D01*
X110562819Y-72032857D02*
X110610438Y-72175714D01*
X110610438Y-72175714D02*
X110658057Y-72223333D01*
X110896152Y-73080476D02*
X111562819Y-73080476D01*
X110515200Y-72842381D02*
X111229485Y-72604286D01*
X111229485Y-72604286D02*
X111229485Y-73223333D01*
X113149142Y-62546419D02*
X113101523Y-62498800D01*
X113101523Y-62498800D02*
X112958666Y-62451180D01*
X112958666Y-62451180D02*
X112863428Y-62451180D01*
X112863428Y-62451180D02*
X112720571Y-62498800D01*
X112720571Y-62498800D02*
X112625333Y-62594038D01*
X112625333Y-62594038D02*
X112577714Y-62689276D01*
X112577714Y-62689276D02*
X112530095Y-62879752D01*
X112530095Y-62879752D02*
X112530095Y-63022609D01*
X112530095Y-63022609D02*
X112577714Y-63213085D01*
X112577714Y-63213085D02*
X112625333Y-63308323D01*
X112625333Y-63308323D02*
X112720571Y-63403561D01*
X112720571Y-63403561D02*
X112863428Y-63451180D01*
X112863428Y-63451180D02*
X112958666Y-63451180D01*
X112958666Y-63451180D02*
X113101523Y-63403561D01*
X113101523Y-63403561D02*
X113149142Y-63355942D01*
X113482476Y-63451180D02*
X114101523Y-63451180D01*
X114101523Y-63451180D02*
X113768190Y-63070228D01*
X113768190Y-63070228D02*
X113911047Y-63070228D01*
X113911047Y-63070228D02*
X114006285Y-63022609D01*
X114006285Y-63022609D02*
X114053904Y-62974990D01*
X114053904Y-62974990D02*
X114101523Y-62879752D01*
X114101523Y-62879752D02*
X114101523Y-62641657D01*
X114101523Y-62641657D02*
X114053904Y-62546419D01*
X114053904Y-62546419D02*
X114006285Y-62498800D01*
X114006285Y-62498800D02*
X113911047Y-62451180D01*
X113911047Y-62451180D02*
X113625333Y-62451180D01*
X113625333Y-62451180D02*
X113530095Y-62498800D01*
X113530095Y-62498800D02*
X113482476Y-62546419D01*
X114434857Y-63451180D02*
X115053904Y-63451180D01*
X115053904Y-63451180D02*
X114720571Y-63070228D01*
X114720571Y-63070228D02*
X114863428Y-63070228D01*
X114863428Y-63070228D02*
X114958666Y-63022609D01*
X114958666Y-63022609D02*
X115006285Y-62974990D01*
X115006285Y-62974990D02*
X115053904Y-62879752D01*
X115053904Y-62879752D02*
X115053904Y-62641657D01*
X115053904Y-62641657D02*
X115006285Y-62546419D01*
X115006285Y-62546419D02*
X114958666Y-62498800D01*
X114958666Y-62498800D02*
X114863428Y-62451180D01*
X114863428Y-62451180D02*
X114577714Y-62451180D01*
X114577714Y-62451180D02*
X114482476Y-62498800D01*
X114482476Y-62498800D02*
X114434857Y-62546419D01*
X187078857Y-69796819D02*
X187412190Y-69320628D01*
X187650285Y-69796819D02*
X187650285Y-68796819D01*
X187650285Y-68796819D02*
X187269333Y-68796819D01*
X187269333Y-68796819D02*
X187174095Y-68844438D01*
X187174095Y-68844438D02*
X187126476Y-68892057D01*
X187126476Y-68892057D02*
X187078857Y-68987295D01*
X187078857Y-68987295D02*
X187078857Y-69130152D01*
X187078857Y-69130152D02*
X187126476Y-69225390D01*
X187126476Y-69225390D02*
X187174095Y-69273009D01*
X187174095Y-69273009D02*
X187269333Y-69320628D01*
X187269333Y-69320628D02*
X187650285Y-69320628D01*
X186745523Y-68796819D02*
X186126476Y-68796819D01*
X186126476Y-68796819D02*
X186459809Y-69177771D01*
X186459809Y-69177771D02*
X186316952Y-69177771D01*
X186316952Y-69177771D02*
X186221714Y-69225390D01*
X186221714Y-69225390D02*
X186174095Y-69273009D01*
X186174095Y-69273009D02*
X186126476Y-69368247D01*
X186126476Y-69368247D02*
X186126476Y-69606342D01*
X186126476Y-69606342D02*
X186174095Y-69701580D01*
X186174095Y-69701580D02*
X186221714Y-69749200D01*
X186221714Y-69749200D02*
X186316952Y-69796819D01*
X186316952Y-69796819D02*
X186602666Y-69796819D01*
X186602666Y-69796819D02*
X186697904Y-69749200D01*
X186697904Y-69749200D02*
X186745523Y-69701580D01*
X185221714Y-68796819D02*
X185697904Y-68796819D01*
X185697904Y-68796819D02*
X185745523Y-69273009D01*
X185745523Y-69273009D02*
X185697904Y-69225390D01*
X185697904Y-69225390D02*
X185602666Y-69177771D01*
X185602666Y-69177771D02*
X185364571Y-69177771D01*
X185364571Y-69177771D02*
X185269333Y-69225390D01*
X185269333Y-69225390D02*
X185221714Y-69273009D01*
X185221714Y-69273009D02*
X185174095Y-69368247D01*
X185174095Y-69368247D02*
X185174095Y-69606342D01*
X185174095Y-69606342D02*
X185221714Y-69701580D01*
X185221714Y-69701580D02*
X185269333Y-69749200D01*
X185269333Y-69749200D02*
X185364571Y-69796819D01*
X185364571Y-69796819D02*
X185602666Y-69796819D01*
X185602666Y-69796819D02*
X185697904Y-69749200D01*
X185697904Y-69749200D02*
X185745523Y-69701580D01*
X129932857Y-73891580D02*
X129980476Y-73939200D01*
X129980476Y-73939200D02*
X130123333Y-73986819D01*
X130123333Y-73986819D02*
X130218571Y-73986819D01*
X130218571Y-73986819D02*
X130361428Y-73939200D01*
X130361428Y-73939200D02*
X130456666Y-73843961D01*
X130456666Y-73843961D02*
X130504285Y-73748723D01*
X130504285Y-73748723D02*
X130551904Y-73558247D01*
X130551904Y-73558247D02*
X130551904Y-73415390D01*
X130551904Y-73415390D02*
X130504285Y-73224914D01*
X130504285Y-73224914D02*
X130456666Y-73129676D01*
X130456666Y-73129676D02*
X130361428Y-73034438D01*
X130361428Y-73034438D02*
X130218571Y-72986819D01*
X130218571Y-72986819D02*
X130123333Y-72986819D01*
X130123333Y-72986819D02*
X129980476Y-73034438D01*
X129980476Y-73034438D02*
X129932857Y-73082057D01*
X129551904Y-73082057D02*
X129504285Y-73034438D01*
X129504285Y-73034438D02*
X129409047Y-72986819D01*
X129409047Y-72986819D02*
X129170952Y-72986819D01*
X129170952Y-72986819D02*
X129075714Y-73034438D01*
X129075714Y-73034438D02*
X129028095Y-73082057D01*
X129028095Y-73082057D02*
X128980476Y-73177295D01*
X128980476Y-73177295D02*
X128980476Y-73272533D01*
X128980476Y-73272533D02*
X129028095Y-73415390D01*
X129028095Y-73415390D02*
X129599523Y-73986819D01*
X129599523Y-73986819D02*
X128980476Y-73986819D01*
X128123333Y-72986819D02*
X128313809Y-72986819D01*
X128313809Y-72986819D02*
X128409047Y-73034438D01*
X128409047Y-73034438D02*
X128456666Y-73082057D01*
X128456666Y-73082057D02*
X128551904Y-73224914D01*
X128551904Y-73224914D02*
X128599523Y-73415390D01*
X128599523Y-73415390D02*
X128599523Y-73796342D01*
X128599523Y-73796342D02*
X128551904Y-73891580D01*
X128551904Y-73891580D02*
X128504285Y-73939200D01*
X128504285Y-73939200D02*
X128409047Y-73986819D01*
X128409047Y-73986819D02*
X128218571Y-73986819D01*
X128218571Y-73986819D02*
X128123333Y-73939200D01*
X128123333Y-73939200D02*
X128075714Y-73891580D01*
X128075714Y-73891580D02*
X128028095Y-73796342D01*
X128028095Y-73796342D02*
X128028095Y-73558247D01*
X128028095Y-73558247D02*
X128075714Y-73463009D01*
X128075714Y-73463009D02*
X128123333Y-73415390D01*
X128123333Y-73415390D02*
X128218571Y-73367771D01*
X128218571Y-73367771D02*
X128409047Y-73367771D01*
X128409047Y-73367771D02*
X128504285Y-73415390D01*
X128504285Y-73415390D02*
X128551904Y-73463009D01*
X128551904Y-73463009D02*
X128599523Y-73558247D01*
X104542419Y-131738666D02*
X104494800Y-131786285D01*
X104494800Y-131786285D02*
X104447180Y-131929142D01*
X104447180Y-131929142D02*
X104447180Y-132024380D01*
X104447180Y-132024380D02*
X104494800Y-132167237D01*
X104494800Y-132167237D02*
X104590038Y-132262475D01*
X104590038Y-132262475D02*
X104685276Y-132310094D01*
X104685276Y-132310094D02*
X104875752Y-132357713D01*
X104875752Y-132357713D02*
X105018609Y-132357713D01*
X105018609Y-132357713D02*
X105209085Y-132310094D01*
X105209085Y-132310094D02*
X105304323Y-132262475D01*
X105304323Y-132262475D02*
X105399561Y-132167237D01*
X105399561Y-132167237D02*
X105447180Y-132024380D01*
X105447180Y-132024380D02*
X105447180Y-131929142D01*
X105447180Y-131929142D02*
X105399561Y-131786285D01*
X105399561Y-131786285D02*
X105351942Y-131738666D01*
X105018609Y-131167237D02*
X105066228Y-131262475D01*
X105066228Y-131262475D02*
X105113847Y-131310094D01*
X105113847Y-131310094D02*
X105209085Y-131357713D01*
X105209085Y-131357713D02*
X105256704Y-131357713D01*
X105256704Y-131357713D02*
X105351942Y-131310094D01*
X105351942Y-131310094D02*
X105399561Y-131262475D01*
X105399561Y-131262475D02*
X105447180Y-131167237D01*
X105447180Y-131167237D02*
X105447180Y-130976761D01*
X105447180Y-130976761D02*
X105399561Y-130881523D01*
X105399561Y-130881523D02*
X105351942Y-130833904D01*
X105351942Y-130833904D02*
X105256704Y-130786285D01*
X105256704Y-130786285D02*
X105209085Y-130786285D01*
X105209085Y-130786285D02*
X105113847Y-130833904D01*
X105113847Y-130833904D02*
X105066228Y-130881523D01*
X105066228Y-130881523D02*
X105018609Y-130976761D01*
X105018609Y-130976761D02*
X105018609Y-131167237D01*
X105018609Y-131167237D02*
X104970990Y-131262475D01*
X104970990Y-131262475D02*
X104923371Y-131310094D01*
X104923371Y-131310094D02*
X104828133Y-131357713D01*
X104828133Y-131357713D02*
X104637657Y-131357713D01*
X104637657Y-131357713D02*
X104542419Y-131310094D01*
X104542419Y-131310094D02*
X104494800Y-131262475D01*
X104494800Y-131262475D02*
X104447180Y-131167237D01*
X104447180Y-131167237D02*
X104447180Y-130976761D01*
X104447180Y-130976761D02*
X104494800Y-130881523D01*
X104494800Y-130881523D02*
X104542419Y-130833904D01*
X104542419Y-130833904D02*
X104637657Y-130786285D01*
X104637657Y-130786285D02*
X104828133Y-130786285D01*
X104828133Y-130786285D02*
X104923371Y-130833904D01*
X104923371Y-130833904D02*
X104970990Y-130881523D01*
X104970990Y-130881523D02*
X105018609Y-130976761D01*
X124632857Y-81941580D02*
X124680476Y-81989200D01*
X124680476Y-81989200D02*
X124823333Y-82036819D01*
X124823333Y-82036819D02*
X124918571Y-82036819D01*
X124918571Y-82036819D02*
X125061428Y-81989200D01*
X125061428Y-81989200D02*
X125156666Y-81893961D01*
X125156666Y-81893961D02*
X125204285Y-81798723D01*
X125204285Y-81798723D02*
X125251904Y-81608247D01*
X125251904Y-81608247D02*
X125251904Y-81465390D01*
X125251904Y-81465390D02*
X125204285Y-81274914D01*
X125204285Y-81274914D02*
X125156666Y-81179676D01*
X125156666Y-81179676D02*
X125061428Y-81084438D01*
X125061428Y-81084438D02*
X124918571Y-81036819D01*
X124918571Y-81036819D02*
X124823333Y-81036819D01*
X124823333Y-81036819D02*
X124680476Y-81084438D01*
X124680476Y-81084438D02*
X124632857Y-81132057D01*
X124251904Y-81132057D02*
X124204285Y-81084438D01*
X124204285Y-81084438D02*
X124109047Y-81036819D01*
X124109047Y-81036819D02*
X123870952Y-81036819D01*
X123870952Y-81036819D02*
X123775714Y-81084438D01*
X123775714Y-81084438D02*
X123728095Y-81132057D01*
X123728095Y-81132057D02*
X123680476Y-81227295D01*
X123680476Y-81227295D02*
X123680476Y-81322533D01*
X123680476Y-81322533D02*
X123728095Y-81465390D01*
X123728095Y-81465390D02*
X124299523Y-82036819D01*
X124299523Y-82036819D02*
X123680476Y-82036819D01*
X123299523Y-81132057D02*
X123251904Y-81084438D01*
X123251904Y-81084438D02*
X123156666Y-81036819D01*
X123156666Y-81036819D02*
X122918571Y-81036819D01*
X122918571Y-81036819D02*
X122823333Y-81084438D01*
X122823333Y-81084438D02*
X122775714Y-81132057D01*
X122775714Y-81132057D02*
X122728095Y-81227295D01*
X122728095Y-81227295D02*
X122728095Y-81322533D01*
X122728095Y-81322533D02*
X122775714Y-81465390D01*
X122775714Y-81465390D02*
X123347142Y-82036819D01*
X123347142Y-82036819D02*
X122728095Y-82036819D01*
%TO.C,C1*%
D11*
X153056000Y-103231836D02*
X153056000Y-103016164D01*
X153776000Y-103231836D02*
X153776000Y-103016164D01*
%TO.C,R20*%
X128423641Y-63120000D02*
X128116359Y-63120000D01*
X128423641Y-63880000D02*
X128116359Y-63880000D01*
%TO.C,C3*%
X135235836Y-95906000D02*
X135020164Y-95906000D01*
X135235836Y-96626000D02*
X135020164Y-96626000D01*
%TO.C,C10*%
X128926000Y-86224164D02*
X128926000Y-86439836D01*
X129646000Y-86224164D02*
X129646000Y-86439836D01*
%TO.C,C9*%
X107588164Y-122068000D02*
X107803836Y-122068000D01*
X107588164Y-122788000D02*
X107803836Y-122788000D01*
%TO.C,C16*%
X130532164Y-81222000D02*
X130747836Y-81222000D01*
X130532164Y-81942000D02*
X130747836Y-81942000D01*
%TO.C,C20*%
X132530000Y-81133836D02*
X132530000Y-80918164D01*
X133250000Y-81133836D02*
X133250000Y-80918164D01*
%TO.C,R36*%
X176404000Y-69696359D02*
X176404000Y-70003641D01*
X177164000Y-69696359D02*
X177164000Y-70003641D01*
%TO.C,C55*%
X174351836Y-68982000D02*
X174136164Y-68982000D01*
X174351836Y-69702000D02*
X174136164Y-69702000D01*
%TO.C,C24*%
X125830000Y-76424164D02*
X125830000Y-76639836D01*
X126550000Y-76424164D02*
X126550000Y-76639836D01*
%TO.C,C40*%
X151745836Y-81599000D02*
X151530164Y-81599000D01*
X151745836Y-82319000D02*
X151530164Y-82319000D01*
%TO.C,C6*%
X97684000Y-107295836D02*
X97684000Y-107080164D01*
X98404000Y-107295836D02*
X98404000Y-107080164D01*
%TO.C,C30*%
X176676164Y-84984000D02*
X176891836Y-84984000D01*
X176676164Y-85704000D02*
X176891836Y-85704000D01*
%TO.C,C19*%
X136482164Y-78072000D02*
X136697836Y-78072000D01*
X136482164Y-78792000D02*
X136697836Y-78792000D01*
%TO.C,C17*%
X125830000Y-78424164D02*
X125830000Y-78639836D01*
X126550000Y-78424164D02*
X126550000Y-78639836D01*
%TO.C,C41*%
X141626000Y-95611836D02*
X141626000Y-95396164D01*
X142346000Y-95611836D02*
X142346000Y-95396164D01*
%TO.C,C48*%
X174900000Y-77577836D02*
X174900000Y-77362164D01*
X175620000Y-77577836D02*
X175620000Y-77362164D01*
%TO.C,C21*%
X128547836Y-81222000D02*
X128332164Y-81222000D01*
X128547836Y-81942000D02*
X128332164Y-81942000D01*
%TO.C,C7*%
X99460164Y-97938000D02*
X99675836Y-97938000D01*
X99460164Y-98658000D02*
X99675836Y-98658000D01*
%TO.C,C25*%
X126947836Y-74472000D02*
X126732164Y-74472000D01*
X126947836Y-75192000D02*
X126732164Y-75192000D01*
%TO.C,C39*%
X148738000Y-80316836D02*
X148738000Y-80101164D01*
X149458000Y-80316836D02*
X149458000Y-80101164D01*
%TO.C,C18*%
X132530000Y-75024164D02*
X132530000Y-75239836D01*
X133250000Y-75024164D02*
X133250000Y-75239836D01*
%TO.C,C34*%
X113790000Y-65442580D02*
X113790000Y-65161420D01*
X114810000Y-65442580D02*
X114810000Y-65161420D01*
%TO.C,C32*%
X144823580Y-71159000D02*
X144542420Y-71159000D01*
X144823580Y-72179000D02*
X144542420Y-72179000D01*
%TO.C,C54*%
X160880164Y-106066000D02*
X161095836Y-106066000D01*
X160880164Y-106786000D02*
X161095836Y-106786000D01*
%TO.C,R10*%
X159640000Y-62129641D02*
X159640000Y-61822359D01*
X160400000Y-62129641D02*
X160400000Y-61822359D01*
%TO.C,R19*%
X130148359Y-63120000D02*
X130455641Y-63120000D01*
X130148359Y-63880000D02*
X130455641Y-63880000D01*
%TO.C,R23*%
X142340359Y-97410000D02*
X142647641Y-97410000D01*
X142340359Y-98170000D02*
X142647641Y-98170000D01*
%TO.C,C23*%
X124100000Y-79609836D02*
X124100000Y-79394164D01*
X124820000Y-79609836D02*
X124820000Y-79394164D01*
%TO.C,R21*%
X145134359Y-98680000D02*
X145441641Y-98680000D01*
X145134359Y-99440000D02*
X145441641Y-99440000D01*
%TO.C,R34*%
X178436000Y-68680359D02*
X178436000Y-68987641D01*
X179196000Y-68680359D02*
X179196000Y-68987641D01*
%TO.C,C42*%
X145180164Y-96160000D02*
X145395836Y-96160000D01*
X145180164Y-96880000D02*
X145395836Y-96880000D01*
%TO.C,C2*%
X145944000Y-113645836D02*
X145944000Y-113430164D01*
X146664000Y-113645836D02*
X146664000Y-113430164D01*
%TO.C,C47*%
X160084836Y-91080000D02*
X159869164Y-91080000D01*
X160084836Y-91800000D02*
X159869164Y-91800000D01*
%TO.C,C35*%
X144823580Y-69635000D02*
X144542420Y-69635000D01*
X144823580Y-70655000D02*
X144542420Y-70655000D01*
%TO.C,C15*%
X132530000Y-77639836D02*
X132530000Y-77424164D01*
X133250000Y-77639836D02*
X133250000Y-77424164D01*
%TO.C,R22*%
X145441641Y-97410000D02*
X145134359Y-97410000D01*
X145441641Y-98170000D02*
X145134359Y-98170000D01*
%TO.C,C5*%
X103270164Y-70506000D02*
X103485836Y-70506000D01*
X103270164Y-71226000D02*
X103485836Y-71226000D01*
%TO.C,C4*%
X111908000Y-72282164D02*
X111908000Y-72497836D01*
X112628000Y-72282164D02*
X112628000Y-72497836D01*
%TO.C,C33*%
X113684164Y-61386000D02*
X113899836Y-61386000D01*
X113684164Y-62106000D02*
X113899836Y-62106000D01*
%TO.C,R35*%
X184049641Y-68962000D02*
X183742359Y-68962000D01*
X184049641Y-69722000D02*
X183742359Y-69722000D01*
%TO.C,C26*%
X129397836Y-74472000D02*
X129182164Y-74472000D01*
X129397836Y-75192000D02*
X129182164Y-75192000D01*
%TO.C,C8*%
X105812000Y-131679836D02*
X105812000Y-131464164D01*
X106532000Y-131679836D02*
X106532000Y-131464164D01*
%TO.C,C22*%
X126547836Y-81222000D02*
X126332164Y-81222000D01*
X126547836Y-81942000D02*
X126332164Y-81942000D01*
%TD*%
M02*
