%TF.GenerationSoftware,KiCad,Pcbnew,10.0.5*%
%TF.CreationDate,2026-08-03T17:09:22-04:00*%
%TF.ProjectId,Digichiver,44696769-6368-4697-9665-722e6b696361,0*%
%TF.SameCoordinates,Original*%
%TF.FileFunction,Paste,Bot*%
%TF.FilePolarity,Positive*%
%FSLAX46Y46*%
G04 Gerber Fmt 4.6, Leading zero omitted, Abs format (unit mm)*
G04 Created by KiCad (PCBNEW 10.0.5) date 2026-08-03 17:09:22*
%MOMM*%
%LPD*%
G01*
G04 APERTURE LIST*
G04 Aperture macros list*
%AMRoundRect*
0 Rectangle with rounded corners*
0 $1 Rounding radius*
0 $2 $3 $4 $5 $6 $7 $8 $9 X,Y pos of 4 corners*
0 Add a 4 corners polygon primitive as box body*
4,1,4,$2,$3,$4,$5,$6,$7,$8,$9,$2,$3,0*
0 Add four circle primitives for the rounded corners*
1,1,$1+$1,$2,$3*
1,1,$1+$1,$4,$5*
1,1,$1+$1,$6,$7*
1,1,$1+$1,$8,$9*
0 Add four rect primitives between the rounded corners*
20,1,$1+$1,$2,$3,$4,$5,0*
20,1,$1+$1,$4,$5,$6,$7,0*
20,1,$1+$1,$6,$7,$8,$9,0*
20,1,$1+$1,$8,$9,$2,$3,0*%
G04 Aperture macros list end*
%ADD10RoundRect,0.140000X0.170000X-0.140000X0.170000X0.140000X-0.170000X0.140000X-0.170000X-0.140000X0*%
%ADD11RoundRect,0.135000X0.135000X0.185000X-0.135000X0.185000X-0.135000X-0.185000X0.135000X-0.185000X0*%
%ADD12RoundRect,0.140000X0.140000X0.170000X-0.140000X0.170000X-0.140000X-0.170000X0.140000X-0.170000X0*%
%ADD13RoundRect,0.140000X-0.170000X0.140000X-0.170000X-0.140000X0.170000X-0.140000X0.170000X0.140000X0*%
%ADD14RoundRect,0.140000X-0.140000X-0.170000X0.140000X-0.170000X0.140000X0.170000X-0.140000X0.170000X0*%
%ADD15RoundRect,0.135000X-0.185000X0.135000X-0.185000X-0.135000X0.185000X-0.135000X0.185000X0.135000X0*%
%ADD16RoundRect,0.225000X0.250000X-0.225000X0.250000X0.225000X-0.250000X0.225000X-0.250000X-0.225000X0*%
%ADD17RoundRect,0.225000X0.225000X0.250000X-0.225000X0.250000X-0.225000X-0.250000X0.225000X-0.250000X0*%
%ADD18RoundRect,0.135000X0.185000X-0.135000X0.185000X0.135000X-0.185000X0.135000X-0.185000X-0.135000X0*%
%ADD19RoundRect,0.135000X-0.135000X-0.185000X0.135000X-0.185000X0.135000X0.185000X-0.135000X0.185000X0*%
G04 APERTURE END LIST*
D10*
%TO.C,C1*%
X153416000Y-103604000D03*
X153416000Y-102644000D03*
%TD*%
D11*
%TO.C,R20*%
X128780000Y-63500000D03*
X127760000Y-63500000D03*
%TD*%
D12*
%TO.C,C3*%
X135608000Y-96266000D03*
X134648000Y-96266000D03*
%TD*%
D13*
%TO.C,C10*%
X129286000Y-85852000D03*
X129286000Y-86812000D03*
%TD*%
D14*
%TO.C,C9*%
X107216000Y-122428000D03*
X108176000Y-122428000D03*
%TD*%
%TO.C,C16*%
X130160000Y-81582000D03*
X131120000Y-81582000D03*
%TD*%
D10*
%TO.C,C20*%
X132890000Y-81506000D03*
X132890000Y-80546000D03*
%TD*%
D15*
%TO.C,R36*%
X176784000Y-69340000D03*
X176784000Y-70360000D03*
%TD*%
D12*
%TO.C,C55*%
X174724000Y-69342000D03*
X173764000Y-69342000D03*
%TD*%
D13*
%TO.C,C24*%
X126190000Y-76052000D03*
X126190000Y-77012000D03*
%TD*%
D12*
%TO.C,C40*%
X152118000Y-81959000D03*
X151158000Y-81959000D03*
%TD*%
D10*
%TO.C,C6*%
X98044000Y-107668000D03*
X98044000Y-106708000D03*
%TD*%
D14*
%TO.C,C30*%
X176304000Y-85344000D03*
X177264000Y-85344000D03*
%TD*%
%TO.C,C19*%
X136110000Y-78432000D03*
X137070000Y-78432000D03*
%TD*%
D13*
%TO.C,C17*%
X126190000Y-78052000D03*
X126190000Y-79012000D03*
%TD*%
D10*
%TO.C,C41*%
X141986000Y-95984000D03*
X141986000Y-95024000D03*
%TD*%
%TO.C,C48*%
X175260000Y-77950000D03*
X175260000Y-76990000D03*
%TD*%
D12*
%TO.C,C21*%
X128920000Y-81582000D03*
X127960000Y-81582000D03*
%TD*%
D14*
%TO.C,C7*%
X99088000Y-98298000D03*
X100048000Y-98298000D03*
%TD*%
D12*
%TO.C,C25*%
X127320000Y-74832000D03*
X126360000Y-74832000D03*
%TD*%
D10*
%TO.C,C39*%
X149098000Y-80689000D03*
X149098000Y-79729000D03*
%TD*%
D13*
%TO.C,C18*%
X132890000Y-74652000D03*
X132890000Y-75612000D03*
%TD*%
D16*
%TO.C,C34*%
X114300000Y-66077000D03*
X114300000Y-64527000D03*
%TD*%
D17*
%TO.C,C32*%
X145458000Y-71669000D03*
X143908000Y-71669000D03*
%TD*%
D14*
%TO.C,C54*%
X160508000Y-106426000D03*
X161468000Y-106426000D03*
%TD*%
D18*
%TO.C,R10*%
X160020000Y-62486000D03*
X160020000Y-61466000D03*
%TD*%
D19*
%TO.C,R19*%
X129792000Y-63500000D03*
X130812000Y-63500000D03*
%TD*%
%TO.C,R23*%
X141984000Y-97790000D03*
X143004000Y-97790000D03*
%TD*%
D10*
%TO.C,C23*%
X124460000Y-79982000D03*
X124460000Y-79022000D03*
%TD*%
D19*
%TO.C,R21*%
X144778000Y-99060000D03*
X145798000Y-99060000D03*
%TD*%
D15*
%TO.C,R34*%
X178816000Y-68324000D03*
X178816000Y-69344000D03*
%TD*%
D14*
%TO.C,C42*%
X144808000Y-96520000D03*
X145768000Y-96520000D03*
%TD*%
D10*
%TO.C,C2*%
X146304000Y-114018000D03*
X146304000Y-113058000D03*
%TD*%
D12*
%TO.C,C47*%
X160457000Y-91440000D03*
X159497000Y-91440000D03*
%TD*%
D17*
%TO.C,C35*%
X145458000Y-70145000D03*
X143908000Y-70145000D03*
%TD*%
D10*
%TO.C,C15*%
X132890000Y-78012000D03*
X132890000Y-77052000D03*
%TD*%
D11*
%TO.C,R22*%
X145798000Y-97790000D03*
X144778000Y-97790000D03*
%TD*%
D14*
%TO.C,C5*%
X102898000Y-70866000D03*
X103858000Y-70866000D03*
%TD*%
D13*
%TO.C,C4*%
X112268000Y-71910000D03*
X112268000Y-72870000D03*
%TD*%
D14*
%TO.C,C33*%
X113312000Y-61746000D03*
X114272000Y-61746000D03*
%TD*%
D11*
%TO.C,R35*%
X184406000Y-69342000D03*
X183386000Y-69342000D03*
%TD*%
D12*
%TO.C,C26*%
X129770000Y-74832000D03*
X128810000Y-74832000D03*
%TD*%
D10*
%TO.C,C8*%
X106172000Y-132052000D03*
X106172000Y-131092000D03*
%TD*%
D12*
%TO.C,C22*%
X126920000Y-81582000D03*
X125960000Y-81582000D03*
%TD*%
M02*
