%TF.GenerationSoftware,KiCad,Pcbnew,10.0.5*%
%TF.CreationDate,2026-08-03T17:09:22-04:00*%
%TF.ProjectId,Digichiver,44696769-6368-4697-9665-722e6b696361,0*%
%TF.SameCoordinates,Original*%
%TF.FileFunction,Copper,L4,Bot*%
%TF.FilePolarity,Positive*%
%FSLAX46Y46*%
G04 Gerber Fmt 4.6, Leading zero omitted, Abs format (unit mm)*
G04 Created by KiCad (PCBNEW 10.0.5) date 2026-08-03 17:09:22*
%MOMM*%
%LPD*%
G01*
G04 APERTURE LIST*
G04 Aperture macros list*
%AMRoundRect*
0 Rectangle with rounded corners*
0 $1 Rounding radius*
0 $2 $3 $4 $5 $6 $7 $8 $9 X,Y pos of 4 corners*
0 Add a 4 corners polygon primitive as box body*
4,1,4,$2,$3,$4,$5,$6,$7,$8,$9,$2,$3,0*
0 Add four circle primitives for the rounded corners*
1,1,$1+$1,$2,$3*
1,1,$1+$1,$4,$5*
1,1,$1+$1,$6,$7*
1,1,$1+$1,$8,$9*
0 Add four rect primitives between the rounded corners*
20,1,$1+$1,$2,$3,$4,$5,0*
20,1,$1+$1,$4,$5,$6,$7,0*
20,1,$1+$1,$6,$7,$8,$9,0*
20,1,$1+$1,$8,$9,$2,$3,0*%
G04 Aperture macros list end*
%TA.AperFunction,ComponentPad*%
%ADD10O,1.800000X2.800000*%
%TD*%
%TA.AperFunction,ComponentPad*%
%ADD11R,0.850000X0.850000*%
%TD*%
%TA.AperFunction,ComponentPad*%
%ADD12C,0.850000*%
%TD*%
%TA.AperFunction,ComponentPad*%
%ADD13C,3.216000*%
%TD*%
%TA.AperFunction,ComponentPad*%
%ADD14C,1.508000*%
%TD*%
%TA.AperFunction,ComponentPad*%
%ADD15O,1.000000X2.100000*%
%TD*%
%TA.AperFunction,ComponentPad*%
%ADD16O,1.000000X1.800000*%
%TD*%
%TA.AperFunction,ComponentPad*%
%ADD17RoundRect,0.250000X-0.550000X-0.550000X0.550000X-0.550000X0.550000X0.550000X-0.550000X0.550000X0*%
%TD*%
%TA.AperFunction,ComponentPad*%
%ADD18C,1.600000*%
%TD*%
%TA.AperFunction,ComponentPad*%
%ADD19C,3.000000*%
%TD*%
%TA.AperFunction,SMDPad,CuDef*%
%ADD20RoundRect,0.140000X0.170000X-0.140000X0.170000X0.140000X-0.170000X0.140000X-0.170000X-0.140000X0*%
%TD*%
%TA.AperFunction,SMDPad,CuDef*%
%ADD21RoundRect,0.135000X0.135000X0.185000X-0.135000X0.185000X-0.135000X-0.185000X0.135000X-0.185000X0*%
%TD*%
%TA.AperFunction,SMDPad,CuDef*%
%ADD22RoundRect,0.140000X0.140000X0.170000X-0.140000X0.170000X-0.140000X-0.170000X0.140000X-0.170000X0*%
%TD*%
%TA.AperFunction,SMDPad,CuDef*%
%ADD23RoundRect,0.140000X-0.170000X0.140000X-0.170000X-0.140000X0.170000X-0.140000X0.170000X0.140000X0*%
%TD*%
%TA.AperFunction,SMDPad,CuDef*%
%ADD24RoundRect,0.140000X-0.140000X-0.170000X0.140000X-0.170000X0.140000X0.170000X-0.140000X0.170000X0*%
%TD*%
%TA.AperFunction,SMDPad,CuDef*%
%ADD25RoundRect,0.135000X-0.185000X0.135000X-0.185000X-0.135000X0.185000X-0.135000X0.185000X0.135000X0*%
%TD*%
%TA.AperFunction,SMDPad,CuDef*%
%ADD26RoundRect,0.225000X0.250000X-0.225000X0.250000X0.225000X-0.250000X0.225000X-0.250000X-0.225000X0*%
%TD*%
%TA.AperFunction,SMDPad,CuDef*%
%ADD27RoundRect,0.225000X0.225000X0.250000X-0.225000X0.250000X-0.225000X-0.250000X0.225000X-0.250000X0*%
%TD*%
%TA.AperFunction,SMDPad,CuDef*%
%ADD28RoundRect,0.135000X0.185000X-0.135000X0.185000X0.135000X-0.185000X0.135000X-0.185000X-0.135000X0*%
%TD*%
%TA.AperFunction,SMDPad,CuDef*%
%ADD29RoundRect,0.135000X-0.135000X-0.185000X0.135000X-0.185000X0.135000X0.185000X-0.135000X0.185000X0*%
%TD*%
%TA.AperFunction,ViaPad*%
%ADD30C,0.450000*%
%TD*%
%TA.AperFunction,Conductor*%
%ADD31C,0.200000*%
%TD*%
%TA.AperFunction,Conductor*%
%ADD32C,0.203200*%
%TD*%
%TA.AperFunction,Conductor*%
%ADD33C,0.177800*%
%TD*%
%TA.AperFunction,Conductor*%
%ADD34C,0.254000*%
%TD*%
%TA.AperFunction,Conductor*%
%ADD35C,0.381000*%
%TD*%
%TA.AperFunction,Conductor*%
%ADD36C,0.635000*%
%TD*%
G04 APERTURE END LIST*
D10*
%TO.P,J5,R*%
%TO.N,Net-(J5-PadR)*%
X181080000Y-67278000D03*
%TO.P,J5,RN*%
%TO.N,unconnected-(J5-PadRN)*%
X182880000Y-65278000D03*
%TO.P,J5,S*%
%TO.N,GND*%
X188980000Y-65278000D03*
%TO.P,J5,T*%
%TO.N,Net-(J5-PadT)*%
X186580000Y-67278000D03*
%TO.P,J5,TN*%
%TO.N,unconnected-(J5-PadTN)*%
X177380000Y-65278000D03*
%TD*%
D11*
%TO.P,J4,1,Pin_1_1*%
%TO.N,/Power/+9V_RAW*%
X118364000Y-67080000D03*
D12*
%TO.P,J4,2,Pin_2_2*%
%TO.N,+9V*%
X119364000Y-67080000D03*
%TD*%
D13*
%TO.P,RV1,*%
%TO.N,*%
X172974000Y-101346000D03*
X181774000Y-101346000D03*
D14*
%TO.P,RV1,1,1_1*%
%TO.N,Net-(C53-Pad1)*%
X174874000Y-108346000D03*
%TO.P,RV1,2,2_2*%
%TO.N,Net-(U11-IN+)*%
X177374000Y-108346000D03*
%TO.P,RV1,3,3_3*%
%TO.N,GND*%
X179874000Y-108346000D03*
%TD*%
D15*
%TO.P,J2,SH,SHIELD_SH*%
%TO.N,GND*%
X133860000Y-65081000D03*
D16*
X133860000Y-60901000D03*
D15*
X125220000Y-65081000D03*
D16*
X125220000Y-60901000D03*
%TD*%
D11*
%TO.P,J3,1,Pin_1_1*%
%TO.N,/Power/+3V3_RAW*%
X147574000Y-70112000D03*
D12*
%TO.P,J3,2,Pin_2_2*%
%TO.N,+3.3V*%
X147574000Y-71112000D03*
%TD*%
D17*
%TO.P,XC1,1,OSC_IN_1*%
%TO.N,/Digitalker/DIGI_CLK_4MHZ*%
X122428000Y-96271000D03*
D18*
%TO.P,XC1,2,OSC_OUT_2*%
%TO.N,unconnected-(XC1-OSC_OUT-Pad2)*%
X122428000Y-98811000D03*
%TO.P,XC1,3,~{CS}_3*%
%TO.N,/Digitalker/DIGI_~{CS}*%
X122428000Y-101351000D03*
%TO.P,XC1,4,~{WR}_4*%
%TO.N,/Digitalker/DIGI_~{WR}*%
X122428000Y-103891000D03*
%TO.P,XC1,5,~{ROMEN}_5*%
%TO.N,/Digitalker/DIGI_~{ROMEN}*%
X122428000Y-106431000D03*
%TO.P,XC1,6,INTR_6*%
%TO.N,/Digitalker/DIGI_INTR*%
X122428000Y-108971000D03*
%TO.P,XC1,7,CMS_7*%
%TO.N,/Digitalker/DIGI_CMS*%
X122428000Y-111511000D03*
%TO.P,XC1,8,SW8_(MSB)_8*%
%TO.N,/Digitalker/DIGI_SW8*%
X122428000Y-114051000D03*
%TO.P,XC1,9,SW7_9*%
%TO.N,/Digitalker/DIGI_SW7*%
X122428000Y-116591000D03*
%TO.P,XC1,10,SW6_10*%
%TO.N,/Digitalker/DIGI_SW6*%
X122428000Y-119131000D03*
%TO.P,XC1,11,SW5_11*%
%TO.N,/Digitalker/DIGI_SW5*%
X122428000Y-121671000D03*
%TO.P,XC1,12,SW4_12*%
%TO.N,/Digitalker/DIGI_SW4*%
X122428000Y-124211000D03*
%TO.P,XC1,13,SW3_13*%
%TO.N,/Digitalker/DIGI_SW3*%
X122428000Y-126751000D03*
%TO.P,XC1,14,SW2_14*%
%TO.N,/Digitalker/DIGI_SW2*%
X122428000Y-129291000D03*
%TO.P,XC1,15,SW1_(LSB)_15*%
%TO.N,/Digitalker/DIGI_SW1*%
X122428000Y-131831000D03*
%TO.P,XC1,16,RDATA0_(LSB)_16*%
%TO.N,/Digitalker/DIGI_RDATA0*%
X122428000Y-134371000D03*
%TO.P,XC1,17,RDATA1_17*%
%TO.N,/Digitalker/DIGI_RDATA1*%
X122428000Y-136911000D03*
%TO.P,XC1,18,RDATA2_18*%
%TO.N,/Digitalker/DIGI_RDATA2*%
X122428000Y-139451000D03*
%TO.P,XC1,19,RDATA3_19*%
%TO.N,/Digitalker/DIGI_RDATA3*%
X122428000Y-141991000D03*
%TO.P,XC1,20,VSS_20*%
%TO.N,GND*%
X122428000Y-144531000D03*
%TO.P,XC1,21,RDATA4_21*%
%TO.N,/Digitalker/DIGI_RDATA4*%
X137668000Y-144531000D03*
%TO.P,XC1,22,RDATA5_22*%
%TO.N,/Digitalker/DIGI_RDATA5*%
X137668000Y-141991000D03*
%TO.P,XC1,23,RDATA6_23*%
%TO.N,/Digitalker/DIGI_RDATA6*%
X137668000Y-139451000D03*
%TO.P,XC1,24,RDATA7_24*%
%TO.N,/Digitalker/DIGI_RDATA7*%
X137668000Y-136911000D03*
%TO.P,XC1,25,ADR0_(LSB)_25*%
%TO.N,/Digitalker/DIGI_ROM_ADDR0*%
X137668000Y-134371000D03*
%TO.P,XC1,26,ADR1_26*%
%TO.N,/Digitalker/DIGI_ROM_ADDR1*%
X137668000Y-131831000D03*
%TO.P,XC1,27,ADR2_27*%
%TO.N,/Digitalker/DIGI_ROM_ADDR2*%
X137668000Y-129291000D03*
%TO.P,XC1,28,ADR3_28*%
%TO.N,/Digitalker/DIGI_ROM_ADDR3*%
X137668000Y-126751000D03*
%TO.P,XC1,29,ADR4_29*%
%TO.N,/Digitalker/DIGI_ROM_ADDR4*%
X137668000Y-124211000D03*
%TO.P,XC1,30,ADR5_30*%
%TO.N,/Digitalker/DIGI_ROM_ADDR5*%
X137668000Y-121671000D03*
%TO.P,XC1,31,ADR6_31*%
%TO.N,/Digitalker/DIGI_ROM_ADDR6*%
X137668000Y-119131000D03*
%TO.P,XC1,32,ADR7_32*%
%TO.N,/Digitalker/DIGI_ROM_ADDR7*%
X137668000Y-116591000D03*
%TO.P,XC1,33,ADR8_33*%
%TO.N,/Digitalker/DIGI_ROM_ADDR8*%
X137668000Y-114051000D03*
%TO.P,XC1,34,ADR9_34*%
%TO.N,/Digitalker/DIGI_ROM_ADDR9*%
X137668000Y-111511000D03*
%TO.P,XC1,35,ADR10_35*%
%TO.N,/Digitalker/DIGI_ROM_ADDR10*%
X137668000Y-108971000D03*
%TO.P,XC1,36,ADR11_36*%
%TO.N,/Digitalker/DIGI_ROM_ADDR11*%
X137668000Y-106431000D03*
%TO.P,XC1,37,ADR12_37*%
%TO.N,/Digitalker/DIGI_ROM_ADDR12*%
X137668000Y-103891000D03*
%TO.P,XC1,38,ADR13_(MSB)_38*%
%TO.N,/Digitalker/DIGI_ROM_ADDR13*%
X137668000Y-101351000D03*
%TO.P,XC1,39,SPEECH_OUT_39*%
%TO.N,Net-(XC1-SPEECH_OUT)*%
X137668000Y-98811000D03*
%TO.P,XC1,40,VDD_40*%
%TO.N,+9V*%
X137668000Y-96271000D03*
%TD*%
D19*
%TO.P,LS1,1,1_1*%
%TO.N,/Audio/OUT+*%
X152380000Y-130810000D03*
%TO.P,LS1,2,2_2*%
%TO.N,/Audio/OUT-*%
X162580000Y-130810000D03*
%TD*%
D20*
%TO.P,C1,1*%
%TO.N,GND*%
X153416000Y-103604000D03*
%TO.P,C1,2*%
%TO.N,+3.3V*%
X153416000Y-102644000D03*
%TD*%
D21*
%TO.P,R20,1*%
%TO.N,GND*%
X128780000Y-63500000D03*
%TO.P,R20,2*%
%TO.N,Net-(J2-CC2)*%
X127760000Y-63500000D03*
%TD*%
D22*
%TO.P,C3,1*%
%TO.N,+9V*%
X135608000Y-96266000D03*
%TO.P,C3,2*%
%TO.N,GND*%
X134648000Y-96266000D03*
%TD*%
D23*
%TO.P,C10,1*%
%TO.N,/Control/XIN*%
X129286000Y-85852000D03*
%TO.P,C10,2*%
%TO.N,GND*%
X129286000Y-86812000D03*
%TD*%
D24*
%TO.P,C9,1*%
%TO.N,+5V*%
X107216000Y-122428000D03*
%TO.P,C9,2*%
%TO.N,GND*%
X108176000Y-122428000D03*
%TD*%
%TO.P,C16,1*%
%TO.N,+1V1*%
X130160000Y-81582000D03*
%TO.P,C16,2*%
%TO.N,GND*%
X131120000Y-81582000D03*
%TD*%
D20*
%TO.P,C20,1*%
%TO.N,+3.3V*%
X132890000Y-81506000D03*
%TO.P,C20,2*%
%TO.N,GND*%
X132890000Y-80546000D03*
%TD*%
D25*
%TO.P,R36,1*%
%TO.N,Net-(C55-Pad1)*%
X176784000Y-69340000D03*
%TO.P,R36,2*%
%TO.N,GND*%
X176784000Y-70360000D03*
%TD*%
D22*
%TO.P,C55,1*%
%TO.N,Net-(C55-Pad1)*%
X174724000Y-69342000D03*
%TO.P,C55,2*%
%TO.N,/Digitalker/FILTERED_SPEECH*%
X173764000Y-69342000D03*
%TD*%
D23*
%TO.P,C24,1*%
%TO.N,+3.3V*%
X126190000Y-76052000D03*
%TO.P,C24,2*%
%TO.N,GND*%
X126190000Y-77012000D03*
%TD*%
D22*
%TO.P,C40,1*%
%TO.N,+3.3V*%
X152118000Y-81959000D03*
%TO.P,C40,2*%
%TO.N,GND*%
X151158000Y-81959000D03*
%TD*%
D20*
%TO.P,C6,1*%
%TO.N,+3.3V*%
X98044000Y-107668000D03*
%TO.P,C6,2*%
%TO.N,GND*%
X98044000Y-106708000D03*
%TD*%
D24*
%TO.P,C30,1*%
%TO.N,+3.3V*%
X176304000Y-85344000D03*
%TO.P,C30,2*%
%TO.N,GND*%
X177264000Y-85344000D03*
%TD*%
%TO.P,C19,1*%
%TO.N,+3.3V*%
X136110000Y-78432000D03*
%TO.P,C19,2*%
%TO.N,GND*%
X137070000Y-78432000D03*
%TD*%
D23*
%TO.P,C17,1*%
%TO.N,+1V1*%
X126190000Y-78052000D03*
%TO.P,C17,2*%
%TO.N,GND*%
X126190000Y-79012000D03*
%TD*%
D20*
%TO.P,C41,1*%
%TO.N,Net-(U10A-+)*%
X141986000Y-95984000D03*
%TO.P,C41,2*%
%TO.N,Net-(XC1-SPEECH_OUT)*%
X141986000Y-95024000D03*
%TD*%
%TO.P,C48,1*%
%TO.N,+3.3V*%
X175260000Y-77950000D03*
%TO.P,C48,2*%
%TO.N,GND*%
X175260000Y-76990000D03*
%TD*%
D22*
%TO.P,C21,1*%
%TO.N,+3.3V*%
X128920000Y-81582000D03*
%TO.P,C21,2*%
%TO.N,GND*%
X127960000Y-81582000D03*
%TD*%
D24*
%TO.P,C7,1*%
%TO.N,+5V*%
X99088000Y-98298000D03*
%TO.P,C7,2*%
%TO.N,GND*%
X100048000Y-98298000D03*
%TD*%
D22*
%TO.P,C25,1*%
%TO.N,+3.3V*%
X127320000Y-74832000D03*
%TO.P,C25,2*%
%TO.N,GND*%
X126360000Y-74832000D03*
%TD*%
D20*
%TO.P,C39,1*%
%TO.N,+3.3V*%
X149098000Y-80689000D03*
%TO.P,C39,2*%
%TO.N,GND*%
X149098000Y-79729000D03*
%TD*%
D23*
%TO.P,C18,1*%
%TO.N,+3.3V*%
X132890000Y-74652000D03*
%TO.P,C18,2*%
%TO.N,GND*%
X132890000Y-75612000D03*
%TD*%
D26*
%TO.P,C34,1*%
%TO.N,/Power/+9V_RAW*%
X114300000Y-66077000D03*
%TO.P,C34,2*%
%TO.N,GND*%
X114300000Y-64527000D03*
%TD*%
D27*
%TO.P,C32,1*%
%TO.N,/Power/+3V3_RAW*%
X145458000Y-71669000D03*
%TO.P,C32,2*%
%TO.N,GND*%
X143908000Y-71669000D03*
%TD*%
D24*
%TO.P,C54,1*%
%TO.N,+3.3V*%
X160508000Y-106426000D03*
%TO.P,C54,2*%
%TO.N,GND*%
X161468000Y-106426000D03*
%TD*%
D28*
%TO.P,R10,1*%
%TO.N,GND*%
X160020000Y-62486000D03*
%TO.P,R10,2*%
%TO.N,Net-(R10-Pad2)*%
X160020000Y-61466000D03*
%TD*%
D29*
%TO.P,R19,1*%
%TO.N,GND*%
X129792000Y-63500000D03*
%TO.P,R19,2*%
%TO.N,Net-(J2-CC1)*%
X130812000Y-63500000D03*
%TD*%
%TO.P,R23,1*%
%TO.N,Net-(U10A-+)*%
X141984000Y-97790000D03*
%TO.P,R23,2*%
%TO.N,/Digitalker/V_BIAS*%
X143004000Y-97790000D03*
%TD*%
D20*
%TO.P,C23,1*%
%TO.N,+3.3V*%
X124460000Y-79982000D03*
%TO.P,C23,2*%
%TO.N,GND*%
X124460000Y-79022000D03*
%TD*%
D29*
%TO.P,R21,1*%
%TO.N,/Digitalker/V_BIAS*%
X144778000Y-99060000D03*
%TO.P,R21,2*%
%TO.N,+3.3V*%
X145798000Y-99060000D03*
%TD*%
D25*
%TO.P,R34,1*%
%TO.N,Net-(J5-PadR)*%
X178816000Y-68324000D03*
%TO.P,R34,2*%
%TO.N,Net-(C55-Pad1)*%
X178816000Y-69344000D03*
%TD*%
D24*
%TO.P,C42,1*%
%TO.N,/Digitalker/V_BIAS*%
X144808000Y-96520000D03*
%TO.P,C42,2*%
%TO.N,GND*%
X145768000Y-96520000D03*
%TD*%
D20*
%TO.P,C2,1*%
%TO.N,GND*%
X146304000Y-114018000D03*
%TO.P,C2,2*%
%TO.N,+3.3V*%
X146304000Y-113058000D03*
%TD*%
D22*
%TO.P,C47,1*%
%TO.N,GND*%
X160457000Y-91440000D03*
%TO.P,C47,2*%
%TO.N,+3.3V*%
X159497000Y-91440000D03*
%TD*%
D27*
%TO.P,C35,1*%
%TO.N,/Power/+3V3_RAW*%
X145458000Y-70145000D03*
%TO.P,C35,2*%
%TO.N,GND*%
X143908000Y-70145000D03*
%TD*%
D20*
%TO.P,C15,1*%
%TO.N,+1V1*%
X132890000Y-78012000D03*
%TO.P,C15,2*%
%TO.N,GND*%
X132890000Y-77052000D03*
%TD*%
D21*
%TO.P,R22,1*%
%TO.N,GND*%
X145798000Y-97790000D03*
%TO.P,R22,2*%
%TO.N,/Digitalker/V_BIAS*%
X144778000Y-97790000D03*
%TD*%
D24*
%TO.P,C5,1*%
%TO.N,+3.3V*%
X102898000Y-70866000D03*
%TO.P,C5,2*%
%TO.N,GND*%
X103858000Y-70866000D03*
%TD*%
D23*
%TO.P,C4,1*%
%TO.N,+5V*%
X112268000Y-71910000D03*
%TO.P,C4,2*%
%TO.N,GND*%
X112268000Y-72870000D03*
%TD*%
D24*
%TO.P,C33,1*%
%TO.N,+5V*%
X113312000Y-61746000D03*
%TO.P,C33,2*%
%TO.N,GND*%
X114272000Y-61746000D03*
%TD*%
D21*
%TO.P,R35,1*%
%TO.N,Net-(J5-PadT)*%
X184406000Y-69342000D03*
%TO.P,R35,2*%
%TO.N,Net-(C55-Pad1)*%
X183386000Y-69342000D03*
%TD*%
D22*
%TO.P,C26,1*%
%TO.N,+3.3V*%
X129770000Y-74832000D03*
%TO.P,C26,2*%
%TO.N,GND*%
X128810000Y-74832000D03*
%TD*%
D20*
%TO.P,C8,1*%
%TO.N,+3.3V*%
X106172000Y-132052000D03*
%TO.P,C8,2*%
%TO.N,GND*%
X106172000Y-131092000D03*
%TD*%
D22*
%TO.P,C22,1*%
%TO.N,+3.3V*%
X126920000Y-81582000D03*
%TO.P,C22,2*%
%TO.N,GND*%
X125960000Y-81582000D03*
%TD*%
D30*
%TO.N,GND*%
X104648000Y-99314000D03*
X128270000Y-74930000D03*
X126238000Y-80264000D03*
X125476000Y-76962000D03*
X108204000Y-123444000D03*
X135636000Y-73406000D03*
X153162000Y-79756000D03*
X178308000Y-85344000D03*
X106172000Y-130048000D03*
X147320000Y-98044000D03*
X115062000Y-67310000D03*
X128016000Y-82296000D03*
X160020000Y-63246000D03*
X105156000Y-106172000D03*
X160020000Y-100838000D03*
X126492000Y-74168000D03*
X142494000Y-66294000D03*
X140142920Y-71860059D03*
X183134000Y-124460000D03*
X125407910Y-79099766D03*
X152146000Y-84582000D03*
X154940000Y-82296000D03*
X115062000Y-65278000D03*
X128270000Y-87630000D03*
X109982000Y-78486000D03*
X132842000Y-76454000D03*
X175768000Y-70358000D03*
X113255343Y-131840328D03*
X141478000Y-65532000D03*
X133828768Y-71628000D03*
X132588000Y-86360000D03*
X139954000Y-109571000D03*
X152146000Y-82804000D03*
X98044000Y-105664000D03*
X104648000Y-70866000D03*
X112938000Y-123444000D03*
X162080000Y-85090000D03*
X149098000Y-78994000D03*
X129794000Y-62738000D03*
X111252000Y-72898000D03*
X146304000Y-115062000D03*
X142494000Y-72390000D03*
X133858000Y-96266000D03*
X187960000Y-124460000D03*
X137713999Y-78186000D03*
X175260000Y-75184000D03*
X175260000Y-82296000D03*
X187452000Y-73152000D03*
X100076000Y-99314000D03*
X188976000Y-85344000D03*
X150622000Y-75184000D03*
X102870000Y-77216000D03*
X161473000Y-91440000D03*
X114300000Y-60706000D03*
X133855000Y-70866000D03*
X161524000Y-107442000D03*
X131826000Y-81534000D03*
X142325000Y-60706000D03*
X153416000Y-104648000D03*
X172466000Y-115316000D03*
%TO.N,+3.3V*%
X161290000Y-75438000D03*
X140208000Y-120650000D03*
X139192000Y-110490000D03*
X133790000Y-74632000D03*
X135128000Y-68326000D03*
X152400000Y-102616000D03*
X160508000Y-107442000D03*
X175260000Y-80010000D03*
X147574000Y-110236000D03*
X125476000Y-80032000D03*
X154686000Y-70358000D03*
X128940000Y-82332000D03*
X102870000Y-71882000D03*
X169164000Y-116840000D03*
X135382000Y-78157000D03*
X154686000Y-76200000D03*
X99060000Y-107696000D03*
X145034000Y-113792000D03*
X107188000Y-132080000D03*
X125440000Y-76032000D03*
X131290000Y-71732000D03*
X169418000Y-76200000D03*
X147320000Y-99060000D03*
X148268050Y-81031999D03*
X133604000Y-81788000D03*
X152908000Y-81788000D03*
X126940000Y-82332000D03*
X130098260Y-74013027D03*
X177292000Y-122758000D03*
X127340000Y-74032000D03*
X158425000Y-91440000D03*
X175260000Y-85344000D03*
%TO.N,+5V*%
X142240000Y-68580000D03*
X140970000Y-72390000D03*
X141478000Y-66294000D03*
X111252000Y-71910000D03*
X113261531Y-60791000D03*
X132080000Y-66548000D03*
X99135071Y-99060000D03*
X107188000Y-123444000D03*
X112522000Y-64262000D03*
X127000000Y-66548000D03*
X118872000Y-65786000D03*
%TO.N,/Power/+9V_RAW*%
X115316000Y-66064000D03*
%TO.N,Net-(R11-Pad2)*%
X130381058Y-69088000D03*
X127762000Y-69850000D03*
%TO.N,/Digitalker/DIGI_ROM_ADDR8*%
X148336000Y-104902000D03*
%TO.N,/Digitalker/DIGI_ROM_ADDR9*%
X149098000Y-104140000D03*
%TO.N,/Digitalker/DIGI_ROM_ADDR10*%
X149606000Y-104902000D03*
%TO.N,/Digitalker/DIGI_ROM_ADDR11*%
X150368000Y-104140000D03*
%TO.N,/Digitalker/DIGI_ROM_ADDR12*%
X150897000Y-104902000D03*
%TO.N,/Digitalker/DIGI_ROM_ADDR13*%
X151638000Y-104140000D03*
%TO.N,/Digitalker/DIGI_~{ROMEN}*%
X152197000Y-104902000D03*
%TO.N,/Power/+3V3_RAW*%
X144780000Y-72898000D03*
%TO.N,/Control/LED_GR*%
X136652000Y-74676000D03*
X187960000Y-118364000D03*
%TO.N,+1V1*%
X133740000Y-78032000D03*
X130690000Y-74676000D03*
X130140000Y-82332000D03*
X125390000Y-78032000D03*
X131290000Y-70982000D03*
%TO.N,/Digitalker/DIGI_RDATA7*%
X112431143Y-122825050D03*
X117602000Y-130302000D03*
%TO.N,/Digitalker/DIGI_RDATA6*%
X116586000Y-130302000D03*
X111851671Y-122273491D03*
%TO.N,/Digitalker/DIGI_RDATA5*%
X111132000Y-122983259D03*
X115570000Y-130302000D03*
%TO.N,/Digitalker/DIGI_RDATA4*%
X110632000Y-123698000D03*
X114554000Y-130302000D03*
%TO.N,/Digitalker/DIGI_RDATA3*%
X109982000Y-123190000D03*
%TO.N,/Digitalker/DIGI_RDATA2*%
X109371271Y-126796632D03*
%TO.N,/Digitalker/DIGI_RDATA1*%
X108515687Y-126803687D03*
%TO.N,/Digitalker/DIGI_RDATA0*%
X107950000Y-126238000D03*
%TO.N,Net-(R10-Pad2)*%
X160020000Y-60630000D03*
%TO.N,Net-(U1-RUN)*%
X135636000Y-74168000D03*
X135890000Y-82550000D03*
%TO.N,/Digitalker/FILTERED_SPEECH*%
X160909000Y-81153000D03*
%TO.N,/Control/BUTTON*%
X147574000Y-79011000D03*
X170180000Y-114808000D03*
%TO.N,/Control/XIN*%
X129340000Y-84900718D03*
%TO.N,/Digitalker/DIGI_SW8*%
X104394000Y-98552000D03*
%TO.N,/Digitalker/DIGI_SW7*%
X103909252Y-97790000D03*
%TO.N,/Digitalker/DIGI_SW6*%
X103139965Y-97570452D03*
%TO.N,/Digitalker/DIGI_SW5*%
X102476000Y-98298000D03*
%TO.N,/Digitalker/DIGI_SW4*%
X101976000Y-99060000D03*
%TO.N,/Digitalker/DIGI_SW3*%
X101699788Y-101850540D03*
%TO.N,/Digitalker/DIGI_SW2*%
X100900266Y-101878263D03*
%TO.N,/Digitalker/DIGI_SW1*%
X100076000Y-101854000D03*
%TO.N,Net-(U10A-+)*%
X155702000Y-90790000D03*
%TO.N,/Digitalker/DIGI_ROM_ADDR1*%
X141885000Y-126593000D03*
%TO.N,/Digitalker/DIGI_ROM_ADDR2*%
X142494000Y-123190000D03*
%TO.N,/Digitalker/DIGI_ROM_ADDR3*%
X143256000Y-120396000D03*
%TO.N,/Digitalker/DIGI_ROM_ADDR4*%
X143764000Y-119634000D03*
%TO.N,/Digitalker/DIGI_ROM_ADDR5*%
X144526000Y-118872000D03*
%TO.N,/Digitalker/DIGI_ROM_ADDR6*%
X145034000Y-118110000D03*
%TO.N,/USB_D-*%
X130374147Y-66536781D03*
X129342459Y-64820497D03*
%TO.N,/Control/~{SD_CS}*%
X147320000Y-76962000D03*
X167640000Y-77978000D03*
%TO.N,/Control/SD_DET*%
X138684000Y-76307000D03*
X165100000Y-87630000D03*
%TO.N,/Control/LED_RED*%
X137414000Y-74930000D03*
X183134000Y-118364000D03*
%TO.N,Net-(J2-CC1)*%
X130810000Y-64516000D03*
%TO.N,Net-(J2-CC2)*%
X127762000Y-64516000D03*
%TO.N,/~{SPEAKER_DISABLE}*%
X162306000Y-102108000D03*
X137414000Y-75692000D03*
%TO.N,/Digitalker/V_BIAS*%
X157917000Y-97536000D03*
%TO.N,/Digitalker/DIGI_CMS*%
X108458000Y-75692000D03*
%TO.N,/Digitalker/DIGI_~{WR}*%
X108204000Y-74676000D03*
%TO.N,/Digitalker/DIGI_~{CS}*%
X107696000Y-73875997D03*
%TO.N,/Digitalker/DIGI_CLK_4MHZ*%
X108501265Y-73152000D03*
%TD*%
%TO.N,GND*%
D31*
X132890000Y-77052000D02*
X132890000Y-76502000D01*
X126238000Y-79060000D02*
X126190000Y-79012000D01*
X131120000Y-81582000D02*
X131778000Y-81582000D01*
X132890000Y-75612000D02*
X132890000Y-76406000D01*
X178308000Y-85344000D02*
X177264000Y-85344000D01*
X161524000Y-106482000D02*
X161468000Y-106426000D01*
X145798000Y-96550000D02*
X145768000Y-96520000D01*
X125960000Y-80542000D02*
X126238000Y-80264000D01*
X126190000Y-77012000D02*
X125526000Y-77012000D01*
X127960000Y-81582000D02*
X127960000Y-82240000D01*
X114272000Y-60734000D02*
X114300000Y-60706000D01*
X129792000Y-63500000D02*
X128780000Y-63500000D01*
X129792000Y-63500000D02*
X129792000Y-62740000D01*
X124460000Y-79022000D02*
X125330144Y-79022000D01*
X131778000Y-81582000D02*
X131826000Y-81534000D01*
X153416000Y-103604000D02*
X153416000Y-104648000D01*
X137467999Y-78432000D02*
X137070000Y-78432000D01*
X128270000Y-87630000D02*
X128468000Y-87630000D01*
X108176000Y-122428000D02*
X108176000Y-123416000D01*
X128368000Y-74832000D02*
X128270000Y-74930000D01*
X127960000Y-82240000D02*
X128016000Y-82296000D01*
X128810000Y-74832000D02*
X128368000Y-74832000D01*
X161524000Y-107442000D02*
X161524000Y-106482000D01*
X176784000Y-70360000D02*
X175770000Y-70360000D01*
X100076000Y-98326000D02*
X100048000Y-98298000D01*
X152146000Y-82804000D02*
X152003000Y-82804000D01*
X145798000Y-97790000D02*
X145798000Y-96550000D01*
X147320000Y-98044000D02*
X146052000Y-98044000D01*
D32*
X114300000Y-64527000D02*
X114311000Y-64527000D01*
X143215000Y-71669000D02*
X142494000Y-72390000D01*
D31*
X114272000Y-61746000D02*
X114272000Y-60734000D01*
X108176000Y-123416000D02*
X108204000Y-123444000D01*
X152003000Y-82804000D02*
X151158000Y-81959000D01*
D33*
X132890000Y-80546000D02*
X132814000Y-80546000D01*
D31*
X149098000Y-79729000D02*
X149098000Y-78994000D01*
D34*
X134648000Y-96266000D02*
X133858000Y-96266000D01*
D31*
X111280000Y-72870000D02*
X111252000Y-72898000D01*
X100076000Y-99314000D02*
X100076000Y-98326000D01*
X129792000Y-62740000D02*
X129794000Y-62738000D01*
X175260000Y-75184000D02*
X175260000Y-76990000D01*
X103858000Y-70866000D02*
X104648000Y-70866000D01*
X160020000Y-62486000D02*
X160020000Y-63246000D01*
D32*
X114311000Y-64527000D02*
X115062000Y-65278000D01*
X143908000Y-71669000D02*
X143215000Y-71669000D01*
D31*
X132890000Y-76406000D02*
X132842000Y-76454000D01*
X125330144Y-79022000D02*
X125407910Y-79099766D01*
X161473000Y-91440000D02*
X160457000Y-91440000D01*
X126360000Y-74300000D02*
X126492000Y-74168000D01*
X112268000Y-72870000D02*
X111280000Y-72870000D01*
X175770000Y-70360000D02*
X175768000Y-70358000D01*
X132890000Y-76502000D02*
X132842000Y-76454000D01*
X106172000Y-131092000D02*
X106172000Y-130048000D01*
X129258000Y-86840000D02*
X129286000Y-86868000D01*
X126360000Y-74832000D02*
X126360000Y-74300000D01*
D32*
X143908000Y-70145000D02*
X143908000Y-71669000D01*
D31*
X137713999Y-78186000D02*
X137467999Y-78432000D01*
X126238000Y-80264000D02*
X126238000Y-79060000D01*
X128468000Y-87630000D02*
X129286000Y-86812000D01*
X146052000Y-98044000D02*
X145798000Y-97790000D01*
D33*
X132814000Y-80546000D02*
X131826000Y-81534000D01*
D31*
X98044000Y-106708000D02*
X98044000Y-105664000D01*
X146304000Y-114018000D02*
X146304000Y-115062000D01*
X125526000Y-77012000D02*
X125476000Y-76962000D01*
X125960000Y-81582000D02*
X125960000Y-80542000D01*
%TO.N,+3.3V*%
X132920000Y-74632000D02*
X132890000Y-74602000D01*
X152908000Y-81788000D02*
X152289000Y-81788000D01*
X160508000Y-107442000D02*
X160508000Y-106426000D01*
X175260000Y-85344000D02*
X176304000Y-85344000D01*
X147320000Y-99060000D02*
X145798000Y-99060000D01*
X148755001Y-81031999D02*
X149098000Y-80689000D01*
X128940000Y-82332000D02*
X128940000Y-81602000D01*
X135657000Y-78432000D02*
X136110000Y-78432000D01*
X125440000Y-76032000D02*
X126170000Y-76032000D01*
X102898000Y-70866000D02*
X102870000Y-70866000D01*
X98044000Y-107668000D02*
X99032000Y-107668000D01*
D33*
X132890000Y-81506000D02*
X133322000Y-81506000D01*
D31*
X102898000Y-70866000D02*
X102898000Y-71854000D01*
X127340000Y-74032000D02*
X127340000Y-74812000D01*
X125476000Y-80032000D02*
X124686000Y-80032000D01*
X152289000Y-81788000D02*
X152118000Y-81959000D01*
X146304000Y-113058000D02*
X145768000Y-113058000D01*
X126940000Y-82332000D02*
X126940000Y-81602000D01*
X107188000Y-132080000D02*
X106200000Y-132080000D01*
X153416000Y-102644000D02*
X152428000Y-102644000D01*
X126940000Y-81602000D02*
X126920000Y-81582000D01*
X126170000Y-76032000D02*
X126190000Y-76052000D01*
X145768000Y-113058000D02*
X145034000Y-113792000D01*
X158425000Y-91440000D02*
X159497000Y-91440000D01*
X99032000Y-107668000D02*
X99060000Y-107696000D01*
X133790000Y-74632000D02*
X132920000Y-74632000D01*
X135382000Y-78157000D02*
X135657000Y-78432000D01*
X128940000Y-81602000D02*
X128920000Y-81582000D01*
X130098260Y-74013027D02*
X130098260Y-74503740D01*
X106200000Y-132080000D02*
X106172000Y-132052000D01*
X102898000Y-71854000D02*
X102870000Y-71882000D01*
X130098260Y-74503740D02*
X129770000Y-74832000D01*
X148268050Y-81031999D02*
X148755001Y-81031999D01*
D33*
X133322000Y-81506000D02*
X133604000Y-81788000D01*
D31*
X175260000Y-80010000D02*
X175260000Y-77950000D01*
X127340000Y-74812000D02*
X127320000Y-74832000D01*
X152428000Y-102644000D02*
X152400000Y-102616000D01*
%TO.N,+5V*%
D35*
X99135071Y-98345071D02*
X99135071Y-99060000D01*
X99135071Y-102945071D02*
X99822000Y-103632000D01*
X99822000Y-112268000D02*
X107216000Y-119662000D01*
X99135071Y-99060000D02*
X99135071Y-102945071D01*
X107216000Y-119662000D02*
X107216000Y-122428000D01*
X112268000Y-64770000D02*
X112268000Y-71910000D01*
X107216000Y-123416000D02*
X107188000Y-123444000D01*
D32*
X113312000Y-60841469D02*
X113312000Y-61746000D01*
X113261531Y-60791000D02*
X113312000Y-60841469D01*
D35*
X107216000Y-122428000D02*
X107216000Y-123416000D01*
X112522000Y-64262000D02*
X112522000Y-64516000D01*
X107414000Y-71910000D02*
X105664000Y-73660000D01*
X105664000Y-73660000D02*
X105664000Y-83058000D01*
X99822000Y-103632000D02*
X99822000Y-112268000D01*
X99088000Y-98298000D02*
X99135071Y-98345071D01*
X112522000Y-64516000D02*
X112268000Y-64770000D01*
X105664000Y-83058000D02*
X99088000Y-89634000D01*
X112268000Y-71910000D02*
X110970000Y-71910000D01*
X99088000Y-89634000D02*
X99088000Y-98298000D01*
X110970000Y-71910000D02*
X107414000Y-71910000D01*
%TO.N,/Power/+9V_RAW*%
D31*
X114300000Y-66077000D02*
X115303000Y-66077000D01*
X115303000Y-66077000D02*
X115316000Y-66064000D01*
%TO.N,Net-(R11-Pad2)*%
D34*
X130381058Y-69088000D02*
X128524000Y-69088000D01*
X128524000Y-69088000D02*
X127762000Y-69850000D01*
%TO.N,/Digitalker/DIGI_ROM_ADDR8*%
D31*
X148336000Y-104902000D02*
X148336000Y-106934000D01*
X141219000Y-114051000D02*
X137668000Y-114051000D01*
X148336000Y-106934000D02*
X141219000Y-114051000D01*
%TO.N,/Digitalker/DIGI_ROM_ADDR9*%
X149098000Y-104140000D02*
X148249471Y-104140000D01*
X148249471Y-104140000D02*
X140878471Y-111511000D01*
X140878471Y-111511000D02*
X137668000Y-111511000D01*
%TO.N,/Digitalker/DIGI_ROM_ADDR10*%
X149698000Y-103891471D02*
X149346529Y-103540000D01*
X149698000Y-104810000D02*
X149698000Y-103891471D01*
X149346529Y-103540000D02*
X147412000Y-103540000D01*
X147412000Y-103540000D02*
X141981000Y-108971000D01*
X149606000Y-104902000D02*
X149698000Y-104810000D01*
X141981000Y-108971000D02*
X137668000Y-108971000D01*
%TO.N,/Digitalker/DIGI_ROM_ADDR11*%
X150368000Y-104140000D02*
X150368000Y-103995786D01*
X143124000Y-106431000D02*
X137668000Y-106431000D01*
X149496214Y-103124000D02*
X146431000Y-103124000D01*
X146431000Y-103124000D02*
X143124000Y-106431000D01*
X150368000Y-103995786D02*
X149496214Y-103124000D01*
%TO.N,/Digitalker/DIGI_ROM_ADDR12*%
X138943000Y-102616000D02*
X137668000Y-103891000D01*
X149692529Y-102616000D02*
X138943000Y-102616000D01*
X150968000Y-103891471D02*
X149692529Y-102616000D01*
X150897000Y-104902000D02*
X150968000Y-104831000D01*
X150968000Y-104831000D02*
X150968000Y-103891471D01*
%TO.N,/Digitalker/DIGI_ROM_ADDR13*%
X151638000Y-104140000D02*
X151638000Y-103886000D01*
X151638000Y-103886000D02*
X149860000Y-102108000D01*
X138425000Y-102108000D02*
X137668000Y-101351000D01*
X149860000Y-102108000D02*
X138425000Y-102108000D01*
%TO.N,/Digitalker/DIGI_~{ROMEN}*%
X152400000Y-103886000D02*
X148590000Y-100076000D01*
X152400000Y-104699000D02*
X152400000Y-103886000D01*
X152197000Y-104902000D02*
X152400000Y-104699000D01*
X128783000Y-100076000D02*
X122428000Y-106431000D01*
X148590000Y-100076000D02*
X128783000Y-100076000D01*
%TO.N,/Power/+3V3_RAW*%
D32*
X145458000Y-72474000D02*
X145458000Y-71669000D01*
X145458000Y-70145000D02*
X147541000Y-70145000D01*
X145034000Y-72898000D02*
X145458000Y-72474000D01*
X145458000Y-71669000D02*
X145458000Y-70145000D01*
X144780000Y-72898000D02*
X145034000Y-72898000D01*
X147541000Y-70145000D02*
X147574000Y-70112000D01*
%TO.N,/Control/LED_GR*%
D31*
X167132000Y-82296000D02*
X187960000Y-103124000D01*
X157226000Y-82296000D02*
X167132000Y-82296000D01*
X136923000Y-74405000D02*
X138921000Y-74405000D01*
X187960000Y-103124000D02*
X187960000Y-118364000D01*
X136652000Y-74676000D02*
X136923000Y-74405000D01*
X138921000Y-74405000D02*
X142240000Y-77724000D01*
X142240000Y-77724000D02*
X152654000Y-77724000D01*
X152654000Y-77724000D02*
X157226000Y-82296000D01*
%TO.N,+1V1*%
D34*
X126190000Y-78052000D02*
X126870000Y-78052000D01*
X130140000Y-82332000D02*
X130160000Y-82312000D01*
X130160000Y-81582000D02*
X130160000Y-80912000D01*
X132210000Y-78012000D02*
X132190000Y-78032000D01*
D31*
X133740000Y-78032000D02*
X132910000Y-78032000D01*
X126170000Y-78032000D02*
X126190000Y-78052000D01*
D34*
X130160000Y-80912000D02*
X130190000Y-80882000D01*
X130160000Y-82312000D02*
X130160000Y-81582000D01*
D31*
X125390000Y-78032000D02*
X126170000Y-78032000D01*
X132910000Y-78032000D02*
X132890000Y-78012000D01*
D34*
X132890000Y-78012000D02*
X132210000Y-78012000D01*
X126870000Y-78052000D02*
X126890000Y-78032000D01*
%TO.N,/Digitalker/DIGI_RDATA7*%
D31*
X112338000Y-122918193D02*
X112338000Y-123768000D01*
X117602000Y-129032000D02*
X117602000Y-130302000D01*
X112338000Y-123768000D02*
X117602000Y-129032000D01*
X112431143Y-122825050D02*
X112338000Y-122918193D01*
%TO.N,/Digitalker/DIGI_RDATA6*%
X111831143Y-122294019D02*
X111831143Y-124277143D01*
X111831143Y-124277143D02*
X116586000Y-129032000D01*
X116586000Y-129032000D02*
X116586000Y-130302000D01*
X111851671Y-122273491D02*
X111831143Y-122294019D01*
%TO.N,/Digitalker/DIGI_RDATA5*%
X111232000Y-124694000D02*
X115570000Y-129032000D01*
X111232000Y-123083259D02*
X111232000Y-124694000D01*
X115570000Y-129032000D02*
X115570000Y-130302000D01*
X111132000Y-122983259D02*
X111232000Y-123083259D01*
%TO.N,/Digitalker/DIGI_RDATA4*%
X114554000Y-129286000D02*
X114554000Y-130302000D01*
X110632000Y-123698000D02*
X110744000Y-123810000D01*
X110744000Y-123810000D02*
X110744000Y-125476000D01*
X110744000Y-125476000D02*
X114554000Y-129286000D01*
%TO.N,/Digitalker/DIGI_RDATA3*%
X109982000Y-123190000D02*
X107188000Y-125984000D01*
X108458000Y-132334000D02*
X118115000Y-141991000D01*
X107188000Y-127508000D02*
X108458000Y-128778000D01*
X107188000Y-125984000D02*
X107188000Y-127508000D01*
X118115000Y-141991000D02*
X122428000Y-141991000D01*
X108458000Y-128778000D02*
X108458000Y-132334000D01*
%TO.N,/Digitalker/DIGI_RDATA2*%
X117607000Y-139451000D02*
X122428000Y-139451000D01*
X109371271Y-126796632D02*
X109371271Y-131215271D01*
X109371271Y-131215271D02*
X117607000Y-139451000D01*
%TO.N,/Digitalker/DIGI_RDATA1*%
X110490000Y-130302000D02*
X117099000Y-136911000D01*
X109686632Y-126196632D02*
X110490000Y-127000000D01*
X108515687Y-126803687D02*
X109122742Y-126196632D01*
X117099000Y-136911000D02*
X122428000Y-136911000D01*
X109122742Y-126196632D02*
X109686632Y-126196632D01*
X110490000Y-127000000D02*
X110490000Y-130302000D01*
%TO.N,/Digitalker/DIGI_RDATA0*%
X109982000Y-125730000D02*
X113792000Y-129540000D01*
X113792000Y-129540000D02*
X113792000Y-131572000D01*
X116591000Y-134371000D02*
X122428000Y-134371000D01*
X108458000Y-125730000D02*
X109982000Y-125730000D01*
X107950000Y-126238000D02*
X108458000Y-125730000D01*
X113792000Y-131572000D02*
X116591000Y-134371000D01*
%TO.N,Net-(R10-Pad2)*%
X160020000Y-61466000D02*
X160020000Y-60630000D01*
%TO.N,Net-(U1-RUN)*%
X135636000Y-74168000D02*
X135636000Y-75365537D01*
X138768000Y-79672000D02*
X135890000Y-82550000D01*
X138768000Y-78497537D02*
X138768000Y-79672000D01*
X135636000Y-75365537D02*
X138768000Y-78497537D01*
%TO.N,/Digitalker/FILTERED_SPEECH*%
X160909000Y-81153000D02*
X167767000Y-81153000D01*
X173764000Y-75156000D02*
X173764000Y-69342000D01*
X167767000Y-81153000D02*
X173764000Y-75156000D01*
%TO.N,/Control/BUTTON*%
D33*
X147574000Y-83058000D02*
X150876000Y-86360000D01*
X165354000Y-86360000D02*
X167640000Y-88646000D01*
X167640000Y-112268000D02*
X170180000Y-114808000D01*
X147574000Y-79011000D02*
X147574000Y-83058000D01*
X167640000Y-88646000D02*
X167640000Y-112268000D01*
X150876000Y-86360000D02*
X165354000Y-86360000D01*
%TO.N,Net-(J5-PadR)*%
D31*
X178816000Y-68324000D02*
X180034000Y-68324000D01*
X180034000Y-68324000D02*
X181080000Y-67278000D01*
%TO.N,Net-(J5-PadT)*%
X184516000Y-69342000D02*
X186580000Y-67278000D01*
X184406000Y-69342000D02*
X184516000Y-69342000D01*
%TO.N,/Control/XIN*%
X129286000Y-84954718D02*
X129340000Y-84900718D01*
X129286000Y-85852000D02*
X129286000Y-84954718D01*
X129340000Y-85798000D02*
X129286000Y-85852000D01*
%TO.N,/Digitalker/DIGI_SW8*%
X106680000Y-98552000D02*
X122179000Y-114051000D01*
X122179000Y-114051000D02*
X122428000Y-114051000D01*
X104394000Y-98552000D02*
X106680000Y-98552000D01*
%TO.N,/Digitalker/DIGI_SW7*%
X103794000Y-97905252D02*
X103794000Y-99308529D01*
X103909252Y-97790000D02*
X103794000Y-97905252D01*
X103794000Y-99308529D02*
X121076471Y-116591000D01*
X121076471Y-116591000D02*
X122428000Y-116591000D01*
%TO.N,/Digitalker/DIGI_SW6*%
X103139965Y-97570452D02*
X103139965Y-100599965D01*
X121671000Y-119131000D02*
X122428000Y-119131000D01*
X103139965Y-100599965D02*
X121671000Y-119131000D01*
%TO.N,/Digitalker/DIGI_SW5*%
X102476000Y-98298000D02*
X102739965Y-98561965D01*
X102739965Y-98561965D02*
X102739965Y-101982965D01*
X102739965Y-101982965D02*
X122428000Y-121671000D01*
%TO.N,/Digitalker/DIGI_SW4*%
X102299788Y-99383788D02*
X102299788Y-104458788D01*
X102299788Y-104458788D02*
X122052000Y-124211000D01*
X122052000Y-124211000D02*
X122428000Y-124211000D01*
X101976000Y-99060000D02*
X102299788Y-99383788D01*
%TO.N,/Digitalker/DIGI_SW3*%
X101699788Y-106022788D02*
X122428000Y-126751000D01*
X101699788Y-101850540D02*
X101699788Y-106022788D01*
%TO.N,/Digitalker/DIGI_SW2*%
X100900266Y-101878263D02*
X100900266Y-107763266D01*
X100900266Y-107763266D02*
X122428000Y-129291000D01*
%TO.N,/Digitalker/DIGI_SW1*%
X100330000Y-109733000D02*
X122428000Y-131831000D01*
X100076000Y-101854000D02*
X100330000Y-102108000D01*
X100330000Y-102108000D02*
X100330000Y-109733000D01*
%TO.N,+9V*%
D36*
X120610000Y-68326000D02*
X132588000Y-68326000D01*
X132588000Y-68326000D02*
X134597500Y-70335500D01*
X137663000Y-96266000D02*
X137668000Y-96271000D01*
X134597500Y-70335500D02*
X134597500Y-86845500D01*
X134597500Y-86845500D02*
X137668000Y-89916000D01*
X137668000Y-89916000D02*
X137668000Y-96271000D01*
X135608000Y-96266000D02*
X137663000Y-96266000D01*
X119364000Y-67080000D02*
X120610000Y-68326000D01*
%TO.N,Net-(U10A-+)*%
D31*
X148082000Y-90932000D02*
X143030000Y-95984000D01*
X155560000Y-90932000D02*
X148082000Y-90932000D01*
X141986000Y-97788000D02*
X141984000Y-97790000D01*
X141986000Y-95984000D02*
X141986000Y-97788000D01*
X143030000Y-95984000D02*
X141986000Y-95984000D01*
X155702000Y-90790000D02*
X155560000Y-90932000D01*
%TO.N,/Digitalker/DIGI_ROM_ADDR1*%
X141986000Y-126694000D02*
X141986000Y-127513000D01*
X141986000Y-127513000D02*
X137668000Y-131831000D01*
X141885000Y-126593000D02*
X141986000Y-126694000D01*
%TO.N,/Digitalker/DIGI_ROM_ADDR2*%
X142494000Y-124465000D02*
X137668000Y-129291000D01*
X142494000Y-123190000D02*
X142494000Y-124465000D01*
%TO.N,/Digitalker/DIGI_ROM_ADDR3*%
X143256000Y-121163000D02*
X137668000Y-126751000D01*
X143256000Y-120396000D02*
X143256000Y-121163000D01*
%TO.N,/Digitalker/DIGI_ROM_ADDR4*%
X142240000Y-119634000D02*
X141224000Y-120650000D01*
X143764000Y-119634000D02*
X142240000Y-119634000D01*
X141224000Y-120655000D02*
X137668000Y-124211000D01*
X141224000Y-120650000D02*
X141224000Y-120655000D01*
%TO.N,/Digitalker/DIGI_ROM_ADDR5*%
X144526000Y-118872000D02*
X140462000Y-118872000D01*
X140462000Y-118872000D02*
X140462000Y-118877000D01*
X140462000Y-118877000D02*
X137668000Y-121671000D01*
%TO.N,/Digitalker/DIGI_ROM_ADDR6*%
X145034000Y-118110000D02*
X138689000Y-118110000D01*
X138689000Y-118110000D02*
X137668000Y-119131000D01*
%TO.N,/USB_D-*%
D34*
X129342459Y-64820497D02*
X129342459Y-64826459D01*
X130374147Y-65858147D02*
X130374147Y-66536781D01*
X129342459Y-64826459D02*
X130374147Y-65858147D01*
%TO.N,/Control/~{SD_CS}*%
D31*
X147320000Y-76962000D02*
X166624000Y-76962000D01*
X166624000Y-76962000D02*
X167640000Y-77978000D01*
%TO.N,/Control/SD_DET*%
X138791000Y-76307000D02*
X150114000Y-87630000D01*
X150114000Y-87630000D02*
X165100000Y-87630000D01*
X138684000Y-76307000D02*
X138791000Y-76307000D01*
%TO.N,/Control/LED_RED*%
D33*
X169418000Y-110490000D02*
X169418000Y-88138000D01*
X173228000Y-114300000D02*
X169418000Y-110490000D01*
X138033765Y-74930000D02*
X137414000Y-74930000D01*
X183134000Y-118364000D02*
X179070000Y-114300000D01*
X150114000Y-78232000D02*
X141335765Y-78232000D01*
X169418000Y-88138000D02*
X164846000Y-83566000D01*
X179070000Y-114300000D02*
X173228000Y-114300000D01*
X164846000Y-83566000D02*
X155448000Y-83566000D01*
X155448000Y-83566000D02*
X150114000Y-78232000D01*
X141335765Y-78232000D02*
X138033765Y-74930000D01*
%TO.N,Net-(J2-CC1)*%
D31*
X130810000Y-64516000D02*
X130810000Y-63502000D01*
X130810000Y-63502000D02*
X130812000Y-63500000D01*
%TO.N,Net-(J2-CC2)*%
X127762000Y-64516000D02*
X127762000Y-63502000D01*
X127762000Y-63502000D02*
X127760000Y-63500000D01*
%TO.N,/~{SPEAKER_DISABLE}*%
X137414000Y-75692000D02*
X137397000Y-75709000D01*
X150876000Y-89662000D02*
X161290000Y-89662000D01*
X161290000Y-89662000D02*
X162306000Y-90678000D01*
X162306000Y-90678000D02*
X162306000Y-102108000D01*
X137397000Y-76183000D02*
X150876000Y-89662000D01*
X137397000Y-75709000D02*
X137397000Y-76183000D01*
%TO.N,/Digitalker/V_BIAS*%
X144778000Y-97790000D02*
X144778000Y-99060000D01*
X144808000Y-96520000D02*
X144808000Y-97760000D01*
X148844000Y-97536000D02*
X157917000Y-97536000D01*
X147066000Y-95758000D02*
X148844000Y-97536000D01*
X144808000Y-97760000D02*
X144778000Y-97790000D01*
X144808000Y-96520000D02*
X145570000Y-95758000D01*
X143004000Y-97790000D02*
X144778000Y-97790000D01*
X145570000Y-95758000D02*
X147066000Y-95758000D01*
%TO.N,/Digitalker/DIGI_CMS*%
X108458000Y-75692000D02*
X108458000Y-97541000D01*
X108458000Y-97541000D02*
X122428000Y-111511000D01*
%TO.N,/Digitalker/DIGI_~{WR}*%
X119634000Y-85598000D02*
X119634000Y-101097000D01*
X108712000Y-74676000D02*
X119634000Y-85598000D01*
X119634000Y-101097000D02*
X122428000Y-103891000D01*
X108204000Y-74676000D02*
X108712000Y-74676000D01*
%TO.N,/Digitalker/DIGI_~{CS}*%
X109689997Y-73875997D02*
X120650000Y-84836000D01*
X120650000Y-99573000D02*
X122428000Y-101351000D01*
X107696000Y-73875997D02*
X109689997Y-73875997D01*
X120650000Y-84836000D02*
X120650000Y-99573000D01*
%TO.N,/Digitalker/DIGI_CLK_4MHZ*%
X122428000Y-85090000D02*
X122428000Y-96271000D01*
X110490000Y-73152000D02*
X122428000Y-85090000D01*
X108501265Y-73152000D02*
X110490000Y-73152000D01*
%TO.N,Net-(XC1-SPEECH_OUT)*%
X141455000Y-95024000D02*
X141986000Y-95024000D01*
X137668000Y-98811000D02*
X141455000Y-95024000D01*
%TO.N,Net-(C55-Pad1)*%
X176782000Y-69342000D02*
X176784000Y-69340000D01*
X174724000Y-69342000D02*
X176782000Y-69342000D01*
X176784000Y-69340000D02*
X177290000Y-69340000D01*
X177290000Y-69340000D02*
X177294000Y-69344000D01*
X177294000Y-69344000D02*
X178816000Y-69344000D01*
X178816000Y-69344000D02*
X183384000Y-69344000D01*
X183384000Y-69344000D02*
X183386000Y-69342000D01*
%TD*%
%TA.AperFunction,Conductor*%
%TO.N,+1V1*%
G36*
X131499001Y-70685728D02*
G01*
X131541960Y-70703522D01*
X131568476Y-70730036D01*
X131568478Y-70730040D01*
X131586270Y-70772994D01*
X131590000Y-70791745D01*
X131590000Y-71222254D01*
X131586270Y-71241005D01*
X131568478Y-71283959D01*
X131541960Y-71310478D01*
X131541959Y-71310478D01*
X131499005Y-71328270D01*
X131480254Y-71332000D01*
X131447636Y-71332000D01*
X131434954Y-71330330D01*
X131346021Y-71306500D01*
X131346018Y-71306500D01*
X131233982Y-71306500D01*
X131233979Y-71306500D01*
X131145046Y-71330330D01*
X131132364Y-71332000D01*
X130990000Y-71332000D01*
X130990000Y-71409956D01*
X130975648Y-71444604D01*
X130949516Y-71470736D01*
X130949515Y-71470736D01*
X130893497Y-71567760D01*
X130893496Y-71567764D01*
X130864500Y-71675978D01*
X130864500Y-71788021D01*
X130893496Y-71896235D01*
X130893497Y-71896239D01*
X130949515Y-71993263D01*
X130975648Y-72019396D01*
X130990000Y-72054044D01*
X130990000Y-75482000D01*
X132180254Y-75482000D01*
X132199001Y-75485728D01*
X132241960Y-75503522D01*
X132268476Y-75530036D01*
X132268478Y-75530040D01*
X132286270Y-75572994D01*
X132290000Y-75591745D01*
X132290000Y-80640430D01*
X132275648Y-80675078D01*
X131983079Y-80967648D01*
X131948431Y-80982000D01*
X126899746Y-80982000D01*
X126880995Y-80978270D01*
X126870565Y-80973949D01*
X126838039Y-80960477D01*
X126811523Y-80933962D01*
X126793728Y-80891001D01*
X126790000Y-80872254D01*
X126790000Y-75591745D01*
X126793728Y-75572999D01*
X126811523Y-75530037D01*
X126838034Y-75503524D01*
X126880998Y-75485728D01*
X126899746Y-75482000D01*
X130390000Y-75482000D01*
X130390000Y-74582444D01*
X130391670Y-74569761D01*
X130398760Y-74543303D01*
X130398760Y-74334571D01*
X130413112Y-74299923D01*
X130438744Y-74274291D01*
X130438745Y-74274290D01*
X130494763Y-74177264D01*
X130523759Y-74069048D01*
X130523760Y-74069048D01*
X130523760Y-73957006D01*
X130523759Y-73957005D01*
X130494763Y-73848791D01*
X130494762Y-73848787D01*
X130438744Y-73751763D01*
X130404352Y-73717371D01*
X130390000Y-73682723D01*
X130390000Y-70791745D01*
X130393728Y-70772999D01*
X130411523Y-70730037D01*
X130438034Y-70703524D01*
X130480998Y-70685728D01*
X130499746Y-70682000D01*
X131480254Y-70682000D01*
X131499001Y-70685728D01*
G37*
%TD.AperFunction*%
%TD*%
M02*
