%TF.GenerationSoftware,KiCad,Pcbnew,10.0.5*%
%TF.CreationDate,2026-08-03T17:09:23-04:00*%
%TF.ProjectId,Digichiver,44696769-6368-4697-9665-722e6b696361,0*%
%TF.SameCoordinates,Original*%
%TF.FileFunction,Soldermask,Top*%
%TF.FilePolarity,Negative*%
%FSLAX46Y46*%
G04 Gerber Fmt 4.6, Leading zero omitted, Abs format (unit mm)*
G04 Created by KiCad (PCBNEW 10.0.5) date 2026-08-03 17:09:23*
%MOMM*%
%LPD*%
G01*
G04 APERTURE LIST*
G04 Aperture macros list*
%AMRoundRect*
0 Rectangle with rounded corners*
0 $1 Rounding radius*
0 $2 $3 $4 $5 $6 $7 $8 $9 X,Y pos of 4 corners*
0 Add a 4 corners polygon primitive as box body*
4,1,4,$2,$3,$4,$5,$6,$7,$8,$9,$2,$3,0*
0 Add four circle primitives for the rounded corners*
1,1,$1+$1,$2,$3*
1,1,$1+$1,$4,$5*
1,1,$1+$1,$6,$7*
1,1,$1+$1,$8,$9*
0 Add four rect primitives between the rounded corners*
20,1,$1+$1,$2,$3,$4,$5,0*
20,1,$1+$1,$4,$5,$6,$7,0*
20,1,$1+$1,$6,$7,$8,$9,0*
20,1,$1+$1,$8,$9,$2,$3,0*%
G04 Aperture macros list end*
%ADD10C,0.010000*%
%ADD11RoundRect,0.140000X0.140000X0.170000X-0.140000X0.170000X-0.140000X-0.170000X0.140000X-0.170000X0*%
%ADD12RoundRect,0.140000X0.170000X-0.140000X0.170000X0.140000X-0.170000X0.140000X-0.170000X-0.140000X0*%
%ADD13RoundRect,0.135000X-0.135000X-0.185000X0.135000X-0.185000X0.135000X0.185000X-0.135000X0.185000X0*%
%ADD14RoundRect,0.218750X0.256250X-0.218750X0.256250X0.218750X-0.256250X0.218750X-0.256250X-0.218750X0*%
%ADD15RoundRect,0.135000X0.185000X-0.135000X0.185000X0.135000X-0.185000X0.135000X-0.185000X-0.135000X0*%
%ADD16RoundRect,0.050000X-0.050000X0.362500X-0.050000X-0.362500X0.050000X-0.362500X0.050000X0.362500X0*%
%ADD17RoundRect,0.050000X-0.362500X0.050000X-0.362500X-0.050000X0.362500X-0.050000X0.362500X0.050000X0*%
%ADD18R,1.700000X1.700000*%
%ADD19RoundRect,0.140000X-0.140000X-0.170000X0.140000X-0.170000X0.140000X0.170000X-0.140000X0.170000X0*%
%ADD20RoundRect,0.150000X-0.150000X0.512500X-0.150000X-0.512500X0.150000X-0.512500X0.150000X0.512500X0*%
%ADD21RoundRect,0.250000X-0.525000X-0.250000X0.525000X-0.250000X0.525000X0.250000X-0.525000X0.250000X0*%
%ADD22RoundRect,0.100000X0.100000X-0.637500X0.100000X0.637500X-0.100000X0.637500X-0.100000X-0.637500X0*%
%ADD23RoundRect,0.135000X-0.185000X0.135000X-0.185000X-0.135000X0.185000X-0.135000X0.185000X0.135000X0*%
%ADD24RoundRect,0.135000X0.135000X0.185000X-0.135000X0.185000X-0.135000X-0.185000X0.135000X-0.185000X0*%
%ADD25RoundRect,0.140000X-0.170000X0.140000X-0.170000X-0.140000X0.170000X-0.140000X0.170000X0.140000X0*%
%ADD26RoundRect,0.115000X-0.115000X-0.195000X0.115000X-0.195000X0.115000X0.195000X-0.115000X0.195000X0*%
%ADD27RoundRect,0.075000X0.075000X-0.662500X0.075000X0.662500X-0.075000X0.662500X-0.075000X-0.662500X0*%
%ADD28C,2.700000*%
%ADD29RoundRect,0.218750X-0.218750X-0.381250X0.218750X-0.381250X0.218750X0.381250X-0.218750X0.381250X0*%
%ADD30O,1.800000X2.800000*%
%ADD31RoundRect,0.250000X-0.350000X0.450000X-0.350000X-0.450000X0.350000X-0.450000X0.350000X0.450000X0*%
%ADD32RoundRect,0.120000X0.119999X0.200000X-0.119999X0.200000X-0.119999X-0.200000X0.119999X-0.200000X0*%
%ADD33RoundRect,0.120000X0.120000X0.200000X-0.120000X0.200000X-0.120000X-0.200000X0.120000X-0.200000X0*%
%ADD34R,0.850000X0.850000*%
%ADD35C,0.850000*%
%ADD36RoundRect,0.100000X-0.637500X-0.100000X0.637500X-0.100000X0.637500X0.100000X-0.637500X0.100000X0*%
%ADD37C,3.420000*%
%ADD38C,1.712000*%
%ADD39R,1.200000X0.700000*%
%ADD40R,0.800000X1.000000*%
%ADD41R,1.200000X1.000000*%
%ADD42R,2.800000X1.000000*%
%ADD43R,1.900000X1.300000*%
%ADD44C,0.650000*%
%ADD45RoundRect,0.150000X0.150000X0.425000X-0.150000X0.425000X-0.150000X-0.425000X0.150000X-0.425000X0*%
%ADD46RoundRect,0.075000X0.075000X0.500000X-0.075000X0.500000X-0.075000X-0.500000X0.075000X-0.500000X0*%
%ADD47O,1.000000X2.100000*%
%ADD48O,1.000000X1.800000*%
%ADD49RoundRect,0.100000X-0.100000X0.712500X-0.100000X-0.712500X0.100000X-0.712500X0.100000X0.712500X0*%
%ADD50RoundRect,0.075000X-0.662500X-0.075000X0.662500X-0.075000X0.662500X0.075000X-0.662500X0.075000X0*%
%ADD51RoundRect,0.250000X-0.550000X-0.550000X0.550000X-0.550000X0.550000X0.550000X-0.550000X0.550000X0*%
%ADD52C,1.600000*%
%ADD53RoundRect,0.050000X-0.350000X-0.050000X0.350000X-0.050000X0.350000X0.050000X-0.350000X0.050000X0*%
%ADD54RoundRect,0.050000X-0.050000X-0.350000X0.050000X-0.350000X0.050000X0.350000X-0.050000X0.350000X0*%
%ADD55R,3.400000X3.400000*%
%ADD56C,3.204000*%
G04 APERTURE END LIST*
D10*
%TO.C,U8*%
X140801000Y-70016000D02*
X140801000Y-70216000D01*
X140801000Y-70221000D01*
X140800000Y-70226000D01*
X140800000Y-70232000D01*
X140799000Y-70237000D01*
X140798000Y-70242000D01*
X140796000Y-70247000D01*
X140794000Y-70252000D01*
X140792000Y-70257000D01*
X140790000Y-70261000D01*
X140788000Y-70266000D01*
X140785000Y-70270000D01*
X140782000Y-70275000D01*
X140779000Y-70279000D01*
X140775000Y-70283000D01*
X140772000Y-70287000D01*
X140768000Y-70290000D01*
X140764000Y-70294000D01*
X140760000Y-70297000D01*
X140755000Y-70300000D01*
X140751000Y-70303000D01*
X140746000Y-70305000D01*
X140742000Y-70307000D01*
X140737000Y-70309000D01*
X140732000Y-70311000D01*
X140727000Y-70313000D01*
X140722000Y-70314000D01*
X140717000Y-70315000D01*
X140711000Y-70315000D01*
X140706000Y-70316000D01*
X140701000Y-70316000D01*
X140251000Y-70316000D01*
X140246000Y-70316000D01*
X140241000Y-70315000D01*
X140235000Y-70315000D01*
X140230000Y-70314000D01*
X140225000Y-70313000D01*
X140220000Y-70311000D01*
X140215000Y-70309000D01*
X140210000Y-70307000D01*
X140206000Y-70305000D01*
X140201000Y-70303000D01*
X140197000Y-70300000D01*
X140192000Y-70297000D01*
X140188000Y-70294000D01*
X140184000Y-70290000D01*
X140180000Y-70287000D01*
X140177000Y-70283000D01*
X140173000Y-70279000D01*
X140170000Y-70275000D01*
X140167000Y-70270000D01*
X140164000Y-70266000D01*
X140162000Y-70261000D01*
X140160000Y-70257000D01*
X140158000Y-70252000D01*
X140156000Y-70247000D01*
X140154000Y-70242000D01*
X140153000Y-70237000D01*
X140152000Y-70232000D01*
X140152000Y-70226000D01*
X140151000Y-70221000D01*
X140151000Y-70216000D01*
X140151000Y-70016000D01*
X140151000Y-70011000D01*
X140152000Y-70006000D01*
X140152000Y-70000000D01*
X140153000Y-69995000D01*
X140154000Y-69990000D01*
X140156000Y-69985000D01*
X140158000Y-69980000D01*
X140160000Y-69975000D01*
X140162000Y-69971000D01*
X140164000Y-69966000D01*
X140167000Y-69962000D01*
X140170000Y-69957000D01*
X140173000Y-69953000D01*
X140177000Y-69949000D01*
X140180000Y-69945000D01*
X140184000Y-69942000D01*
X140188000Y-69938000D01*
X140192000Y-69935000D01*
X140197000Y-69932000D01*
X140201000Y-69929000D01*
X140206000Y-69927000D01*
X140210000Y-69925000D01*
X140215000Y-69923000D01*
X140220000Y-69921000D01*
X140225000Y-69919000D01*
X140230000Y-69918000D01*
X140235000Y-69917000D01*
X140241000Y-69917000D01*
X140246000Y-69916000D01*
X140251000Y-69916000D01*
X140701000Y-69916000D01*
X140706000Y-69916000D01*
X140711000Y-69917000D01*
X140717000Y-69917000D01*
X140722000Y-69918000D01*
X140727000Y-69919000D01*
X140732000Y-69921000D01*
X140737000Y-69923000D01*
X140742000Y-69925000D01*
X140746000Y-69927000D01*
X140751000Y-69929000D01*
X140755000Y-69932000D01*
X140760000Y-69935000D01*
X140764000Y-69938000D01*
X140768000Y-69942000D01*
X140772000Y-69945000D01*
X140775000Y-69949000D01*
X140779000Y-69953000D01*
X140782000Y-69957000D01*
X140785000Y-69962000D01*
X140788000Y-69966000D01*
X140790000Y-69971000D01*
X140792000Y-69975000D01*
X140794000Y-69980000D01*
X140796000Y-69985000D01*
X140798000Y-69990000D01*
X140799000Y-69995000D01*
X140800000Y-70000000D01*
X140800000Y-70006000D01*
X140801000Y-70011000D01*
X140801000Y-70016000D01*
G36*
X140711000Y-69917000D02*
G01*
X140717000Y-69917000D01*
X140722000Y-69918000D01*
X140727000Y-69919000D01*
X140732000Y-69921000D01*
X140737000Y-69923000D01*
X140742000Y-69925000D01*
X140746000Y-69927000D01*
X140751000Y-69929000D01*
X140755000Y-69932000D01*
X140760000Y-69935000D01*
X140764000Y-69938000D01*
X140768000Y-69942000D01*
X140772000Y-69945000D01*
X140775000Y-69949000D01*
X140779000Y-69953000D01*
X140782000Y-69957000D01*
X140785000Y-69962000D01*
X140788000Y-69966000D01*
X140790000Y-69971000D01*
X140792000Y-69975000D01*
X140794000Y-69980000D01*
X140796000Y-69985000D01*
X140798000Y-69990000D01*
X140799000Y-69995000D01*
X140800000Y-70000000D01*
X140800000Y-70006000D01*
X140801000Y-70011000D01*
X140801000Y-70016000D01*
X140801000Y-70216000D01*
X140801000Y-70221000D01*
X140800000Y-70226000D01*
X140800000Y-70232000D01*
X140799000Y-70237000D01*
X140798000Y-70242000D01*
X140796000Y-70247000D01*
X140794000Y-70252000D01*
X140792000Y-70257000D01*
X140790000Y-70261000D01*
X140788000Y-70266000D01*
X140785000Y-70270000D01*
X140782000Y-70275000D01*
X140779000Y-70279000D01*
X140775000Y-70283000D01*
X140772000Y-70287000D01*
X140768000Y-70290000D01*
X140764000Y-70294000D01*
X140760000Y-70297000D01*
X140755000Y-70300000D01*
X140751000Y-70303000D01*
X140746000Y-70305000D01*
X140742000Y-70307000D01*
X140737000Y-70309000D01*
X140732000Y-70311000D01*
X140727000Y-70313000D01*
X140722000Y-70314000D01*
X140717000Y-70315000D01*
X140711000Y-70315000D01*
X140706000Y-70316000D01*
X140701000Y-70316000D01*
X140251000Y-70316000D01*
X140246000Y-70316000D01*
X140241000Y-70315000D01*
X140235000Y-70315000D01*
X140230000Y-70314000D01*
X140225000Y-70313000D01*
X140220000Y-70311000D01*
X140215000Y-70309000D01*
X140210000Y-70307000D01*
X140206000Y-70305000D01*
X140201000Y-70303000D01*
X140197000Y-70300000D01*
X140192000Y-70297000D01*
X140188000Y-70294000D01*
X140184000Y-70290000D01*
X140180000Y-70287000D01*
X140177000Y-70283000D01*
X140173000Y-70279000D01*
X140170000Y-70275000D01*
X140167000Y-70270000D01*
X140164000Y-70266000D01*
X140162000Y-70261000D01*
X140160000Y-70257000D01*
X140158000Y-70252000D01*
X140156000Y-70247000D01*
X140154000Y-70242000D01*
X140153000Y-70237000D01*
X140152000Y-70232000D01*
X140152000Y-70226000D01*
X140151000Y-70221000D01*
X140151000Y-70216000D01*
X140151000Y-70016000D01*
X140151000Y-70011000D01*
X140152000Y-70006000D01*
X140152000Y-70000000D01*
X140153000Y-69995000D01*
X140154000Y-69990000D01*
X140156000Y-69985000D01*
X140158000Y-69980000D01*
X140160000Y-69975000D01*
X140162000Y-69971000D01*
X140164000Y-69966000D01*
X140167000Y-69962000D01*
X140170000Y-69957000D01*
X140173000Y-69953000D01*
X140177000Y-69949000D01*
X140180000Y-69945000D01*
X140184000Y-69942000D01*
X140188000Y-69938000D01*
X140192000Y-69935000D01*
X140197000Y-69932000D01*
X140201000Y-69929000D01*
X140206000Y-69927000D01*
X140210000Y-69925000D01*
X140215000Y-69923000D01*
X140220000Y-69921000D01*
X140225000Y-69919000D01*
X140230000Y-69918000D01*
X140235000Y-69917000D01*
X140241000Y-69917000D01*
X140246000Y-69916000D01*
X140251000Y-69916000D01*
X140701000Y-69916000D01*
X140706000Y-69916000D01*
X140711000Y-69917000D01*
G37*
X141351000Y-70991000D02*
X141351000Y-71691000D01*
X141351000Y-71696000D01*
X141350000Y-71701000D01*
X141350000Y-71707000D01*
X141349000Y-71712000D01*
X141348000Y-71717000D01*
X141346000Y-71722000D01*
X141344000Y-71727000D01*
X141342000Y-71732000D01*
X141340000Y-71736000D01*
X141338000Y-71741000D01*
X141335000Y-71745000D01*
X141332000Y-71750000D01*
X141329000Y-71754000D01*
X141325000Y-71758000D01*
X141322000Y-71762000D01*
X141318000Y-71765000D01*
X141314000Y-71769000D01*
X141310000Y-71772000D01*
X141305000Y-71775000D01*
X141301000Y-71778000D01*
X141296000Y-71780000D01*
X141292000Y-71782000D01*
X141287000Y-71784000D01*
X141282000Y-71786000D01*
X141277000Y-71788000D01*
X141272000Y-71789000D01*
X141267000Y-71790000D01*
X141261000Y-71790000D01*
X141256000Y-71791000D01*
X141251000Y-71791000D01*
X141101000Y-71791000D01*
X141096000Y-71791000D01*
X141091000Y-71790000D01*
X141085000Y-71790000D01*
X141080000Y-71789000D01*
X141075000Y-71788000D01*
X141070000Y-71786000D01*
X141065000Y-71784000D01*
X141060000Y-71782000D01*
X141056000Y-71780000D01*
X141051000Y-71778000D01*
X141047000Y-71775000D01*
X141042000Y-71772000D01*
X141038000Y-71769000D01*
X141034000Y-71765000D01*
X141030000Y-71762000D01*
X141027000Y-71758000D01*
X141023000Y-71754000D01*
X141020000Y-71750000D01*
X141017000Y-71745000D01*
X141014000Y-71741000D01*
X141012000Y-71736000D01*
X141010000Y-71732000D01*
X141008000Y-71727000D01*
X141006000Y-71722000D01*
X141004000Y-71717000D01*
X141003000Y-71712000D01*
X141002000Y-71707000D01*
X141002000Y-71701000D01*
X141001000Y-71696000D01*
X141001000Y-71691000D01*
X141001000Y-70991000D01*
X141001000Y-70986000D01*
X141002000Y-70981000D01*
X141002000Y-70975000D01*
X141003000Y-70970000D01*
X141004000Y-70965000D01*
X141006000Y-70960000D01*
X141008000Y-70955000D01*
X141010000Y-70950000D01*
X141012000Y-70946000D01*
X141014000Y-70941000D01*
X141017000Y-70937000D01*
X141020000Y-70932000D01*
X141023000Y-70928000D01*
X141027000Y-70924000D01*
X141030000Y-70920000D01*
X141034000Y-70917000D01*
X141038000Y-70913000D01*
X141042000Y-70910000D01*
X141047000Y-70907000D01*
X141051000Y-70904000D01*
X141056000Y-70902000D01*
X141060000Y-70900000D01*
X141065000Y-70898000D01*
X141070000Y-70896000D01*
X141075000Y-70894000D01*
X141080000Y-70893000D01*
X141085000Y-70892000D01*
X141091000Y-70892000D01*
X141096000Y-70891000D01*
X141101000Y-70891000D01*
X141251000Y-70891000D01*
X141256000Y-70891000D01*
X141261000Y-70892000D01*
X141267000Y-70892000D01*
X141272000Y-70893000D01*
X141277000Y-70894000D01*
X141282000Y-70896000D01*
X141287000Y-70898000D01*
X141292000Y-70900000D01*
X141296000Y-70902000D01*
X141301000Y-70904000D01*
X141305000Y-70907000D01*
X141310000Y-70910000D01*
X141314000Y-70913000D01*
X141318000Y-70917000D01*
X141322000Y-70920000D01*
X141325000Y-70924000D01*
X141329000Y-70928000D01*
X141332000Y-70932000D01*
X141335000Y-70937000D01*
X141338000Y-70941000D01*
X141340000Y-70946000D01*
X141342000Y-70950000D01*
X141344000Y-70955000D01*
X141346000Y-70960000D01*
X141348000Y-70965000D01*
X141349000Y-70970000D01*
X141350000Y-70975000D01*
X141350000Y-70981000D01*
X141351000Y-70986000D01*
X141351000Y-70991000D01*
G36*
X141261000Y-70892000D02*
G01*
X141267000Y-70892000D01*
X141272000Y-70893000D01*
X141277000Y-70894000D01*
X141282000Y-70896000D01*
X141287000Y-70898000D01*
X141292000Y-70900000D01*
X141296000Y-70902000D01*
X141301000Y-70904000D01*
X141305000Y-70907000D01*
X141310000Y-70910000D01*
X141314000Y-70913000D01*
X141318000Y-70917000D01*
X141322000Y-70920000D01*
X141325000Y-70924000D01*
X141329000Y-70928000D01*
X141332000Y-70932000D01*
X141335000Y-70937000D01*
X141338000Y-70941000D01*
X141340000Y-70946000D01*
X141342000Y-70950000D01*
X141344000Y-70955000D01*
X141346000Y-70960000D01*
X141348000Y-70965000D01*
X141349000Y-70970000D01*
X141350000Y-70975000D01*
X141350000Y-70981000D01*
X141351000Y-70986000D01*
X141351000Y-70991000D01*
X141351000Y-71691000D01*
X141351000Y-71696000D01*
X141350000Y-71701000D01*
X141350000Y-71707000D01*
X141349000Y-71712000D01*
X141348000Y-71717000D01*
X141346000Y-71722000D01*
X141344000Y-71727000D01*
X141342000Y-71732000D01*
X141340000Y-71736000D01*
X141338000Y-71741000D01*
X141335000Y-71745000D01*
X141332000Y-71750000D01*
X141329000Y-71754000D01*
X141325000Y-71758000D01*
X141322000Y-71762000D01*
X141318000Y-71765000D01*
X141314000Y-71769000D01*
X141310000Y-71772000D01*
X141305000Y-71775000D01*
X141301000Y-71778000D01*
X141296000Y-71780000D01*
X141292000Y-71782000D01*
X141287000Y-71784000D01*
X141282000Y-71786000D01*
X141277000Y-71788000D01*
X141272000Y-71789000D01*
X141267000Y-71790000D01*
X141261000Y-71790000D01*
X141256000Y-71791000D01*
X141251000Y-71791000D01*
X141101000Y-71791000D01*
X141096000Y-71791000D01*
X141091000Y-71790000D01*
X141085000Y-71790000D01*
X141080000Y-71789000D01*
X141075000Y-71788000D01*
X141070000Y-71786000D01*
X141065000Y-71784000D01*
X141060000Y-71782000D01*
X141056000Y-71780000D01*
X141051000Y-71778000D01*
X141047000Y-71775000D01*
X141042000Y-71772000D01*
X141038000Y-71769000D01*
X141034000Y-71765000D01*
X141030000Y-71762000D01*
X141027000Y-71758000D01*
X141023000Y-71754000D01*
X141020000Y-71750000D01*
X141017000Y-71745000D01*
X141014000Y-71741000D01*
X141012000Y-71736000D01*
X141010000Y-71732000D01*
X141008000Y-71727000D01*
X141006000Y-71722000D01*
X141004000Y-71717000D01*
X141003000Y-71712000D01*
X141002000Y-71707000D01*
X141002000Y-71701000D01*
X141001000Y-71696000D01*
X141001000Y-71691000D01*
X141001000Y-70991000D01*
X141001000Y-70986000D01*
X141002000Y-70981000D01*
X141002000Y-70975000D01*
X141003000Y-70970000D01*
X141004000Y-70965000D01*
X141006000Y-70960000D01*
X141008000Y-70955000D01*
X141010000Y-70950000D01*
X141012000Y-70946000D01*
X141014000Y-70941000D01*
X141017000Y-70937000D01*
X141020000Y-70932000D01*
X141023000Y-70928000D01*
X141027000Y-70924000D01*
X141030000Y-70920000D01*
X141034000Y-70917000D01*
X141038000Y-70913000D01*
X141042000Y-70910000D01*
X141047000Y-70907000D01*
X141051000Y-70904000D01*
X141056000Y-70902000D01*
X141060000Y-70900000D01*
X141065000Y-70898000D01*
X141070000Y-70896000D01*
X141075000Y-70894000D01*
X141080000Y-70893000D01*
X141085000Y-70892000D01*
X141091000Y-70892000D01*
X141096000Y-70891000D01*
X141101000Y-70891000D01*
X141251000Y-70891000D01*
X141256000Y-70891000D01*
X141261000Y-70892000D01*
G37*
X141851000Y-70991000D02*
X141851000Y-71691000D01*
X141851000Y-71696000D01*
X141850000Y-71701000D01*
X141850000Y-71707000D01*
X141849000Y-71712000D01*
X141848000Y-71717000D01*
X141846000Y-71722000D01*
X141844000Y-71727000D01*
X141842000Y-71732000D01*
X141840000Y-71736000D01*
X141838000Y-71741000D01*
X141835000Y-71745000D01*
X141832000Y-71750000D01*
X141829000Y-71754000D01*
X141825000Y-71758000D01*
X141822000Y-71762000D01*
X141818000Y-71765000D01*
X141814000Y-71769000D01*
X141810000Y-71772000D01*
X141805000Y-71775000D01*
X141801000Y-71778000D01*
X141796000Y-71780000D01*
X141792000Y-71782000D01*
X141787000Y-71784000D01*
X141782000Y-71786000D01*
X141777000Y-71788000D01*
X141772000Y-71789000D01*
X141767000Y-71790000D01*
X141761000Y-71790000D01*
X141756000Y-71791000D01*
X141751000Y-71791000D01*
X141601000Y-71791000D01*
X141596000Y-71791000D01*
X141591000Y-71790000D01*
X141585000Y-71790000D01*
X141580000Y-71789000D01*
X141575000Y-71788000D01*
X141570000Y-71786000D01*
X141565000Y-71784000D01*
X141560000Y-71782000D01*
X141556000Y-71780000D01*
X141551000Y-71778000D01*
X141547000Y-71775000D01*
X141542000Y-71772000D01*
X141538000Y-71769000D01*
X141534000Y-71765000D01*
X141530000Y-71762000D01*
X141527000Y-71758000D01*
X141523000Y-71754000D01*
X141520000Y-71750000D01*
X141517000Y-71745000D01*
X141514000Y-71741000D01*
X141512000Y-71736000D01*
X141510000Y-71732000D01*
X141508000Y-71727000D01*
X141506000Y-71722000D01*
X141504000Y-71717000D01*
X141503000Y-71712000D01*
X141502000Y-71707000D01*
X141502000Y-71701000D01*
X141501000Y-71696000D01*
X141501000Y-71691000D01*
X141501000Y-70991000D01*
X141501000Y-70986000D01*
X141502000Y-70981000D01*
X141502000Y-70975000D01*
X141503000Y-70970000D01*
X141504000Y-70965000D01*
X141506000Y-70960000D01*
X141508000Y-70955000D01*
X141510000Y-70950000D01*
X141512000Y-70946000D01*
X141514000Y-70941000D01*
X141517000Y-70937000D01*
X141520000Y-70932000D01*
X141523000Y-70928000D01*
X141527000Y-70924000D01*
X141530000Y-70920000D01*
X141534000Y-70917000D01*
X141538000Y-70913000D01*
X141542000Y-70910000D01*
X141547000Y-70907000D01*
X141551000Y-70904000D01*
X141556000Y-70902000D01*
X141560000Y-70900000D01*
X141565000Y-70898000D01*
X141570000Y-70896000D01*
X141575000Y-70894000D01*
X141580000Y-70893000D01*
X141585000Y-70892000D01*
X141591000Y-70892000D01*
X141596000Y-70891000D01*
X141601000Y-70891000D01*
X141751000Y-70891000D01*
X141756000Y-70891000D01*
X141761000Y-70892000D01*
X141767000Y-70892000D01*
X141772000Y-70893000D01*
X141777000Y-70894000D01*
X141782000Y-70896000D01*
X141787000Y-70898000D01*
X141792000Y-70900000D01*
X141796000Y-70902000D01*
X141801000Y-70904000D01*
X141805000Y-70907000D01*
X141810000Y-70910000D01*
X141814000Y-70913000D01*
X141818000Y-70917000D01*
X141822000Y-70920000D01*
X141825000Y-70924000D01*
X141829000Y-70928000D01*
X141832000Y-70932000D01*
X141835000Y-70937000D01*
X141838000Y-70941000D01*
X141840000Y-70946000D01*
X141842000Y-70950000D01*
X141844000Y-70955000D01*
X141846000Y-70960000D01*
X141848000Y-70965000D01*
X141849000Y-70970000D01*
X141850000Y-70975000D01*
X141850000Y-70981000D01*
X141851000Y-70986000D01*
X141851000Y-70991000D01*
G36*
X141761000Y-70892000D02*
G01*
X141767000Y-70892000D01*
X141772000Y-70893000D01*
X141777000Y-70894000D01*
X141782000Y-70896000D01*
X141787000Y-70898000D01*
X141792000Y-70900000D01*
X141796000Y-70902000D01*
X141801000Y-70904000D01*
X141805000Y-70907000D01*
X141810000Y-70910000D01*
X141814000Y-70913000D01*
X141818000Y-70917000D01*
X141822000Y-70920000D01*
X141825000Y-70924000D01*
X141829000Y-70928000D01*
X141832000Y-70932000D01*
X141835000Y-70937000D01*
X141838000Y-70941000D01*
X141840000Y-70946000D01*
X141842000Y-70950000D01*
X141844000Y-70955000D01*
X141846000Y-70960000D01*
X141848000Y-70965000D01*
X141849000Y-70970000D01*
X141850000Y-70975000D01*
X141850000Y-70981000D01*
X141851000Y-70986000D01*
X141851000Y-70991000D01*
X141851000Y-71691000D01*
X141851000Y-71696000D01*
X141850000Y-71701000D01*
X141850000Y-71707000D01*
X141849000Y-71712000D01*
X141848000Y-71717000D01*
X141846000Y-71722000D01*
X141844000Y-71727000D01*
X141842000Y-71732000D01*
X141840000Y-71736000D01*
X141838000Y-71741000D01*
X141835000Y-71745000D01*
X141832000Y-71750000D01*
X141829000Y-71754000D01*
X141825000Y-71758000D01*
X141822000Y-71762000D01*
X141818000Y-71765000D01*
X141814000Y-71769000D01*
X141810000Y-71772000D01*
X141805000Y-71775000D01*
X141801000Y-71778000D01*
X141796000Y-71780000D01*
X141792000Y-71782000D01*
X141787000Y-71784000D01*
X141782000Y-71786000D01*
X141777000Y-71788000D01*
X141772000Y-71789000D01*
X141767000Y-71790000D01*
X141761000Y-71790000D01*
X141756000Y-71791000D01*
X141751000Y-71791000D01*
X141601000Y-71791000D01*
X141596000Y-71791000D01*
X141591000Y-71790000D01*
X141585000Y-71790000D01*
X141580000Y-71789000D01*
X141575000Y-71788000D01*
X141570000Y-71786000D01*
X141565000Y-71784000D01*
X141560000Y-71782000D01*
X141556000Y-71780000D01*
X141551000Y-71778000D01*
X141547000Y-71775000D01*
X141542000Y-71772000D01*
X141538000Y-71769000D01*
X141534000Y-71765000D01*
X141530000Y-71762000D01*
X141527000Y-71758000D01*
X141523000Y-71754000D01*
X141520000Y-71750000D01*
X141517000Y-71745000D01*
X141514000Y-71741000D01*
X141512000Y-71736000D01*
X141510000Y-71732000D01*
X141508000Y-71727000D01*
X141506000Y-71722000D01*
X141504000Y-71717000D01*
X141503000Y-71712000D01*
X141502000Y-71707000D01*
X141502000Y-71701000D01*
X141501000Y-71696000D01*
X141501000Y-71691000D01*
X141501000Y-70991000D01*
X141501000Y-70986000D01*
X141502000Y-70981000D01*
X141502000Y-70975000D01*
X141503000Y-70970000D01*
X141504000Y-70965000D01*
X141506000Y-70960000D01*
X141508000Y-70955000D01*
X141510000Y-70950000D01*
X141512000Y-70946000D01*
X141514000Y-70941000D01*
X141517000Y-70937000D01*
X141520000Y-70932000D01*
X141523000Y-70928000D01*
X141527000Y-70924000D01*
X141530000Y-70920000D01*
X141534000Y-70917000D01*
X141538000Y-70913000D01*
X141542000Y-70910000D01*
X141547000Y-70907000D01*
X141551000Y-70904000D01*
X141556000Y-70902000D01*
X141560000Y-70900000D01*
X141565000Y-70898000D01*
X141570000Y-70896000D01*
X141575000Y-70894000D01*
X141580000Y-70893000D01*
X141585000Y-70892000D01*
X141591000Y-70892000D01*
X141596000Y-70891000D01*
X141601000Y-70891000D01*
X141751000Y-70891000D01*
X141756000Y-70891000D01*
X141761000Y-70892000D01*
G37*
X140251000Y-68866000D02*
X140451000Y-68866000D01*
X140454000Y-68866000D01*
X140456000Y-68866000D01*
X140459000Y-68865000D01*
X140461000Y-68865000D01*
X140464000Y-68864000D01*
X140466000Y-68864000D01*
X140469000Y-68863000D01*
X140471000Y-68862000D01*
X140474000Y-68861000D01*
X140476000Y-68859000D01*
X140478000Y-68858000D01*
X140480000Y-68856000D01*
X140482000Y-68855000D01*
X140484000Y-68853000D01*
X140486000Y-68851000D01*
X140488000Y-68849000D01*
X140490000Y-68847000D01*
X140491000Y-68845000D01*
X140493000Y-68843000D01*
X140494000Y-68841000D01*
X140496000Y-68839000D01*
X140497000Y-68836000D01*
X140498000Y-68834000D01*
X140499000Y-68831000D01*
X140499000Y-68829000D01*
X140500000Y-68826000D01*
X140500000Y-68824000D01*
X140501000Y-68821000D01*
X140501000Y-68819000D01*
X140501000Y-68816000D01*
X140501000Y-68091000D01*
X140501000Y-68086000D01*
X140502000Y-68081000D01*
X140502000Y-68075000D01*
X140503000Y-68070000D01*
X140504000Y-68065000D01*
X140506000Y-68060000D01*
X140508000Y-68055000D01*
X140510000Y-68050000D01*
X140512000Y-68046000D01*
X140514000Y-68041000D01*
X140517000Y-68037000D01*
X140520000Y-68032000D01*
X140523000Y-68028000D01*
X140527000Y-68024000D01*
X140530000Y-68020000D01*
X140534000Y-68017000D01*
X140538000Y-68013000D01*
X140542000Y-68010000D01*
X140547000Y-68007000D01*
X140551000Y-68004000D01*
X140556000Y-68002000D01*
X140560000Y-68000000D01*
X140565000Y-67998000D01*
X140570000Y-67996000D01*
X140575000Y-67994000D01*
X140580000Y-67993000D01*
X140585000Y-67992000D01*
X140591000Y-67992000D01*
X140596000Y-67991000D01*
X140601000Y-67991000D01*
X140751000Y-67991000D01*
X140756000Y-67991000D01*
X140761000Y-67992000D01*
X140767000Y-67992000D01*
X140772000Y-67993000D01*
X140777000Y-67994000D01*
X140782000Y-67996000D01*
X140787000Y-67998000D01*
X140792000Y-68000000D01*
X140796000Y-68002000D01*
X140801000Y-68004000D01*
X140805000Y-68007000D01*
X140810000Y-68010000D01*
X140814000Y-68013000D01*
X140818000Y-68017000D01*
X140822000Y-68020000D01*
X140825000Y-68024000D01*
X140829000Y-68028000D01*
X140832000Y-68032000D01*
X140835000Y-68037000D01*
X140838000Y-68041000D01*
X140840000Y-68046000D01*
X140842000Y-68050000D01*
X140844000Y-68055000D01*
X140846000Y-68060000D01*
X140848000Y-68065000D01*
X140849000Y-68070000D01*
X140850000Y-68075000D01*
X140850000Y-68081000D01*
X140851000Y-68086000D01*
X140851000Y-68091000D01*
X140851000Y-69216000D01*
X140851000Y-69221000D01*
X140850000Y-69226000D01*
X140850000Y-69232000D01*
X140849000Y-69237000D01*
X140848000Y-69242000D01*
X140846000Y-69247000D01*
X140844000Y-69252000D01*
X140842000Y-69257000D01*
X140840000Y-69261000D01*
X140838000Y-69266000D01*
X140835000Y-69270000D01*
X140832000Y-69275000D01*
X140829000Y-69279000D01*
X140825000Y-69283000D01*
X140822000Y-69287000D01*
X140818000Y-69290000D01*
X140814000Y-69294000D01*
X140810000Y-69297000D01*
X140805000Y-69300000D01*
X140801000Y-69303000D01*
X140796000Y-69305000D01*
X140792000Y-69307000D01*
X140787000Y-69309000D01*
X140782000Y-69311000D01*
X140777000Y-69313000D01*
X140772000Y-69314000D01*
X140767000Y-69315000D01*
X140761000Y-69315000D01*
X140756000Y-69316000D01*
X140751000Y-69316000D01*
X140251000Y-69316000D01*
X140246000Y-69316000D01*
X140241000Y-69315000D01*
X140235000Y-69315000D01*
X140230000Y-69314000D01*
X140225000Y-69313000D01*
X140220000Y-69311000D01*
X140215000Y-69309000D01*
X140210000Y-69307000D01*
X140206000Y-69305000D01*
X140201000Y-69303000D01*
X140197000Y-69300000D01*
X140192000Y-69297000D01*
X140188000Y-69294000D01*
X140184000Y-69290000D01*
X140180000Y-69287000D01*
X140177000Y-69283000D01*
X140173000Y-69279000D01*
X140170000Y-69275000D01*
X140167000Y-69270000D01*
X140164000Y-69266000D01*
X140162000Y-69261000D01*
X140160000Y-69257000D01*
X140158000Y-69252000D01*
X140156000Y-69247000D01*
X140154000Y-69242000D01*
X140153000Y-69237000D01*
X140152000Y-69232000D01*
X140152000Y-69226000D01*
X140151000Y-69221000D01*
X140151000Y-69216000D01*
X140151000Y-68966000D01*
X140151000Y-68961000D01*
X140152000Y-68956000D01*
X140152000Y-68950000D01*
X140153000Y-68945000D01*
X140154000Y-68940000D01*
X140156000Y-68935000D01*
X140158000Y-68930000D01*
X140160000Y-68925000D01*
X140162000Y-68921000D01*
X140164000Y-68916000D01*
X140167000Y-68912000D01*
X140170000Y-68907000D01*
X140173000Y-68903000D01*
X140177000Y-68899000D01*
X140180000Y-68895000D01*
X140184000Y-68892000D01*
X140188000Y-68888000D01*
X140192000Y-68885000D01*
X140197000Y-68882000D01*
X140201000Y-68879000D01*
X140206000Y-68877000D01*
X140210000Y-68875000D01*
X140215000Y-68873000D01*
X140220000Y-68871000D01*
X140225000Y-68869000D01*
X140230000Y-68868000D01*
X140235000Y-68867000D01*
X140241000Y-68867000D01*
X140246000Y-68866000D01*
X140251000Y-68866000D01*
G36*
X140761000Y-67992000D02*
G01*
X140767000Y-67992000D01*
X140772000Y-67993000D01*
X140777000Y-67994000D01*
X140782000Y-67996000D01*
X140787000Y-67998000D01*
X140792000Y-68000000D01*
X140796000Y-68002000D01*
X140801000Y-68004000D01*
X140805000Y-68007000D01*
X140810000Y-68010000D01*
X140814000Y-68013000D01*
X140818000Y-68017000D01*
X140822000Y-68020000D01*
X140825000Y-68024000D01*
X140829000Y-68028000D01*
X140832000Y-68032000D01*
X140835000Y-68037000D01*
X140838000Y-68041000D01*
X140840000Y-68046000D01*
X140842000Y-68050000D01*
X140844000Y-68055000D01*
X140846000Y-68060000D01*
X140848000Y-68065000D01*
X140849000Y-68070000D01*
X140850000Y-68075000D01*
X140850000Y-68081000D01*
X140851000Y-68086000D01*
X140851000Y-68091000D01*
X140851000Y-69216000D01*
X140851000Y-69221000D01*
X140850000Y-69226000D01*
X140850000Y-69232000D01*
X140849000Y-69237000D01*
X140848000Y-69242000D01*
X140846000Y-69247000D01*
X140844000Y-69252000D01*
X140842000Y-69257000D01*
X140840000Y-69261000D01*
X140838000Y-69266000D01*
X140835000Y-69270000D01*
X140832000Y-69275000D01*
X140829000Y-69279000D01*
X140825000Y-69283000D01*
X140822000Y-69287000D01*
X140818000Y-69290000D01*
X140814000Y-69294000D01*
X140810000Y-69297000D01*
X140805000Y-69300000D01*
X140801000Y-69303000D01*
X140796000Y-69305000D01*
X140792000Y-69307000D01*
X140787000Y-69309000D01*
X140782000Y-69311000D01*
X140777000Y-69313000D01*
X140772000Y-69314000D01*
X140767000Y-69315000D01*
X140761000Y-69315000D01*
X140756000Y-69316000D01*
X140751000Y-69316000D01*
X140251000Y-69316000D01*
X140246000Y-69316000D01*
X140241000Y-69315000D01*
X140235000Y-69315000D01*
X140230000Y-69314000D01*
X140225000Y-69313000D01*
X140220000Y-69311000D01*
X140215000Y-69309000D01*
X140210000Y-69307000D01*
X140206000Y-69305000D01*
X140201000Y-69303000D01*
X140197000Y-69300000D01*
X140192000Y-69297000D01*
X140188000Y-69294000D01*
X140184000Y-69290000D01*
X140180000Y-69287000D01*
X140177000Y-69283000D01*
X140173000Y-69279000D01*
X140170000Y-69275000D01*
X140167000Y-69270000D01*
X140164000Y-69266000D01*
X140162000Y-69261000D01*
X140160000Y-69257000D01*
X140158000Y-69252000D01*
X140156000Y-69247000D01*
X140154000Y-69242000D01*
X140153000Y-69237000D01*
X140152000Y-69232000D01*
X140152000Y-69226000D01*
X140151000Y-69221000D01*
X140151000Y-69216000D01*
X140151000Y-68966000D01*
X140151000Y-68961000D01*
X140152000Y-68956000D01*
X140152000Y-68950000D01*
X140153000Y-68945000D01*
X140154000Y-68940000D01*
X140156000Y-68935000D01*
X140158000Y-68930000D01*
X140160000Y-68925000D01*
X140162000Y-68921000D01*
X140164000Y-68916000D01*
X140167000Y-68912000D01*
X140170000Y-68907000D01*
X140173000Y-68903000D01*
X140177000Y-68899000D01*
X140180000Y-68895000D01*
X140184000Y-68892000D01*
X140188000Y-68888000D01*
X140192000Y-68885000D01*
X140197000Y-68882000D01*
X140201000Y-68879000D01*
X140206000Y-68877000D01*
X140210000Y-68875000D01*
X140215000Y-68873000D01*
X140220000Y-68871000D01*
X140225000Y-68869000D01*
X140230000Y-68868000D01*
X140235000Y-68867000D01*
X140241000Y-68867000D01*
X140246000Y-68866000D01*
X140251000Y-68866000D01*
X140451000Y-68866000D01*
X140454000Y-68866000D01*
X140456000Y-68866000D01*
X140459000Y-68865000D01*
X140461000Y-68865000D01*
X140464000Y-68864000D01*
X140466000Y-68864000D01*
X140469000Y-68863000D01*
X140471000Y-68862000D01*
X140474000Y-68861000D01*
X140476000Y-68859000D01*
X140478000Y-68858000D01*
X140480000Y-68856000D01*
X140482000Y-68855000D01*
X140484000Y-68853000D01*
X140486000Y-68851000D01*
X140488000Y-68849000D01*
X140490000Y-68847000D01*
X140491000Y-68845000D01*
X140493000Y-68843000D01*
X140494000Y-68841000D01*
X140496000Y-68839000D01*
X140497000Y-68836000D01*
X140498000Y-68834000D01*
X140499000Y-68831000D01*
X140499000Y-68829000D01*
X140500000Y-68826000D01*
X140500000Y-68824000D01*
X140501000Y-68821000D01*
X140501000Y-68819000D01*
X140501000Y-68816000D01*
X140501000Y-68091000D01*
X140501000Y-68086000D01*
X140502000Y-68081000D01*
X140502000Y-68075000D01*
X140503000Y-68070000D01*
X140504000Y-68065000D01*
X140506000Y-68060000D01*
X140508000Y-68055000D01*
X140510000Y-68050000D01*
X140512000Y-68046000D01*
X140514000Y-68041000D01*
X140517000Y-68037000D01*
X140520000Y-68032000D01*
X140523000Y-68028000D01*
X140527000Y-68024000D01*
X140530000Y-68020000D01*
X140534000Y-68017000D01*
X140538000Y-68013000D01*
X140542000Y-68010000D01*
X140547000Y-68007000D01*
X140551000Y-68004000D01*
X140556000Y-68002000D01*
X140560000Y-68000000D01*
X140565000Y-67998000D01*
X140570000Y-67996000D01*
X140575000Y-67994000D01*
X140580000Y-67993000D01*
X140585000Y-67992000D01*
X140591000Y-67992000D01*
X140596000Y-67991000D01*
X140601000Y-67991000D01*
X140751000Y-67991000D01*
X140756000Y-67991000D01*
X140761000Y-67992000D01*
G37*
X140251000Y-70916000D02*
X140451000Y-70916000D01*
X140454000Y-70916000D01*
X140456000Y-70916000D01*
X140459000Y-70917000D01*
X140461000Y-70917000D01*
X140464000Y-70918000D01*
X140466000Y-70918000D01*
X140469000Y-70919000D01*
X140471000Y-70920000D01*
X140474000Y-70921000D01*
X140476000Y-70923000D01*
X140478000Y-70924000D01*
X140480000Y-70926000D01*
X140482000Y-70927000D01*
X140484000Y-70929000D01*
X140486000Y-70931000D01*
X140488000Y-70933000D01*
X140490000Y-70935000D01*
X140491000Y-70937000D01*
X140493000Y-70939000D01*
X140494000Y-70941000D01*
X140496000Y-70943000D01*
X140497000Y-70946000D01*
X140498000Y-70948000D01*
X140499000Y-70951000D01*
X140499000Y-70953000D01*
X140500000Y-70956000D01*
X140500000Y-70958000D01*
X140501000Y-70961000D01*
X140501000Y-70963000D01*
X140501000Y-70966000D01*
X140501000Y-71691000D01*
X140501000Y-71696000D01*
X140502000Y-71701000D01*
X140502000Y-71707000D01*
X140503000Y-71712000D01*
X140504000Y-71717000D01*
X140506000Y-71722000D01*
X140508000Y-71727000D01*
X140510000Y-71732000D01*
X140512000Y-71736000D01*
X140514000Y-71741000D01*
X140517000Y-71745000D01*
X140520000Y-71750000D01*
X140523000Y-71754000D01*
X140527000Y-71758000D01*
X140530000Y-71762000D01*
X140534000Y-71765000D01*
X140538000Y-71769000D01*
X140542000Y-71772000D01*
X140547000Y-71775000D01*
X140551000Y-71778000D01*
X140556000Y-71780000D01*
X140560000Y-71782000D01*
X140565000Y-71784000D01*
X140570000Y-71786000D01*
X140575000Y-71788000D01*
X140580000Y-71789000D01*
X140585000Y-71790000D01*
X140591000Y-71790000D01*
X140596000Y-71791000D01*
X140601000Y-71791000D01*
X140751000Y-71791000D01*
X140756000Y-71791000D01*
X140761000Y-71790000D01*
X140767000Y-71790000D01*
X140772000Y-71789000D01*
X140777000Y-71788000D01*
X140782000Y-71786000D01*
X140787000Y-71784000D01*
X140792000Y-71782000D01*
X140796000Y-71780000D01*
X140801000Y-71778000D01*
X140805000Y-71775000D01*
X140810000Y-71772000D01*
X140814000Y-71769000D01*
X140818000Y-71765000D01*
X140822000Y-71762000D01*
X140825000Y-71758000D01*
X140829000Y-71754000D01*
X140832000Y-71750000D01*
X140835000Y-71745000D01*
X140838000Y-71741000D01*
X140840000Y-71736000D01*
X140842000Y-71732000D01*
X140844000Y-71727000D01*
X140846000Y-71722000D01*
X140848000Y-71717000D01*
X140849000Y-71712000D01*
X140850000Y-71707000D01*
X140850000Y-71701000D01*
X140851000Y-71696000D01*
X140851000Y-71691000D01*
X140851000Y-70566000D01*
X140851000Y-70561000D01*
X140850000Y-70556000D01*
X140850000Y-70550000D01*
X140849000Y-70545000D01*
X140848000Y-70540000D01*
X140846000Y-70535000D01*
X140844000Y-70530000D01*
X140842000Y-70525000D01*
X140840000Y-70521000D01*
X140838000Y-70516000D01*
X140835000Y-70512000D01*
X140832000Y-70507000D01*
X140829000Y-70503000D01*
X140825000Y-70499000D01*
X140822000Y-70495000D01*
X140818000Y-70492000D01*
X140814000Y-70488000D01*
X140810000Y-70485000D01*
X140805000Y-70482000D01*
X140801000Y-70479000D01*
X140796000Y-70477000D01*
X140792000Y-70475000D01*
X140787000Y-70473000D01*
X140782000Y-70471000D01*
X140777000Y-70469000D01*
X140772000Y-70468000D01*
X140767000Y-70467000D01*
X140761000Y-70467000D01*
X140756000Y-70466000D01*
X140751000Y-70466000D01*
X140251000Y-70466000D01*
X140246000Y-70466000D01*
X140241000Y-70467000D01*
X140235000Y-70467000D01*
X140230000Y-70468000D01*
X140225000Y-70469000D01*
X140220000Y-70471000D01*
X140215000Y-70473000D01*
X140210000Y-70475000D01*
X140206000Y-70477000D01*
X140201000Y-70479000D01*
X140197000Y-70482000D01*
X140192000Y-70485000D01*
X140188000Y-70488000D01*
X140184000Y-70492000D01*
X140180000Y-70495000D01*
X140177000Y-70499000D01*
X140173000Y-70503000D01*
X140170000Y-70507000D01*
X140167000Y-70512000D01*
X140164000Y-70516000D01*
X140162000Y-70521000D01*
X140160000Y-70525000D01*
X140158000Y-70530000D01*
X140156000Y-70535000D01*
X140154000Y-70540000D01*
X140153000Y-70545000D01*
X140152000Y-70550000D01*
X140152000Y-70556000D01*
X140151000Y-70561000D01*
X140151000Y-70566000D01*
X140151000Y-70816000D01*
X140151000Y-70821000D01*
X140152000Y-70826000D01*
X140152000Y-70832000D01*
X140153000Y-70837000D01*
X140154000Y-70842000D01*
X140156000Y-70847000D01*
X140158000Y-70852000D01*
X140160000Y-70857000D01*
X140162000Y-70861000D01*
X140164000Y-70866000D01*
X140167000Y-70870000D01*
X140170000Y-70875000D01*
X140173000Y-70879000D01*
X140177000Y-70883000D01*
X140180000Y-70887000D01*
X140184000Y-70890000D01*
X140188000Y-70894000D01*
X140192000Y-70897000D01*
X140197000Y-70900000D01*
X140201000Y-70903000D01*
X140206000Y-70905000D01*
X140210000Y-70907000D01*
X140215000Y-70909000D01*
X140220000Y-70911000D01*
X140225000Y-70913000D01*
X140230000Y-70914000D01*
X140235000Y-70915000D01*
X140241000Y-70915000D01*
X140246000Y-70916000D01*
X140251000Y-70916000D01*
G36*
X140761000Y-70467000D02*
G01*
X140767000Y-70467000D01*
X140772000Y-70468000D01*
X140777000Y-70469000D01*
X140782000Y-70471000D01*
X140787000Y-70473000D01*
X140792000Y-70475000D01*
X140796000Y-70477000D01*
X140801000Y-70479000D01*
X140805000Y-70482000D01*
X140810000Y-70485000D01*
X140814000Y-70488000D01*
X140818000Y-70492000D01*
X140822000Y-70495000D01*
X140825000Y-70499000D01*
X140829000Y-70503000D01*
X140832000Y-70507000D01*
X140835000Y-70512000D01*
X140838000Y-70516000D01*
X140840000Y-70521000D01*
X140842000Y-70525000D01*
X140844000Y-70530000D01*
X140846000Y-70535000D01*
X140848000Y-70540000D01*
X140849000Y-70545000D01*
X140850000Y-70550000D01*
X140850000Y-70556000D01*
X140851000Y-70561000D01*
X140851000Y-70566000D01*
X140851000Y-71691000D01*
X140851000Y-71696000D01*
X140850000Y-71701000D01*
X140850000Y-71707000D01*
X140849000Y-71712000D01*
X140848000Y-71717000D01*
X140846000Y-71722000D01*
X140844000Y-71727000D01*
X140842000Y-71732000D01*
X140840000Y-71736000D01*
X140838000Y-71741000D01*
X140835000Y-71745000D01*
X140832000Y-71750000D01*
X140829000Y-71754000D01*
X140825000Y-71758000D01*
X140822000Y-71762000D01*
X140818000Y-71765000D01*
X140814000Y-71769000D01*
X140810000Y-71772000D01*
X140805000Y-71775000D01*
X140801000Y-71778000D01*
X140796000Y-71780000D01*
X140792000Y-71782000D01*
X140787000Y-71784000D01*
X140782000Y-71786000D01*
X140777000Y-71788000D01*
X140772000Y-71789000D01*
X140767000Y-71790000D01*
X140761000Y-71790000D01*
X140756000Y-71791000D01*
X140751000Y-71791000D01*
X140601000Y-71791000D01*
X140596000Y-71791000D01*
X140591000Y-71790000D01*
X140585000Y-71790000D01*
X140580000Y-71789000D01*
X140575000Y-71788000D01*
X140570000Y-71786000D01*
X140565000Y-71784000D01*
X140560000Y-71782000D01*
X140556000Y-71780000D01*
X140551000Y-71778000D01*
X140547000Y-71775000D01*
X140542000Y-71772000D01*
X140538000Y-71769000D01*
X140534000Y-71765000D01*
X140530000Y-71762000D01*
X140527000Y-71758000D01*
X140523000Y-71754000D01*
X140520000Y-71750000D01*
X140517000Y-71745000D01*
X140514000Y-71741000D01*
X140512000Y-71736000D01*
X140510000Y-71732000D01*
X140508000Y-71727000D01*
X140506000Y-71722000D01*
X140504000Y-71717000D01*
X140503000Y-71712000D01*
X140502000Y-71707000D01*
X140502000Y-71701000D01*
X140501000Y-71696000D01*
X140501000Y-71691000D01*
X140501000Y-70966000D01*
X140501000Y-70963000D01*
X140501000Y-70961000D01*
X140500000Y-70958000D01*
X140500000Y-70956000D01*
X140499000Y-70953000D01*
X140499000Y-70951000D01*
X140498000Y-70948000D01*
X140497000Y-70946000D01*
X140496000Y-70943000D01*
X140494000Y-70941000D01*
X140493000Y-70939000D01*
X140491000Y-70937000D01*
X140490000Y-70935000D01*
X140488000Y-70933000D01*
X140486000Y-70931000D01*
X140484000Y-70929000D01*
X140482000Y-70927000D01*
X140480000Y-70926000D01*
X140478000Y-70924000D01*
X140476000Y-70923000D01*
X140474000Y-70921000D01*
X140471000Y-70920000D01*
X140469000Y-70919000D01*
X140466000Y-70918000D01*
X140464000Y-70918000D01*
X140461000Y-70917000D01*
X140459000Y-70917000D01*
X140456000Y-70916000D01*
X140454000Y-70916000D01*
X140451000Y-70916000D01*
X140251000Y-70916000D01*
X140246000Y-70916000D01*
X140241000Y-70915000D01*
X140235000Y-70915000D01*
X140230000Y-70914000D01*
X140225000Y-70913000D01*
X140220000Y-70911000D01*
X140215000Y-70909000D01*
X140210000Y-70907000D01*
X140206000Y-70905000D01*
X140201000Y-70903000D01*
X140197000Y-70900000D01*
X140192000Y-70897000D01*
X140188000Y-70894000D01*
X140184000Y-70890000D01*
X140180000Y-70887000D01*
X140177000Y-70883000D01*
X140173000Y-70879000D01*
X140170000Y-70875000D01*
X140167000Y-70870000D01*
X140164000Y-70866000D01*
X140162000Y-70861000D01*
X140160000Y-70857000D01*
X140158000Y-70852000D01*
X140156000Y-70847000D01*
X140154000Y-70842000D01*
X140153000Y-70837000D01*
X140152000Y-70832000D01*
X140152000Y-70826000D01*
X140151000Y-70821000D01*
X140151000Y-70816000D01*
X140151000Y-70566000D01*
X140151000Y-70561000D01*
X140152000Y-70556000D01*
X140152000Y-70550000D01*
X140153000Y-70545000D01*
X140154000Y-70540000D01*
X140156000Y-70535000D01*
X140158000Y-70530000D01*
X140160000Y-70525000D01*
X140162000Y-70521000D01*
X140164000Y-70516000D01*
X140167000Y-70512000D01*
X140170000Y-70507000D01*
X140173000Y-70503000D01*
X140177000Y-70499000D01*
X140180000Y-70495000D01*
X140184000Y-70492000D01*
X140188000Y-70488000D01*
X140192000Y-70485000D01*
X140197000Y-70482000D01*
X140201000Y-70479000D01*
X140206000Y-70477000D01*
X140210000Y-70475000D01*
X140215000Y-70473000D01*
X140220000Y-70471000D01*
X140225000Y-70469000D01*
X140230000Y-70468000D01*
X140235000Y-70467000D01*
X140241000Y-70467000D01*
X140246000Y-70466000D01*
X140251000Y-70466000D01*
X140751000Y-70466000D01*
X140756000Y-70466000D01*
X140761000Y-70467000D01*
G37*
X141051000Y-70316000D02*
X141804000Y-70316000D01*
X141806000Y-70316000D01*
X141808000Y-70316000D01*
X141810000Y-70316000D01*
X141812000Y-70316000D01*
X141814000Y-70317000D01*
X141816000Y-70317000D01*
X141818000Y-70317000D01*
X141820000Y-70318000D01*
X141822000Y-70318000D01*
X141824000Y-70319000D01*
X141826000Y-70319000D01*
X141828000Y-70320000D01*
X141829000Y-70320000D01*
X141831000Y-70321000D01*
X141833000Y-70322000D01*
X141835000Y-70322000D01*
X141837000Y-70323000D01*
X141838000Y-70324000D01*
X141840000Y-70325000D01*
X141842000Y-70326000D01*
X141844000Y-70327000D01*
X141845000Y-70328000D01*
X141847000Y-70329000D01*
X141849000Y-70330000D01*
X141850000Y-70331000D01*
X141852000Y-70333000D01*
X141853000Y-70334000D01*
X141855000Y-70335000D01*
X141856000Y-70337000D01*
X141857000Y-70338000D01*
X141979000Y-70459000D01*
X141980000Y-70460000D01*
X141981000Y-70462000D01*
X141983000Y-70463000D01*
X141984000Y-70465000D01*
X141985000Y-70466000D01*
X141986000Y-70468000D01*
X141987000Y-70470000D01*
X141988000Y-70471000D01*
X141989000Y-70473000D01*
X141990000Y-70475000D01*
X141991000Y-70476000D01*
X141992000Y-70478000D01*
X141993000Y-70480000D01*
X141994000Y-70482000D01*
X141995000Y-70483000D01*
X141996000Y-70485000D01*
X141996000Y-70487000D01*
X141997000Y-70489000D01*
X141997000Y-70491000D01*
X141998000Y-70493000D01*
X141998000Y-70495000D01*
X141999000Y-70496000D01*
X141999000Y-70498000D01*
X142000000Y-70500000D01*
X142000000Y-70502000D01*
X142000000Y-70504000D01*
X142000000Y-70506000D01*
X142000000Y-70508000D01*
X142000000Y-70510000D01*
X142001000Y-70512000D01*
X142001000Y-71691000D01*
X142001000Y-71696000D01*
X142001000Y-71701000D01*
X142002000Y-71707000D01*
X142003000Y-71712000D01*
X142004000Y-71717000D01*
X142005000Y-71722000D01*
X142007000Y-71727000D01*
X142009000Y-71732000D01*
X142011000Y-71736000D01*
X142014000Y-71741000D01*
X142017000Y-71745000D01*
X142020000Y-71750000D01*
X142023000Y-71754000D01*
X142026000Y-71758000D01*
X142030000Y-71762000D01*
X142034000Y-71765000D01*
X142038000Y-71769000D01*
X142042000Y-71772000D01*
X142046000Y-71775000D01*
X142050000Y-71778000D01*
X142055000Y-71780000D01*
X142060000Y-71782000D01*
X142065000Y-71784000D01*
X142070000Y-71786000D01*
X142075000Y-71788000D01*
X142080000Y-71789000D01*
X142085000Y-71790000D01*
X142090000Y-71790000D01*
X142095000Y-71791000D01*
X142101000Y-71791000D01*
X142275000Y-71791000D01*
X142281000Y-71791000D01*
X142286000Y-71790000D01*
X142291000Y-71790000D01*
X142296000Y-71789000D01*
X142301000Y-71788000D01*
X142306000Y-71786000D01*
X142311000Y-71784000D01*
X142316000Y-71782000D01*
X142321000Y-71780000D01*
X142326000Y-71778000D01*
X142330000Y-71775000D01*
X142334000Y-71772000D01*
X142338000Y-71769000D01*
X142342000Y-71765000D01*
X142346000Y-71762000D01*
X142350000Y-71758000D01*
X142353000Y-71754000D01*
X142356000Y-71750000D01*
X142359000Y-71745000D01*
X142362000Y-71741000D01*
X142365000Y-71736000D01*
X142367000Y-71732000D01*
X142369000Y-71727000D01*
X142371000Y-71722000D01*
X142372000Y-71717000D01*
X142373000Y-71712000D01*
X142374000Y-71707000D01*
X142375000Y-71701000D01*
X142375000Y-71696000D01*
X142375000Y-71691000D01*
X142375000Y-70066000D01*
X142375000Y-70061000D01*
X142375000Y-70056000D01*
X142374000Y-70050000D01*
X142373000Y-70045000D01*
X142372000Y-70040000D01*
X142371000Y-70035000D01*
X142369000Y-70030000D01*
X142367000Y-70025000D01*
X142365000Y-70021000D01*
X142362000Y-70016000D01*
X142359000Y-70012000D01*
X142356000Y-70007000D01*
X142353000Y-70003000D01*
X142350000Y-69999000D01*
X142346000Y-69995000D01*
X142342000Y-69992000D01*
X142338000Y-69988000D01*
X142334000Y-69985000D01*
X142330000Y-69982000D01*
X142325000Y-69979000D01*
X142321000Y-69977000D01*
X142316000Y-69975000D01*
X142311000Y-69973000D01*
X142306000Y-69971000D01*
X142301000Y-69969000D01*
X142296000Y-69968000D01*
X142291000Y-69967000D01*
X142286000Y-69967000D01*
X142281000Y-69966000D01*
X142275000Y-69966000D01*
X141051000Y-69966000D01*
X141046000Y-69966000D01*
X141041000Y-69967000D01*
X141035000Y-69967000D01*
X141030000Y-69968000D01*
X141025000Y-69969000D01*
X141020000Y-69971000D01*
X141015000Y-69973000D01*
X141010000Y-69975000D01*
X141006000Y-69977000D01*
X141001000Y-69979000D01*
X140997000Y-69982000D01*
X140992000Y-69985000D01*
X140988000Y-69988000D01*
X140984000Y-69992000D01*
X140980000Y-69995000D01*
X140977000Y-69999000D01*
X140973000Y-70003000D01*
X140970000Y-70007000D01*
X140967000Y-70012000D01*
X140964000Y-70016000D01*
X140962000Y-70021000D01*
X140960000Y-70025000D01*
X140958000Y-70030000D01*
X140956000Y-70035000D01*
X140954000Y-70040000D01*
X140953000Y-70045000D01*
X140952000Y-70050000D01*
X140952000Y-70056000D01*
X140951000Y-70061000D01*
X140951000Y-70066000D01*
X140951000Y-70216000D01*
X140951000Y-70221000D01*
X140952000Y-70226000D01*
X140952000Y-70232000D01*
X140953000Y-70237000D01*
X140954000Y-70242000D01*
X140956000Y-70247000D01*
X140958000Y-70252000D01*
X140960000Y-70257000D01*
X140962000Y-70261000D01*
X140964000Y-70266000D01*
X140967000Y-70270000D01*
X140970000Y-70275000D01*
X140973000Y-70279000D01*
X140977000Y-70283000D01*
X140980000Y-70287000D01*
X140984000Y-70290000D01*
X140988000Y-70294000D01*
X140992000Y-70297000D01*
X140997000Y-70300000D01*
X141001000Y-70303000D01*
X141006000Y-70305000D01*
X141010000Y-70307000D01*
X141015000Y-70309000D01*
X141020000Y-70311000D01*
X141025000Y-70313000D01*
X141030000Y-70314000D01*
X141035000Y-70315000D01*
X141041000Y-70315000D01*
X141046000Y-70316000D01*
X141051000Y-70316000D01*
G36*
X142286000Y-69967000D02*
G01*
X142291000Y-69967000D01*
X142296000Y-69968000D01*
X142301000Y-69969000D01*
X142306000Y-69971000D01*
X142311000Y-69973000D01*
X142316000Y-69975000D01*
X142321000Y-69977000D01*
X142325000Y-69979000D01*
X142330000Y-69982000D01*
X142334000Y-69985000D01*
X142338000Y-69988000D01*
X142342000Y-69992000D01*
X142346000Y-69995000D01*
X142350000Y-69999000D01*
X142353000Y-70003000D01*
X142356000Y-70007000D01*
X142359000Y-70012000D01*
X142362000Y-70016000D01*
X142365000Y-70021000D01*
X142367000Y-70025000D01*
X142369000Y-70030000D01*
X142371000Y-70035000D01*
X142372000Y-70040000D01*
X142373000Y-70045000D01*
X142374000Y-70050000D01*
X142375000Y-70056000D01*
X142375000Y-70061000D01*
X142375000Y-70066000D01*
X142375000Y-71691000D01*
X142375000Y-71696000D01*
X142375000Y-71701000D01*
X142374000Y-71707000D01*
X142373000Y-71712000D01*
X142372000Y-71717000D01*
X142371000Y-71722000D01*
X142369000Y-71727000D01*
X142367000Y-71732000D01*
X142365000Y-71736000D01*
X142362000Y-71741000D01*
X142359000Y-71745000D01*
X142356000Y-71750000D01*
X142353000Y-71754000D01*
X142350000Y-71758000D01*
X142346000Y-71762000D01*
X142342000Y-71765000D01*
X142338000Y-71769000D01*
X142334000Y-71772000D01*
X142330000Y-71775000D01*
X142326000Y-71778000D01*
X142321000Y-71780000D01*
X142316000Y-71782000D01*
X142311000Y-71784000D01*
X142306000Y-71786000D01*
X142301000Y-71788000D01*
X142296000Y-71789000D01*
X142291000Y-71790000D01*
X142286000Y-71790000D01*
X142281000Y-71791000D01*
X142275000Y-71791000D01*
X142101000Y-71791000D01*
X142095000Y-71791000D01*
X142090000Y-71790000D01*
X142085000Y-71790000D01*
X142080000Y-71789000D01*
X142075000Y-71788000D01*
X142070000Y-71786000D01*
X142065000Y-71784000D01*
X142060000Y-71782000D01*
X142055000Y-71780000D01*
X142050000Y-71778000D01*
X142046000Y-71775000D01*
X142042000Y-71772000D01*
X142038000Y-71769000D01*
X142034000Y-71765000D01*
X142030000Y-71762000D01*
X142026000Y-71758000D01*
X142023000Y-71754000D01*
X142020000Y-71750000D01*
X142017000Y-71745000D01*
X142014000Y-71741000D01*
X142011000Y-71736000D01*
X142009000Y-71732000D01*
X142007000Y-71727000D01*
X142005000Y-71722000D01*
X142004000Y-71717000D01*
X142003000Y-71712000D01*
X142002000Y-71707000D01*
X142001000Y-71701000D01*
X142001000Y-71696000D01*
X142001000Y-71691000D01*
X142001000Y-70512000D01*
X142000000Y-70510000D01*
X142000000Y-70508000D01*
X142000000Y-70506000D01*
X142000000Y-70504000D01*
X142000000Y-70502000D01*
X142000000Y-70500000D01*
X141999000Y-70498000D01*
X141999000Y-70496000D01*
X141998000Y-70495000D01*
X141998000Y-70493000D01*
X141997000Y-70491000D01*
X141997000Y-70489000D01*
X141996000Y-70487000D01*
X141996000Y-70485000D01*
X141995000Y-70483000D01*
X141994000Y-70482000D01*
X141993000Y-70480000D01*
X141992000Y-70478000D01*
X141991000Y-70476000D01*
X141990000Y-70475000D01*
X141989000Y-70473000D01*
X141988000Y-70471000D01*
X141987000Y-70470000D01*
X141986000Y-70468000D01*
X141985000Y-70466000D01*
X141984000Y-70465000D01*
X141983000Y-70463000D01*
X141981000Y-70462000D01*
X141980000Y-70460000D01*
X141979000Y-70459000D01*
X141857000Y-70338000D01*
X141856000Y-70337000D01*
X141855000Y-70335000D01*
X141853000Y-70334000D01*
X141852000Y-70333000D01*
X141850000Y-70331000D01*
X141849000Y-70330000D01*
X141847000Y-70329000D01*
X141845000Y-70328000D01*
X141844000Y-70327000D01*
X141842000Y-70326000D01*
X141840000Y-70325000D01*
X141838000Y-70324000D01*
X141837000Y-70323000D01*
X141835000Y-70322000D01*
X141833000Y-70322000D01*
X141831000Y-70321000D01*
X141829000Y-70320000D01*
X141828000Y-70320000D01*
X141826000Y-70319000D01*
X141824000Y-70319000D01*
X141822000Y-70318000D01*
X141820000Y-70318000D01*
X141818000Y-70317000D01*
X141816000Y-70317000D01*
X141814000Y-70317000D01*
X141812000Y-70316000D01*
X141810000Y-70316000D01*
X141808000Y-70316000D01*
X141806000Y-70316000D01*
X141804000Y-70316000D01*
X141051000Y-70316000D01*
X141046000Y-70316000D01*
X141041000Y-70315000D01*
X141035000Y-70315000D01*
X141030000Y-70314000D01*
X141025000Y-70313000D01*
X141020000Y-70311000D01*
X141015000Y-70309000D01*
X141010000Y-70307000D01*
X141006000Y-70305000D01*
X141001000Y-70303000D01*
X140997000Y-70300000D01*
X140992000Y-70297000D01*
X140988000Y-70294000D01*
X140984000Y-70290000D01*
X140980000Y-70287000D01*
X140977000Y-70283000D01*
X140973000Y-70279000D01*
X140970000Y-70275000D01*
X140967000Y-70270000D01*
X140964000Y-70266000D01*
X140962000Y-70261000D01*
X140960000Y-70257000D01*
X140958000Y-70252000D01*
X140956000Y-70247000D01*
X140954000Y-70242000D01*
X140953000Y-70237000D01*
X140952000Y-70232000D01*
X140952000Y-70226000D01*
X140951000Y-70221000D01*
X140951000Y-70216000D01*
X140951000Y-70066000D01*
X140951000Y-70061000D01*
X140952000Y-70056000D01*
X140952000Y-70050000D01*
X140953000Y-70045000D01*
X140954000Y-70040000D01*
X140956000Y-70035000D01*
X140958000Y-70030000D01*
X140960000Y-70025000D01*
X140962000Y-70021000D01*
X140964000Y-70016000D01*
X140967000Y-70012000D01*
X140970000Y-70007000D01*
X140973000Y-70003000D01*
X140977000Y-69999000D01*
X140980000Y-69995000D01*
X140984000Y-69992000D01*
X140988000Y-69988000D01*
X140992000Y-69985000D01*
X140997000Y-69982000D01*
X141001000Y-69979000D01*
X141006000Y-69977000D01*
X141010000Y-69975000D01*
X141015000Y-69973000D01*
X141020000Y-69971000D01*
X141025000Y-69969000D01*
X141030000Y-69968000D01*
X141035000Y-69967000D01*
X141041000Y-69967000D01*
X141046000Y-69966000D01*
X141051000Y-69966000D01*
X142275000Y-69966000D01*
X142281000Y-69966000D01*
X142286000Y-69967000D01*
G37*
X141101000Y-69241000D02*
X141751000Y-69241000D01*
X141754000Y-69241000D01*
X141756000Y-69241000D01*
X141759000Y-69240000D01*
X141761000Y-69240000D01*
X141764000Y-69239000D01*
X141766000Y-69239000D01*
X141769000Y-69238000D01*
X141771000Y-69237000D01*
X141774000Y-69236000D01*
X141776000Y-69234000D01*
X141778000Y-69233000D01*
X141780000Y-69231000D01*
X141782000Y-69230000D01*
X141784000Y-69228000D01*
X141786000Y-69226000D01*
X141788000Y-69224000D01*
X141790000Y-69222000D01*
X141791000Y-69220000D01*
X141793000Y-69218000D01*
X141794000Y-69216000D01*
X141796000Y-69214000D01*
X141797000Y-69211000D01*
X141798000Y-69209000D01*
X141799000Y-69206000D01*
X141799000Y-69204000D01*
X141800000Y-69201000D01*
X141800000Y-69199000D01*
X141801000Y-69196000D01*
X141801000Y-69194000D01*
X141801000Y-69191000D01*
X141801000Y-68091000D01*
X141801000Y-68088000D01*
X141801000Y-68086000D01*
X141800000Y-68083000D01*
X141800000Y-68081000D01*
X141799000Y-68078000D01*
X141799000Y-68076000D01*
X141798000Y-68073000D01*
X141797000Y-68071000D01*
X141796000Y-68068000D01*
X141794000Y-68066000D01*
X141793000Y-68064000D01*
X141791000Y-68062000D01*
X141790000Y-68060000D01*
X141788000Y-68058000D01*
X141786000Y-68056000D01*
X141784000Y-68054000D01*
X141782000Y-68052000D01*
X141780000Y-68051000D01*
X141778000Y-68049000D01*
X141776000Y-68048000D01*
X141774000Y-68046000D01*
X141771000Y-68045000D01*
X141769000Y-68044000D01*
X141766000Y-68043000D01*
X141764000Y-68043000D01*
X141761000Y-68042000D01*
X141759000Y-68042000D01*
X141756000Y-68041000D01*
X141754000Y-68041000D01*
X141751000Y-68041000D01*
X141601000Y-68041000D01*
X141598000Y-68041000D01*
X141596000Y-68041000D01*
X141593000Y-68042000D01*
X141591000Y-68042000D01*
X141588000Y-68043000D01*
X141586000Y-68043000D01*
X141583000Y-68044000D01*
X141581000Y-68045000D01*
X141578000Y-68046000D01*
X141576000Y-68048000D01*
X141574000Y-68049000D01*
X141572000Y-68051000D01*
X141570000Y-68052000D01*
X141568000Y-68054000D01*
X141566000Y-68056000D01*
X141564000Y-68058000D01*
X141562000Y-68060000D01*
X141561000Y-68062000D01*
X141559000Y-68064000D01*
X141558000Y-68066000D01*
X141556000Y-68068000D01*
X141555000Y-68071000D01*
X141554000Y-68073000D01*
X141553000Y-68076000D01*
X141553000Y-68078000D01*
X141552000Y-68081000D01*
X141552000Y-68083000D01*
X141551000Y-68086000D01*
X141551000Y-68088000D01*
X141551000Y-68091000D01*
X141551000Y-68391000D01*
X141551000Y-68394000D01*
X141551000Y-68396000D01*
X141550000Y-68399000D01*
X141550000Y-68401000D01*
X141549000Y-68404000D01*
X141549000Y-68406000D01*
X141548000Y-68409000D01*
X141547000Y-68411000D01*
X141546000Y-68414000D01*
X141544000Y-68416000D01*
X141543000Y-68418000D01*
X141541000Y-68420000D01*
X141540000Y-68422000D01*
X141538000Y-68424000D01*
X141536000Y-68426000D01*
X141534000Y-68428000D01*
X141532000Y-68430000D01*
X141530000Y-68431000D01*
X141528000Y-68433000D01*
X141526000Y-68434000D01*
X141524000Y-68436000D01*
X141521000Y-68437000D01*
X141519000Y-68438000D01*
X141516000Y-68439000D01*
X141514000Y-68439000D01*
X141511000Y-68440000D01*
X141509000Y-68440000D01*
X141506000Y-68441000D01*
X141504000Y-68441000D01*
X141501000Y-68441000D01*
X141351000Y-68441000D01*
X141348000Y-68441000D01*
X141346000Y-68441000D01*
X141343000Y-68440000D01*
X141341000Y-68440000D01*
X141338000Y-68439000D01*
X141336000Y-68439000D01*
X141333000Y-68438000D01*
X141331000Y-68437000D01*
X141328000Y-68436000D01*
X141326000Y-68434000D01*
X141324000Y-68433000D01*
X141322000Y-68431000D01*
X141320000Y-68430000D01*
X141318000Y-68428000D01*
X141316000Y-68426000D01*
X141314000Y-68424000D01*
X141312000Y-68422000D01*
X141311000Y-68420000D01*
X141309000Y-68418000D01*
X141308000Y-68416000D01*
X141306000Y-68414000D01*
X141305000Y-68411000D01*
X141304000Y-68409000D01*
X141303000Y-68406000D01*
X141303000Y-68404000D01*
X141302000Y-68401000D01*
X141302000Y-68399000D01*
X141301000Y-68396000D01*
X141301000Y-68394000D01*
X141301000Y-68391000D01*
X141301000Y-68091000D01*
X141301000Y-68088000D01*
X141301000Y-68086000D01*
X141300000Y-68083000D01*
X141300000Y-68081000D01*
X141299000Y-68078000D01*
X141299000Y-68076000D01*
X141298000Y-68073000D01*
X141297000Y-68071000D01*
X141296000Y-68068000D01*
X141294000Y-68066000D01*
X141293000Y-68064000D01*
X141291000Y-68062000D01*
X141290000Y-68060000D01*
X141288000Y-68058000D01*
X141286000Y-68056000D01*
X141284000Y-68054000D01*
X141282000Y-68052000D01*
X141280000Y-68051000D01*
X141278000Y-68049000D01*
X141276000Y-68048000D01*
X141274000Y-68046000D01*
X141271000Y-68045000D01*
X141269000Y-68044000D01*
X141266000Y-68043000D01*
X141264000Y-68043000D01*
X141261000Y-68042000D01*
X141259000Y-68042000D01*
X141256000Y-68041000D01*
X141254000Y-68041000D01*
X141251000Y-68041000D01*
X141101000Y-68041000D01*
X141098000Y-68041000D01*
X141096000Y-68041000D01*
X141093000Y-68042000D01*
X141091000Y-68042000D01*
X141088000Y-68043000D01*
X141086000Y-68043000D01*
X141083000Y-68044000D01*
X141081000Y-68045000D01*
X141078000Y-68046000D01*
X141076000Y-68048000D01*
X141074000Y-68049000D01*
X141072000Y-68051000D01*
X141070000Y-68052000D01*
X141068000Y-68054000D01*
X141066000Y-68056000D01*
X141064000Y-68058000D01*
X141062000Y-68060000D01*
X141061000Y-68062000D01*
X141059000Y-68064000D01*
X141058000Y-68066000D01*
X141056000Y-68068000D01*
X141055000Y-68071000D01*
X141054000Y-68073000D01*
X141053000Y-68076000D01*
X141053000Y-68078000D01*
X141052000Y-68081000D01*
X141052000Y-68083000D01*
X141051000Y-68086000D01*
X141051000Y-68088000D01*
X141051000Y-68091000D01*
X141051000Y-69191000D01*
X141051000Y-69194000D01*
X141051000Y-69196000D01*
X141052000Y-69199000D01*
X141052000Y-69201000D01*
X141053000Y-69204000D01*
X141053000Y-69206000D01*
X141054000Y-69209000D01*
X141055000Y-69211000D01*
X141056000Y-69214000D01*
X141058000Y-69216000D01*
X141059000Y-69218000D01*
X141061000Y-69220000D01*
X141062000Y-69222000D01*
X141064000Y-69224000D01*
X141066000Y-69226000D01*
X141068000Y-69228000D01*
X141070000Y-69230000D01*
X141072000Y-69231000D01*
X141074000Y-69233000D01*
X141076000Y-69234000D01*
X141078000Y-69236000D01*
X141081000Y-69237000D01*
X141083000Y-69238000D01*
X141086000Y-69239000D01*
X141088000Y-69239000D01*
X141091000Y-69240000D01*
X141093000Y-69240000D01*
X141096000Y-69241000D01*
X141098000Y-69241000D01*
X141101000Y-69241000D01*
G36*
X141259000Y-68042000D02*
G01*
X141261000Y-68042000D01*
X141264000Y-68043000D01*
X141266000Y-68043000D01*
X141269000Y-68044000D01*
X141271000Y-68045000D01*
X141274000Y-68046000D01*
X141276000Y-68048000D01*
X141278000Y-68049000D01*
X141280000Y-68051000D01*
X141282000Y-68052000D01*
X141284000Y-68054000D01*
X141286000Y-68056000D01*
X141288000Y-68058000D01*
X141290000Y-68060000D01*
X141291000Y-68062000D01*
X141293000Y-68064000D01*
X141294000Y-68066000D01*
X141296000Y-68068000D01*
X141297000Y-68071000D01*
X141298000Y-68073000D01*
X141299000Y-68076000D01*
X141299000Y-68078000D01*
X141300000Y-68081000D01*
X141300000Y-68083000D01*
X141301000Y-68086000D01*
X141301000Y-68088000D01*
X141301000Y-68091000D01*
X141301000Y-68391000D01*
X141301000Y-68394000D01*
X141301000Y-68396000D01*
X141302000Y-68399000D01*
X141302000Y-68401000D01*
X141303000Y-68404000D01*
X141303000Y-68406000D01*
X141304000Y-68409000D01*
X141305000Y-68411000D01*
X141306000Y-68414000D01*
X141308000Y-68416000D01*
X141309000Y-68418000D01*
X141311000Y-68420000D01*
X141312000Y-68422000D01*
X141314000Y-68424000D01*
X141316000Y-68426000D01*
X141318000Y-68428000D01*
X141320000Y-68430000D01*
X141322000Y-68431000D01*
X141324000Y-68433000D01*
X141326000Y-68434000D01*
X141328000Y-68436000D01*
X141331000Y-68437000D01*
X141333000Y-68438000D01*
X141336000Y-68439000D01*
X141338000Y-68439000D01*
X141341000Y-68440000D01*
X141343000Y-68440000D01*
X141346000Y-68441000D01*
X141348000Y-68441000D01*
X141351000Y-68441000D01*
X141501000Y-68441000D01*
X141504000Y-68441000D01*
X141506000Y-68441000D01*
X141509000Y-68440000D01*
X141511000Y-68440000D01*
X141514000Y-68439000D01*
X141516000Y-68439000D01*
X141519000Y-68438000D01*
X141521000Y-68437000D01*
X141524000Y-68436000D01*
X141526000Y-68434000D01*
X141528000Y-68433000D01*
X141530000Y-68431000D01*
X141532000Y-68430000D01*
X141534000Y-68428000D01*
X141536000Y-68426000D01*
X141538000Y-68424000D01*
X141540000Y-68422000D01*
X141541000Y-68420000D01*
X141543000Y-68418000D01*
X141544000Y-68416000D01*
X141546000Y-68414000D01*
X141547000Y-68411000D01*
X141548000Y-68409000D01*
X141549000Y-68406000D01*
X141549000Y-68404000D01*
X141550000Y-68401000D01*
X141550000Y-68399000D01*
X141551000Y-68396000D01*
X141551000Y-68394000D01*
X141551000Y-68391000D01*
X141551000Y-68091000D01*
X141551000Y-68088000D01*
X141551000Y-68086000D01*
X141552000Y-68083000D01*
X141552000Y-68081000D01*
X141553000Y-68078000D01*
X141553000Y-68076000D01*
X141554000Y-68073000D01*
X141555000Y-68071000D01*
X141556000Y-68068000D01*
X141558000Y-68066000D01*
X141559000Y-68064000D01*
X141561000Y-68062000D01*
X141562000Y-68060000D01*
X141564000Y-68058000D01*
X141566000Y-68056000D01*
X141568000Y-68054000D01*
X141570000Y-68052000D01*
X141572000Y-68051000D01*
X141574000Y-68049000D01*
X141576000Y-68048000D01*
X141578000Y-68046000D01*
X141581000Y-68045000D01*
X141583000Y-68044000D01*
X141586000Y-68043000D01*
X141588000Y-68043000D01*
X141591000Y-68042000D01*
X141593000Y-68042000D01*
X141596000Y-68041000D01*
X141598000Y-68041000D01*
X141601000Y-68041000D01*
X141751000Y-68041000D01*
X141754000Y-68041000D01*
X141756000Y-68041000D01*
X141759000Y-68042000D01*
X141761000Y-68042000D01*
X141764000Y-68043000D01*
X141766000Y-68043000D01*
X141769000Y-68044000D01*
X141771000Y-68045000D01*
X141774000Y-68046000D01*
X141776000Y-68048000D01*
X141778000Y-68049000D01*
X141780000Y-68051000D01*
X141782000Y-68052000D01*
X141784000Y-68054000D01*
X141786000Y-68056000D01*
X141788000Y-68058000D01*
X141790000Y-68060000D01*
X141791000Y-68062000D01*
X141793000Y-68064000D01*
X141794000Y-68066000D01*
X141796000Y-68068000D01*
X141797000Y-68071000D01*
X141798000Y-68073000D01*
X141799000Y-68076000D01*
X141799000Y-68078000D01*
X141800000Y-68081000D01*
X141800000Y-68083000D01*
X141801000Y-68086000D01*
X141801000Y-68088000D01*
X141801000Y-68091000D01*
X141801000Y-69191000D01*
X141801000Y-69194000D01*
X141801000Y-69196000D01*
X141800000Y-69199000D01*
X141800000Y-69201000D01*
X141799000Y-69204000D01*
X141799000Y-69206000D01*
X141798000Y-69209000D01*
X141797000Y-69211000D01*
X141796000Y-69214000D01*
X141794000Y-69216000D01*
X141793000Y-69218000D01*
X141791000Y-69220000D01*
X141790000Y-69222000D01*
X141788000Y-69224000D01*
X141786000Y-69226000D01*
X141784000Y-69228000D01*
X141782000Y-69230000D01*
X141780000Y-69231000D01*
X141778000Y-69233000D01*
X141776000Y-69234000D01*
X141774000Y-69236000D01*
X141771000Y-69237000D01*
X141769000Y-69238000D01*
X141766000Y-69239000D01*
X141764000Y-69239000D01*
X141761000Y-69240000D01*
X141759000Y-69240000D01*
X141756000Y-69241000D01*
X141754000Y-69241000D01*
X141751000Y-69241000D01*
X141101000Y-69241000D01*
X141098000Y-69241000D01*
X141096000Y-69241000D01*
X141093000Y-69240000D01*
X141091000Y-69240000D01*
X141088000Y-69239000D01*
X141086000Y-69239000D01*
X141083000Y-69238000D01*
X141081000Y-69237000D01*
X141078000Y-69236000D01*
X141076000Y-69234000D01*
X141074000Y-69233000D01*
X141072000Y-69231000D01*
X141070000Y-69230000D01*
X141068000Y-69228000D01*
X141066000Y-69226000D01*
X141064000Y-69224000D01*
X141062000Y-69222000D01*
X141061000Y-69220000D01*
X141059000Y-69218000D01*
X141058000Y-69216000D01*
X141056000Y-69214000D01*
X141055000Y-69211000D01*
X141054000Y-69209000D01*
X141053000Y-69206000D01*
X141053000Y-69204000D01*
X141052000Y-69201000D01*
X141052000Y-69199000D01*
X141051000Y-69196000D01*
X141051000Y-69194000D01*
X141051000Y-69191000D01*
X141051000Y-68091000D01*
X141051000Y-68088000D01*
X141051000Y-68086000D01*
X141052000Y-68083000D01*
X141052000Y-68081000D01*
X141053000Y-68078000D01*
X141053000Y-68076000D01*
X141054000Y-68073000D01*
X141055000Y-68071000D01*
X141056000Y-68068000D01*
X141058000Y-68066000D01*
X141059000Y-68064000D01*
X141061000Y-68062000D01*
X141062000Y-68060000D01*
X141064000Y-68058000D01*
X141066000Y-68056000D01*
X141068000Y-68054000D01*
X141070000Y-68052000D01*
X141072000Y-68051000D01*
X141074000Y-68049000D01*
X141076000Y-68048000D01*
X141078000Y-68046000D01*
X141081000Y-68045000D01*
X141083000Y-68044000D01*
X141086000Y-68043000D01*
X141088000Y-68043000D01*
X141091000Y-68042000D01*
X141093000Y-68042000D01*
X141096000Y-68041000D01*
X141098000Y-68041000D01*
X141101000Y-68041000D01*
X141251000Y-68041000D01*
X141254000Y-68041000D01*
X141256000Y-68041000D01*
X141259000Y-68042000D01*
G37*
X144701000Y-68491000D02*
X144701000Y-69391000D01*
X144701000Y-69394000D01*
X144701000Y-69396000D01*
X144700000Y-69399000D01*
X144700000Y-69401000D01*
X144699000Y-69404000D01*
X144699000Y-69406000D01*
X144698000Y-69409000D01*
X144697000Y-69411000D01*
X144696000Y-69414000D01*
X144694000Y-69416000D01*
X144693000Y-69418000D01*
X144691000Y-69420000D01*
X144690000Y-69422000D01*
X144688000Y-69424000D01*
X144686000Y-69426000D01*
X144684000Y-69428000D01*
X144682000Y-69430000D01*
X144680000Y-69431000D01*
X144678000Y-69433000D01*
X144676000Y-69434000D01*
X144674000Y-69436000D01*
X144671000Y-69437000D01*
X144669000Y-69438000D01*
X144666000Y-69439000D01*
X144664000Y-69439000D01*
X144661000Y-69440000D01*
X144659000Y-69440000D01*
X144656000Y-69441000D01*
X144654000Y-69441000D01*
X144651000Y-69441000D01*
X142826000Y-69441000D01*
X142823000Y-69441000D01*
X142821000Y-69441000D01*
X142818000Y-69440000D01*
X142816000Y-69440000D01*
X142813000Y-69439000D01*
X142811000Y-69439000D01*
X142808000Y-69438000D01*
X142806000Y-69437000D01*
X142803000Y-69436000D01*
X142801000Y-69434000D01*
X142799000Y-69433000D01*
X142797000Y-69431000D01*
X142795000Y-69430000D01*
X142793000Y-69428000D01*
X142791000Y-69426000D01*
X142789000Y-69424000D01*
X142787000Y-69422000D01*
X142786000Y-69420000D01*
X142784000Y-69418000D01*
X142783000Y-69416000D01*
X142781000Y-69414000D01*
X142780000Y-69411000D01*
X142779000Y-69409000D01*
X142778000Y-69406000D01*
X142778000Y-69404000D01*
X142777000Y-69401000D01*
X142777000Y-69399000D01*
X142776000Y-69396000D01*
X142776000Y-69394000D01*
X142776000Y-69391000D01*
X142776000Y-68491000D01*
X142776000Y-68488000D01*
X142776000Y-68486000D01*
X142777000Y-68483000D01*
X142777000Y-68481000D01*
X142778000Y-68478000D01*
X142778000Y-68476000D01*
X142779000Y-68473000D01*
X142780000Y-68471000D01*
X142781000Y-68468000D01*
X142783000Y-68466000D01*
X142784000Y-68464000D01*
X142786000Y-68462000D01*
X142787000Y-68460000D01*
X142789000Y-68458000D01*
X142791000Y-68456000D01*
X142793000Y-68454000D01*
X142795000Y-68452000D01*
X142797000Y-68451000D01*
X142799000Y-68449000D01*
X142801000Y-68448000D01*
X142803000Y-68446000D01*
X142806000Y-68445000D01*
X142808000Y-68444000D01*
X142811000Y-68443000D01*
X142813000Y-68443000D01*
X142816000Y-68442000D01*
X142818000Y-68442000D01*
X142821000Y-68441000D01*
X142823000Y-68441000D01*
X142826000Y-68441000D01*
X143141000Y-68441000D01*
X143144000Y-68441000D01*
X143146000Y-68441000D01*
X143149000Y-68440000D01*
X143151000Y-68440000D01*
X143154000Y-68439000D01*
X143156000Y-68439000D01*
X143159000Y-68438000D01*
X143161000Y-68437000D01*
X143164000Y-68436000D01*
X143166000Y-68434000D01*
X143168000Y-68433000D01*
X143170000Y-68431000D01*
X143172000Y-68430000D01*
X143174000Y-68428000D01*
X143176000Y-68426000D01*
X143178000Y-68424000D01*
X143180000Y-68422000D01*
X143181000Y-68420000D01*
X143183000Y-68418000D01*
X143184000Y-68416000D01*
X143186000Y-68414000D01*
X143187000Y-68411000D01*
X143188000Y-68409000D01*
X143189000Y-68406000D01*
X143189000Y-68404000D01*
X143190000Y-68401000D01*
X143190000Y-68399000D01*
X143191000Y-68396000D01*
X143191000Y-68394000D01*
X143191000Y-68391000D01*
X143191000Y-68091000D01*
X143191000Y-68088000D01*
X143191000Y-68086000D01*
X143192000Y-68083000D01*
X143192000Y-68081000D01*
X143193000Y-68078000D01*
X143193000Y-68076000D01*
X143194000Y-68073000D01*
X143195000Y-68071000D01*
X143196000Y-68068000D01*
X143198000Y-68066000D01*
X143199000Y-68064000D01*
X143201000Y-68062000D01*
X143202000Y-68060000D01*
X143204000Y-68058000D01*
X143206000Y-68056000D01*
X143208000Y-68054000D01*
X143210000Y-68052000D01*
X143212000Y-68051000D01*
X143214000Y-68049000D01*
X143216000Y-68048000D01*
X143218000Y-68046000D01*
X143221000Y-68045000D01*
X143223000Y-68044000D01*
X143226000Y-68043000D01*
X143228000Y-68043000D01*
X143231000Y-68042000D01*
X143233000Y-68042000D01*
X143236000Y-68041000D01*
X143238000Y-68041000D01*
X143241000Y-68041000D01*
X143391000Y-68041000D01*
X143394000Y-68041000D01*
X143396000Y-68041000D01*
X143399000Y-68042000D01*
X143401000Y-68042000D01*
X143404000Y-68043000D01*
X143406000Y-68043000D01*
X143409000Y-68044000D01*
X143411000Y-68045000D01*
X143414000Y-68046000D01*
X143416000Y-68048000D01*
X143418000Y-68049000D01*
X143420000Y-68051000D01*
X143422000Y-68052000D01*
X143424000Y-68054000D01*
X143426000Y-68056000D01*
X143428000Y-68058000D01*
X143430000Y-68060000D01*
X143431000Y-68062000D01*
X143433000Y-68064000D01*
X143434000Y-68066000D01*
X143436000Y-68068000D01*
X143437000Y-68071000D01*
X143438000Y-68073000D01*
X143439000Y-68076000D01*
X143439000Y-68078000D01*
X143440000Y-68081000D01*
X143440000Y-68083000D01*
X143441000Y-68086000D01*
X143441000Y-68088000D01*
X143441000Y-68091000D01*
X143441000Y-68391000D01*
X143441000Y-68394000D01*
X143441000Y-68396000D01*
X143442000Y-68399000D01*
X143442000Y-68401000D01*
X143443000Y-68404000D01*
X143443000Y-68406000D01*
X143444000Y-68409000D01*
X143445000Y-68411000D01*
X143446000Y-68414000D01*
X143448000Y-68416000D01*
X143449000Y-68418000D01*
X143451000Y-68420000D01*
X143452000Y-68422000D01*
X143454000Y-68424000D01*
X143456000Y-68426000D01*
X143458000Y-68428000D01*
X143460000Y-68430000D01*
X143462000Y-68431000D01*
X143464000Y-68433000D01*
X143466000Y-68434000D01*
X143468000Y-68436000D01*
X143471000Y-68437000D01*
X143473000Y-68438000D01*
X143476000Y-68439000D01*
X143478000Y-68439000D01*
X143481000Y-68440000D01*
X143483000Y-68440000D01*
X143486000Y-68441000D01*
X143488000Y-68441000D01*
X143491000Y-68441000D01*
X143641000Y-68441000D01*
X143644000Y-68441000D01*
X143646000Y-68441000D01*
X143649000Y-68440000D01*
X143651000Y-68440000D01*
X143654000Y-68439000D01*
X143656000Y-68439000D01*
X143659000Y-68438000D01*
X143661000Y-68437000D01*
X143664000Y-68436000D01*
X143666000Y-68434000D01*
X143668000Y-68433000D01*
X143670000Y-68431000D01*
X143672000Y-68430000D01*
X143674000Y-68428000D01*
X143676000Y-68426000D01*
X143678000Y-68424000D01*
X143680000Y-68422000D01*
X143681000Y-68420000D01*
X143683000Y-68418000D01*
X143684000Y-68416000D01*
X143686000Y-68414000D01*
X143687000Y-68411000D01*
X143688000Y-68409000D01*
X143689000Y-68406000D01*
X143689000Y-68404000D01*
X143690000Y-68401000D01*
X143690000Y-68399000D01*
X143691000Y-68396000D01*
X143691000Y-68394000D01*
X143691000Y-68391000D01*
X143691000Y-68091000D01*
X143691000Y-68088000D01*
X143691000Y-68086000D01*
X143692000Y-68083000D01*
X143692000Y-68081000D01*
X143693000Y-68078000D01*
X143693000Y-68076000D01*
X143694000Y-68073000D01*
X143695000Y-68071000D01*
X143696000Y-68068000D01*
X143698000Y-68066000D01*
X143699000Y-68064000D01*
X143701000Y-68062000D01*
X143702000Y-68060000D01*
X143704000Y-68058000D01*
X143706000Y-68056000D01*
X143708000Y-68054000D01*
X143710000Y-68052000D01*
X143712000Y-68051000D01*
X143714000Y-68049000D01*
X143716000Y-68048000D01*
X143718000Y-68046000D01*
X143721000Y-68045000D01*
X143723000Y-68044000D01*
X143726000Y-68043000D01*
X143728000Y-68043000D01*
X143731000Y-68042000D01*
X143733000Y-68042000D01*
X143736000Y-68041000D01*
X143738000Y-68041000D01*
X143741000Y-68041000D01*
X143891000Y-68041000D01*
X143894000Y-68041000D01*
X143896000Y-68041000D01*
X143899000Y-68042000D01*
X143901000Y-68042000D01*
X143904000Y-68043000D01*
X143906000Y-68043000D01*
X143909000Y-68044000D01*
X143911000Y-68045000D01*
X143914000Y-68046000D01*
X143916000Y-68048000D01*
X143918000Y-68049000D01*
X143920000Y-68051000D01*
X143922000Y-68052000D01*
X143924000Y-68054000D01*
X143926000Y-68056000D01*
X143928000Y-68058000D01*
X143930000Y-68060000D01*
X143931000Y-68062000D01*
X143933000Y-68064000D01*
X143934000Y-68066000D01*
X143936000Y-68068000D01*
X143937000Y-68071000D01*
X143938000Y-68073000D01*
X143939000Y-68076000D01*
X143939000Y-68078000D01*
X143940000Y-68081000D01*
X143940000Y-68083000D01*
X143941000Y-68086000D01*
X143941000Y-68088000D01*
X143941000Y-68091000D01*
X143941000Y-68391000D01*
X143941000Y-68394000D01*
X143941000Y-68396000D01*
X143942000Y-68399000D01*
X143942000Y-68401000D01*
X143943000Y-68404000D01*
X143943000Y-68406000D01*
X143944000Y-68409000D01*
X143945000Y-68411000D01*
X143946000Y-68414000D01*
X143948000Y-68416000D01*
X143949000Y-68418000D01*
X143951000Y-68420000D01*
X143952000Y-68422000D01*
X143954000Y-68424000D01*
X143956000Y-68426000D01*
X143958000Y-68428000D01*
X143960000Y-68430000D01*
X143962000Y-68431000D01*
X143964000Y-68433000D01*
X143966000Y-68434000D01*
X143968000Y-68436000D01*
X143971000Y-68437000D01*
X143973000Y-68438000D01*
X143976000Y-68439000D01*
X143978000Y-68439000D01*
X143981000Y-68440000D01*
X143983000Y-68440000D01*
X143986000Y-68441000D01*
X143988000Y-68441000D01*
X143991000Y-68441000D01*
X144141000Y-68441000D01*
X144144000Y-68441000D01*
X144146000Y-68441000D01*
X144149000Y-68440000D01*
X144151000Y-68440000D01*
X144154000Y-68439000D01*
X144156000Y-68439000D01*
X144159000Y-68438000D01*
X144161000Y-68437000D01*
X144164000Y-68436000D01*
X144166000Y-68434000D01*
X144168000Y-68433000D01*
X144170000Y-68431000D01*
X144172000Y-68430000D01*
X144174000Y-68428000D01*
X144176000Y-68426000D01*
X144178000Y-68424000D01*
X144180000Y-68422000D01*
X144181000Y-68420000D01*
X144183000Y-68418000D01*
X144184000Y-68416000D01*
X144186000Y-68414000D01*
X144187000Y-68411000D01*
X144188000Y-68409000D01*
X144189000Y-68406000D01*
X144189000Y-68404000D01*
X144190000Y-68401000D01*
X144190000Y-68399000D01*
X144191000Y-68396000D01*
X144191000Y-68394000D01*
X144191000Y-68391000D01*
X144191000Y-68091000D01*
X144191000Y-68088000D01*
X144191000Y-68086000D01*
X144192000Y-68083000D01*
X144192000Y-68081000D01*
X144193000Y-68078000D01*
X144193000Y-68076000D01*
X144194000Y-68073000D01*
X144195000Y-68071000D01*
X144196000Y-68068000D01*
X144198000Y-68066000D01*
X144199000Y-68064000D01*
X144201000Y-68062000D01*
X144202000Y-68060000D01*
X144204000Y-68058000D01*
X144206000Y-68056000D01*
X144208000Y-68054000D01*
X144210000Y-68052000D01*
X144212000Y-68051000D01*
X144214000Y-68049000D01*
X144216000Y-68048000D01*
X144218000Y-68046000D01*
X144221000Y-68045000D01*
X144223000Y-68044000D01*
X144226000Y-68043000D01*
X144228000Y-68043000D01*
X144231000Y-68042000D01*
X144233000Y-68042000D01*
X144236000Y-68041000D01*
X144238000Y-68041000D01*
X144241000Y-68041000D01*
X144391000Y-68041000D01*
X144394000Y-68041000D01*
X144396000Y-68041000D01*
X144399000Y-68042000D01*
X144401000Y-68042000D01*
X144404000Y-68043000D01*
X144406000Y-68043000D01*
X144409000Y-68044000D01*
X144411000Y-68045000D01*
X144414000Y-68046000D01*
X144416000Y-68048000D01*
X144418000Y-68049000D01*
X144420000Y-68051000D01*
X144422000Y-68052000D01*
X144424000Y-68054000D01*
X144426000Y-68056000D01*
X144428000Y-68058000D01*
X144430000Y-68060000D01*
X144431000Y-68062000D01*
X144433000Y-68064000D01*
X144434000Y-68066000D01*
X144436000Y-68068000D01*
X144437000Y-68071000D01*
X144438000Y-68073000D01*
X144439000Y-68076000D01*
X144439000Y-68078000D01*
X144440000Y-68081000D01*
X144440000Y-68083000D01*
X144441000Y-68086000D01*
X144441000Y-68088000D01*
X144441000Y-68091000D01*
X144441000Y-68391000D01*
X144441000Y-68394000D01*
X144441000Y-68396000D01*
X144442000Y-68399000D01*
X144442000Y-68401000D01*
X144443000Y-68404000D01*
X144443000Y-68406000D01*
X144444000Y-68409000D01*
X144445000Y-68411000D01*
X144446000Y-68414000D01*
X144448000Y-68416000D01*
X144449000Y-68418000D01*
X144451000Y-68420000D01*
X144452000Y-68422000D01*
X144454000Y-68424000D01*
X144456000Y-68426000D01*
X144458000Y-68428000D01*
X144460000Y-68430000D01*
X144462000Y-68431000D01*
X144464000Y-68433000D01*
X144466000Y-68434000D01*
X144468000Y-68436000D01*
X144471000Y-68437000D01*
X144473000Y-68438000D01*
X144476000Y-68439000D01*
X144478000Y-68439000D01*
X144481000Y-68440000D01*
X144483000Y-68440000D01*
X144486000Y-68441000D01*
X144488000Y-68441000D01*
X144491000Y-68441000D01*
X144651000Y-68441000D01*
X144654000Y-68441000D01*
X144656000Y-68441000D01*
X144659000Y-68442000D01*
X144661000Y-68442000D01*
X144664000Y-68443000D01*
X144666000Y-68443000D01*
X144669000Y-68444000D01*
X144671000Y-68445000D01*
X144674000Y-68446000D01*
X144676000Y-68448000D01*
X144678000Y-68449000D01*
X144680000Y-68451000D01*
X144682000Y-68452000D01*
X144684000Y-68454000D01*
X144686000Y-68456000D01*
X144688000Y-68458000D01*
X144690000Y-68460000D01*
X144691000Y-68462000D01*
X144693000Y-68464000D01*
X144694000Y-68466000D01*
X144696000Y-68468000D01*
X144697000Y-68471000D01*
X144698000Y-68473000D01*
X144699000Y-68476000D01*
X144699000Y-68478000D01*
X144700000Y-68481000D01*
X144700000Y-68483000D01*
X144701000Y-68486000D01*
X144701000Y-68488000D01*
X144701000Y-68491000D01*
G36*
X143399000Y-68042000D02*
G01*
X143401000Y-68042000D01*
X143404000Y-68043000D01*
X143406000Y-68043000D01*
X143409000Y-68044000D01*
X143411000Y-68045000D01*
X143414000Y-68046000D01*
X143416000Y-68048000D01*
X143418000Y-68049000D01*
X143420000Y-68051000D01*
X143422000Y-68052000D01*
X143424000Y-68054000D01*
X143426000Y-68056000D01*
X143428000Y-68058000D01*
X143430000Y-68060000D01*
X143431000Y-68062000D01*
X143433000Y-68064000D01*
X143434000Y-68066000D01*
X143436000Y-68068000D01*
X143437000Y-68071000D01*
X143438000Y-68073000D01*
X143439000Y-68076000D01*
X143439000Y-68078000D01*
X143440000Y-68081000D01*
X143440000Y-68083000D01*
X143441000Y-68086000D01*
X143441000Y-68088000D01*
X143441000Y-68091000D01*
X143441000Y-68391000D01*
X143441000Y-68394000D01*
X143441000Y-68396000D01*
X143442000Y-68399000D01*
X143442000Y-68401000D01*
X143443000Y-68404000D01*
X143443000Y-68406000D01*
X143444000Y-68409000D01*
X143445000Y-68411000D01*
X143446000Y-68414000D01*
X143448000Y-68416000D01*
X143449000Y-68418000D01*
X143451000Y-68420000D01*
X143452000Y-68422000D01*
X143454000Y-68424000D01*
X143456000Y-68426000D01*
X143458000Y-68428000D01*
X143460000Y-68430000D01*
X143462000Y-68431000D01*
X143464000Y-68433000D01*
X143466000Y-68434000D01*
X143468000Y-68436000D01*
X143471000Y-68437000D01*
X143473000Y-68438000D01*
X143476000Y-68439000D01*
X143478000Y-68439000D01*
X143481000Y-68440000D01*
X143483000Y-68440000D01*
X143486000Y-68441000D01*
X143488000Y-68441000D01*
X143491000Y-68441000D01*
X143641000Y-68441000D01*
X143644000Y-68441000D01*
X143646000Y-68441000D01*
X143649000Y-68440000D01*
X143651000Y-68440000D01*
X143654000Y-68439000D01*
X143656000Y-68439000D01*
X143659000Y-68438000D01*
X143661000Y-68437000D01*
X143664000Y-68436000D01*
X143666000Y-68434000D01*
X143668000Y-68433000D01*
X143670000Y-68431000D01*
X143672000Y-68430000D01*
X143674000Y-68428000D01*
X143676000Y-68426000D01*
X143678000Y-68424000D01*
X143680000Y-68422000D01*
X143681000Y-68420000D01*
X143683000Y-68418000D01*
X143684000Y-68416000D01*
X143686000Y-68414000D01*
X143687000Y-68411000D01*
X143688000Y-68409000D01*
X143689000Y-68406000D01*
X143689000Y-68404000D01*
X143690000Y-68401000D01*
X143690000Y-68399000D01*
X143691000Y-68396000D01*
X143691000Y-68394000D01*
X143691000Y-68391000D01*
X143691000Y-68091000D01*
X143691000Y-68088000D01*
X143691000Y-68086000D01*
X143692000Y-68083000D01*
X143692000Y-68081000D01*
X143693000Y-68078000D01*
X143693000Y-68076000D01*
X143694000Y-68073000D01*
X143695000Y-68071000D01*
X143696000Y-68068000D01*
X143698000Y-68066000D01*
X143699000Y-68064000D01*
X143701000Y-68062000D01*
X143702000Y-68060000D01*
X143704000Y-68058000D01*
X143706000Y-68056000D01*
X143708000Y-68054000D01*
X143710000Y-68052000D01*
X143712000Y-68051000D01*
X143714000Y-68049000D01*
X143716000Y-68048000D01*
X143718000Y-68046000D01*
X143721000Y-68045000D01*
X143723000Y-68044000D01*
X143726000Y-68043000D01*
X143728000Y-68043000D01*
X143731000Y-68042000D01*
X143733000Y-68042000D01*
X143736000Y-68041000D01*
X143738000Y-68041000D01*
X143741000Y-68041000D01*
X143891000Y-68041000D01*
X143894000Y-68041000D01*
X143896000Y-68041000D01*
X143899000Y-68042000D01*
X143901000Y-68042000D01*
X143904000Y-68043000D01*
X143906000Y-68043000D01*
X143909000Y-68044000D01*
X143911000Y-68045000D01*
X143914000Y-68046000D01*
X143916000Y-68048000D01*
X143918000Y-68049000D01*
X143920000Y-68051000D01*
X143922000Y-68052000D01*
X143924000Y-68054000D01*
X143926000Y-68056000D01*
X143928000Y-68058000D01*
X143930000Y-68060000D01*
X143931000Y-68062000D01*
X143933000Y-68064000D01*
X143934000Y-68066000D01*
X143936000Y-68068000D01*
X143937000Y-68071000D01*
X143938000Y-68073000D01*
X143939000Y-68076000D01*
X143939000Y-68078000D01*
X143940000Y-68081000D01*
X143940000Y-68083000D01*
X143941000Y-68086000D01*
X143941000Y-68088000D01*
X143941000Y-68091000D01*
X143941000Y-68391000D01*
X143941000Y-68394000D01*
X143941000Y-68396000D01*
X143942000Y-68399000D01*
X143942000Y-68401000D01*
X143943000Y-68404000D01*
X143943000Y-68406000D01*
X143944000Y-68409000D01*
X143945000Y-68411000D01*
X143946000Y-68414000D01*
X143948000Y-68416000D01*
X143949000Y-68418000D01*
X143951000Y-68420000D01*
X143952000Y-68422000D01*
X143954000Y-68424000D01*
X143956000Y-68426000D01*
X143958000Y-68428000D01*
X143960000Y-68430000D01*
X143962000Y-68431000D01*
X143964000Y-68433000D01*
X143966000Y-68434000D01*
X143968000Y-68436000D01*
X143971000Y-68437000D01*
X143973000Y-68438000D01*
X143976000Y-68439000D01*
X143978000Y-68439000D01*
X143981000Y-68440000D01*
X143983000Y-68440000D01*
X143986000Y-68441000D01*
X143988000Y-68441000D01*
X143991000Y-68441000D01*
X144141000Y-68441000D01*
X144144000Y-68441000D01*
X144146000Y-68441000D01*
X144149000Y-68440000D01*
X144151000Y-68440000D01*
X144154000Y-68439000D01*
X144156000Y-68439000D01*
X144159000Y-68438000D01*
X144161000Y-68437000D01*
X144164000Y-68436000D01*
X144166000Y-68434000D01*
X144168000Y-68433000D01*
X144170000Y-68431000D01*
X144172000Y-68430000D01*
X144174000Y-68428000D01*
X144176000Y-68426000D01*
X144178000Y-68424000D01*
X144180000Y-68422000D01*
X144181000Y-68420000D01*
X144183000Y-68418000D01*
X144184000Y-68416000D01*
X144186000Y-68414000D01*
X144187000Y-68411000D01*
X144188000Y-68409000D01*
X144189000Y-68406000D01*
X144189000Y-68404000D01*
X144190000Y-68401000D01*
X144190000Y-68399000D01*
X144191000Y-68396000D01*
X144191000Y-68394000D01*
X144191000Y-68391000D01*
X144191000Y-68091000D01*
X144191000Y-68088000D01*
X144191000Y-68086000D01*
X144192000Y-68083000D01*
X144192000Y-68081000D01*
X144193000Y-68078000D01*
X144193000Y-68076000D01*
X144194000Y-68073000D01*
X144195000Y-68071000D01*
X144196000Y-68068000D01*
X144198000Y-68066000D01*
X144199000Y-68064000D01*
X144201000Y-68062000D01*
X144202000Y-68060000D01*
X144204000Y-68058000D01*
X144206000Y-68056000D01*
X144208000Y-68054000D01*
X144210000Y-68052000D01*
X144212000Y-68051000D01*
X144214000Y-68049000D01*
X144216000Y-68048000D01*
X144218000Y-68046000D01*
X144221000Y-68045000D01*
X144223000Y-68044000D01*
X144226000Y-68043000D01*
X144228000Y-68043000D01*
X144231000Y-68042000D01*
X144233000Y-68042000D01*
X144236000Y-68041000D01*
X144238000Y-68041000D01*
X144241000Y-68041000D01*
X144391000Y-68041000D01*
X144394000Y-68041000D01*
X144396000Y-68041000D01*
X144399000Y-68042000D01*
X144401000Y-68042000D01*
X144404000Y-68043000D01*
X144406000Y-68043000D01*
X144409000Y-68044000D01*
X144411000Y-68045000D01*
X144414000Y-68046000D01*
X144416000Y-68048000D01*
X144418000Y-68049000D01*
X144420000Y-68051000D01*
X144422000Y-68052000D01*
X144424000Y-68054000D01*
X144426000Y-68056000D01*
X144428000Y-68058000D01*
X144430000Y-68060000D01*
X144431000Y-68062000D01*
X144433000Y-68064000D01*
X144434000Y-68066000D01*
X144436000Y-68068000D01*
X144437000Y-68071000D01*
X144438000Y-68073000D01*
X144439000Y-68076000D01*
X144439000Y-68078000D01*
X144440000Y-68081000D01*
X144440000Y-68083000D01*
X144441000Y-68086000D01*
X144441000Y-68088000D01*
X144441000Y-68091000D01*
X144441000Y-68391000D01*
X144441000Y-68394000D01*
X144441000Y-68396000D01*
X144442000Y-68399000D01*
X144442000Y-68401000D01*
X144443000Y-68404000D01*
X144443000Y-68406000D01*
X144444000Y-68409000D01*
X144445000Y-68411000D01*
X144446000Y-68414000D01*
X144448000Y-68416000D01*
X144449000Y-68418000D01*
X144451000Y-68420000D01*
X144452000Y-68422000D01*
X144454000Y-68424000D01*
X144456000Y-68426000D01*
X144458000Y-68428000D01*
X144460000Y-68430000D01*
X144462000Y-68431000D01*
X144464000Y-68433000D01*
X144466000Y-68434000D01*
X144468000Y-68436000D01*
X144471000Y-68437000D01*
X144473000Y-68438000D01*
X144476000Y-68439000D01*
X144478000Y-68439000D01*
X144481000Y-68440000D01*
X144483000Y-68440000D01*
X144486000Y-68441000D01*
X144488000Y-68441000D01*
X144491000Y-68441000D01*
X144651000Y-68441000D01*
X144654000Y-68441000D01*
X144656000Y-68441000D01*
X144659000Y-68442000D01*
X144661000Y-68442000D01*
X144664000Y-68443000D01*
X144666000Y-68443000D01*
X144669000Y-68444000D01*
X144671000Y-68445000D01*
X144674000Y-68446000D01*
X144676000Y-68448000D01*
X144678000Y-68449000D01*
X144680000Y-68451000D01*
X144682000Y-68452000D01*
X144684000Y-68454000D01*
X144686000Y-68456000D01*
X144688000Y-68458000D01*
X144690000Y-68460000D01*
X144691000Y-68462000D01*
X144693000Y-68464000D01*
X144694000Y-68466000D01*
X144696000Y-68468000D01*
X144697000Y-68471000D01*
X144698000Y-68473000D01*
X144699000Y-68476000D01*
X144699000Y-68478000D01*
X144700000Y-68481000D01*
X144700000Y-68483000D01*
X144701000Y-68486000D01*
X144701000Y-68488000D01*
X144701000Y-68491000D01*
X144701000Y-69391000D01*
X144701000Y-69394000D01*
X144701000Y-69396000D01*
X144700000Y-69399000D01*
X144700000Y-69401000D01*
X144699000Y-69404000D01*
X144699000Y-69406000D01*
X144698000Y-69409000D01*
X144697000Y-69411000D01*
X144696000Y-69414000D01*
X144694000Y-69416000D01*
X144693000Y-69418000D01*
X144691000Y-69420000D01*
X144690000Y-69422000D01*
X144688000Y-69424000D01*
X144686000Y-69426000D01*
X144684000Y-69428000D01*
X144682000Y-69430000D01*
X144680000Y-69431000D01*
X144678000Y-69433000D01*
X144676000Y-69434000D01*
X144674000Y-69436000D01*
X144671000Y-69437000D01*
X144669000Y-69438000D01*
X144666000Y-69439000D01*
X144664000Y-69439000D01*
X144661000Y-69440000D01*
X144659000Y-69440000D01*
X144656000Y-69441000D01*
X144654000Y-69441000D01*
X144651000Y-69441000D01*
X142826000Y-69441000D01*
X142823000Y-69441000D01*
X142821000Y-69441000D01*
X142818000Y-69440000D01*
X142816000Y-69440000D01*
X142813000Y-69439000D01*
X142811000Y-69439000D01*
X142808000Y-69438000D01*
X142806000Y-69437000D01*
X142803000Y-69436000D01*
X142801000Y-69434000D01*
X142799000Y-69433000D01*
X142797000Y-69431000D01*
X142795000Y-69430000D01*
X142793000Y-69428000D01*
X142791000Y-69426000D01*
X142789000Y-69424000D01*
X142787000Y-69422000D01*
X142786000Y-69420000D01*
X142784000Y-69418000D01*
X142783000Y-69416000D01*
X142781000Y-69414000D01*
X142780000Y-69411000D01*
X142779000Y-69409000D01*
X142778000Y-69406000D01*
X142778000Y-69404000D01*
X142777000Y-69401000D01*
X142777000Y-69399000D01*
X142776000Y-69396000D01*
X142776000Y-69394000D01*
X142776000Y-69391000D01*
X142776000Y-68491000D01*
X142776000Y-68488000D01*
X142776000Y-68486000D01*
X142777000Y-68483000D01*
X142777000Y-68481000D01*
X142778000Y-68478000D01*
X142778000Y-68476000D01*
X142779000Y-68473000D01*
X142780000Y-68471000D01*
X142781000Y-68468000D01*
X142783000Y-68466000D01*
X142784000Y-68464000D01*
X142786000Y-68462000D01*
X142787000Y-68460000D01*
X142789000Y-68458000D01*
X142791000Y-68456000D01*
X142793000Y-68454000D01*
X142795000Y-68452000D01*
X142797000Y-68451000D01*
X142799000Y-68449000D01*
X142801000Y-68448000D01*
X142803000Y-68446000D01*
X142806000Y-68445000D01*
X142808000Y-68444000D01*
X142811000Y-68443000D01*
X142813000Y-68443000D01*
X142816000Y-68442000D01*
X142818000Y-68442000D01*
X142821000Y-68441000D01*
X142823000Y-68441000D01*
X142826000Y-68441000D01*
X143141000Y-68441000D01*
X143144000Y-68441000D01*
X143146000Y-68441000D01*
X143149000Y-68440000D01*
X143151000Y-68440000D01*
X143154000Y-68439000D01*
X143156000Y-68439000D01*
X143159000Y-68438000D01*
X143161000Y-68437000D01*
X143164000Y-68436000D01*
X143166000Y-68434000D01*
X143168000Y-68433000D01*
X143170000Y-68431000D01*
X143172000Y-68430000D01*
X143174000Y-68428000D01*
X143176000Y-68426000D01*
X143178000Y-68424000D01*
X143180000Y-68422000D01*
X143181000Y-68420000D01*
X143183000Y-68418000D01*
X143184000Y-68416000D01*
X143186000Y-68414000D01*
X143187000Y-68411000D01*
X143188000Y-68409000D01*
X143189000Y-68406000D01*
X143189000Y-68404000D01*
X143190000Y-68401000D01*
X143190000Y-68399000D01*
X143191000Y-68396000D01*
X143191000Y-68394000D01*
X143191000Y-68391000D01*
X143191000Y-68091000D01*
X143191000Y-68088000D01*
X143191000Y-68086000D01*
X143192000Y-68083000D01*
X143192000Y-68081000D01*
X143193000Y-68078000D01*
X143193000Y-68076000D01*
X143194000Y-68073000D01*
X143195000Y-68071000D01*
X143196000Y-68068000D01*
X143198000Y-68066000D01*
X143199000Y-68064000D01*
X143201000Y-68062000D01*
X143202000Y-68060000D01*
X143204000Y-68058000D01*
X143206000Y-68056000D01*
X143208000Y-68054000D01*
X143210000Y-68052000D01*
X143212000Y-68051000D01*
X143214000Y-68049000D01*
X143216000Y-68048000D01*
X143218000Y-68046000D01*
X143221000Y-68045000D01*
X143223000Y-68044000D01*
X143226000Y-68043000D01*
X143228000Y-68043000D01*
X143231000Y-68042000D01*
X143233000Y-68042000D01*
X143236000Y-68041000D01*
X143238000Y-68041000D01*
X143241000Y-68041000D01*
X143391000Y-68041000D01*
X143394000Y-68041000D01*
X143396000Y-68041000D01*
X143399000Y-68042000D01*
G37*
X144701000Y-71291000D02*
X144701000Y-70391000D01*
X144701000Y-70388000D01*
X144701000Y-70386000D01*
X144700000Y-70383000D01*
X144700000Y-70381000D01*
X144699000Y-70378000D01*
X144699000Y-70376000D01*
X144698000Y-70373000D01*
X144697000Y-70371000D01*
X144696000Y-70368000D01*
X144694000Y-70366000D01*
X144693000Y-70364000D01*
X144691000Y-70362000D01*
X144690000Y-70360000D01*
X144688000Y-70358000D01*
X144686000Y-70356000D01*
X144684000Y-70354000D01*
X144682000Y-70352000D01*
X144680000Y-70351000D01*
X144678000Y-70349000D01*
X144676000Y-70348000D01*
X144674000Y-70346000D01*
X144671000Y-70345000D01*
X144669000Y-70344000D01*
X144666000Y-70343000D01*
X144664000Y-70343000D01*
X144661000Y-70342000D01*
X144659000Y-70342000D01*
X144656000Y-70341000D01*
X144654000Y-70341000D01*
X144651000Y-70341000D01*
X142826000Y-70341000D01*
X142823000Y-70341000D01*
X142821000Y-70341000D01*
X142818000Y-70342000D01*
X142816000Y-70342000D01*
X142813000Y-70343000D01*
X142811000Y-70343000D01*
X142808000Y-70344000D01*
X142806000Y-70345000D01*
X142803000Y-70346000D01*
X142801000Y-70348000D01*
X142799000Y-70349000D01*
X142797000Y-70351000D01*
X142795000Y-70352000D01*
X142793000Y-70354000D01*
X142791000Y-70356000D01*
X142789000Y-70358000D01*
X142787000Y-70360000D01*
X142786000Y-70362000D01*
X142784000Y-70364000D01*
X142783000Y-70366000D01*
X142781000Y-70368000D01*
X142780000Y-70371000D01*
X142779000Y-70373000D01*
X142778000Y-70376000D01*
X142778000Y-70378000D01*
X142777000Y-70381000D01*
X142777000Y-70383000D01*
X142776000Y-70386000D01*
X142776000Y-70388000D01*
X142776000Y-70391000D01*
X142776000Y-71291000D01*
X142776000Y-71294000D01*
X142776000Y-71296000D01*
X142777000Y-71299000D01*
X142777000Y-71301000D01*
X142778000Y-71304000D01*
X142778000Y-71306000D01*
X142779000Y-71309000D01*
X142780000Y-71311000D01*
X142781000Y-71314000D01*
X142783000Y-71316000D01*
X142784000Y-71318000D01*
X142786000Y-71320000D01*
X142787000Y-71322000D01*
X142789000Y-71324000D01*
X142791000Y-71326000D01*
X142793000Y-71328000D01*
X142795000Y-71330000D01*
X142797000Y-71331000D01*
X142799000Y-71333000D01*
X142801000Y-71334000D01*
X142803000Y-71336000D01*
X142806000Y-71337000D01*
X142808000Y-71338000D01*
X142811000Y-71339000D01*
X142813000Y-71339000D01*
X142816000Y-71340000D01*
X142818000Y-71340000D01*
X142821000Y-71341000D01*
X142823000Y-71341000D01*
X142826000Y-71341000D01*
X143141000Y-71341000D01*
X143144000Y-71341000D01*
X143146000Y-71341000D01*
X143149000Y-71342000D01*
X143151000Y-71342000D01*
X143154000Y-71343000D01*
X143156000Y-71343000D01*
X143159000Y-71344000D01*
X143161000Y-71345000D01*
X143164000Y-71346000D01*
X143166000Y-71348000D01*
X143168000Y-71349000D01*
X143170000Y-71351000D01*
X143172000Y-71352000D01*
X143174000Y-71354000D01*
X143176000Y-71356000D01*
X143178000Y-71358000D01*
X143180000Y-71360000D01*
X143181000Y-71362000D01*
X143183000Y-71364000D01*
X143184000Y-71366000D01*
X143186000Y-71368000D01*
X143187000Y-71371000D01*
X143188000Y-71373000D01*
X143189000Y-71376000D01*
X143189000Y-71378000D01*
X143190000Y-71381000D01*
X143190000Y-71383000D01*
X143191000Y-71386000D01*
X143191000Y-71388000D01*
X143191000Y-71391000D01*
X143191000Y-71691000D01*
X143191000Y-71694000D01*
X143191000Y-71696000D01*
X143192000Y-71699000D01*
X143192000Y-71701000D01*
X143193000Y-71704000D01*
X143193000Y-71706000D01*
X143194000Y-71709000D01*
X143195000Y-71711000D01*
X143196000Y-71714000D01*
X143198000Y-71716000D01*
X143199000Y-71718000D01*
X143201000Y-71720000D01*
X143202000Y-71722000D01*
X143204000Y-71724000D01*
X143206000Y-71726000D01*
X143208000Y-71728000D01*
X143210000Y-71730000D01*
X143212000Y-71731000D01*
X143214000Y-71733000D01*
X143216000Y-71734000D01*
X143218000Y-71736000D01*
X143221000Y-71737000D01*
X143223000Y-71738000D01*
X143226000Y-71739000D01*
X143228000Y-71739000D01*
X143231000Y-71740000D01*
X143233000Y-71740000D01*
X143236000Y-71741000D01*
X143238000Y-71741000D01*
X143241000Y-71741000D01*
X143391000Y-71741000D01*
X143394000Y-71741000D01*
X143396000Y-71741000D01*
X143399000Y-71740000D01*
X143401000Y-71740000D01*
X143404000Y-71739000D01*
X143406000Y-71739000D01*
X143409000Y-71738000D01*
X143411000Y-71737000D01*
X143414000Y-71736000D01*
X143416000Y-71734000D01*
X143418000Y-71733000D01*
X143420000Y-71731000D01*
X143422000Y-71730000D01*
X143424000Y-71728000D01*
X143426000Y-71726000D01*
X143428000Y-71724000D01*
X143430000Y-71722000D01*
X143431000Y-71720000D01*
X143433000Y-71718000D01*
X143434000Y-71716000D01*
X143436000Y-71714000D01*
X143437000Y-71711000D01*
X143438000Y-71709000D01*
X143439000Y-71706000D01*
X143439000Y-71704000D01*
X143440000Y-71701000D01*
X143440000Y-71699000D01*
X143441000Y-71696000D01*
X143441000Y-71694000D01*
X143441000Y-71691000D01*
X143441000Y-71391000D01*
X143441000Y-71388000D01*
X143441000Y-71386000D01*
X143442000Y-71383000D01*
X143442000Y-71381000D01*
X143443000Y-71378000D01*
X143443000Y-71376000D01*
X143444000Y-71373000D01*
X143445000Y-71371000D01*
X143446000Y-71368000D01*
X143448000Y-71366000D01*
X143449000Y-71364000D01*
X143451000Y-71362000D01*
X143452000Y-71360000D01*
X143454000Y-71358000D01*
X143456000Y-71356000D01*
X143458000Y-71354000D01*
X143460000Y-71352000D01*
X143462000Y-71351000D01*
X143464000Y-71349000D01*
X143466000Y-71348000D01*
X143468000Y-71346000D01*
X143471000Y-71345000D01*
X143473000Y-71344000D01*
X143476000Y-71343000D01*
X143478000Y-71343000D01*
X143481000Y-71342000D01*
X143483000Y-71342000D01*
X143486000Y-71341000D01*
X143488000Y-71341000D01*
X143491000Y-71341000D01*
X143641000Y-71341000D01*
X143644000Y-71341000D01*
X143646000Y-71341000D01*
X143649000Y-71342000D01*
X143651000Y-71342000D01*
X143654000Y-71343000D01*
X143656000Y-71343000D01*
X143659000Y-71344000D01*
X143661000Y-71345000D01*
X143664000Y-71346000D01*
X143666000Y-71348000D01*
X143668000Y-71349000D01*
X143670000Y-71351000D01*
X143672000Y-71352000D01*
X143674000Y-71354000D01*
X143676000Y-71356000D01*
X143678000Y-71358000D01*
X143680000Y-71360000D01*
X143681000Y-71362000D01*
X143683000Y-71364000D01*
X143684000Y-71366000D01*
X143686000Y-71368000D01*
X143687000Y-71371000D01*
X143688000Y-71373000D01*
X143689000Y-71376000D01*
X143689000Y-71378000D01*
X143690000Y-71381000D01*
X143690000Y-71383000D01*
X143691000Y-71386000D01*
X143691000Y-71388000D01*
X143691000Y-71391000D01*
X143691000Y-71691000D01*
X143691000Y-71694000D01*
X143691000Y-71696000D01*
X143692000Y-71699000D01*
X143692000Y-71701000D01*
X143693000Y-71704000D01*
X143693000Y-71706000D01*
X143694000Y-71709000D01*
X143695000Y-71711000D01*
X143696000Y-71714000D01*
X143698000Y-71716000D01*
X143699000Y-71718000D01*
X143701000Y-71720000D01*
X143702000Y-71722000D01*
X143704000Y-71724000D01*
X143706000Y-71726000D01*
X143708000Y-71728000D01*
X143710000Y-71730000D01*
X143712000Y-71731000D01*
X143714000Y-71733000D01*
X143716000Y-71734000D01*
X143718000Y-71736000D01*
X143721000Y-71737000D01*
X143723000Y-71738000D01*
X143726000Y-71739000D01*
X143728000Y-71739000D01*
X143731000Y-71740000D01*
X143733000Y-71740000D01*
X143736000Y-71741000D01*
X143738000Y-71741000D01*
X143741000Y-71741000D01*
X143891000Y-71741000D01*
X143894000Y-71741000D01*
X143896000Y-71741000D01*
X143899000Y-71740000D01*
X143901000Y-71740000D01*
X143904000Y-71739000D01*
X143906000Y-71739000D01*
X143909000Y-71738000D01*
X143911000Y-71737000D01*
X143914000Y-71736000D01*
X143916000Y-71734000D01*
X143918000Y-71733000D01*
X143920000Y-71731000D01*
X143922000Y-71730000D01*
X143924000Y-71728000D01*
X143926000Y-71726000D01*
X143928000Y-71724000D01*
X143930000Y-71722000D01*
X143931000Y-71720000D01*
X143933000Y-71718000D01*
X143934000Y-71716000D01*
X143936000Y-71714000D01*
X143937000Y-71711000D01*
X143938000Y-71709000D01*
X143939000Y-71706000D01*
X143939000Y-71704000D01*
X143940000Y-71701000D01*
X143940000Y-71699000D01*
X143941000Y-71696000D01*
X143941000Y-71694000D01*
X143941000Y-71691000D01*
X143941000Y-71391000D01*
X143941000Y-71388000D01*
X143941000Y-71386000D01*
X143942000Y-71383000D01*
X143942000Y-71381000D01*
X143943000Y-71378000D01*
X143943000Y-71376000D01*
X143944000Y-71373000D01*
X143945000Y-71371000D01*
X143946000Y-71368000D01*
X143948000Y-71366000D01*
X143949000Y-71364000D01*
X143951000Y-71362000D01*
X143952000Y-71360000D01*
X143954000Y-71358000D01*
X143956000Y-71356000D01*
X143958000Y-71354000D01*
X143960000Y-71352000D01*
X143962000Y-71351000D01*
X143964000Y-71349000D01*
X143966000Y-71348000D01*
X143968000Y-71346000D01*
X143971000Y-71345000D01*
X143973000Y-71344000D01*
X143976000Y-71343000D01*
X143978000Y-71343000D01*
X143981000Y-71342000D01*
X143983000Y-71342000D01*
X143986000Y-71341000D01*
X143988000Y-71341000D01*
X143991000Y-71341000D01*
X144141000Y-71341000D01*
X144144000Y-71341000D01*
X144146000Y-71341000D01*
X144149000Y-71342000D01*
X144151000Y-71342000D01*
X144154000Y-71343000D01*
X144156000Y-71343000D01*
X144159000Y-71344000D01*
X144161000Y-71345000D01*
X144164000Y-71346000D01*
X144166000Y-71348000D01*
X144168000Y-71349000D01*
X144170000Y-71351000D01*
X144172000Y-71352000D01*
X144174000Y-71354000D01*
X144176000Y-71356000D01*
X144178000Y-71358000D01*
X144180000Y-71360000D01*
X144181000Y-71362000D01*
X144183000Y-71364000D01*
X144184000Y-71366000D01*
X144186000Y-71368000D01*
X144187000Y-71371000D01*
X144188000Y-71373000D01*
X144189000Y-71376000D01*
X144189000Y-71378000D01*
X144190000Y-71381000D01*
X144190000Y-71383000D01*
X144191000Y-71386000D01*
X144191000Y-71388000D01*
X144191000Y-71391000D01*
X144191000Y-71691000D01*
X144191000Y-71694000D01*
X144191000Y-71696000D01*
X144192000Y-71699000D01*
X144192000Y-71701000D01*
X144193000Y-71704000D01*
X144193000Y-71706000D01*
X144194000Y-71709000D01*
X144195000Y-71711000D01*
X144196000Y-71714000D01*
X144198000Y-71716000D01*
X144199000Y-71718000D01*
X144201000Y-71720000D01*
X144202000Y-71722000D01*
X144204000Y-71724000D01*
X144206000Y-71726000D01*
X144208000Y-71728000D01*
X144210000Y-71730000D01*
X144212000Y-71731000D01*
X144214000Y-71733000D01*
X144216000Y-71734000D01*
X144218000Y-71736000D01*
X144221000Y-71737000D01*
X144223000Y-71738000D01*
X144226000Y-71739000D01*
X144228000Y-71739000D01*
X144231000Y-71740000D01*
X144233000Y-71740000D01*
X144236000Y-71741000D01*
X144238000Y-71741000D01*
X144241000Y-71741000D01*
X144391000Y-71741000D01*
X144394000Y-71741000D01*
X144396000Y-71741000D01*
X144399000Y-71740000D01*
X144401000Y-71740000D01*
X144404000Y-71739000D01*
X144406000Y-71739000D01*
X144409000Y-71738000D01*
X144411000Y-71737000D01*
X144414000Y-71736000D01*
X144416000Y-71734000D01*
X144418000Y-71733000D01*
X144420000Y-71731000D01*
X144422000Y-71730000D01*
X144424000Y-71728000D01*
X144426000Y-71726000D01*
X144428000Y-71724000D01*
X144430000Y-71722000D01*
X144431000Y-71720000D01*
X144433000Y-71718000D01*
X144434000Y-71716000D01*
X144436000Y-71714000D01*
X144437000Y-71711000D01*
X144438000Y-71709000D01*
X144439000Y-71706000D01*
X144439000Y-71704000D01*
X144440000Y-71701000D01*
X144440000Y-71699000D01*
X144441000Y-71696000D01*
X144441000Y-71694000D01*
X144441000Y-71691000D01*
X144441000Y-71391000D01*
X144441000Y-71388000D01*
X144441000Y-71386000D01*
X144442000Y-71383000D01*
X144442000Y-71381000D01*
X144443000Y-71378000D01*
X144443000Y-71376000D01*
X144444000Y-71373000D01*
X144445000Y-71371000D01*
X144446000Y-71368000D01*
X144448000Y-71366000D01*
X144449000Y-71364000D01*
X144451000Y-71362000D01*
X144452000Y-71360000D01*
X144454000Y-71358000D01*
X144456000Y-71356000D01*
X144458000Y-71354000D01*
X144460000Y-71352000D01*
X144462000Y-71351000D01*
X144464000Y-71349000D01*
X144466000Y-71348000D01*
X144468000Y-71346000D01*
X144471000Y-71345000D01*
X144473000Y-71344000D01*
X144476000Y-71343000D01*
X144478000Y-71343000D01*
X144481000Y-71342000D01*
X144483000Y-71342000D01*
X144486000Y-71341000D01*
X144488000Y-71341000D01*
X144491000Y-71341000D01*
X144651000Y-71341000D01*
X144654000Y-71341000D01*
X144656000Y-71341000D01*
X144659000Y-71340000D01*
X144661000Y-71340000D01*
X144664000Y-71339000D01*
X144666000Y-71339000D01*
X144669000Y-71338000D01*
X144671000Y-71337000D01*
X144674000Y-71336000D01*
X144676000Y-71334000D01*
X144678000Y-71333000D01*
X144680000Y-71331000D01*
X144682000Y-71330000D01*
X144684000Y-71328000D01*
X144686000Y-71326000D01*
X144688000Y-71324000D01*
X144690000Y-71322000D01*
X144691000Y-71320000D01*
X144693000Y-71318000D01*
X144694000Y-71316000D01*
X144696000Y-71314000D01*
X144697000Y-71311000D01*
X144698000Y-71309000D01*
X144699000Y-71306000D01*
X144699000Y-71304000D01*
X144700000Y-71301000D01*
X144700000Y-71299000D01*
X144701000Y-71296000D01*
X144701000Y-71294000D01*
X144701000Y-71291000D01*
G36*
X144659000Y-70342000D02*
G01*
X144661000Y-70342000D01*
X144664000Y-70343000D01*
X144666000Y-70343000D01*
X144669000Y-70344000D01*
X144671000Y-70345000D01*
X144674000Y-70346000D01*
X144676000Y-70348000D01*
X144678000Y-70349000D01*
X144680000Y-70351000D01*
X144682000Y-70352000D01*
X144684000Y-70354000D01*
X144686000Y-70356000D01*
X144688000Y-70358000D01*
X144690000Y-70360000D01*
X144691000Y-70362000D01*
X144693000Y-70364000D01*
X144694000Y-70366000D01*
X144696000Y-70368000D01*
X144697000Y-70371000D01*
X144698000Y-70373000D01*
X144699000Y-70376000D01*
X144699000Y-70378000D01*
X144700000Y-70381000D01*
X144700000Y-70383000D01*
X144701000Y-70386000D01*
X144701000Y-70388000D01*
X144701000Y-70391000D01*
X144701000Y-71291000D01*
X144701000Y-71294000D01*
X144701000Y-71296000D01*
X144700000Y-71299000D01*
X144700000Y-71301000D01*
X144699000Y-71304000D01*
X144699000Y-71306000D01*
X144698000Y-71309000D01*
X144697000Y-71311000D01*
X144696000Y-71314000D01*
X144694000Y-71316000D01*
X144693000Y-71318000D01*
X144691000Y-71320000D01*
X144690000Y-71322000D01*
X144688000Y-71324000D01*
X144686000Y-71326000D01*
X144684000Y-71328000D01*
X144682000Y-71330000D01*
X144680000Y-71331000D01*
X144678000Y-71333000D01*
X144676000Y-71334000D01*
X144674000Y-71336000D01*
X144671000Y-71337000D01*
X144669000Y-71338000D01*
X144666000Y-71339000D01*
X144664000Y-71339000D01*
X144661000Y-71340000D01*
X144659000Y-71340000D01*
X144656000Y-71341000D01*
X144654000Y-71341000D01*
X144651000Y-71341000D01*
X144491000Y-71341000D01*
X144488000Y-71341000D01*
X144486000Y-71341000D01*
X144483000Y-71342000D01*
X144481000Y-71342000D01*
X144478000Y-71343000D01*
X144476000Y-71343000D01*
X144473000Y-71344000D01*
X144471000Y-71345000D01*
X144468000Y-71346000D01*
X144466000Y-71348000D01*
X144464000Y-71349000D01*
X144462000Y-71351000D01*
X144460000Y-71352000D01*
X144458000Y-71354000D01*
X144456000Y-71356000D01*
X144454000Y-71358000D01*
X144452000Y-71360000D01*
X144451000Y-71362000D01*
X144449000Y-71364000D01*
X144448000Y-71366000D01*
X144446000Y-71368000D01*
X144445000Y-71371000D01*
X144444000Y-71373000D01*
X144443000Y-71376000D01*
X144443000Y-71378000D01*
X144442000Y-71381000D01*
X144442000Y-71383000D01*
X144441000Y-71386000D01*
X144441000Y-71388000D01*
X144441000Y-71391000D01*
X144441000Y-71691000D01*
X144441000Y-71694000D01*
X144441000Y-71696000D01*
X144440000Y-71699000D01*
X144440000Y-71701000D01*
X144439000Y-71704000D01*
X144439000Y-71706000D01*
X144438000Y-71709000D01*
X144437000Y-71711000D01*
X144436000Y-71714000D01*
X144434000Y-71716000D01*
X144433000Y-71718000D01*
X144431000Y-71720000D01*
X144430000Y-71722000D01*
X144428000Y-71724000D01*
X144426000Y-71726000D01*
X144424000Y-71728000D01*
X144422000Y-71730000D01*
X144420000Y-71731000D01*
X144418000Y-71733000D01*
X144416000Y-71734000D01*
X144414000Y-71736000D01*
X144411000Y-71737000D01*
X144409000Y-71738000D01*
X144406000Y-71739000D01*
X144404000Y-71739000D01*
X144401000Y-71740000D01*
X144399000Y-71740000D01*
X144396000Y-71741000D01*
X144394000Y-71741000D01*
X144391000Y-71741000D01*
X144241000Y-71741000D01*
X144238000Y-71741000D01*
X144236000Y-71741000D01*
X144233000Y-71740000D01*
X144231000Y-71740000D01*
X144228000Y-71739000D01*
X144226000Y-71739000D01*
X144223000Y-71738000D01*
X144221000Y-71737000D01*
X144218000Y-71736000D01*
X144216000Y-71734000D01*
X144214000Y-71733000D01*
X144212000Y-71731000D01*
X144210000Y-71730000D01*
X144208000Y-71728000D01*
X144206000Y-71726000D01*
X144204000Y-71724000D01*
X144202000Y-71722000D01*
X144201000Y-71720000D01*
X144199000Y-71718000D01*
X144198000Y-71716000D01*
X144196000Y-71714000D01*
X144195000Y-71711000D01*
X144194000Y-71709000D01*
X144193000Y-71706000D01*
X144193000Y-71704000D01*
X144192000Y-71701000D01*
X144192000Y-71699000D01*
X144191000Y-71696000D01*
X144191000Y-71694000D01*
X144191000Y-71691000D01*
X144191000Y-71391000D01*
X144191000Y-71388000D01*
X144191000Y-71386000D01*
X144190000Y-71383000D01*
X144190000Y-71381000D01*
X144189000Y-71378000D01*
X144189000Y-71376000D01*
X144188000Y-71373000D01*
X144187000Y-71371000D01*
X144186000Y-71368000D01*
X144184000Y-71366000D01*
X144183000Y-71364000D01*
X144181000Y-71362000D01*
X144180000Y-71360000D01*
X144178000Y-71358000D01*
X144176000Y-71356000D01*
X144174000Y-71354000D01*
X144172000Y-71352000D01*
X144170000Y-71351000D01*
X144168000Y-71349000D01*
X144166000Y-71348000D01*
X144164000Y-71346000D01*
X144161000Y-71345000D01*
X144159000Y-71344000D01*
X144156000Y-71343000D01*
X144154000Y-71343000D01*
X144151000Y-71342000D01*
X144149000Y-71342000D01*
X144146000Y-71341000D01*
X144144000Y-71341000D01*
X144141000Y-71341000D01*
X143991000Y-71341000D01*
X143988000Y-71341000D01*
X143986000Y-71341000D01*
X143983000Y-71342000D01*
X143981000Y-71342000D01*
X143978000Y-71343000D01*
X143976000Y-71343000D01*
X143973000Y-71344000D01*
X143971000Y-71345000D01*
X143968000Y-71346000D01*
X143966000Y-71348000D01*
X143964000Y-71349000D01*
X143962000Y-71351000D01*
X143960000Y-71352000D01*
X143958000Y-71354000D01*
X143956000Y-71356000D01*
X143954000Y-71358000D01*
X143952000Y-71360000D01*
X143951000Y-71362000D01*
X143949000Y-71364000D01*
X143948000Y-71366000D01*
X143946000Y-71368000D01*
X143945000Y-71371000D01*
X143944000Y-71373000D01*
X143943000Y-71376000D01*
X143943000Y-71378000D01*
X143942000Y-71381000D01*
X143942000Y-71383000D01*
X143941000Y-71386000D01*
X143941000Y-71388000D01*
X143941000Y-71391000D01*
X143941000Y-71691000D01*
X143941000Y-71694000D01*
X143941000Y-71696000D01*
X143940000Y-71699000D01*
X143940000Y-71701000D01*
X143939000Y-71704000D01*
X143939000Y-71706000D01*
X143938000Y-71709000D01*
X143937000Y-71711000D01*
X143936000Y-71714000D01*
X143934000Y-71716000D01*
X143933000Y-71718000D01*
X143931000Y-71720000D01*
X143930000Y-71722000D01*
X143928000Y-71724000D01*
X143926000Y-71726000D01*
X143924000Y-71728000D01*
X143922000Y-71730000D01*
X143920000Y-71731000D01*
X143918000Y-71733000D01*
X143916000Y-71734000D01*
X143914000Y-71736000D01*
X143911000Y-71737000D01*
X143909000Y-71738000D01*
X143906000Y-71739000D01*
X143904000Y-71739000D01*
X143901000Y-71740000D01*
X143899000Y-71740000D01*
X143896000Y-71741000D01*
X143894000Y-71741000D01*
X143891000Y-71741000D01*
X143741000Y-71741000D01*
X143738000Y-71741000D01*
X143736000Y-71741000D01*
X143733000Y-71740000D01*
X143731000Y-71740000D01*
X143728000Y-71739000D01*
X143726000Y-71739000D01*
X143723000Y-71738000D01*
X143721000Y-71737000D01*
X143718000Y-71736000D01*
X143716000Y-71734000D01*
X143714000Y-71733000D01*
X143712000Y-71731000D01*
X143710000Y-71730000D01*
X143708000Y-71728000D01*
X143706000Y-71726000D01*
X143704000Y-71724000D01*
X143702000Y-71722000D01*
X143701000Y-71720000D01*
X143699000Y-71718000D01*
X143698000Y-71716000D01*
X143696000Y-71714000D01*
X143695000Y-71711000D01*
X143694000Y-71709000D01*
X143693000Y-71706000D01*
X143693000Y-71704000D01*
X143692000Y-71701000D01*
X143692000Y-71699000D01*
X143691000Y-71696000D01*
X143691000Y-71694000D01*
X143691000Y-71691000D01*
X143691000Y-71391000D01*
X143691000Y-71388000D01*
X143691000Y-71386000D01*
X143690000Y-71383000D01*
X143690000Y-71381000D01*
X143689000Y-71378000D01*
X143689000Y-71376000D01*
X143688000Y-71373000D01*
X143687000Y-71371000D01*
X143686000Y-71368000D01*
X143684000Y-71366000D01*
X143683000Y-71364000D01*
X143681000Y-71362000D01*
X143680000Y-71360000D01*
X143678000Y-71358000D01*
X143676000Y-71356000D01*
X143674000Y-71354000D01*
X143672000Y-71352000D01*
X143670000Y-71351000D01*
X143668000Y-71349000D01*
X143666000Y-71348000D01*
X143664000Y-71346000D01*
X143661000Y-71345000D01*
X143659000Y-71344000D01*
X143656000Y-71343000D01*
X143654000Y-71343000D01*
X143651000Y-71342000D01*
X143649000Y-71342000D01*
X143646000Y-71341000D01*
X143644000Y-71341000D01*
X143641000Y-71341000D01*
X143491000Y-71341000D01*
X143488000Y-71341000D01*
X143486000Y-71341000D01*
X143483000Y-71342000D01*
X143481000Y-71342000D01*
X143478000Y-71343000D01*
X143476000Y-71343000D01*
X143473000Y-71344000D01*
X143471000Y-71345000D01*
X143468000Y-71346000D01*
X143466000Y-71348000D01*
X143464000Y-71349000D01*
X143462000Y-71351000D01*
X143460000Y-71352000D01*
X143458000Y-71354000D01*
X143456000Y-71356000D01*
X143454000Y-71358000D01*
X143452000Y-71360000D01*
X143451000Y-71362000D01*
X143449000Y-71364000D01*
X143448000Y-71366000D01*
X143446000Y-71368000D01*
X143445000Y-71371000D01*
X143444000Y-71373000D01*
X143443000Y-71376000D01*
X143443000Y-71378000D01*
X143442000Y-71381000D01*
X143442000Y-71383000D01*
X143441000Y-71386000D01*
X143441000Y-71388000D01*
X143441000Y-71391000D01*
X143441000Y-71691000D01*
X143441000Y-71694000D01*
X143441000Y-71696000D01*
X143440000Y-71699000D01*
X143440000Y-71701000D01*
X143439000Y-71704000D01*
X143439000Y-71706000D01*
X143438000Y-71709000D01*
X143437000Y-71711000D01*
X143436000Y-71714000D01*
X143434000Y-71716000D01*
X143433000Y-71718000D01*
X143431000Y-71720000D01*
X143430000Y-71722000D01*
X143428000Y-71724000D01*
X143426000Y-71726000D01*
X143424000Y-71728000D01*
X143422000Y-71730000D01*
X143420000Y-71731000D01*
X143418000Y-71733000D01*
X143416000Y-71734000D01*
X143414000Y-71736000D01*
X143411000Y-71737000D01*
X143409000Y-71738000D01*
X143406000Y-71739000D01*
X143404000Y-71739000D01*
X143401000Y-71740000D01*
X143399000Y-71740000D01*
X143396000Y-71741000D01*
X143394000Y-71741000D01*
X143391000Y-71741000D01*
X143241000Y-71741000D01*
X143238000Y-71741000D01*
X143236000Y-71741000D01*
X143233000Y-71740000D01*
X143231000Y-71740000D01*
X143228000Y-71739000D01*
X143226000Y-71739000D01*
X143223000Y-71738000D01*
X143221000Y-71737000D01*
X143218000Y-71736000D01*
X143216000Y-71734000D01*
X143214000Y-71733000D01*
X143212000Y-71731000D01*
X143210000Y-71730000D01*
X143208000Y-71728000D01*
X143206000Y-71726000D01*
X143204000Y-71724000D01*
X143202000Y-71722000D01*
X143201000Y-71720000D01*
X143199000Y-71718000D01*
X143198000Y-71716000D01*
X143196000Y-71714000D01*
X143195000Y-71711000D01*
X143194000Y-71709000D01*
X143193000Y-71706000D01*
X143193000Y-71704000D01*
X143192000Y-71701000D01*
X143192000Y-71699000D01*
X143191000Y-71696000D01*
X143191000Y-71694000D01*
X143191000Y-71691000D01*
X143191000Y-71391000D01*
X143191000Y-71388000D01*
X143191000Y-71386000D01*
X143190000Y-71383000D01*
X143190000Y-71381000D01*
X143189000Y-71378000D01*
X143189000Y-71376000D01*
X143188000Y-71373000D01*
X143187000Y-71371000D01*
X143186000Y-71368000D01*
X143184000Y-71366000D01*
X143183000Y-71364000D01*
X143181000Y-71362000D01*
X143180000Y-71360000D01*
X143178000Y-71358000D01*
X143176000Y-71356000D01*
X143174000Y-71354000D01*
X143172000Y-71352000D01*
X143170000Y-71351000D01*
X143168000Y-71349000D01*
X143166000Y-71348000D01*
X143164000Y-71346000D01*
X143161000Y-71345000D01*
X143159000Y-71344000D01*
X143156000Y-71343000D01*
X143154000Y-71343000D01*
X143151000Y-71342000D01*
X143149000Y-71342000D01*
X143146000Y-71341000D01*
X143144000Y-71341000D01*
X143141000Y-71341000D01*
X142826000Y-71341000D01*
X142823000Y-71341000D01*
X142821000Y-71341000D01*
X142818000Y-71340000D01*
X142816000Y-71340000D01*
X142813000Y-71339000D01*
X142811000Y-71339000D01*
X142808000Y-71338000D01*
X142806000Y-71337000D01*
X142803000Y-71336000D01*
X142801000Y-71334000D01*
X142799000Y-71333000D01*
X142797000Y-71331000D01*
X142795000Y-71330000D01*
X142793000Y-71328000D01*
X142791000Y-71326000D01*
X142789000Y-71324000D01*
X142787000Y-71322000D01*
X142786000Y-71320000D01*
X142784000Y-71318000D01*
X142783000Y-71316000D01*
X142781000Y-71314000D01*
X142780000Y-71311000D01*
X142779000Y-71309000D01*
X142778000Y-71306000D01*
X142778000Y-71304000D01*
X142777000Y-71301000D01*
X142777000Y-71299000D01*
X142776000Y-71296000D01*
X142776000Y-71294000D01*
X142776000Y-71291000D01*
X142776000Y-70391000D01*
X142776000Y-70388000D01*
X142776000Y-70386000D01*
X142777000Y-70383000D01*
X142777000Y-70381000D01*
X142778000Y-70378000D01*
X142778000Y-70376000D01*
X142779000Y-70373000D01*
X142780000Y-70371000D01*
X142781000Y-70368000D01*
X142783000Y-70366000D01*
X142784000Y-70364000D01*
X142786000Y-70362000D01*
X142787000Y-70360000D01*
X142789000Y-70358000D01*
X142791000Y-70356000D01*
X142793000Y-70354000D01*
X142795000Y-70352000D01*
X142797000Y-70351000D01*
X142799000Y-70349000D01*
X142801000Y-70348000D01*
X142803000Y-70346000D01*
X142806000Y-70345000D01*
X142808000Y-70344000D01*
X142811000Y-70343000D01*
X142813000Y-70343000D01*
X142816000Y-70342000D01*
X142818000Y-70342000D01*
X142821000Y-70341000D01*
X142823000Y-70341000D01*
X142826000Y-70341000D01*
X144651000Y-70341000D01*
X144654000Y-70341000D01*
X144656000Y-70341000D01*
X144659000Y-70342000D01*
G37*
%TO.C,L2*%
X120172000Y-60666000D02*
X120922000Y-61316000D01*
X120922000Y-62466000D01*
X116822000Y-62466000D01*
X116822000Y-61316000D01*
X117572000Y-60666000D01*
X120172000Y-60666000D01*
G36*
X120922000Y-61316000D02*
G01*
X120922000Y-62466000D01*
X116822000Y-62466000D01*
X116822000Y-61316000D01*
X117572000Y-60666000D01*
X120172000Y-60666000D01*
X120922000Y-61316000D01*
G37*
X120922000Y-64716000D02*
X120922000Y-63566000D01*
X116822000Y-63566000D01*
X116822000Y-64716000D01*
X117572000Y-65366000D01*
X120172000Y-65366000D01*
X120922000Y-64716000D01*
G36*
X120922000Y-64716000D02*
G01*
X120172000Y-65366000D01*
X117572000Y-65366000D01*
X116822000Y-64716000D01*
X116822000Y-63566000D01*
X120922000Y-63566000D01*
X120922000Y-64716000D01*
G37*
%TD*%
D11*
%TO.C,C46*%
X160175000Y-96266000D03*
X159215000Y-96266000D03*
%TD*%
D12*
%TO.C,C51*%
X150622000Y-77105000D03*
X150622000Y-76145000D03*
%TD*%
D13*
%TO.C,R6*%
X130046000Y-84582000D03*
X131066000Y-84582000D03*
%TD*%
D14*
%TO.C,D1*%
X187960000Y-123215500D03*
X187960000Y-121640500D03*
%TD*%
D15*
%TO.C,R29*%
X154686000Y-72138000D03*
X154686000Y-71118000D03*
%TD*%
D16*
%TO.C,U9*%
X151422000Y-78972500D03*
X151022000Y-78972500D03*
X150622000Y-78972500D03*
X150222000Y-78972500D03*
X149822000Y-78972500D03*
D17*
X149159500Y-79635000D03*
X149159500Y-80035000D03*
X149159500Y-80435000D03*
X149159500Y-80835000D03*
X149159500Y-81235000D03*
D16*
X149822000Y-81897500D03*
X150222000Y-81897500D03*
X150622000Y-81897500D03*
X151022000Y-81897500D03*
X151422000Y-81897500D03*
D17*
X152084500Y-81235000D03*
X152084500Y-80835000D03*
X152084500Y-80435000D03*
X152084500Y-80035000D03*
X152084500Y-79635000D03*
D18*
X150622000Y-80435000D03*
%TD*%
D15*
%TO.C,R8*%
X130040000Y-71630000D03*
X130040000Y-70610000D03*
%TD*%
D19*
%TO.C,C43*%
X158223000Y-87630000D03*
X159183000Y-87630000D03*
%TD*%
D20*
%TO.C,U7*%
X115250000Y-61878500D03*
X114300000Y-61878500D03*
X113350000Y-61878500D03*
X113350000Y-64153500D03*
X114300000Y-64153500D03*
X115250000Y-64153500D03*
%TD*%
D21*
%TO.C,SW1*%
X139700000Y-60630000D03*
X144950000Y-60630000D03*
X139700000Y-63830000D03*
X144950000Y-63830000D03*
%TD*%
D19*
%TO.C,C38*%
X153952000Y-81451000D03*
X154912000Y-81451000D03*
%TD*%
D12*
%TO.C,C11*%
X132588000Y-88364000D03*
X132588000Y-87404000D03*
%TD*%
D22*
%TO.C,U3*%
X147697000Y-106240500D03*
X148347000Y-106240500D03*
X148997000Y-106240500D03*
X149647000Y-106240500D03*
X150297000Y-106240500D03*
X150947000Y-106240500D03*
X151597000Y-106240500D03*
X152247000Y-106240500D03*
X152897000Y-106240500D03*
X153547000Y-106240500D03*
X153547000Y-100515500D03*
X152897000Y-100515500D03*
X152247000Y-100515500D03*
X151597000Y-100515500D03*
X150947000Y-100515500D03*
X150297000Y-100515500D03*
X149647000Y-100515500D03*
X148997000Y-100515500D03*
X148347000Y-100515500D03*
X147697000Y-100515500D03*
%TD*%
D23*
%TO.C,R13*%
X187960000Y-119124000D03*
X187960000Y-120144000D03*
%TD*%
%TO.C,R2*%
X147574000Y-108202000D03*
X147574000Y-109222000D03*
%TD*%
D24*
%TO.C,R14*%
X114302000Y-66064000D03*
X113282000Y-66064000D03*
%TD*%
D25*
%TO.C,C14*%
X135140000Y-71302000D03*
X135140000Y-72262000D03*
%TD*%
D26*
%TO.C,C12*%
X132010000Y-70982000D03*
X133070000Y-70982000D03*
%TD*%
D27*
%TO.C,U6*%
X107232000Y-130693000D03*
X107732000Y-130693000D03*
X108232000Y-130693000D03*
X108732000Y-130693000D03*
X109232000Y-130693000D03*
X109732000Y-130693000D03*
X110232000Y-130693000D03*
X110732000Y-130693000D03*
X111232000Y-130693000D03*
X111732000Y-130693000D03*
X112232000Y-130693000D03*
X112732000Y-130693000D03*
X112732000Y-124968000D03*
X112232000Y-124968000D03*
X111732000Y-124968000D03*
X111232000Y-124968000D03*
X110732000Y-124968000D03*
X110232000Y-124968000D03*
X109732000Y-124968000D03*
X109232000Y-124968000D03*
X108732000Y-124968000D03*
X108232000Y-124968000D03*
X107732000Y-124968000D03*
X107232000Y-124968000D03*
%TD*%
D21*
%TO.C,SW2*%
X157395000Y-60630000D03*
X162645000Y-60630000D03*
X157395000Y-63830000D03*
X162645000Y-63830000D03*
%TD*%
D13*
%TO.C,R16*%
X113282000Y-67334000D03*
X114302000Y-67334000D03*
%TD*%
D19*
%TO.C,C49*%
X153952000Y-78994000D03*
X154912000Y-78994000D03*
%TD*%
%TO.C,C31*%
X141396000Y-67097000D03*
X142356000Y-67097000D03*
%TD*%
D28*
%TO.C,MNT1*%
X169672000Y-63500000D03*
%TD*%
D29*
%TO.C,L1*%
X131477500Y-69482000D03*
X133602500Y-69482000D03*
%TD*%
D21*
%TO.C,SW3*%
X174413000Y-119558000D03*
X179663000Y-119558000D03*
X174413000Y-122758000D03*
X179663000Y-122758000D03*
%TD*%
D30*
%TO.C,J5*%
X181080000Y-67278000D03*
X182880000Y-65278000D03*
X188980000Y-65278000D03*
X186580000Y-67278000D03*
X177380000Y-65278000D03*
%TD*%
D23*
%TO.C,R31*%
X154686000Y-74420000D03*
X154686000Y-75440000D03*
%TD*%
D24*
%TO.C,R17*%
X143669000Y-73193000D03*
X142649000Y-73193000D03*
%TD*%
D26*
%TO.C,C13*%
X132010000Y-71982000D03*
X133070000Y-71982000D03*
%TD*%
D31*
%TO.C,X2*%
X129342000Y-86276000D03*
X129342000Y-88476000D03*
X131042000Y-88476000D03*
X131042000Y-86276000D03*
%TD*%
D23*
%TO.C,R1*%
X140462000Y-118616000D03*
X140462000Y-119636000D03*
%TD*%
D28*
%TO.C,MNT4*%
X186436000Y-141478000D03*
%TD*%
D27*
%TO.C,U5*%
X99076000Y-106240500D03*
X99576000Y-106240500D03*
X100076000Y-106240500D03*
X100576000Y-106240500D03*
X101076000Y-106240500D03*
X101576000Y-106240500D03*
X102076000Y-106240500D03*
X102576000Y-106240500D03*
X103076000Y-106240500D03*
X103576000Y-106240500D03*
X104076000Y-106240500D03*
X104576000Y-106240500D03*
X104576000Y-100515500D03*
X104076000Y-100515500D03*
X103576000Y-100515500D03*
X103076000Y-100515500D03*
X102576000Y-100515500D03*
X102076000Y-100515500D03*
X101576000Y-100515500D03*
X101076000Y-100515500D03*
X100576000Y-100515500D03*
X100076000Y-100515500D03*
X99576000Y-100515500D03*
X99076000Y-100515500D03*
%TD*%
D15*
%TO.C,R3*%
X101854000Y-72646000D03*
X101854000Y-71626000D03*
%TD*%
D32*
%TO.C,R27*%
X160262999Y-94996000D03*
D33*
X159183000Y-94996000D03*
%TD*%
D34*
%TO.C,J4*%
X118364000Y-67080000D03*
D35*
X119364000Y-67080000D03*
%TD*%
D36*
%TO.C,U10*%
X157114500Y-89490000D03*
X157114500Y-90140000D03*
X157114500Y-90790000D03*
X157114500Y-91440000D03*
X157114500Y-92090000D03*
X157114500Y-92740000D03*
X157114500Y-93390000D03*
X162839500Y-93390000D03*
X162839500Y-92740000D03*
X162839500Y-92090000D03*
X162839500Y-91440000D03*
X162839500Y-90790000D03*
X162839500Y-90140000D03*
X162839500Y-89490000D03*
%TD*%
D28*
%TO.C,MNT3*%
X101600000Y-141478000D03*
%TD*%
D22*
%TO.C,U2*%
X140585000Y-116654500D03*
X141235000Y-116654500D03*
X141885000Y-116654500D03*
X142535000Y-116654500D03*
X143185000Y-116654500D03*
X143835000Y-116654500D03*
X144485000Y-116654500D03*
X145135000Y-116654500D03*
X145785000Y-116654500D03*
X146435000Y-116654500D03*
X146435000Y-110929500D03*
X145785000Y-110929500D03*
X145135000Y-110929500D03*
X144485000Y-110929500D03*
X143835000Y-110929500D03*
X143185000Y-110929500D03*
X142535000Y-110929500D03*
X141885000Y-110929500D03*
X141235000Y-110929500D03*
X140585000Y-110929500D03*
%TD*%
D28*
%TO.C,MNT2*%
X101600000Y-63500000D03*
%TD*%
D11*
%TO.C,C45*%
X158143000Y-96266000D03*
X157183000Y-96266000D03*
%TD*%
D19*
%TO.C,C44*%
X160048000Y-85090000D03*
X161008000Y-85090000D03*
%TD*%
D11*
%TO.C,C53*%
X172266000Y-108287250D03*
X171306000Y-108287250D03*
%TD*%
D12*
%TO.C,C52*%
X151892000Y-77105000D03*
X151892000Y-76145000D03*
%TD*%
D24*
%TO.C,R4*%
X99824000Y-108712000D03*
X98804000Y-108712000D03*
%TD*%
D12*
%TO.C,C56*%
X159997000Y-102669000D03*
X159997000Y-101709000D03*
%TD*%
D24*
%TO.C,R5*%
X107952000Y-133096000D03*
X106932000Y-133096000D03*
%TD*%
%TO.C,R24*%
X158199000Y-86360000D03*
X157179000Y-86360000D03*
%TD*%
D15*
%TO.C,R9*%
X128990000Y-71630000D03*
X128990000Y-70610000D03*
%TD*%
%TO.C,R15*%
X140352000Y-67099000D03*
X140352000Y-66079000D03*
%TD*%
D14*
%TO.C,D2*%
X183134000Y-123215500D03*
X183134000Y-121640500D03*
%TD*%
D37*
%TO.C,RV1*%
X172974000Y-101346000D03*
X181774000Y-101346000D03*
D38*
X174874000Y-108346000D03*
X177374000Y-108346000D03*
X179874000Y-108346000D03*
%TD*%
D24*
%TO.C,R25*%
X160231000Y-86360000D03*
X159211000Y-86360000D03*
%TD*%
D19*
%TO.C,C36*%
X153952000Y-80181000D03*
X154912000Y-80181000D03*
%TD*%
D12*
%TO.C,C50*%
X149352000Y-77077000D03*
X149352000Y-76117000D03*
%TD*%
D24*
%TO.C,R18*%
X141637000Y-73193000D03*
X140617000Y-73193000D03*
%TD*%
D15*
%TO.C,R11*%
X127757598Y-71630000D03*
X127757598Y-70610000D03*
%TD*%
D25*
%TO.C,C37*%
X151130000Y-83765000D03*
X151130000Y-84725000D03*
%TD*%
D39*
%TO.C,J1*%
X173960000Y-76757000D03*
X173960000Y-77857000D03*
X173960000Y-78957000D03*
X173960000Y-80057000D03*
X173960000Y-81157000D03*
X173960000Y-82257000D03*
X173960000Y-83357000D03*
X173960000Y-84457000D03*
X173960000Y-85407000D03*
D40*
X184460000Y-86357000D03*
D41*
X178260000Y-86357000D03*
D42*
X188610000Y-86357000D03*
D41*
X173960000Y-75207000D03*
D43*
X189060000Y-72857000D03*
%TD*%
D15*
%TO.C,R28*%
X169418000Y-77980000D03*
X169418000Y-76960000D03*
%TD*%
%TO.C,R30*%
X160274000Y-75694000D03*
X160274000Y-74674000D03*
%TD*%
D24*
%TO.C,R32*%
X186438000Y-88138000D03*
X185418000Y-88138000D03*
%TD*%
D23*
%TO.C,R33*%
X183134000Y-119124000D03*
X183134000Y-120144000D03*
%TD*%
D44*
%TO.C,J2*%
X132430000Y-64581000D03*
X126650000Y-64581000D03*
D45*
X132740000Y-65656000D03*
X131940000Y-65656000D03*
D46*
X130790000Y-65656000D03*
X129790000Y-65656000D03*
X129290000Y-65656000D03*
X128290000Y-65656000D03*
D45*
X127140000Y-65656000D03*
X126340000Y-65656000D03*
X126340000Y-65656000D03*
X127140000Y-65656000D03*
D46*
X127790000Y-65656000D03*
X128790000Y-65656000D03*
X130290000Y-65656000D03*
X131290000Y-65656000D03*
D45*
X131940000Y-65656000D03*
X132740000Y-65656000D03*
D47*
X133860000Y-65081000D03*
D48*
X133860000Y-60901000D03*
D47*
X125220000Y-65081000D03*
D48*
X125220000Y-60901000D03*
%TD*%
D49*
%TO.C,U11*%
X161963000Y-104567500D03*
X161313000Y-104567500D03*
X160663000Y-104567500D03*
X160013000Y-104567500D03*
X160013000Y-108792500D03*
X160663000Y-108792500D03*
X161313000Y-108792500D03*
X161963000Y-108792500D03*
%TD*%
D24*
%TO.C,R26*%
X160233000Y-97536000D03*
X159213000Y-97536000D03*
%TD*%
D34*
%TO.C,J3*%
X147574000Y-70112000D03*
D35*
X147574000Y-71112000D03*
%TD*%
D15*
%TO.C,R7*%
X135140000Y-69992000D03*
X135140000Y-68972000D03*
%TD*%
D50*
%TO.C,U4*%
X104071500Y-71926000D03*
X104071500Y-72426000D03*
X104071500Y-72926000D03*
X104071500Y-73426000D03*
X104071500Y-73926000D03*
X104071500Y-74426000D03*
X104071500Y-74926000D03*
X104071500Y-75426000D03*
X104071500Y-75926000D03*
X104071500Y-76426000D03*
X104071500Y-76926000D03*
X104071500Y-77426000D03*
X109796500Y-77426000D03*
X109796500Y-76926000D03*
X109796500Y-76426000D03*
X109796500Y-75926000D03*
X109796500Y-75426000D03*
X109796500Y-74926000D03*
X109796500Y-74426000D03*
X109796500Y-73926000D03*
X109796500Y-73426000D03*
X109796500Y-72926000D03*
X109796500Y-72426000D03*
X109796500Y-71926000D03*
%TD*%
D19*
%TO.C,C29*%
X169194000Y-116078000D03*
X170154000Y-116078000D03*
%TD*%
D51*
%TO.C,XC1*%
X122428000Y-96271000D03*
D52*
X122428000Y-98811000D03*
X122428000Y-101351000D03*
X122428000Y-103891000D03*
X122428000Y-106431000D03*
X122428000Y-108971000D03*
X122428000Y-111511000D03*
X122428000Y-114051000D03*
X122428000Y-116591000D03*
X122428000Y-119131000D03*
X122428000Y-121671000D03*
X122428000Y-124211000D03*
X122428000Y-126751000D03*
X122428000Y-129291000D03*
X122428000Y-131831000D03*
X122428000Y-134371000D03*
X122428000Y-136911000D03*
X122428000Y-139451000D03*
X122428000Y-141991000D03*
X122428000Y-144531000D03*
X137668000Y-144531000D03*
X137668000Y-141991000D03*
X137668000Y-139451000D03*
X137668000Y-136911000D03*
X137668000Y-134371000D03*
X137668000Y-131831000D03*
X137668000Y-129291000D03*
X137668000Y-126751000D03*
X137668000Y-124211000D03*
X137668000Y-121671000D03*
X137668000Y-119131000D03*
X137668000Y-116591000D03*
X137668000Y-114051000D03*
X137668000Y-111511000D03*
X137668000Y-108971000D03*
X137668000Y-106431000D03*
X137668000Y-103891000D03*
X137668000Y-101351000D03*
X137668000Y-98811000D03*
X137668000Y-96271000D03*
%TD*%
D13*
%TO.C,R12*%
X171450000Y-116078000D03*
X172470000Y-116078000D03*
%TD*%
D53*
%TO.C,U1*%
X124590000Y-74432000D03*
X124590000Y-74832000D03*
X124590000Y-75232000D03*
X124590000Y-75632000D03*
X124590000Y-76032000D03*
X124590000Y-76432000D03*
X124590000Y-76832000D03*
X124590000Y-77232000D03*
X124590000Y-77632000D03*
X124590000Y-78032000D03*
X124590000Y-78432000D03*
X124590000Y-78832000D03*
X124590000Y-79232000D03*
X124590000Y-79632000D03*
X124590000Y-80032000D03*
X124590000Y-80432000D03*
X124590000Y-80832000D03*
X124590000Y-81232000D03*
X124590000Y-81632000D03*
X124590000Y-82032000D03*
D54*
X125740000Y-83182000D03*
X126140000Y-83182000D03*
X126540000Y-83182000D03*
X126940000Y-83182000D03*
X127340000Y-83182000D03*
X127740000Y-83182000D03*
X128140000Y-83182000D03*
X128540000Y-83182000D03*
X128940000Y-83182000D03*
X129340000Y-83182000D03*
X129740000Y-83182000D03*
X130140000Y-83182000D03*
X130540000Y-83182000D03*
X130940000Y-83182000D03*
X131340000Y-83182000D03*
X131740000Y-83182000D03*
X132140000Y-83182000D03*
X132540000Y-83182000D03*
X132940000Y-83182000D03*
X133340000Y-83182000D03*
D53*
X134490000Y-82032000D03*
X134490000Y-81632000D03*
X134490000Y-81232000D03*
X134490000Y-80832000D03*
X134490000Y-80432000D03*
X134490000Y-80032000D03*
X134490000Y-79632000D03*
X134490000Y-79232000D03*
X134490000Y-78832000D03*
X134490000Y-78432000D03*
X134490000Y-78032000D03*
X134490000Y-77632000D03*
X134490000Y-77232000D03*
X134490000Y-76832000D03*
X134490000Y-76432000D03*
X134490000Y-76032000D03*
X134490000Y-75632000D03*
X134490000Y-75232000D03*
X134490000Y-74832000D03*
X134490000Y-74432000D03*
D54*
X133340000Y-73282000D03*
X132940000Y-73282000D03*
X132540000Y-73282000D03*
X132140000Y-73282000D03*
X131740000Y-73282000D03*
X131340000Y-73282000D03*
X130940000Y-73282000D03*
X130540000Y-73282000D03*
X130140000Y-73282000D03*
X129740000Y-73282000D03*
X129340000Y-73282000D03*
X128940000Y-73282000D03*
X128540000Y-73282000D03*
X128140000Y-73282000D03*
X127740000Y-73282000D03*
X127340000Y-73282000D03*
X126940000Y-73282000D03*
X126540000Y-73282000D03*
X126140000Y-73282000D03*
X125740000Y-73282000D03*
D55*
X129540000Y-78232000D03*
%TD*%
D56*
%TO.C,LS1*%
X152380000Y-130810000D03*
X162580000Y-130810000D03*
%TD*%
M02*
