%TF.GenerationSoftware,KiCad,Pcbnew,10.0.5*%
%TF.CreationDate,2026-08-03T17:09:22-04:00*%
%TF.ProjectId,Digichiver,44696769-6368-4697-9665-722e6b696361,0*%
%TF.SameCoordinates,Original*%
%TF.FileFunction,Paste,Top*%
%TF.FilePolarity,Positive*%
%FSLAX46Y46*%
G04 Gerber Fmt 4.6, Leading zero omitted, Abs format (unit mm)*
G04 Created by KiCad (PCBNEW 10.0.5) date 2026-08-03 17:09:22*
%MOMM*%
%LPD*%
G01*
G04 APERTURE LIST*
G04 Aperture macros list*
%AMRoundRect*
0 Rectangle with rounded corners*
0 $1 Rounding radius*
0 $2 $3 $4 $5 $6 $7 $8 $9 X,Y pos of 4 corners*
0 Add a 4 corners polygon primitive as box body*
4,1,4,$2,$3,$4,$5,$6,$7,$8,$9,$2,$3,0*
0 Add four circle primitives for the rounded corners*
1,1,$1+$1,$2,$3*
1,1,$1+$1,$4,$5*
1,1,$1+$1,$6,$7*
1,1,$1+$1,$8,$9*
0 Add four rect primitives between the rounded corners*
20,1,$1+$1,$2,$3,$4,$5,0*
20,1,$1+$1,$4,$5,$6,$7,0*
20,1,$1+$1,$6,$7,$8,$9,0*
20,1,$1+$1,$8,$9,$2,$3,0*%
G04 Aperture macros list end*
%ADD10C,0.010000*%
%ADD11RoundRect,0.140000X0.140000X0.170000X-0.140000X0.170000X-0.140000X-0.170000X0.140000X-0.170000X0*%
%ADD12RoundRect,0.140000X0.170000X-0.140000X0.170000X0.140000X-0.170000X0.140000X-0.170000X-0.140000X0*%
%ADD13RoundRect,0.135000X-0.135000X-0.185000X0.135000X-0.185000X0.135000X0.185000X-0.135000X0.185000X0*%
%ADD14RoundRect,0.218750X0.256250X-0.218750X0.256250X0.218750X-0.256250X0.218750X-0.256250X-0.218750X0*%
%ADD15RoundRect,0.135000X0.185000X-0.135000X0.185000X0.135000X-0.185000X0.135000X-0.185000X-0.135000X0*%
%ADD16RoundRect,0.172500X-0.172500X0.172500X-0.172500X-0.172500X0.172500X-0.172500X0.172500X0.172500X0*%
%ADD17RoundRect,0.050000X-0.050000X0.362500X-0.050000X-0.362500X0.050000X-0.362500X0.050000X0.362500X0*%
%ADD18RoundRect,0.050000X-0.362500X0.050000X-0.362500X-0.050000X0.362500X-0.050000X0.362500X0.050000X0*%
%ADD19RoundRect,0.140000X-0.140000X-0.170000X0.140000X-0.170000X0.140000X0.170000X-0.140000X0.170000X0*%
%ADD20RoundRect,0.150000X-0.150000X0.512500X-0.150000X-0.512500X0.150000X-0.512500X0.150000X0.512500X0*%
%ADD21RoundRect,0.250000X-0.525000X-0.250000X0.525000X-0.250000X0.525000X0.250000X-0.525000X0.250000X0*%
%ADD22RoundRect,0.100000X0.100000X-0.637500X0.100000X0.637500X-0.100000X0.637500X-0.100000X-0.637500X0*%
%ADD23RoundRect,0.050000X0.075000X-0.350000X0.075000X0.350000X-0.075000X0.350000X-0.075000X-0.350000X0*%
%ADD24RoundRect,0.049500X0.225500X-0.100500X0.225500X0.100500X-0.225500X0.100500X-0.225500X-0.100500X0*%
%ADD25RoundRect,0.135000X-0.185000X0.135000X-0.185000X-0.135000X0.185000X-0.135000X0.185000X0.135000X0*%
%ADD26RoundRect,0.135000X0.135000X0.185000X-0.135000X0.185000X-0.135000X-0.185000X0.135000X-0.185000X0*%
%ADD27RoundRect,0.140000X-0.170000X0.140000X-0.170000X-0.140000X0.170000X-0.140000X0.170000X0.140000X0*%
%ADD28RoundRect,0.115000X-0.115000X-0.195000X0.115000X-0.195000X0.115000X0.195000X-0.115000X0.195000X0*%
%ADD29RoundRect,0.075000X0.075000X-0.662500X0.075000X0.662500X-0.075000X0.662500X-0.075000X-0.662500X0*%
%ADD30RoundRect,0.218750X-0.218750X-0.381250X0.218750X-0.381250X0.218750X0.381250X-0.218750X0.381250X0*%
%ADD31RoundRect,0.250000X-0.350000X0.450000X-0.350000X-0.450000X0.350000X-0.450000X0.350000X0.450000X0*%
%ADD32RoundRect,0.120000X0.119999X0.200000X-0.119999X0.200000X-0.119999X-0.200000X0.119999X-0.200000X0*%
%ADD33RoundRect,0.120000X0.120000X0.200000X-0.120000X0.200000X-0.120000X-0.200000X0.120000X-0.200000X0*%
%ADD34RoundRect,0.100000X-0.637500X-0.100000X0.637500X-0.100000X0.637500X0.100000X-0.637500X0.100000X0*%
%ADD35R,1.200000X0.700000*%
%ADD36R,0.800000X1.000000*%
%ADD37R,1.200000X1.000000*%
%ADD38R,2.800000X1.000000*%
%ADD39R,1.900000X1.300000*%
%ADD40RoundRect,0.150000X0.150000X0.425000X-0.150000X0.425000X-0.150000X-0.425000X0.150000X-0.425000X0*%
%ADD41RoundRect,0.075000X0.075000X0.500000X-0.075000X0.500000X-0.075000X-0.500000X0.075000X-0.500000X0*%
%ADD42O,1.000000X2.100000*%
%ADD43O,1.000000X1.800000*%
%ADD44RoundRect,0.100000X-0.100000X0.712500X-0.100000X-0.712500X0.100000X-0.712500X0.100000X0.712500X0*%
%ADD45RoundRect,0.075000X-0.662500X-0.075000X0.662500X-0.075000X0.662500X0.075000X-0.662500X0.075000X0*%
%ADD46RoundRect,0.227500X-0.227500X-0.227500X0.227500X-0.227500X0.227500X0.227500X-0.227500X0.227500X0*%
%ADD47RoundRect,0.050000X-0.350000X-0.050000X0.350000X-0.050000X0.350000X0.050000X-0.350000X0.050000X0*%
%ADD48RoundRect,0.050000X-0.050000X-0.350000X0.050000X-0.350000X0.050000X0.350000X-0.050000X0.350000X0*%
G04 APERTURE END LIST*
D10*
%TO.C,U8*%
X142325000Y-71691000D02*
X142325000Y-70516000D01*
X142325000Y-70513000D01*
X142325000Y-70511000D01*
X142325000Y-70508000D01*
X142324000Y-70506000D01*
X142324000Y-70503000D01*
X142323000Y-70501000D01*
X142322000Y-70498000D01*
X142321000Y-70496000D01*
X142320000Y-70493000D01*
X142319000Y-70491000D01*
X142317000Y-70489000D01*
X142316000Y-70487000D01*
X142314000Y-70485000D01*
X142313000Y-70483000D01*
X142311000Y-70481000D01*
X142309000Y-70479000D01*
X142307000Y-70477000D01*
X142305000Y-70476000D01*
X142303000Y-70474000D01*
X142300000Y-70473000D01*
X142298000Y-70471000D01*
X142296000Y-70470000D01*
X142293000Y-70469000D01*
X142291000Y-70468000D01*
X142288000Y-70468000D01*
X142286000Y-70467000D01*
X142283000Y-70467000D01*
X142281000Y-70466000D01*
X142278000Y-70466000D01*
X142275000Y-70466000D01*
X142101000Y-70466000D01*
X142098000Y-70466000D01*
X142095000Y-70466000D01*
X142093000Y-70467000D01*
X142090000Y-70467000D01*
X142088000Y-70468000D01*
X142085000Y-70468000D01*
X142083000Y-70469000D01*
X142080000Y-70470000D01*
X142078000Y-70471000D01*
X142075000Y-70473000D01*
X142073000Y-70474000D01*
X142071000Y-70476000D01*
X142069000Y-70477000D01*
X142067000Y-70479000D01*
X142065000Y-70481000D01*
X142063000Y-70483000D01*
X142062000Y-70485000D01*
X142060000Y-70487000D01*
X142059000Y-70489000D01*
X142057000Y-70491000D01*
X142056000Y-70493000D01*
X142055000Y-70496000D01*
X142054000Y-70498000D01*
X142053000Y-70501000D01*
X142052000Y-70503000D01*
X142052000Y-70506000D01*
X142051000Y-70508000D01*
X142051000Y-70511000D01*
X142051000Y-70513000D01*
X142050000Y-70516000D01*
X142050000Y-71691000D01*
X142051000Y-71694000D01*
X142051000Y-71696000D01*
X142051000Y-71699000D01*
X142052000Y-71701000D01*
X142052000Y-71704000D01*
X142053000Y-71706000D01*
X142054000Y-71709000D01*
X142055000Y-71711000D01*
X142056000Y-71714000D01*
X142057000Y-71716000D01*
X142059000Y-71718000D01*
X142060000Y-71720000D01*
X142062000Y-71722000D01*
X142063000Y-71724000D01*
X142065000Y-71726000D01*
X142067000Y-71728000D01*
X142069000Y-71730000D01*
X142071000Y-71731000D01*
X142073000Y-71733000D01*
X142075000Y-71734000D01*
X142078000Y-71736000D01*
X142080000Y-71737000D01*
X142083000Y-71738000D01*
X142085000Y-71739000D01*
X142088000Y-71739000D01*
X142090000Y-71740000D01*
X142093000Y-71740000D01*
X142095000Y-71741000D01*
X142098000Y-71741000D01*
X142101000Y-71741000D01*
X142275000Y-71741000D01*
X142278000Y-71741000D01*
X142281000Y-71741000D01*
X142283000Y-71740000D01*
X142286000Y-71740000D01*
X142288000Y-71739000D01*
X142291000Y-71739000D01*
X142293000Y-71738000D01*
X142296000Y-71737000D01*
X142298000Y-71736000D01*
X142300000Y-71734000D01*
X142303000Y-71733000D01*
X142305000Y-71731000D01*
X142307000Y-71730000D01*
X142309000Y-71728000D01*
X142311000Y-71726000D01*
X142313000Y-71724000D01*
X142314000Y-71722000D01*
X142316000Y-71720000D01*
X142317000Y-71718000D01*
X142319000Y-71716000D01*
X142320000Y-71714000D01*
X142321000Y-71711000D01*
X142322000Y-71709000D01*
X142323000Y-71706000D01*
X142324000Y-71704000D01*
X142324000Y-71701000D01*
X142325000Y-71699000D01*
X142325000Y-71696000D01*
X142325000Y-71694000D01*
X142325000Y-71691000D01*
G36*
X142283000Y-70467000D02*
G01*
X142286000Y-70467000D01*
X142288000Y-70468000D01*
X142291000Y-70468000D01*
X142293000Y-70469000D01*
X142296000Y-70470000D01*
X142298000Y-70471000D01*
X142300000Y-70473000D01*
X142303000Y-70474000D01*
X142305000Y-70476000D01*
X142307000Y-70477000D01*
X142309000Y-70479000D01*
X142311000Y-70481000D01*
X142313000Y-70483000D01*
X142314000Y-70485000D01*
X142316000Y-70487000D01*
X142317000Y-70489000D01*
X142319000Y-70491000D01*
X142320000Y-70493000D01*
X142321000Y-70496000D01*
X142322000Y-70498000D01*
X142323000Y-70501000D01*
X142324000Y-70503000D01*
X142324000Y-70506000D01*
X142325000Y-70508000D01*
X142325000Y-70511000D01*
X142325000Y-70513000D01*
X142325000Y-70516000D01*
X142325000Y-71691000D01*
X142325000Y-71694000D01*
X142325000Y-71696000D01*
X142325000Y-71699000D01*
X142324000Y-71701000D01*
X142324000Y-71704000D01*
X142323000Y-71706000D01*
X142322000Y-71709000D01*
X142321000Y-71711000D01*
X142320000Y-71714000D01*
X142319000Y-71716000D01*
X142317000Y-71718000D01*
X142316000Y-71720000D01*
X142314000Y-71722000D01*
X142313000Y-71724000D01*
X142311000Y-71726000D01*
X142309000Y-71728000D01*
X142307000Y-71730000D01*
X142305000Y-71731000D01*
X142303000Y-71733000D01*
X142300000Y-71734000D01*
X142298000Y-71736000D01*
X142296000Y-71737000D01*
X142293000Y-71738000D01*
X142291000Y-71739000D01*
X142288000Y-71739000D01*
X142286000Y-71740000D01*
X142283000Y-71740000D01*
X142281000Y-71741000D01*
X142278000Y-71741000D01*
X142275000Y-71741000D01*
X142101000Y-71741000D01*
X142098000Y-71741000D01*
X142095000Y-71741000D01*
X142093000Y-71740000D01*
X142090000Y-71740000D01*
X142088000Y-71739000D01*
X142085000Y-71739000D01*
X142083000Y-71738000D01*
X142080000Y-71737000D01*
X142078000Y-71736000D01*
X142075000Y-71734000D01*
X142073000Y-71733000D01*
X142071000Y-71731000D01*
X142069000Y-71730000D01*
X142067000Y-71728000D01*
X142065000Y-71726000D01*
X142063000Y-71724000D01*
X142062000Y-71722000D01*
X142060000Y-71720000D01*
X142059000Y-71718000D01*
X142057000Y-71716000D01*
X142056000Y-71714000D01*
X142055000Y-71711000D01*
X142054000Y-71709000D01*
X142053000Y-71706000D01*
X142052000Y-71704000D01*
X142052000Y-71701000D01*
X142051000Y-71699000D01*
X142051000Y-71696000D01*
X142051000Y-71694000D01*
X142050000Y-71691000D01*
X142050000Y-70516000D01*
X142051000Y-70513000D01*
X142051000Y-70511000D01*
X142051000Y-70508000D01*
X142052000Y-70506000D01*
X142052000Y-70503000D01*
X142053000Y-70501000D01*
X142054000Y-70498000D01*
X142055000Y-70496000D01*
X142056000Y-70493000D01*
X142057000Y-70491000D01*
X142059000Y-70489000D01*
X142060000Y-70487000D01*
X142062000Y-70485000D01*
X142063000Y-70483000D01*
X142065000Y-70481000D01*
X142067000Y-70479000D01*
X142069000Y-70477000D01*
X142071000Y-70476000D01*
X142073000Y-70474000D01*
X142075000Y-70473000D01*
X142078000Y-70471000D01*
X142080000Y-70470000D01*
X142083000Y-70469000D01*
X142085000Y-70468000D01*
X142088000Y-70468000D01*
X142090000Y-70467000D01*
X142093000Y-70467000D01*
X142095000Y-70466000D01*
X142098000Y-70466000D01*
X142101000Y-70466000D01*
X142275000Y-70466000D01*
X142278000Y-70466000D01*
X142281000Y-70466000D01*
X142283000Y-70467000D01*
G37*
X142326000Y-70216000D02*
X142326000Y-70066000D01*
X142326000Y-70063000D01*
X142326000Y-70061000D01*
X142325000Y-70058000D01*
X142325000Y-70056000D01*
X142324000Y-70053000D01*
X142324000Y-70051000D01*
X142323000Y-70048000D01*
X142322000Y-70046000D01*
X142321000Y-70043000D01*
X142319000Y-70041000D01*
X142318000Y-70039000D01*
X142316000Y-70037000D01*
X142315000Y-70035000D01*
X142313000Y-70033000D01*
X142311000Y-70031000D01*
X142309000Y-70029000D01*
X142307000Y-70027000D01*
X142305000Y-70026000D01*
X142303000Y-70024000D01*
X142301000Y-70023000D01*
X142299000Y-70021000D01*
X142296000Y-70020000D01*
X142294000Y-70019000D01*
X142291000Y-70018000D01*
X142289000Y-70018000D01*
X142286000Y-70017000D01*
X142284000Y-70017000D01*
X142281000Y-70016000D01*
X142279000Y-70016000D01*
X142276000Y-70016000D01*
X141051000Y-70016000D01*
X141048000Y-70016000D01*
X141046000Y-70016000D01*
X141043000Y-70017000D01*
X141041000Y-70017000D01*
X141038000Y-70018000D01*
X141036000Y-70018000D01*
X141033000Y-70019000D01*
X141031000Y-70020000D01*
X141028000Y-70021000D01*
X141026000Y-70023000D01*
X141024000Y-70024000D01*
X141022000Y-70026000D01*
X141020000Y-70027000D01*
X141018000Y-70029000D01*
X141016000Y-70031000D01*
X141014000Y-70033000D01*
X141012000Y-70035000D01*
X141011000Y-70037000D01*
X141009000Y-70039000D01*
X141008000Y-70041000D01*
X141006000Y-70043000D01*
X141005000Y-70046000D01*
X141004000Y-70048000D01*
X141003000Y-70051000D01*
X141003000Y-70053000D01*
X141002000Y-70056000D01*
X141002000Y-70058000D01*
X141001000Y-70061000D01*
X141001000Y-70063000D01*
X141001000Y-70066000D01*
X141001000Y-70216000D01*
X141001000Y-70219000D01*
X141001000Y-70221000D01*
X141002000Y-70224000D01*
X141002000Y-70226000D01*
X141003000Y-70229000D01*
X141003000Y-70231000D01*
X141004000Y-70234000D01*
X141005000Y-70236000D01*
X141006000Y-70239000D01*
X141008000Y-70241000D01*
X141009000Y-70243000D01*
X141011000Y-70245000D01*
X141012000Y-70247000D01*
X141014000Y-70249000D01*
X141016000Y-70251000D01*
X141018000Y-70253000D01*
X141020000Y-70255000D01*
X141022000Y-70256000D01*
X141024000Y-70258000D01*
X141026000Y-70259000D01*
X141028000Y-70261000D01*
X141031000Y-70262000D01*
X141033000Y-70263000D01*
X141036000Y-70264000D01*
X141038000Y-70264000D01*
X141041000Y-70265000D01*
X141043000Y-70265000D01*
X141046000Y-70266000D01*
X141048000Y-70266000D01*
X141051000Y-70266000D01*
X142276000Y-70266000D01*
X142279000Y-70266000D01*
X142281000Y-70266000D01*
X142284000Y-70265000D01*
X142286000Y-70265000D01*
X142289000Y-70264000D01*
X142291000Y-70264000D01*
X142294000Y-70263000D01*
X142296000Y-70262000D01*
X142299000Y-70261000D01*
X142301000Y-70259000D01*
X142303000Y-70258000D01*
X142305000Y-70256000D01*
X142307000Y-70255000D01*
X142309000Y-70253000D01*
X142311000Y-70251000D01*
X142313000Y-70249000D01*
X142315000Y-70247000D01*
X142316000Y-70245000D01*
X142318000Y-70243000D01*
X142319000Y-70241000D01*
X142321000Y-70239000D01*
X142322000Y-70236000D01*
X142323000Y-70234000D01*
X142324000Y-70231000D01*
X142324000Y-70229000D01*
X142325000Y-70226000D01*
X142325000Y-70224000D01*
X142326000Y-70221000D01*
X142326000Y-70219000D01*
X142326000Y-70216000D01*
G36*
X142284000Y-70017000D02*
G01*
X142286000Y-70017000D01*
X142289000Y-70018000D01*
X142291000Y-70018000D01*
X142294000Y-70019000D01*
X142296000Y-70020000D01*
X142299000Y-70021000D01*
X142301000Y-70023000D01*
X142303000Y-70024000D01*
X142305000Y-70026000D01*
X142307000Y-70027000D01*
X142309000Y-70029000D01*
X142311000Y-70031000D01*
X142313000Y-70033000D01*
X142315000Y-70035000D01*
X142316000Y-70037000D01*
X142318000Y-70039000D01*
X142319000Y-70041000D01*
X142321000Y-70043000D01*
X142322000Y-70046000D01*
X142323000Y-70048000D01*
X142324000Y-70051000D01*
X142324000Y-70053000D01*
X142325000Y-70056000D01*
X142325000Y-70058000D01*
X142326000Y-70061000D01*
X142326000Y-70063000D01*
X142326000Y-70066000D01*
X142326000Y-70216000D01*
X142326000Y-70219000D01*
X142326000Y-70221000D01*
X142325000Y-70224000D01*
X142325000Y-70226000D01*
X142324000Y-70229000D01*
X142324000Y-70231000D01*
X142323000Y-70234000D01*
X142322000Y-70236000D01*
X142321000Y-70239000D01*
X142319000Y-70241000D01*
X142318000Y-70243000D01*
X142316000Y-70245000D01*
X142315000Y-70247000D01*
X142313000Y-70249000D01*
X142311000Y-70251000D01*
X142309000Y-70253000D01*
X142307000Y-70255000D01*
X142305000Y-70256000D01*
X142303000Y-70258000D01*
X142301000Y-70259000D01*
X142299000Y-70261000D01*
X142296000Y-70262000D01*
X142294000Y-70263000D01*
X142291000Y-70264000D01*
X142289000Y-70264000D01*
X142286000Y-70265000D01*
X142284000Y-70265000D01*
X142281000Y-70266000D01*
X142279000Y-70266000D01*
X142276000Y-70266000D01*
X141051000Y-70266000D01*
X141048000Y-70266000D01*
X141046000Y-70266000D01*
X141043000Y-70265000D01*
X141041000Y-70265000D01*
X141038000Y-70264000D01*
X141036000Y-70264000D01*
X141033000Y-70263000D01*
X141031000Y-70262000D01*
X141028000Y-70261000D01*
X141026000Y-70259000D01*
X141024000Y-70258000D01*
X141022000Y-70256000D01*
X141020000Y-70255000D01*
X141018000Y-70253000D01*
X141016000Y-70251000D01*
X141014000Y-70249000D01*
X141012000Y-70247000D01*
X141011000Y-70245000D01*
X141009000Y-70243000D01*
X141008000Y-70241000D01*
X141006000Y-70239000D01*
X141005000Y-70236000D01*
X141004000Y-70234000D01*
X141003000Y-70231000D01*
X141003000Y-70229000D01*
X141002000Y-70226000D01*
X141002000Y-70224000D01*
X141001000Y-70221000D01*
X141001000Y-70219000D01*
X141001000Y-70216000D01*
X141001000Y-70066000D01*
X141001000Y-70063000D01*
X141001000Y-70061000D01*
X141002000Y-70058000D01*
X141002000Y-70056000D01*
X141003000Y-70053000D01*
X141003000Y-70051000D01*
X141004000Y-70048000D01*
X141005000Y-70046000D01*
X141006000Y-70043000D01*
X141008000Y-70041000D01*
X141009000Y-70039000D01*
X141011000Y-70037000D01*
X141012000Y-70035000D01*
X141014000Y-70033000D01*
X141016000Y-70031000D01*
X141018000Y-70029000D01*
X141020000Y-70027000D01*
X141022000Y-70026000D01*
X141024000Y-70024000D01*
X141026000Y-70023000D01*
X141028000Y-70021000D01*
X141031000Y-70020000D01*
X141033000Y-70019000D01*
X141036000Y-70018000D01*
X141038000Y-70018000D01*
X141041000Y-70017000D01*
X141043000Y-70017000D01*
X141046000Y-70016000D01*
X141048000Y-70016000D01*
X141051000Y-70016000D01*
X142276000Y-70016000D01*
X142279000Y-70016000D01*
X142281000Y-70016000D01*
X142284000Y-70017000D01*
G37*
X143441000Y-68091000D02*
X143441000Y-68441000D01*
X143441000Y-68444000D01*
X143441000Y-68446000D01*
X143440000Y-68449000D01*
X143440000Y-68451000D01*
X143439000Y-68454000D01*
X143439000Y-68456000D01*
X143438000Y-68459000D01*
X143437000Y-68461000D01*
X143436000Y-68464000D01*
X143434000Y-68466000D01*
X143433000Y-68468000D01*
X143431000Y-68470000D01*
X143430000Y-68472000D01*
X143428000Y-68474000D01*
X143426000Y-68476000D01*
X143424000Y-68478000D01*
X143422000Y-68480000D01*
X143420000Y-68481000D01*
X143418000Y-68483000D01*
X143416000Y-68484000D01*
X143414000Y-68486000D01*
X143411000Y-68487000D01*
X143409000Y-68488000D01*
X143406000Y-68489000D01*
X143404000Y-68489000D01*
X143401000Y-68490000D01*
X143399000Y-68490000D01*
X143396000Y-68491000D01*
X143394000Y-68491000D01*
X143391000Y-68491000D01*
X143241000Y-68491000D01*
X143238000Y-68491000D01*
X143236000Y-68491000D01*
X143233000Y-68490000D01*
X143231000Y-68490000D01*
X143228000Y-68489000D01*
X143226000Y-68489000D01*
X143223000Y-68488000D01*
X143221000Y-68487000D01*
X143218000Y-68486000D01*
X143216000Y-68484000D01*
X143214000Y-68483000D01*
X143212000Y-68481000D01*
X143210000Y-68480000D01*
X143208000Y-68478000D01*
X143206000Y-68476000D01*
X143204000Y-68474000D01*
X143202000Y-68472000D01*
X143201000Y-68470000D01*
X143199000Y-68468000D01*
X143198000Y-68466000D01*
X143196000Y-68464000D01*
X143195000Y-68461000D01*
X143194000Y-68459000D01*
X143193000Y-68456000D01*
X143193000Y-68454000D01*
X143192000Y-68451000D01*
X143192000Y-68449000D01*
X143191000Y-68446000D01*
X143191000Y-68444000D01*
X143191000Y-68441000D01*
X143191000Y-68091000D01*
X143191000Y-68088000D01*
X143191000Y-68086000D01*
X143192000Y-68083000D01*
X143192000Y-68081000D01*
X143193000Y-68078000D01*
X143193000Y-68076000D01*
X143194000Y-68073000D01*
X143195000Y-68071000D01*
X143196000Y-68068000D01*
X143198000Y-68066000D01*
X143199000Y-68064000D01*
X143201000Y-68062000D01*
X143202000Y-68060000D01*
X143204000Y-68058000D01*
X143206000Y-68056000D01*
X143208000Y-68054000D01*
X143210000Y-68052000D01*
X143212000Y-68051000D01*
X143214000Y-68049000D01*
X143216000Y-68048000D01*
X143218000Y-68046000D01*
X143221000Y-68045000D01*
X143223000Y-68044000D01*
X143226000Y-68043000D01*
X143228000Y-68043000D01*
X143231000Y-68042000D01*
X143233000Y-68042000D01*
X143236000Y-68041000D01*
X143238000Y-68041000D01*
X143241000Y-68041000D01*
X143391000Y-68041000D01*
X143394000Y-68041000D01*
X143396000Y-68041000D01*
X143399000Y-68042000D01*
X143401000Y-68042000D01*
X143404000Y-68043000D01*
X143406000Y-68043000D01*
X143409000Y-68044000D01*
X143411000Y-68045000D01*
X143414000Y-68046000D01*
X143416000Y-68048000D01*
X143418000Y-68049000D01*
X143420000Y-68051000D01*
X143422000Y-68052000D01*
X143424000Y-68054000D01*
X143426000Y-68056000D01*
X143428000Y-68058000D01*
X143430000Y-68060000D01*
X143431000Y-68062000D01*
X143433000Y-68064000D01*
X143434000Y-68066000D01*
X143436000Y-68068000D01*
X143437000Y-68071000D01*
X143438000Y-68073000D01*
X143439000Y-68076000D01*
X143439000Y-68078000D01*
X143440000Y-68081000D01*
X143440000Y-68083000D01*
X143441000Y-68086000D01*
X143441000Y-68088000D01*
X143441000Y-68091000D01*
G36*
X143399000Y-68042000D02*
G01*
X143401000Y-68042000D01*
X143404000Y-68043000D01*
X143406000Y-68043000D01*
X143409000Y-68044000D01*
X143411000Y-68045000D01*
X143414000Y-68046000D01*
X143416000Y-68048000D01*
X143418000Y-68049000D01*
X143420000Y-68051000D01*
X143422000Y-68052000D01*
X143424000Y-68054000D01*
X143426000Y-68056000D01*
X143428000Y-68058000D01*
X143430000Y-68060000D01*
X143431000Y-68062000D01*
X143433000Y-68064000D01*
X143434000Y-68066000D01*
X143436000Y-68068000D01*
X143437000Y-68071000D01*
X143438000Y-68073000D01*
X143439000Y-68076000D01*
X143439000Y-68078000D01*
X143440000Y-68081000D01*
X143440000Y-68083000D01*
X143441000Y-68086000D01*
X143441000Y-68088000D01*
X143441000Y-68091000D01*
X143441000Y-68441000D01*
X143441000Y-68444000D01*
X143441000Y-68446000D01*
X143440000Y-68449000D01*
X143440000Y-68451000D01*
X143439000Y-68454000D01*
X143439000Y-68456000D01*
X143438000Y-68459000D01*
X143437000Y-68461000D01*
X143436000Y-68464000D01*
X143434000Y-68466000D01*
X143433000Y-68468000D01*
X143431000Y-68470000D01*
X143430000Y-68472000D01*
X143428000Y-68474000D01*
X143426000Y-68476000D01*
X143424000Y-68478000D01*
X143422000Y-68480000D01*
X143420000Y-68481000D01*
X143418000Y-68483000D01*
X143416000Y-68484000D01*
X143414000Y-68486000D01*
X143411000Y-68487000D01*
X143409000Y-68488000D01*
X143406000Y-68489000D01*
X143404000Y-68489000D01*
X143401000Y-68490000D01*
X143399000Y-68490000D01*
X143396000Y-68491000D01*
X143394000Y-68491000D01*
X143391000Y-68491000D01*
X143241000Y-68491000D01*
X143238000Y-68491000D01*
X143236000Y-68491000D01*
X143233000Y-68490000D01*
X143231000Y-68490000D01*
X143228000Y-68489000D01*
X143226000Y-68489000D01*
X143223000Y-68488000D01*
X143221000Y-68487000D01*
X143218000Y-68486000D01*
X143216000Y-68484000D01*
X143214000Y-68483000D01*
X143212000Y-68481000D01*
X143210000Y-68480000D01*
X143208000Y-68478000D01*
X143206000Y-68476000D01*
X143204000Y-68474000D01*
X143202000Y-68472000D01*
X143201000Y-68470000D01*
X143199000Y-68468000D01*
X143198000Y-68466000D01*
X143196000Y-68464000D01*
X143195000Y-68461000D01*
X143194000Y-68459000D01*
X143193000Y-68456000D01*
X143193000Y-68454000D01*
X143192000Y-68451000D01*
X143192000Y-68449000D01*
X143191000Y-68446000D01*
X143191000Y-68444000D01*
X143191000Y-68441000D01*
X143191000Y-68091000D01*
X143191000Y-68088000D01*
X143191000Y-68086000D01*
X143192000Y-68083000D01*
X143192000Y-68081000D01*
X143193000Y-68078000D01*
X143193000Y-68076000D01*
X143194000Y-68073000D01*
X143195000Y-68071000D01*
X143196000Y-68068000D01*
X143198000Y-68066000D01*
X143199000Y-68064000D01*
X143201000Y-68062000D01*
X143202000Y-68060000D01*
X143204000Y-68058000D01*
X143206000Y-68056000D01*
X143208000Y-68054000D01*
X143210000Y-68052000D01*
X143212000Y-68051000D01*
X143214000Y-68049000D01*
X143216000Y-68048000D01*
X143218000Y-68046000D01*
X143221000Y-68045000D01*
X143223000Y-68044000D01*
X143226000Y-68043000D01*
X143228000Y-68043000D01*
X143231000Y-68042000D01*
X143233000Y-68042000D01*
X143236000Y-68041000D01*
X143238000Y-68041000D01*
X143241000Y-68041000D01*
X143391000Y-68041000D01*
X143394000Y-68041000D01*
X143396000Y-68041000D01*
X143399000Y-68042000D01*
G37*
X143441000Y-71691000D02*
X143441000Y-71341000D01*
X143441000Y-71338000D01*
X143441000Y-71336000D01*
X143440000Y-71333000D01*
X143440000Y-71331000D01*
X143439000Y-71328000D01*
X143439000Y-71326000D01*
X143438000Y-71323000D01*
X143437000Y-71321000D01*
X143436000Y-71318000D01*
X143434000Y-71316000D01*
X143433000Y-71314000D01*
X143431000Y-71312000D01*
X143430000Y-71310000D01*
X143428000Y-71308000D01*
X143426000Y-71306000D01*
X143424000Y-71304000D01*
X143422000Y-71302000D01*
X143420000Y-71301000D01*
X143418000Y-71299000D01*
X143416000Y-71298000D01*
X143414000Y-71296000D01*
X143411000Y-71295000D01*
X143409000Y-71294000D01*
X143406000Y-71293000D01*
X143404000Y-71293000D01*
X143401000Y-71292000D01*
X143399000Y-71292000D01*
X143396000Y-71291000D01*
X143394000Y-71291000D01*
X143391000Y-71291000D01*
X143241000Y-71291000D01*
X143238000Y-71291000D01*
X143236000Y-71291000D01*
X143233000Y-71292000D01*
X143231000Y-71292000D01*
X143228000Y-71293000D01*
X143226000Y-71293000D01*
X143223000Y-71294000D01*
X143221000Y-71295000D01*
X143218000Y-71296000D01*
X143216000Y-71298000D01*
X143214000Y-71299000D01*
X143212000Y-71301000D01*
X143210000Y-71302000D01*
X143208000Y-71304000D01*
X143206000Y-71306000D01*
X143204000Y-71308000D01*
X143202000Y-71310000D01*
X143201000Y-71312000D01*
X143199000Y-71314000D01*
X143198000Y-71316000D01*
X143196000Y-71318000D01*
X143195000Y-71321000D01*
X143194000Y-71323000D01*
X143193000Y-71326000D01*
X143193000Y-71328000D01*
X143192000Y-71331000D01*
X143192000Y-71333000D01*
X143191000Y-71336000D01*
X143191000Y-71338000D01*
X143191000Y-71341000D01*
X143191000Y-71691000D01*
X143191000Y-71694000D01*
X143191000Y-71696000D01*
X143192000Y-71699000D01*
X143192000Y-71701000D01*
X143193000Y-71704000D01*
X143193000Y-71706000D01*
X143194000Y-71709000D01*
X143195000Y-71711000D01*
X143196000Y-71714000D01*
X143198000Y-71716000D01*
X143199000Y-71718000D01*
X143201000Y-71720000D01*
X143202000Y-71722000D01*
X143204000Y-71724000D01*
X143206000Y-71726000D01*
X143208000Y-71728000D01*
X143210000Y-71730000D01*
X143212000Y-71731000D01*
X143214000Y-71733000D01*
X143216000Y-71734000D01*
X143218000Y-71736000D01*
X143221000Y-71737000D01*
X143223000Y-71738000D01*
X143226000Y-71739000D01*
X143228000Y-71739000D01*
X143231000Y-71740000D01*
X143233000Y-71740000D01*
X143236000Y-71741000D01*
X143238000Y-71741000D01*
X143241000Y-71741000D01*
X143391000Y-71741000D01*
X143394000Y-71741000D01*
X143396000Y-71741000D01*
X143399000Y-71740000D01*
X143401000Y-71740000D01*
X143404000Y-71739000D01*
X143406000Y-71739000D01*
X143409000Y-71738000D01*
X143411000Y-71737000D01*
X143414000Y-71736000D01*
X143416000Y-71734000D01*
X143418000Y-71733000D01*
X143420000Y-71731000D01*
X143422000Y-71730000D01*
X143424000Y-71728000D01*
X143426000Y-71726000D01*
X143428000Y-71724000D01*
X143430000Y-71722000D01*
X143431000Y-71720000D01*
X143433000Y-71718000D01*
X143434000Y-71716000D01*
X143436000Y-71714000D01*
X143437000Y-71711000D01*
X143438000Y-71709000D01*
X143439000Y-71706000D01*
X143439000Y-71704000D01*
X143440000Y-71701000D01*
X143440000Y-71699000D01*
X143441000Y-71696000D01*
X143441000Y-71694000D01*
X143441000Y-71691000D01*
G36*
X143399000Y-71292000D02*
G01*
X143401000Y-71292000D01*
X143404000Y-71293000D01*
X143406000Y-71293000D01*
X143409000Y-71294000D01*
X143411000Y-71295000D01*
X143414000Y-71296000D01*
X143416000Y-71298000D01*
X143418000Y-71299000D01*
X143420000Y-71301000D01*
X143422000Y-71302000D01*
X143424000Y-71304000D01*
X143426000Y-71306000D01*
X143428000Y-71308000D01*
X143430000Y-71310000D01*
X143431000Y-71312000D01*
X143433000Y-71314000D01*
X143434000Y-71316000D01*
X143436000Y-71318000D01*
X143437000Y-71321000D01*
X143438000Y-71323000D01*
X143439000Y-71326000D01*
X143439000Y-71328000D01*
X143440000Y-71331000D01*
X143440000Y-71333000D01*
X143441000Y-71336000D01*
X143441000Y-71338000D01*
X143441000Y-71341000D01*
X143441000Y-71691000D01*
X143441000Y-71694000D01*
X143441000Y-71696000D01*
X143440000Y-71699000D01*
X143440000Y-71701000D01*
X143439000Y-71704000D01*
X143439000Y-71706000D01*
X143438000Y-71709000D01*
X143437000Y-71711000D01*
X143436000Y-71714000D01*
X143434000Y-71716000D01*
X143433000Y-71718000D01*
X143431000Y-71720000D01*
X143430000Y-71722000D01*
X143428000Y-71724000D01*
X143426000Y-71726000D01*
X143424000Y-71728000D01*
X143422000Y-71730000D01*
X143420000Y-71731000D01*
X143418000Y-71733000D01*
X143416000Y-71734000D01*
X143414000Y-71736000D01*
X143411000Y-71737000D01*
X143409000Y-71738000D01*
X143406000Y-71739000D01*
X143404000Y-71739000D01*
X143401000Y-71740000D01*
X143399000Y-71740000D01*
X143396000Y-71741000D01*
X143394000Y-71741000D01*
X143391000Y-71741000D01*
X143241000Y-71741000D01*
X143238000Y-71741000D01*
X143236000Y-71741000D01*
X143233000Y-71740000D01*
X143231000Y-71740000D01*
X143228000Y-71739000D01*
X143226000Y-71739000D01*
X143223000Y-71738000D01*
X143221000Y-71737000D01*
X143218000Y-71736000D01*
X143216000Y-71734000D01*
X143214000Y-71733000D01*
X143212000Y-71731000D01*
X143210000Y-71730000D01*
X143208000Y-71728000D01*
X143206000Y-71726000D01*
X143204000Y-71724000D01*
X143202000Y-71722000D01*
X143201000Y-71720000D01*
X143199000Y-71718000D01*
X143198000Y-71716000D01*
X143196000Y-71714000D01*
X143195000Y-71711000D01*
X143194000Y-71709000D01*
X143193000Y-71706000D01*
X143193000Y-71704000D01*
X143192000Y-71701000D01*
X143192000Y-71699000D01*
X143191000Y-71696000D01*
X143191000Y-71694000D01*
X143191000Y-71691000D01*
X143191000Y-71341000D01*
X143191000Y-71338000D01*
X143191000Y-71336000D01*
X143192000Y-71333000D01*
X143192000Y-71331000D01*
X143193000Y-71328000D01*
X143193000Y-71326000D01*
X143194000Y-71323000D01*
X143195000Y-71321000D01*
X143196000Y-71318000D01*
X143198000Y-71316000D01*
X143199000Y-71314000D01*
X143201000Y-71312000D01*
X143202000Y-71310000D01*
X143204000Y-71308000D01*
X143206000Y-71306000D01*
X143208000Y-71304000D01*
X143210000Y-71302000D01*
X143212000Y-71301000D01*
X143214000Y-71299000D01*
X143216000Y-71298000D01*
X143218000Y-71296000D01*
X143221000Y-71295000D01*
X143223000Y-71294000D01*
X143226000Y-71293000D01*
X143228000Y-71293000D01*
X143231000Y-71292000D01*
X143233000Y-71292000D01*
X143236000Y-71291000D01*
X143238000Y-71291000D01*
X143241000Y-71291000D01*
X143391000Y-71291000D01*
X143394000Y-71291000D01*
X143396000Y-71291000D01*
X143399000Y-71292000D01*
G37*
X143941000Y-68091000D02*
X143941000Y-68441000D01*
X143941000Y-68444000D01*
X143941000Y-68446000D01*
X143940000Y-68449000D01*
X143940000Y-68451000D01*
X143939000Y-68454000D01*
X143939000Y-68456000D01*
X143938000Y-68459000D01*
X143937000Y-68461000D01*
X143936000Y-68464000D01*
X143934000Y-68466000D01*
X143933000Y-68468000D01*
X143931000Y-68470000D01*
X143930000Y-68472000D01*
X143928000Y-68474000D01*
X143926000Y-68476000D01*
X143924000Y-68478000D01*
X143922000Y-68480000D01*
X143920000Y-68481000D01*
X143918000Y-68483000D01*
X143916000Y-68484000D01*
X143914000Y-68486000D01*
X143911000Y-68487000D01*
X143909000Y-68488000D01*
X143906000Y-68489000D01*
X143904000Y-68489000D01*
X143901000Y-68490000D01*
X143899000Y-68490000D01*
X143896000Y-68491000D01*
X143894000Y-68491000D01*
X143891000Y-68491000D01*
X143741000Y-68491000D01*
X143738000Y-68491000D01*
X143736000Y-68491000D01*
X143733000Y-68490000D01*
X143731000Y-68490000D01*
X143728000Y-68489000D01*
X143726000Y-68489000D01*
X143723000Y-68488000D01*
X143721000Y-68487000D01*
X143718000Y-68486000D01*
X143716000Y-68484000D01*
X143714000Y-68483000D01*
X143712000Y-68481000D01*
X143710000Y-68480000D01*
X143708000Y-68478000D01*
X143706000Y-68476000D01*
X143704000Y-68474000D01*
X143702000Y-68472000D01*
X143701000Y-68470000D01*
X143699000Y-68468000D01*
X143698000Y-68466000D01*
X143696000Y-68464000D01*
X143695000Y-68461000D01*
X143694000Y-68459000D01*
X143693000Y-68456000D01*
X143693000Y-68454000D01*
X143692000Y-68451000D01*
X143692000Y-68449000D01*
X143691000Y-68446000D01*
X143691000Y-68444000D01*
X143691000Y-68441000D01*
X143691000Y-68091000D01*
X143691000Y-68088000D01*
X143691000Y-68086000D01*
X143692000Y-68083000D01*
X143692000Y-68081000D01*
X143693000Y-68078000D01*
X143693000Y-68076000D01*
X143694000Y-68073000D01*
X143695000Y-68071000D01*
X143696000Y-68068000D01*
X143698000Y-68066000D01*
X143699000Y-68064000D01*
X143701000Y-68062000D01*
X143702000Y-68060000D01*
X143704000Y-68058000D01*
X143706000Y-68056000D01*
X143708000Y-68054000D01*
X143710000Y-68052000D01*
X143712000Y-68051000D01*
X143714000Y-68049000D01*
X143716000Y-68048000D01*
X143718000Y-68046000D01*
X143721000Y-68045000D01*
X143723000Y-68044000D01*
X143726000Y-68043000D01*
X143728000Y-68043000D01*
X143731000Y-68042000D01*
X143733000Y-68042000D01*
X143736000Y-68041000D01*
X143738000Y-68041000D01*
X143741000Y-68041000D01*
X143891000Y-68041000D01*
X143894000Y-68041000D01*
X143896000Y-68041000D01*
X143899000Y-68042000D01*
X143901000Y-68042000D01*
X143904000Y-68043000D01*
X143906000Y-68043000D01*
X143909000Y-68044000D01*
X143911000Y-68045000D01*
X143914000Y-68046000D01*
X143916000Y-68048000D01*
X143918000Y-68049000D01*
X143920000Y-68051000D01*
X143922000Y-68052000D01*
X143924000Y-68054000D01*
X143926000Y-68056000D01*
X143928000Y-68058000D01*
X143930000Y-68060000D01*
X143931000Y-68062000D01*
X143933000Y-68064000D01*
X143934000Y-68066000D01*
X143936000Y-68068000D01*
X143937000Y-68071000D01*
X143938000Y-68073000D01*
X143939000Y-68076000D01*
X143939000Y-68078000D01*
X143940000Y-68081000D01*
X143940000Y-68083000D01*
X143941000Y-68086000D01*
X143941000Y-68088000D01*
X143941000Y-68091000D01*
G36*
X143899000Y-68042000D02*
G01*
X143901000Y-68042000D01*
X143904000Y-68043000D01*
X143906000Y-68043000D01*
X143909000Y-68044000D01*
X143911000Y-68045000D01*
X143914000Y-68046000D01*
X143916000Y-68048000D01*
X143918000Y-68049000D01*
X143920000Y-68051000D01*
X143922000Y-68052000D01*
X143924000Y-68054000D01*
X143926000Y-68056000D01*
X143928000Y-68058000D01*
X143930000Y-68060000D01*
X143931000Y-68062000D01*
X143933000Y-68064000D01*
X143934000Y-68066000D01*
X143936000Y-68068000D01*
X143937000Y-68071000D01*
X143938000Y-68073000D01*
X143939000Y-68076000D01*
X143939000Y-68078000D01*
X143940000Y-68081000D01*
X143940000Y-68083000D01*
X143941000Y-68086000D01*
X143941000Y-68088000D01*
X143941000Y-68091000D01*
X143941000Y-68441000D01*
X143941000Y-68444000D01*
X143941000Y-68446000D01*
X143940000Y-68449000D01*
X143940000Y-68451000D01*
X143939000Y-68454000D01*
X143939000Y-68456000D01*
X143938000Y-68459000D01*
X143937000Y-68461000D01*
X143936000Y-68464000D01*
X143934000Y-68466000D01*
X143933000Y-68468000D01*
X143931000Y-68470000D01*
X143930000Y-68472000D01*
X143928000Y-68474000D01*
X143926000Y-68476000D01*
X143924000Y-68478000D01*
X143922000Y-68480000D01*
X143920000Y-68481000D01*
X143918000Y-68483000D01*
X143916000Y-68484000D01*
X143914000Y-68486000D01*
X143911000Y-68487000D01*
X143909000Y-68488000D01*
X143906000Y-68489000D01*
X143904000Y-68489000D01*
X143901000Y-68490000D01*
X143899000Y-68490000D01*
X143896000Y-68491000D01*
X143894000Y-68491000D01*
X143891000Y-68491000D01*
X143741000Y-68491000D01*
X143738000Y-68491000D01*
X143736000Y-68491000D01*
X143733000Y-68490000D01*
X143731000Y-68490000D01*
X143728000Y-68489000D01*
X143726000Y-68489000D01*
X143723000Y-68488000D01*
X143721000Y-68487000D01*
X143718000Y-68486000D01*
X143716000Y-68484000D01*
X143714000Y-68483000D01*
X143712000Y-68481000D01*
X143710000Y-68480000D01*
X143708000Y-68478000D01*
X143706000Y-68476000D01*
X143704000Y-68474000D01*
X143702000Y-68472000D01*
X143701000Y-68470000D01*
X143699000Y-68468000D01*
X143698000Y-68466000D01*
X143696000Y-68464000D01*
X143695000Y-68461000D01*
X143694000Y-68459000D01*
X143693000Y-68456000D01*
X143693000Y-68454000D01*
X143692000Y-68451000D01*
X143692000Y-68449000D01*
X143691000Y-68446000D01*
X143691000Y-68444000D01*
X143691000Y-68441000D01*
X143691000Y-68091000D01*
X143691000Y-68088000D01*
X143691000Y-68086000D01*
X143692000Y-68083000D01*
X143692000Y-68081000D01*
X143693000Y-68078000D01*
X143693000Y-68076000D01*
X143694000Y-68073000D01*
X143695000Y-68071000D01*
X143696000Y-68068000D01*
X143698000Y-68066000D01*
X143699000Y-68064000D01*
X143701000Y-68062000D01*
X143702000Y-68060000D01*
X143704000Y-68058000D01*
X143706000Y-68056000D01*
X143708000Y-68054000D01*
X143710000Y-68052000D01*
X143712000Y-68051000D01*
X143714000Y-68049000D01*
X143716000Y-68048000D01*
X143718000Y-68046000D01*
X143721000Y-68045000D01*
X143723000Y-68044000D01*
X143726000Y-68043000D01*
X143728000Y-68043000D01*
X143731000Y-68042000D01*
X143733000Y-68042000D01*
X143736000Y-68041000D01*
X143738000Y-68041000D01*
X143741000Y-68041000D01*
X143891000Y-68041000D01*
X143894000Y-68041000D01*
X143896000Y-68041000D01*
X143899000Y-68042000D01*
G37*
X143941000Y-71691000D02*
X143941000Y-71341000D01*
X143941000Y-71338000D01*
X143941000Y-71336000D01*
X143940000Y-71333000D01*
X143940000Y-71331000D01*
X143939000Y-71328000D01*
X143939000Y-71326000D01*
X143938000Y-71323000D01*
X143937000Y-71321000D01*
X143936000Y-71318000D01*
X143934000Y-71316000D01*
X143933000Y-71314000D01*
X143931000Y-71312000D01*
X143930000Y-71310000D01*
X143928000Y-71308000D01*
X143926000Y-71306000D01*
X143924000Y-71304000D01*
X143922000Y-71302000D01*
X143920000Y-71301000D01*
X143918000Y-71299000D01*
X143916000Y-71298000D01*
X143914000Y-71296000D01*
X143911000Y-71295000D01*
X143909000Y-71294000D01*
X143906000Y-71293000D01*
X143904000Y-71293000D01*
X143901000Y-71292000D01*
X143899000Y-71292000D01*
X143896000Y-71291000D01*
X143894000Y-71291000D01*
X143891000Y-71291000D01*
X143741000Y-71291000D01*
X143738000Y-71291000D01*
X143736000Y-71291000D01*
X143733000Y-71292000D01*
X143731000Y-71292000D01*
X143728000Y-71293000D01*
X143726000Y-71293000D01*
X143723000Y-71294000D01*
X143721000Y-71295000D01*
X143718000Y-71296000D01*
X143716000Y-71298000D01*
X143714000Y-71299000D01*
X143712000Y-71301000D01*
X143710000Y-71302000D01*
X143708000Y-71304000D01*
X143706000Y-71306000D01*
X143704000Y-71308000D01*
X143702000Y-71310000D01*
X143701000Y-71312000D01*
X143699000Y-71314000D01*
X143698000Y-71316000D01*
X143696000Y-71318000D01*
X143695000Y-71321000D01*
X143694000Y-71323000D01*
X143693000Y-71326000D01*
X143693000Y-71328000D01*
X143692000Y-71331000D01*
X143692000Y-71333000D01*
X143691000Y-71336000D01*
X143691000Y-71338000D01*
X143691000Y-71341000D01*
X143691000Y-71691000D01*
X143691000Y-71694000D01*
X143691000Y-71696000D01*
X143692000Y-71699000D01*
X143692000Y-71701000D01*
X143693000Y-71704000D01*
X143693000Y-71706000D01*
X143694000Y-71709000D01*
X143695000Y-71711000D01*
X143696000Y-71714000D01*
X143698000Y-71716000D01*
X143699000Y-71718000D01*
X143701000Y-71720000D01*
X143702000Y-71722000D01*
X143704000Y-71724000D01*
X143706000Y-71726000D01*
X143708000Y-71728000D01*
X143710000Y-71730000D01*
X143712000Y-71731000D01*
X143714000Y-71733000D01*
X143716000Y-71734000D01*
X143718000Y-71736000D01*
X143721000Y-71737000D01*
X143723000Y-71738000D01*
X143726000Y-71739000D01*
X143728000Y-71739000D01*
X143731000Y-71740000D01*
X143733000Y-71740000D01*
X143736000Y-71741000D01*
X143738000Y-71741000D01*
X143741000Y-71741000D01*
X143891000Y-71741000D01*
X143894000Y-71741000D01*
X143896000Y-71741000D01*
X143899000Y-71740000D01*
X143901000Y-71740000D01*
X143904000Y-71739000D01*
X143906000Y-71739000D01*
X143909000Y-71738000D01*
X143911000Y-71737000D01*
X143914000Y-71736000D01*
X143916000Y-71734000D01*
X143918000Y-71733000D01*
X143920000Y-71731000D01*
X143922000Y-71730000D01*
X143924000Y-71728000D01*
X143926000Y-71726000D01*
X143928000Y-71724000D01*
X143930000Y-71722000D01*
X143931000Y-71720000D01*
X143933000Y-71718000D01*
X143934000Y-71716000D01*
X143936000Y-71714000D01*
X143937000Y-71711000D01*
X143938000Y-71709000D01*
X143939000Y-71706000D01*
X143939000Y-71704000D01*
X143940000Y-71701000D01*
X143940000Y-71699000D01*
X143941000Y-71696000D01*
X143941000Y-71694000D01*
X143941000Y-71691000D01*
G36*
X143899000Y-71292000D02*
G01*
X143901000Y-71292000D01*
X143904000Y-71293000D01*
X143906000Y-71293000D01*
X143909000Y-71294000D01*
X143911000Y-71295000D01*
X143914000Y-71296000D01*
X143916000Y-71298000D01*
X143918000Y-71299000D01*
X143920000Y-71301000D01*
X143922000Y-71302000D01*
X143924000Y-71304000D01*
X143926000Y-71306000D01*
X143928000Y-71308000D01*
X143930000Y-71310000D01*
X143931000Y-71312000D01*
X143933000Y-71314000D01*
X143934000Y-71316000D01*
X143936000Y-71318000D01*
X143937000Y-71321000D01*
X143938000Y-71323000D01*
X143939000Y-71326000D01*
X143939000Y-71328000D01*
X143940000Y-71331000D01*
X143940000Y-71333000D01*
X143941000Y-71336000D01*
X143941000Y-71338000D01*
X143941000Y-71341000D01*
X143941000Y-71691000D01*
X143941000Y-71694000D01*
X143941000Y-71696000D01*
X143940000Y-71699000D01*
X143940000Y-71701000D01*
X143939000Y-71704000D01*
X143939000Y-71706000D01*
X143938000Y-71709000D01*
X143937000Y-71711000D01*
X143936000Y-71714000D01*
X143934000Y-71716000D01*
X143933000Y-71718000D01*
X143931000Y-71720000D01*
X143930000Y-71722000D01*
X143928000Y-71724000D01*
X143926000Y-71726000D01*
X143924000Y-71728000D01*
X143922000Y-71730000D01*
X143920000Y-71731000D01*
X143918000Y-71733000D01*
X143916000Y-71734000D01*
X143914000Y-71736000D01*
X143911000Y-71737000D01*
X143909000Y-71738000D01*
X143906000Y-71739000D01*
X143904000Y-71739000D01*
X143901000Y-71740000D01*
X143899000Y-71740000D01*
X143896000Y-71741000D01*
X143894000Y-71741000D01*
X143891000Y-71741000D01*
X143741000Y-71741000D01*
X143738000Y-71741000D01*
X143736000Y-71741000D01*
X143733000Y-71740000D01*
X143731000Y-71740000D01*
X143728000Y-71739000D01*
X143726000Y-71739000D01*
X143723000Y-71738000D01*
X143721000Y-71737000D01*
X143718000Y-71736000D01*
X143716000Y-71734000D01*
X143714000Y-71733000D01*
X143712000Y-71731000D01*
X143710000Y-71730000D01*
X143708000Y-71728000D01*
X143706000Y-71726000D01*
X143704000Y-71724000D01*
X143702000Y-71722000D01*
X143701000Y-71720000D01*
X143699000Y-71718000D01*
X143698000Y-71716000D01*
X143696000Y-71714000D01*
X143695000Y-71711000D01*
X143694000Y-71709000D01*
X143693000Y-71706000D01*
X143693000Y-71704000D01*
X143692000Y-71701000D01*
X143692000Y-71699000D01*
X143691000Y-71696000D01*
X143691000Y-71694000D01*
X143691000Y-71691000D01*
X143691000Y-71341000D01*
X143691000Y-71338000D01*
X143691000Y-71336000D01*
X143692000Y-71333000D01*
X143692000Y-71331000D01*
X143693000Y-71328000D01*
X143693000Y-71326000D01*
X143694000Y-71323000D01*
X143695000Y-71321000D01*
X143696000Y-71318000D01*
X143698000Y-71316000D01*
X143699000Y-71314000D01*
X143701000Y-71312000D01*
X143702000Y-71310000D01*
X143704000Y-71308000D01*
X143706000Y-71306000D01*
X143708000Y-71304000D01*
X143710000Y-71302000D01*
X143712000Y-71301000D01*
X143714000Y-71299000D01*
X143716000Y-71298000D01*
X143718000Y-71296000D01*
X143721000Y-71295000D01*
X143723000Y-71294000D01*
X143726000Y-71293000D01*
X143728000Y-71293000D01*
X143731000Y-71292000D01*
X143733000Y-71292000D01*
X143736000Y-71291000D01*
X143738000Y-71291000D01*
X143741000Y-71291000D01*
X143891000Y-71291000D01*
X143894000Y-71291000D01*
X143896000Y-71291000D01*
X143899000Y-71292000D01*
G37*
X144441000Y-68091000D02*
X144441000Y-68441000D01*
X144441000Y-68444000D01*
X144441000Y-68446000D01*
X144440000Y-68449000D01*
X144440000Y-68451000D01*
X144439000Y-68454000D01*
X144439000Y-68456000D01*
X144438000Y-68459000D01*
X144437000Y-68461000D01*
X144436000Y-68464000D01*
X144434000Y-68466000D01*
X144433000Y-68468000D01*
X144431000Y-68470000D01*
X144430000Y-68472000D01*
X144428000Y-68474000D01*
X144426000Y-68476000D01*
X144424000Y-68478000D01*
X144422000Y-68480000D01*
X144420000Y-68481000D01*
X144418000Y-68483000D01*
X144416000Y-68484000D01*
X144414000Y-68486000D01*
X144411000Y-68487000D01*
X144409000Y-68488000D01*
X144406000Y-68489000D01*
X144404000Y-68489000D01*
X144401000Y-68490000D01*
X144399000Y-68490000D01*
X144396000Y-68491000D01*
X144394000Y-68491000D01*
X144391000Y-68491000D01*
X144241000Y-68491000D01*
X144238000Y-68491000D01*
X144236000Y-68491000D01*
X144233000Y-68490000D01*
X144231000Y-68490000D01*
X144228000Y-68489000D01*
X144226000Y-68489000D01*
X144223000Y-68488000D01*
X144221000Y-68487000D01*
X144218000Y-68486000D01*
X144216000Y-68484000D01*
X144214000Y-68483000D01*
X144212000Y-68481000D01*
X144210000Y-68480000D01*
X144208000Y-68478000D01*
X144206000Y-68476000D01*
X144204000Y-68474000D01*
X144202000Y-68472000D01*
X144201000Y-68470000D01*
X144199000Y-68468000D01*
X144198000Y-68466000D01*
X144196000Y-68464000D01*
X144195000Y-68461000D01*
X144194000Y-68459000D01*
X144193000Y-68456000D01*
X144193000Y-68454000D01*
X144192000Y-68451000D01*
X144192000Y-68449000D01*
X144191000Y-68446000D01*
X144191000Y-68444000D01*
X144191000Y-68441000D01*
X144191000Y-68091000D01*
X144191000Y-68088000D01*
X144191000Y-68086000D01*
X144192000Y-68083000D01*
X144192000Y-68081000D01*
X144193000Y-68078000D01*
X144193000Y-68076000D01*
X144194000Y-68073000D01*
X144195000Y-68071000D01*
X144196000Y-68068000D01*
X144198000Y-68066000D01*
X144199000Y-68064000D01*
X144201000Y-68062000D01*
X144202000Y-68060000D01*
X144204000Y-68058000D01*
X144206000Y-68056000D01*
X144208000Y-68054000D01*
X144210000Y-68052000D01*
X144212000Y-68051000D01*
X144214000Y-68049000D01*
X144216000Y-68048000D01*
X144218000Y-68046000D01*
X144221000Y-68045000D01*
X144223000Y-68044000D01*
X144226000Y-68043000D01*
X144228000Y-68043000D01*
X144231000Y-68042000D01*
X144233000Y-68042000D01*
X144236000Y-68041000D01*
X144238000Y-68041000D01*
X144241000Y-68041000D01*
X144391000Y-68041000D01*
X144394000Y-68041000D01*
X144396000Y-68041000D01*
X144399000Y-68042000D01*
X144401000Y-68042000D01*
X144404000Y-68043000D01*
X144406000Y-68043000D01*
X144409000Y-68044000D01*
X144411000Y-68045000D01*
X144414000Y-68046000D01*
X144416000Y-68048000D01*
X144418000Y-68049000D01*
X144420000Y-68051000D01*
X144422000Y-68052000D01*
X144424000Y-68054000D01*
X144426000Y-68056000D01*
X144428000Y-68058000D01*
X144430000Y-68060000D01*
X144431000Y-68062000D01*
X144433000Y-68064000D01*
X144434000Y-68066000D01*
X144436000Y-68068000D01*
X144437000Y-68071000D01*
X144438000Y-68073000D01*
X144439000Y-68076000D01*
X144439000Y-68078000D01*
X144440000Y-68081000D01*
X144440000Y-68083000D01*
X144441000Y-68086000D01*
X144441000Y-68088000D01*
X144441000Y-68091000D01*
G36*
X144399000Y-68042000D02*
G01*
X144401000Y-68042000D01*
X144404000Y-68043000D01*
X144406000Y-68043000D01*
X144409000Y-68044000D01*
X144411000Y-68045000D01*
X144414000Y-68046000D01*
X144416000Y-68048000D01*
X144418000Y-68049000D01*
X144420000Y-68051000D01*
X144422000Y-68052000D01*
X144424000Y-68054000D01*
X144426000Y-68056000D01*
X144428000Y-68058000D01*
X144430000Y-68060000D01*
X144431000Y-68062000D01*
X144433000Y-68064000D01*
X144434000Y-68066000D01*
X144436000Y-68068000D01*
X144437000Y-68071000D01*
X144438000Y-68073000D01*
X144439000Y-68076000D01*
X144439000Y-68078000D01*
X144440000Y-68081000D01*
X144440000Y-68083000D01*
X144441000Y-68086000D01*
X144441000Y-68088000D01*
X144441000Y-68091000D01*
X144441000Y-68441000D01*
X144441000Y-68444000D01*
X144441000Y-68446000D01*
X144440000Y-68449000D01*
X144440000Y-68451000D01*
X144439000Y-68454000D01*
X144439000Y-68456000D01*
X144438000Y-68459000D01*
X144437000Y-68461000D01*
X144436000Y-68464000D01*
X144434000Y-68466000D01*
X144433000Y-68468000D01*
X144431000Y-68470000D01*
X144430000Y-68472000D01*
X144428000Y-68474000D01*
X144426000Y-68476000D01*
X144424000Y-68478000D01*
X144422000Y-68480000D01*
X144420000Y-68481000D01*
X144418000Y-68483000D01*
X144416000Y-68484000D01*
X144414000Y-68486000D01*
X144411000Y-68487000D01*
X144409000Y-68488000D01*
X144406000Y-68489000D01*
X144404000Y-68489000D01*
X144401000Y-68490000D01*
X144399000Y-68490000D01*
X144396000Y-68491000D01*
X144394000Y-68491000D01*
X144391000Y-68491000D01*
X144241000Y-68491000D01*
X144238000Y-68491000D01*
X144236000Y-68491000D01*
X144233000Y-68490000D01*
X144231000Y-68490000D01*
X144228000Y-68489000D01*
X144226000Y-68489000D01*
X144223000Y-68488000D01*
X144221000Y-68487000D01*
X144218000Y-68486000D01*
X144216000Y-68484000D01*
X144214000Y-68483000D01*
X144212000Y-68481000D01*
X144210000Y-68480000D01*
X144208000Y-68478000D01*
X144206000Y-68476000D01*
X144204000Y-68474000D01*
X144202000Y-68472000D01*
X144201000Y-68470000D01*
X144199000Y-68468000D01*
X144198000Y-68466000D01*
X144196000Y-68464000D01*
X144195000Y-68461000D01*
X144194000Y-68459000D01*
X144193000Y-68456000D01*
X144193000Y-68454000D01*
X144192000Y-68451000D01*
X144192000Y-68449000D01*
X144191000Y-68446000D01*
X144191000Y-68444000D01*
X144191000Y-68441000D01*
X144191000Y-68091000D01*
X144191000Y-68088000D01*
X144191000Y-68086000D01*
X144192000Y-68083000D01*
X144192000Y-68081000D01*
X144193000Y-68078000D01*
X144193000Y-68076000D01*
X144194000Y-68073000D01*
X144195000Y-68071000D01*
X144196000Y-68068000D01*
X144198000Y-68066000D01*
X144199000Y-68064000D01*
X144201000Y-68062000D01*
X144202000Y-68060000D01*
X144204000Y-68058000D01*
X144206000Y-68056000D01*
X144208000Y-68054000D01*
X144210000Y-68052000D01*
X144212000Y-68051000D01*
X144214000Y-68049000D01*
X144216000Y-68048000D01*
X144218000Y-68046000D01*
X144221000Y-68045000D01*
X144223000Y-68044000D01*
X144226000Y-68043000D01*
X144228000Y-68043000D01*
X144231000Y-68042000D01*
X144233000Y-68042000D01*
X144236000Y-68041000D01*
X144238000Y-68041000D01*
X144241000Y-68041000D01*
X144391000Y-68041000D01*
X144394000Y-68041000D01*
X144396000Y-68041000D01*
X144399000Y-68042000D01*
G37*
X144441000Y-71691000D02*
X144441000Y-71341000D01*
X144441000Y-71338000D01*
X144441000Y-71336000D01*
X144440000Y-71333000D01*
X144440000Y-71331000D01*
X144439000Y-71328000D01*
X144439000Y-71326000D01*
X144438000Y-71323000D01*
X144437000Y-71321000D01*
X144436000Y-71318000D01*
X144434000Y-71316000D01*
X144433000Y-71314000D01*
X144431000Y-71312000D01*
X144430000Y-71310000D01*
X144428000Y-71308000D01*
X144426000Y-71306000D01*
X144424000Y-71304000D01*
X144422000Y-71302000D01*
X144420000Y-71301000D01*
X144418000Y-71299000D01*
X144416000Y-71298000D01*
X144414000Y-71296000D01*
X144411000Y-71295000D01*
X144409000Y-71294000D01*
X144406000Y-71293000D01*
X144404000Y-71293000D01*
X144401000Y-71292000D01*
X144399000Y-71292000D01*
X144396000Y-71291000D01*
X144394000Y-71291000D01*
X144391000Y-71291000D01*
X144241000Y-71291000D01*
X144238000Y-71291000D01*
X144236000Y-71291000D01*
X144233000Y-71292000D01*
X144231000Y-71292000D01*
X144228000Y-71293000D01*
X144226000Y-71293000D01*
X144223000Y-71294000D01*
X144221000Y-71295000D01*
X144218000Y-71296000D01*
X144216000Y-71298000D01*
X144214000Y-71299000D01*
X144212000Y-71301000D01*
X144210000Y-71302000D01*
X144208000Y-71304000D01*
X144206000Y-71306000D01*
X144204000Y-71308000D01*
X144202000Y-71310000D01*
X144201000Y-71312000D01*
X144199000Y-71314000D01*
X144198000Y-71316000D01*
X144196000Y-71318000D01*
X144195000Y-71321000D01*
X144194000Y-71323000D01*
X144193000Y-71326000D01*
X144193000Y-71328000D01*
X144192000Y-71331000D01*
X144192000Y-71333000D01*
X144191000Y-71336000D01*
X144191000Y-71338000D01*
X144191000Y-71341000D01*
X144191000Y-71691000D01*
X144191000Y-71694000D01*
X144191000Y-71696000D01*
X144192000Y-71699000D01*
X144192000Y-71701000D01*
X144193000Y-71704000D01*
X144193000Y-71706000D01*
X144194000Y-71709000D01*
X144195000Y-71711000D01*
X144196000Y-71714000D01*
X144198000Y-71716000D01*
X144199000Y-71718000D01*
X144201000Y-71720000D01*
X144202000Y-71722000D01*
X144204000Y-71724000D01*
X144206000Y-71726000D01*
X144208000Y-71728000D01*
X144210000Y-71730000D01*
X144212000Y-71731000D01*
X144214000Y-71733000D01*
X144216000Y-71734000D01*
X144218000Y-71736000D01*
X144221000Y-71737000D01*
X144223000Y-71738000D01*
X144226000Y-71739000D01*
X144228000Y-71739000D01*
X144231000Y-71740000D01*
X144233000Y-71740000D01*
X144236000Y-71741000D01*
X144238000Y-71741000D01*
X144241000Y-71741000D01*
X144391000Y-71741000D01*
X144394000Y-71741000D01*
X144396000Y-71741000D01*
X144399000Y-71740000D01*
X144401000Y-71740000D01*
X144404000Y-71739000D01*
X144406000Y-71739000D01*
X144409000Y-71738000D01*
X144411000Y-71737000D01*
X144414000Y-71736000D01*
X144416000Y-71734000D01*
X144418000Y-71733000D01*
X144420000Y-71731000D01*
X144422000Y-71730000D01*
X144424000Y-71728000D01*
X144426000Y-71726000D01*
X144428000Y-71724000D01*
X144430000Y-71722000D01*
X144431000Y-71720000D01*
X144433000Y-71718000D01*
X144434000Y-71716000D01*
X144436000Y-71714000D01*
X144437000Y-71711000D01*
X144438000Y-71709000D01*
X144439000Y-71706000D01*
X144439000Y-71704000D01*
X144440000Y-71701000D01*
X144440000Y-71699000D01*
X144441000Y-71696000D01*
X144441000Y-71694000D01*
X144441000Y-71691000D01*
G36*
X144399000Y-71292000D02*
G01*
X144401000Y-71292000D01*
X144404000Y-71293000D01*
X144406000Y-71293000D01*
X144409000Y-71294000D01*
X144411000Y-71295000D01*
X144414000Y-71296000D01*
X144416000Y-71298000D01*
X144418000Y-71299000D01*
X144420000Y-71301000D01*
X144422000Y-71302000D01*
X144424000Y-71304000D01*
X144426000Y-71306000D01*
X144428000Y-71308000D01*
X144430000Y-71310000D01*
X144431000Y-71312000D01*
X144433000Y-71314000D01*
X144434000Y-71316000D01*
X144436000Y-71318000D01*
X144437000Y-71321000D01*
X144438000Y-71323000D01*
X144439000Y-71326000D01*
X144439000Y-71328000D01*
X144440000Y-71331000D01*
X144440000Y-71333000D01*
X144441000Y-71336000D01*
X144441000Y-71338000D01*
X144441000Y-71341000D01*
X144441000Y-71691000D01*
X144441000Y-71694000D01*
X144441000Y-71696000D01*
X144440000Y-71699000D01*
X144440000Y-71701000D01*
X144439000Y-71704000D01*
X144439000Y-71706000D01*
X144438000Y-71709000D01*
X144437000Y-71711000D01*
X144436000Y-71714000D01*
X144434000Y-71716000D01*
X144433000Y-71718000D01*
X144431000Y-71720000D01*
X144430000Y-71722000D01*
X144428000Y-71724000D01*
X144426000Y-71726000D01*
X144424000Y-71728000D01*
X144422000Y-71730000D01*
X144420000Y-71731000D01*
X144418000Y-71733000D01*
X144416000Y-71734000D01*
X144414000Y-71736000D01*
X144411000Y-71737000D01*
X144409000Y-71738000D01*
X144406000Y-71739000D01*
X144404000Y-71739000D01*
X144401000Y-71740000D01*
X144399000Y-71740000D01*
X144396000Y-71741000D01*
X144394000Y-71741000D01*
X144391000Y-71741000D01*
X144241000Y-71741000D01*
X144238000Y-71741000D01*
X144236000Y-71741000D01*
X144233000Y-71740000D01*
X144231000Y-71740000D01*
X144228000Y-71739000D01*
X144226000Y-71739000D01*
X144223000Y-71738000D01*
X144221000Y-71737000D01*
X144218000Y-71736000D01*
X144216000Y-71734000D01*
X144214000Y-71733000D01*
X144212000Y-71731000D01*
X144210000Y-71730000D01*
X144208000Y-71728000D01*
X144206000Y-71726000D01*
X144204000Y-71724000D01*
X144202000Y-71722000D01*
X144201000Y-71720000D01*
X144199000Y-71718000D01*
X144198000Y-71716000D01*
X144196000Y-71714000D01*
X144195000Y-71711000D01*
X144194000Y-71709000D01*
X144193000Y-71706000D01*
X144193000Y-71704000D01*
X144192000Y-71701000D01*
X144192000Y-71699000D01*
X144191000Y-71696000D01*
X144191000Y-71694000D01*
X144191000Y-71691000D01*
X144191000Y-71341000D01*
X144191000Y-71338000D01*
X144191000Y-71336000D01*
X144192000Y-71333000D01*
X144192000Y-71331000D01*
X144193000Y-71328000D01*
X144193000Y-71326000D01*
X144194000Y-71323000D01*
X144195000Y-71321000D01*
X144196000Y-71318000D01*
X144198000Y-71316000D01*
X144199000Y-71314000D01*
X144201000Y-71312000D01*
X144202000Y-71310000D01*
X144204000Y-71308000D01*
X144206000Y-71306000D01*
X144208000Y-71304000D01*
X144210000Y-71302000D01*
X144212000Y-71301000D01*
X144214000Y-71299000D01*
X144216000Y-71298000D01*
X144218000Y-71296000D01*
X144221000Y-71295000D01*
X144223000Y-71294000D01*
X144226000Y-71293000D01*
X144228000Y-71293000D01*
X144231000Y-71292000D01*
X144233000Y-71292000D01*
X144236000Y-71291000D01*
X144238000Y-71291000D01*
X144241000Y-71291000D01*
X144391000Y-71291000D01*
X144394000Y-71291000D01*
X144396000Y-71291000D01*
X144399000Y-71292000D01*
G37*
X144673000Y-68740000D02*
X144673000Y-69366000D01*
X144673000Y-69368000D01*
X144673000Y-69371000D01*
X144673000Y-69373000D01*
X144672000Y-69376000D01*
X144672000Y-69378000D01*
X144671000Y-69381000D01*
X144670000Y-69383000D01*
X144669000Y-69386000D01*
X144668000Y-69388000D01*
X144667000Y-69391000D01*
X144665000Y-69393000D01*
X144664000Y-69395000D01*
X144662000Y-69397000D01*
X144661000Y-69399000D01*
X144659000Y-69401000D01*
X144657000Y-69403000D01*
X144655000Y-69404000D01*
X144653000Y-69406000D01*
X144651000Y-69407000D01*
X144649000Y-69409000D01*
X144646000Y-69410000D01*
X144644000Y-69411000D01*
X144641000Y-69412000D01*
X144639000Y-69413000D01*
X144636000Y-69414000D01*
X144634000Y-69414000D01*
X144631000Y-69415000D01*
X144629000Y-69415000D01*
X144626000Y-69415000D01*
X144623000Y-69416000D01*
X142854000Y-69416000D01*
X142851000Y-69415000D01*
X142848000Y-69415000D01*
X142846000Y-69415000D01*
X142843000Y-69414000D01*
X142841000Y-69414000D01*
X142838000Y-69413000D01*
X142836000Y-69412000D01*
X142833000Y-69411000D01*
X142831000Y-69410000D01*
X142828000Y-69409000D01*
X142826000Y-69407000D01*
X142824000Y-69406000D01*
X142822000Y-69404000D01*
X142820000Y-69403000D01*
X142818000Y-69401000D01*
X142816000Y-69399000D01*
X142815000Y-69397000D01*
X142813000Y-69395000D01*
X142812000Y-69393000D01*
X142810000Y-69391000D01*
X142809000Y-69388000D01*
X142808000Y-69386000D01*
X142807000Y-69383000D01*
X142806000Y-69381000D01*
X142805000Y-69378000D01*
X142805000Y-69376000D01*
X142804000Y-69373000D01*
X142804000Y-69371000D01*
X142804000Y-69368000D01*
X142803000Y-69366000D01*
X142803000Y-68740000D01*
X142804000Y-68738000D01*
X142804000Y-68735000D01*
X142804000Y-68733000D01*
X142805000Y-68730000D01*
X142805000Y-68728000D01*
X142806000Y-68725000D01*
X142807000Y-68723000D01*
X142808000Y-68720000D01*
X142809000Y-68718000D01*
X142810000Y-68716000D01*
X142812000Y-68713000D01*
X142813000Y-68711000D01*
X142815000Y-68709000D01*
X142816000Y-68707000D01*
X142818000Y-68705000D01*
X142820000Y-68703000D01*
X142822000Y-68702000D01*
X142824000Y-68700000D01*
X142826000Y-68699000D01*
X142828000Y-68697000D01*
X142831000Y-68696000D01*
X142833000Y-68695000D01*
X142836000Y-68694000D01*
X142838000Y-68693000D01*
X142841000Y-68692000D01*
X142843000Y-68692000D01*
X142846000Y-68691000D01*
X142848000Y-68691000D01*
X142851000Y-68691000D01*
X142854000Y-68691000D01*
X144623000Y-68691000D01*
X144626000Y-68691000D01*
X144629000Y-68691000D01*
X144631000Y-68691000D01*
X144634000Y-68692000D01*
X144636000Y-68692000D01*
X144639000Y-68693000D01*
X144641000Y-68694000D01*
X144644000Y-68695000D01*
X144646000Y-68696000D01*
X144649000Y-68697000D01*
X144651000Y-68699000D01*
X144653000Y-68700000D01*
X144655000Y-68702000D01*
X144657000Y-68703000D01*
X144659000Y-68705000D01*
X144661000Y-68707000D01*
X144662000Y-68709000D01*
X144664000Y-68711000D01*
X144665000Y-68713000D01*
X144667000Y-68716000D01*
X144668000Y-68718000D01*
X144669000Y-68720000D01*
X144670000Y-68723000D01*
X144671000Y-68725000D01*
X144672000Y-68728000D01*
X144672000Y-68730000D01*
X144673000Y-68733000D01*
X144673000Y-68735000D01*
X144673000Y-68738000D01*
X144673000Y-68740000D01*
G36*
X144634000Y-68692000D02*
G01*
X144636000Y-68692000D01*
X144639000Y-68693000D01*
X144641000Y-68694000D01*
X144644000Y-68695000D01*
X144646000Y-68696000D01*
X144649000Y-68697000D01*
X144651000Y-68699000D01*
X144653000Y-68700000D01*
X144655000Y-68702000D01*
X144657000Y-68703000D01*
X144659000Y-68705000D01*
X144661000Y-68707000D01*
X144662000Y-68709000D01*
X144664000Y-68711000D01*
X144665000Y-68713000D01*
X144667000Y-68716000D01*
X144668000Y-68718000D01*
X144669000Y-68720000D01*
X144670000Y-68723000D01*
X144671000Y-68725000D01*
X144672000Y-68728000D01*
X144672000Y-68730000D01*
X144673000Y-68733000D01*
X144673000Y-68735000D01*
X144673000Y-68738000D01*
X144673000Y-68740000D01*
X144673000Y-69366000D01*
X144673000Y-69368000D01*
X144673000Y-69371000D01*
X144673000Y-69373000D01*
X144672000Y-69376000D01*
X144672000Y-69378000D01*
X144671000Y-69381000D01*
X144670000Y-69383000D01*
X144669000Y-69386000D01*
X144668000Y-69388000D01*
X144667000Y-69391000D01*
X144665000Y-69393000D01*
X144664000Y-69395000D01*
X144662000Y-69397000D01*
X144661000Y-69399000D01*
X144659000Y-69401000D01*
X144657000Y-69403000D01*
X144655000Y-69404000D01*
X144653000Y-69406000D01*
X144651000Y-69407000D01*
X144649000Y-69409000D01*
X144646000Y-69410000D01*
X144644000Y-69411000D01*
X144641000Y-69412000D01*
X144639000Y-69413000D01*
X144636000Y-69414000D01*
X144634000Y-69414000D01*
X144631000Y-69415000D01*
X144629000Y-69415000D01*
X144626000Y-69415000D01*
X144623000Y-69416000D01*
X142854000Y-69416000D01*
X142851000Y-69415000D01*
X142848000Y-69415000D01*
X142846000Y-69415000D01*
X142843000Y-69414000D01*
X142841000Y-69414000D01*
X142838000Y-69413000D01*
X142836000Y-69412000D01*
X142833000Y-69411000D01*
X142831000Y-69410000D01*
X142828000Y-69409000D01*
X142826000Y-69407000D01*
X142824000Y-69406000D01*
X142822000Y-69404000D01*
X142820000Y-69403000D01*
X142818000Y-69401000D01*
X142816000Y-69399000D01*
X142815000Y-69397000D01*
X142813000Y-69395000D01*
X142812000Y-69393000D01*
X142810000Y-69391000D01*
X142809000Y-69388000D01*
X142808000Y-69386000D01*
X142807000Y-69383000D01*
X142806000Y-69381000D01*
X142805000Y-69378000D01*
X142805000Y-69376000D01*
X142804000Y-69373000D01*
X142804000Y-69371000D01*
X142804000Y-69368000D01*
X142803000Y-69366000D01*
X142803000Y-68740000D01*
X142804000Y-68738000D01*
X142804000Y-68735000D01*
X142804000Y-68733000D01*
X142805000Y-68730000D01*
X142805000Y-68728000D01*
X142806000Y-68725000D01*
X142807000Y-68723000D01*
X142808000Y-68720000D01*
X142809000Y-68718000D01*
X142810000Y-68716000D01*
X142812000Y-68713000D01*
X142813000Y-68711000D01*
X142815000Y-68709000D01*
X142816000Y-68707000D01*
X142818000Y-68705000D01*
X142820000Y-68703000D01*
X142822000Y-68702000D01*
X142824000Y-68700000D01*
X142826000Y-68699000D01*
X142828000Y-68697000D01*
X142831000Y-68696000D01*
X142833000Y-68695000D01*
X142836000Y-68694000D01*
X142838000Y-68693000D01*
X142841000Y-68692000D01*
X142843000Y-68692000D01*
X142846000Y-68691000D01*
X142848000Y-68691000D01*
X142851000Y-68691000D01*
X142854000Y-68691000D01*
X144623000Y-68691000D01*
X144626000Y-68691000D01*
X144629000Y-68691000D01*
X144631000Y-68691000D01*
X144634000Y-68692000D01*
G37*
X144673000Y-71042000D02*
X144673000Y-70416000D01*
X144673000Y-70414000D01*
X144673000Y-70411000D01*
X144673000Y-70409000D01*
X144672000Y-70406000D01*
X144672000Y-70404000D01*
X144671000Y-70401000D01*
X144670000Y-70399000D01*
X144669000Y-70396000D01*
X144668000Y-70394000D01*
X144667000Y-70391000D01*
X144665000Y-70389000D01*
X144664000Y-70387000D01*
X144662000Y-70385000D01*
X144661000Y-70383000D01*
X144659000Y-70381000D01*
X144657000Y-70379000D01*
X144655000Y-70378000D01*
X144653000Y-70376000D01*
X144651000Y-70375000D01*
X144649000Y-70373000D01*
X144646000Y-70372000D01*
X144644000Y-70371000D01*
X144641000Y-70370000D01*
X144639000Y-70369000D01*
X144636000Y-70368000D01*
X144634000Y-70368000D01*
X144631000Y-70367000D01*
X144629000Y-70367000D01*
X144626000Y-70367000D01*
X144623000Y-70366000D01*
X142854000Y-70366000D01*
X142851000Y-70367000D01*
X142848000Y-70367000D01*
X142846000Y-70367000D01*
X142843000Y-70368000D01*
X142841000Y-70368000D01*
X142838000Y-70369000D01*
X142836000Y-70370000D01*
X142833000Y-70371000D01*
X142831000Y-70372000D01*
X142828000Y-70373000D01*
X142826000Y-70375000D01*
X142824000Y-70376000D01*
X142822000Y-70378000D01*
X142820000Y-70379000D01*
X142818000Y-70381000D01*
X142816000Y-70383000D01*
X142815000Y-70385000D01*
X142813000Y-70387000D01*
X142812000Y-70389000D01*
X142810000Y-70391000D01*
X142809000Y-70394000D01*
X142808000Y-70396000D01*
X142807000Y-70399000D01*
X142806000Y-70401000D01*
X142805000Y-70404000D01*
X142805000Y-70406000D01*
X142804000Y-70409000D01*
X142804000Y-70411000D01*
X142804000Y-70414000D01*
X142803000Y-70416000D01*
X142803000Y-71042000D01*
X142804000Y-71044000D01*
X142804000Y-71047000D01*
X142804000Y-71049000D01*
X142805000Y-71052000D01*
X142805000Y-71054000D01*
X142806000Y-71057000D01*
X142807000Y-71059000D01*
X142808000Y-71062000D01*
X142809000Y-71064000D01*
X142810000Y-71066000D01*
X142812000Y-71069000D01*
X142813000Y-71071000D01*
X142815000Y-71073000D01*
X142816000Y-71075000D01*
X142818000Y-71077000D01*
X142820000Y-71079000D01*
X142822000Y-71080000D01*
X142824000Y-71082000D01*
X142826000Y-71083000D01*
X142828000Y-71085000D01*
X142831000Y-71086000D01*
X142833000Y-71087000D01*
X142836000Y-71088000D01*
X142838000Y-71089000D01*
X142841000Y-71090000D01*
X142843000Y-71090000D01*
X142846000Y-71091000D01*
X142848000Y-71091000D01*
X142851000Y-71091000D01*
X142854000Y-71091000D01*
X144623000Y-71091000D01*
X144626000Y-71091000D01*
X144629000Y-71091000D01*
X144631000Y-71091000D01*
X144634000Y-71090000D01*
X144636000Y-71090000D01*
X144639000Y-71089000D01*
X144641000Y-71088000D01*
X144644000Y-71087000D01*
X144646000Y-71086000D01*
X144649000Y-71085000D01*
X144651000Y-71083000D01*
X144653000Y-71082000D01*
X144655000Y-71080000D01*
X144657000Y-71079000D01*
X144659000Y-71077000D01*
X144661000Y-71075000D01*
X144662000Y-71073000D01*
X144664000Y-71071000D01*
X144665000Y-71069000D01*
X144667000Y-71066000D01*
X144668000Y-71064000D01*
X144669000Y-71062000D01*
X144670000Y-71059000D01*
X144671000Y-71057000D01*
X144672000Y-71054000D01*
X144672000Y-71052000D01*
X144673000Y-71049000D01*
X144673000Y-71047000D01*
X144673000Y-71044000D01*
X144673000Y-71042000D01*
G36*
X144626000Y-70367000D02*
G01*
X144629000Y-70367000D01*
X144631000Y-70367000D01*
X144634000Y-70368000D01*
X144636000Y-70368000D01*
X144639000Y-70369000D01*
X144641000Y-70370000D01*
X144644000Y-70371000D01*
X144646000Y-70372000D01*
X144649000Y-70373000D01*
X144651000Y-70375000D01*
X144653000Y-70376000D01*
X144655000Y-70378000D01*
X144657000Y-70379000D01*
X144659000Y-70381000D01*
X144661000Y-70383000D01*
X144662000Y-70385000D01*
X144664000Y-70387000D01*
X144665000Y-70389000D01*
X144667000Y-70391000D01*
X144668000Y-70394000D01*
X144669000Y-70396000D01*
X144670000Y-70399000D01*
X144671000Y-70401000D01*
X144672000Y-70404000D01*
X144672000Y-70406000D01*
X144673000Y-70409000D01*
X144673000Y-70411000D01*
X144673000Y-70414000D01*
X144673000Y-70416000D01*
X144673000Y-71042000D01*
X144673000Y-71044000D01*
X144673000Y-71047000D01*
X144673000Y-71049000D01*
X144672000Y-71052000D01*
X144672000Y-71054000D01*
X144671000Y-71057000D01*
X144670000Y-71059000D01*
X144669000Y-71062000D01*
X144668000Y-71064000D01*
X144667000Y-71066000D01*
X144665000Y-71069000D01*
X144664000Y-71071000D01*
X144662000Y-71073000D01*
X144661000Y-71075000D01*
X144659000Y-71077000D01*
X144657000Y-71079000D01*
X144655000Y-71080000D01*
X144653000Y-71082000D01*
X144651000Y-71083000D01*
X144649000Y-71085000D01*
X144646000Y-71086000D01*
X144644000Y-71087000D01*
X144641000Y-71088000D01*
X144639000Y-71089000D01*
X144636000Y-71090000D01*
X144634000Y-71090000D01*
X144631000Y-71091000D01*
X144629000Y-71091000D01*
X144626000Y-71091000D01*
X144623000Y-71091000D01*
X142854000Y-71091000D01*
X142851000Y-71091000D01*
X142848000Y-71091000D01*
X142846000Y-71091000D01*
X142843000Y-71090000D01*
X142841000Y-71090000D01*
X142838000Y-71089000D01*
X142836000Y-71088000D01*
X142833000Y-71087000D01*
X142831000Y-71086000D01*
X142828000Y-71085000D01*
X142826000Y-71083000D01*
X142824000Y-71082000D01*
X142822000Y-71080000D01*
X142820000Y-71079000D01*
X142818000Y-71077000D01*
X142816000Y-71075000D01*
X142815000Y-71073000D01*
X142813000Y-71071000D01*
X142812000Y-71069000D01*
X142810000Y-71066000D01*
X142809000Y-71064000D01*
X142808000Y-71062000D01*
X142807000Y-71059000D01*
X142806000Y-71057000D01*
X142805000Y-71054000D01*
X142805000Y-71052000D01*
X142804000Y-71049000D01*
X142804000Y-71047000D01*
X142804000Y-71044000D01*
X142803000Y-71042000D01*
X142803000Y-70416000D01*
X142804000Y-70414000D01*
X142804000Y-70411000D01*
X142804000Y-70409000D01*
X142805000Y-70406000D01*
X142805000Y-70404000D01*
X142806000Y-70401000D01*
X142807000Y-70399000D01*
X142808000Y-70396000D01*
X142809000Y-70394000D01*
X142810000Y-70391000D01*
X142812000Y-70389000D01*
X142813000Y-70387000D01*
X142815000Y-70385000D01*
X142816000Y-70383000D01*
X142818000Y-70381000D01*
X142820000Y-70379000D01*
X142822000Y-70378000D01*
X142824000Y-70376000D01*
X142826000Y-70375000D01*
X142828000Y-70373000D01*
X142831000Y-70372000D01*
X142833000Y-70371000D01*
X142836000Y-70370000D01*
X142838000Y-70369000D01*
X142841000Y-70368000D01*
X142843000Y-70368000D01*
X142846000Y-70367000D01*
X142848000Y-70367000D01*
X142851000Y-70367000D01*
X142854000Y-70366000D01*
X144623000Y-70366000D01*
X144626000Y-70367000D01*
G37*
X140251000Y-68916000D02*
X140451000Y-68916000D01*
X140456000Y-68916000D01*
X140461000Y-68915000D01*
X140467000Y-68915000D01*
X140472000Y-68914000D01*
X140477000Y-68913000D01*
X140482000Y-68911000D01*
X140487000Y-68909000D01*
X140492000Y-68907000D01*
X140496000Y-68905000D01*
X140501000Y-68903000D01*
X140505000Y-68900000D01*
X140510000Y-68897000D01*
X140514000Y-68894000D01*
X140518000Y-68890000D01*
X140522000Y-68887000D01*
X140525000Y-68883000D01*
X140529000Y-68879000D01*
X140532000Y-68875000D01*
X140535000Y-68870000D01*
X140538000Y-68866000D01*
X140540000Y-68861000D01*
X140542000Y-68857000D01*
X140544000Y-68852000D01*
X140546000Y-68847000D01*
X140548000Y-68842000D01*
X140549000Y-68837000D01*
X140550000Y-68832000D01*
X140550000Y-68826000D01*
X140551000Y-68821000D01*
X140551000Y-68816000D01*
X140551000Y-68091000D01*
X140551000Y-68088000D01*
X140551000Y-68086000D01*
X140552000Y-68083000D01*
X140552000Y-68081000D01*
X140553000Y-68078000D01*
X140553000Y-68076000D01*
X140554000Y-68073000D01*
X140555000Y-68071000D01*
X140556000Y-68068000D01*
X140558000Y-68066000D01*
X140559000Y-68064000D01*
X140561000Y-68062000D01*
X140562000Y-68060000D01*
X140564000Y-68058000D01*
X140566000Y-68056000D01*
X140568000Y-68054000D01*
X140570000Y-68052000D01*
X140572000Y-68051000D01*
X140574000Y-68049000D01*
X140576000Y-68048000D01*
X140578000Y-68046000D01*
X140581000Y-68045000D01*
X140583000Y-68044000D01*
X140586000Y-68043000D01*
X140588000Y-68043000D01*
X140591000Y-68042000D01*
X140593000Y-68042000D01*
X140596000Y-68041000D01*
X140598000Y-68041000D01*
X140601000Y-68041000D01*
X140751000Y-68041000D01*
X140754000Y-68041000D01*
X140756000Y-68041000D01*
X140759000Y-68042000D01*
X140761000Y-68042000D01*
X140764000Y-68043000D01*
X140766000Y-68043000D01*
X140769000Y-68044000D01*
X140771000Y-68045000D01*
X140774000Y-68046000D01*
X140776000Y-68048000D01*
X140778000Y-68049000D01*
X140780000Y-68051000D01*
X140782000Y-68052000D01*
X140784000Y-68054000D01*
X140786000Y-68056000D01*
X140788000Y-68058000D01*
X140790000Y-68060000D01*
X140791000Y-68062000D01*
X140793000Y-68064000D01*
X140794000Y-68066000D01*
X140796000Y-68068000D01*
X140797000Y-68071000D01*
X140798000Y-68073000D01*
X140799000Y-68076000D01*
X140799000Y-68078000D01*
X140800000Y-68081000D01*
X140800000Y-68083000D01*
X140801000Y-68086000D01*
X140801000Y-68088000D01*
X140801000Y-68091000D01*
X140801000Y-69216000D01*
X140801000Y-69219000D01*
X140801000Y-69221000D01*
X140800000Y-69224000D01*
X140800000Y-69226000D01*
X140799000Y-69229000D01*
X140799000Y-69231000D01*
X140798000Y-69234000D01*
X140797000Y-69236000D01*
X140796000Y-69239000D01*
X140794000Y-69241000D01*
X140793000Y-69243000D01*
X140791000Y-69245000D01*
X140790000Y-69247000D01*
X140788000Y-69249000D01*
X140786000Y-69251000D01*
X140784000Y-69253000D01*
X140782000Y-69255000D01*
X140780000Y-69256000D01*
X140778000Y-69258000D01*
X140776000Y-69259000D01*
X140774000Y-69261000D01*
X140771000Y-69262000D01*
X140769000Y-69263000D01*
X140766000Y-69264000D01*
X140764000Y-69264000D01*
X140761000Y-69265000D01*
X140759000Y-69265000D01*
X140756000Y-69266000D01*
X140754000Y-69266000D01*
X140751000Y-69266000D01*
X140251000Y-69266000D01*
X140248000Y-69266000D01*
X140246000Y-69266000D01*
X140243000Y-69265000D01*
X140241000Y-69265000D01*
X140238000Y-69264000D01*
X140236000Y-69264000D01*
X140233000Y-69263000D01*
X140231000Y-69262000D01*
X140228000Y-69261000D01*
X140226000Y-69259000D01*
X140224000Y-69258000D01*
X140222000Y-69256000D01*
X140220000Y-69255000D01*
X140218000Y-69253000D01*
X140216000Y-69251000D01*
X140214000Y-69249000D01*
X140212000Y-69247000D01*
X140211000Y-69245000D01*
X140209000Y-69243000D01*
X140208000Y-69241000D01*
X140206000Y-69239000D01*
X140205000Y-69236000D01*
X140204000Y-69234000D01*
X140203000Y-69231000D01*
X140203000Y-69229000D01*
X140202000Y-69226000D01*
X140202000Y-69224000D01*
X140201000Y-69221000D01*
X140201000Y-69219000D01*
X140201000Y-69216000D01*
X140201000Y-68966000D01*
X140201000Y-68963000D01*
X140201000Y-68961000D01*
X140202000Y-68958000D01*
X140202000Y-68956000D01*
X140203000Y-68953000D01*
X140203000Y-68951000D01*
X140204000Y-68948000D01*
X140205000Y-68946000D01*
X140206000Y-68943000D01*
X140208000Y-68941000D01*
X140209000Y-68939000D01*
X140211000Y-68937000D01*
X140212000Y-68935000D01*
X140214000Y-68933000D01*
X140216000Y-68931000D01*
X140218000Y-68929000D01*
X140220000Y-68927000D01*
X140222000Y-68926000D01*
X140224000Y-68924000D01*
X140226000Y-68923000D01*
X140228000Y-68921000D01*
X140231000Y-68920000D01*
X140233000Y-68919000D01*
X140236000Y-68918000D01*
X140238000Y-68918000D01*
X140241000Y-68917000D01*
X140243000Y-68917000D01*
X140246000Y-68916000D01*
X140248000Y-68916000D01*
X140251000Y-68916000D01*
G36*
X140759000Y-68042000D02*
G01*
X140761000Y-68042000D01*
X140764000Y-68043000D01*
X140766000Y-68043000D01*
X140769000Y-68044000D01*
X140771000Y-68045000D01*
X140774000Y-68046000D01*
X140776000Y-68048000D01*
X140778000Y-68049000D01*
X140780000Y-68051000D01*
X140782000Y-68052000D01*
X140784000Y-68054000D01*
X140786000Y-68056000D01*
X140788000Y-68058000D01*
X140790000Y-68060000D01*
X140791000Y-68062000D01*
X140793000Y-68064000D01*
X140794000Y-68066000D01*
X140796000Y-68068000D01*
X140797000Y-68071000D01*
X140798000Y-68073000D01*
X140799000Y-68076000D01*
X140799000Y-68078000D01*
X140800000Y-68081000D01*
X140800000Y-68083000D01*
X140801000Y-68086000D01*
X140801000Y-68088000D01*
X140801000Y-68091000D01*
X140801000Y-69216000D01*
X140801000Y-69219000D01*
X140801000Y-69221000D01*
X140800000Y-69224000D01*
X140800000Y-69226000D01*
X140799000Y-69229000D01*
X140799000Y-69231000D01*
X140798000Y-69234000D01*
X140797000Y-69236000D01*
X140796000Y-69239000D01*
X140794000Y-69241000D01*
X140793000Y-69243000D01*
X140791000Y-69245000D01*
X140790000Y-69247000D01*
X140788000Y-69249000D01*
X140786000Y-69251000D01*
X140784000Y-69253000D01*
X140782000Y-69255000D01*
X140780000Y-69256000D01*
X140778000Y-69258000D01*
X140776000Y-69259000D01*
X140774000Y-69261000D01*
X140771000Y-69262000D01*
X140769000Y-69263000D01*
X140766000Y-69264000D01*
X140764000Y-69264000D01*
X140761000Y-69265000D01*
X140759000Y-69265000D01*
X140756000Y-69266000D01*
X140754000Y-69266000D01*
X140751000Y-69266000D01*
X140251000Y-69266000D01*
X140248000Y-69266000D01*
X140246000Y-69266000D01*
X140243000Y-69265000D01*
X140241000Y-69265000D01*
X140238000Y-69264000D01*
X140236000Y-69264000D01*
X140233000Y-69263000D01*
X140231000Y-69262000D01*
X140228000Y-69261000D01*
X140226000Y-69259000D01*
X140224000Y-69258000D01*
X140222000Y-69256000D01*
X140220000Y-69255000D01*
X140218000Y-69253000D01*
X140216000Y-69251000D01*
X140214000Y-69249000D01*
X140212000Y-69247000D01*
X140211000Y-69245000D01*
X140209000Y-69243000D01*
X140208000Y-69241000D01*
X140206000Y-69239000D01*
X140205000Y-69236000D01*
X140204000Y-69234000D01*
X140203000Y-69231000D01*
X140203000Y-69229000D01*
X140202000Y-69226000D01*
X140202000Y-69224000D01*
X140201000Y-69221000D01*
X140201000Y-69219000D01*
X140201000Y-69216000D01*
X140201000Y-68966000D01*
X140201000Y-68963000D01*
X140201000Y-68961000D01*
X140202000Y-68958000D01*
X140202000Y-68956000D01*
X140203000Y-68953000D01*
X140203000Y-68951000D01*
X140204000Y-68948000D01*
X140205000Y-68946000D01*
X140206000Y-68943000D01*
X140208000Y-68941000D01*
X140209000Y-68939000D01*
X140211000Y-68937000D01*
X140212000Y-68935000D01*
X140214000Y-68933000D01*
X140216000Y-68931000D01*
X140218000Y-68929000D01*
X140220000Y-68927000D01*
X140222000Y-68926000D01*
X140224000Y-68924000D01*
X140226000Y-68923000D01*
X140228000Y-68921000D01*
X140231000Y-68920000D01*
X140233000Y-68919000D01*
X140236000Y-68918000D01*
X140238000Y-68918000D01*
X140241000Y-68917000D01*
X140243000Y-68917000D01*
X140246000Y-68916000D01*
X140248000Y-68916000D01*
X140251000Y-68916000D01*
X140451000Y-68916000D01*
X140456000Y-68916000D01*
X140461000Y-68915000D01*
X140467000Y-68915000D01*
X140472000Y-68914000D01*
X140477000Y-68913000D01*
X140482000Y-68911000D01*
X140487000Y-68909000D01*
X140492000Y-68907000D01*
X140496000Y-68905000D01*
X140501000Y-68903000D01*
X140505000Y-68900000D01*
X140510000Y-68897000D01*
X140514000Y-68894000D01*
X140518000Y-68890000D01*
X140522000Y-68887000D01*
X140525000Y-68883000D01*
X140529000Y-68879000D01*
X140532000Y-68875000D01*
X140535000Y-68870000D01*
X140538000Y-68866000D01*
X140540000Y-68861000D01*
X140542000Y-68857000D01*
X140544000Y-68852000D01*
X140546000Y-68847000D01*
X140548000Y-68842000D01*
X140549000Y-68837000D01*
X140550000Y-68832000D01*
X140550000Y-68826000D01*
X140551000Y-68821000D01*
X140551000Y-68816000D01*
X140551000Y-68091000D01*
X140551000Y-68088000D01*
X140551000Y-68086000D01*
X140552000Y-68083000D01*
X140552000Y-68081000D01*
X140553000Y-68078000D01*
X140553000Y-68076000D01*
X140554000Y-68073000D01*
X140555000Y-68071000D01*
X140556000Y-68068000D01*
X140558000Y-68066000D01*
X140559000Y-68064000D01*
X140561000Y-68062000D01*
X140562000Y-68060000D01*
X140564000Y-68058000D01*
X140566000Y-68056000D01*
X140568000Y-68054000D01*
X140570000Y-68052000D01*
X140572000Y-68051000D01*
X140574000Y-68049000D01*
X140576000Y-68048000D01*
X140578000Y-68046000D01*
X140581000Y-68045000D01*
X140583000Y-68044000D01*
X140586000Y-68043000D01*
X140588000Y-68043000D01*
X140591000Y-68042000D01*
X140593000Y-68042000D01*
X140596000Y-68041000D01*
X140598000Y-68041000D01*
X140601000Y-68041000D01*
X140751000Y-68041000D01*
X140754000Y-68041000D01*
X140756000Y-68041000D01*
X140759000Y-68042000D01*
G37*
X140251000Y-70866000D02*
X140451000Y-70866000D01*
X140456000Y-70866000D01*
X140461000Y-70867000D01*
X140467000Y-70867000D01*
X140472000Y-70868000D01*
X140477000Y-70869000D01*
X140482000Y-70871000D01*
X140487000Y-70873000D01*
X140492000Y-70875000D01*
X140496000Y-70877000D01*
X140501000Y-70879000D01*
X140505000Y-70882000D01*
X140510000Y-70885000D01*
X140514000Y-70888000D01*
X140518000Y-70892000D01*
X140522000Y-70895000D01*
X140525000Y-70899000D01*
X140529000Y-70903000D01*
X140532000Y-70907000D01*
X140535000Y-70912000D01*
X140538000Y-70916000D01*
X140540000Y-70921000D01*
X140542000Y-70925000D01*
X140544000Y-70930000D01*
X140546000Y-70935000D01*
X140548000Y-70940000D01*
X140549000Y-70945000D01*
X140550000Y-70950000D01*
X140550000Y-70956000D01*
X140551000Y-70961000D01*
X140551000Y-70966000D01*
X140551000Y-71691000D01*
X140551000Y-71694000D01*
X140551000Y-71696000D01*
X140552000Y-71699000D01*
X140552000Y-71701000D01*
X140553000Y-71704000D01*
X140553000Y-71706000D01*
X140554000Y-71709000D01*
X140555000Y-71711000D01*
X140556000Y-71714000D01*
X140558000Y-71716000D01*
X140559000Y-71718000D01*
X140561000Y-71720000D01*
X140562000Y-71722000D01*
X140564000Y-71724000D01*
X140566000Y-71726000D01*
X140568000Y-71728000D01*
X140570000Y-71730000D01*
X140572000Y-71731000D01*
X140574000Y-71733000D01*
X140576000Y-71734000D01*
X140578000Y-71736000D01*
X140581000Y-71737000D01*
X140583000Y-71738000D01*
X140586000Y-71739000D01*
X140588000Y-71739000D01*
X140591000Y-71740000D01*
X140593000Y-71740000D01*
X140596000Y-71741000D01*
X140598000Y-71741000D01*
X140601000Y-71741000D01*
X140751000Y-71741000D01*
X140754000Y-71741000D01*
X140756000Y-71741000D01*
X140759000Y-71740000D01*
X140761000Y-71740000D01*
X140764000Y-71739000D01*
X140766000Y-71739000D01*
X140769000Y-71738000D01*
X140771000Y-71737000D01*
X140774000Y-71736000D01*
X140776000Y-71734000D01*
X140778000Y-71733000D01*
X140780000Y-71731000D01*
X140782000Y-71730000D01*
X140784000Y-71728000D01*
X140786000Y-71726000D01*
X140788000Y-71724000D01*
X140790000Y-71722000D01*
X140791000Y-71720000D01*
X140793000Y-71718000D01*
X140794000Y-71716000D01*
X140796000Y-71714000D01*
X140797000Y-71711000D01*
X140798000Y-71709000D01*
X140799000Y-71706000D01*
X140799000Y-71704000D01*
X140800000Y-71701000D01*
X140800000Y-71699000D01*
X140801000Y-71696000D01*
X140801000Y-71694000D01*
X140801000Y-71691000D01*
X140801000Y-70566000D01*
X140801000Y-70563000D01*
X140801000Y-70561000D01*
X140800000Y-70558000D01*
X140800000Y-70556000D01*
X140799000Y-70553000D01*
X140799000Y-70551000D01*
X140798000Y-70548000D01*
X140797000Y-70546000D01*
X140796000Y-70543000D01*
X140794000Y-70541000D01*
X140793000Y-70539000D01*
X140791000Y-70537000D01*
X140790000Y-70535000D01*
X140788000Y-70533000D01*
X140786000Y-70531000D01*
X140784000Y-70529000D01*
X140782000Y-70527000D01*
X140780000Y-70526000D01*
X140778000Y-70524000D01*
X140776000Y-70523000D01*
X140774000Y-70521000D01*
X140771000Y-70520000D01*
X140769000Y-70519000D01*
X140766000Y-70518000D01*
X140764000Y-70518000D01*
X140761000Y-70517000D01*
X140759000Y-70517000D01*
X140756000Y-70516000D01*
X140754000Y-70516000D01*
X140751000Y-70516000D01*
X140251000Y-70516000D01*
X140248000Y-70516000D01*
X140246000Y-70516000D01*
X140243000Y-70517000D01*
X140241000Y-70517000D01*
X140238000Y-70518000D01*
X140236000Y-70518000D01*
X140233000Y-70519000D01*
X140231000Y-70520000D01*
X140228000Y-70521000D01*
X140226000Y-70523000D01*
X140224000Y-70524000D01*
X140222000Y-70526000D01*
X140220000Y-70527000D01*
X140218000Y-70529000D01*
X140216000Y-70531000D01*
X140214000Y-70533000D01*
X140212000Y-70535000D01*
X140211000Y-70537000D01*
X140209000Y-70539000D01*
X140208000Y-70541000D01*
X140206000Y-70543000D01*
X140205000Y-70546000D01*
X140204000Y-70548000D01*
X140203000Y-70551000D01*
X140203000Y-70553000D01*
X140202000Y-70556000D01*
X140202000Y-70558000D01*
X140201000Y-70561000D01*
X140201000Y-70563000D01*
X140201000Y-70566000D01*
X140201000Y-70816000D01*
X140201000Y-70819000D01*
X140201000Y-70821000D01*
X140202000Y-70824000D01*
X140202000Y-70826000D01*
X140203000Y-70829000D01*
X140203000Y-70831000D01*
X140204000Y-70834000D01*
X140205000Y-70836000D01*
X140206000Y-70839000D01*
X140208000Y-70841000D01*
X140209000Y-70843000D01*
X140211000Y-70845000D01*
X140212000Y-70847000D01*
X140214000Y-70849000D01*
X140216000Y-70851000D01*
X140218000Y-70853000D01*
X140220000Y-70855000D01*
X140222000Y-70856000D01*
X140224000Y-70858000D01*
X140226000Y-70859000D01*
X140228000Y-70861000D01*
X140231000Y-70862000D01*
X140233000Y-70863000D01*
X140236000Y-70864000D01*
X140238000Y-70864000D01*
X140241000Y-70865000D01*
X140243000Y-70865000D01*
X140246000Y-70866000D01*
X140248000Y-70866000D01*
X140251000Y-70866000D01*
G36*
X140759000Y-70517000D02*
G01*
X140761000Y-70517000D01*
X140764000Y-70518000D01*
X140766000Y-70518000D01*
X140769000Y-70519000D01*
X140771000Y-70520000D01*
X140774000Y-70521000D01*
X140776000Y-70523000D01*
X140778000Y-70524000D01*
X140780000Y-70526000D01*
X140782000Y-70527000D01*
X140784000Y-70529000D01*
X140786000Y-70531000D01*
X140788000Y-70533000D01*
X140790000Y-70535000D01*
X140791000Y-70537000D01*
X140793000Y-70539000D01*
X140794000Y-70541000D01*
X140796000Y-70543000D01*
X140797000Y-70546000D01*
X140798000Y-70548000D01*
X140799000Y-70551000D01*
X140799000Y-70553000D01*
X140800000Y-70556000D01*
X140800000Y-70558000D01*
X140801000Y-70561000D01*
X140801000Y-70563000D01*
X140801000Y-70566000D01*
X140801000Y-71691000D01*
X140801000Y-71694000D01*
X140801000Y-71696000D01*
X140800000Y-71699000D01*
X140800000Y-71701000D01*
X140799000Y-71704000D01*
X140799000Y-71706000D01*
X140798000Y-71709000D01*
X140797000Y-71711000D01*
X140796000Y-71714000D01*
X140794000Y-71716000D01*
X140793000Y-71718000D01*
X140791000Y-71720000D01*
X140790000Y-71722000D01*
X140788000Y-71724000D01*
X140786000Y-71726000D01*
X140784000Y-71728000D01*
X140782000Y-71730000D01*
X140780000Y-71731000D01*
X140778000Y-71733000D01*
X140776000Y-71734000D01*
X140774000Y-71736000D01*
X140771000Y-71737000D01*
X140769000Y-71738000D01*
X140766000Y-71739000D01*
X140764000Y-71739000D01*
X140761000Y-71740000D01*
X140759000Y-71740000D01*
X140756000Y-71741000D01*
X140754000Y-71741000D01*
X140751000Y-71741000D01*
X140601000Y-71741000D01*
X140598000Y-71741000D01*
X140596000Y-71741000D01*
X140593000Y-71740000D01*
X140591000Y-71740000D01*
X140588000Y-71739000D01*
X140586000Y-71739000D01*
X140583000Y-71738000D01*
X140581000Y-71737000D01*
X140578000Y-71736000D01*
X140576000Y-71734000D01*
X140574000Y-71733000D01*
X140572000Y-71731000D01*
X140570000Y-71730000D01*
X140568000Y-71728000D01*
X140566000Y-71726000D01*
X140564000Y-71724000D01*
X140562000Y-71722000D01*
X140561000Y-71720000D01*
X140559000Y-71718000D01*
X140558000Y-71716000D01*
X140556000Y-71714000D01*
X140555000Y-71711000D01*
X140554000Y-71709000D01*
X140553000Y-71706000D01*
X140553000Y-71704000D01*
X140552000Y-71701000D01*
X140552000Y-71699000D01*
X140551000Y-71696000D01*
X140551000Y-71694000D01*
X140551000Y-71691000D01*
X140551000Y-70966000D01*
X140551000Y-70961000D01*
X140550000Y-70956000D01*
X140550000Y-70950000D01*
X140549000Y-70945000D01*
X140548000Y-70940000D01*
X140546000Y-70935000D01*
X140544000Y-70930000D01*
X140542000Y-70925000D01*
X140540000Y-70921000D01*
X140538000Y-70916000D01*
X140535000Y-70912000D01*
X140532000Y-70907000D01*
X140529000Y-70903000D01*
X140525000Y-70899000D01*
X140522000Y-70895000D01*
X140518000Y-70892000D01*
X140514000Y-70888000D01*
X140510000Y-70885000D01*
X140505000Y-70882000D01*
X140501000Y-70879000D01*
X140496000Y-70877000D01*
X140492000Y-70875000D01*
X140487000Y-70873000D01*
X140482000Y-70871000D01*
X140477000Y-70869000D01*
X140472000Y-70868000D01*
X140467000Y-70867000D01*
X140461000Y-70867000D01*
X140456000Y-70866000D01*
X140451000Y-70866000D01*
X140251000Y-70866000D01*
X140248000Y-70866000D01*
X140246000Y-70866000D01*
X140243000Y-70865000D01*
X140241000Y-70865000D01*
X140238000Y-70864000D01*
X140236000Y-70864000D01*
X140233000Y-70863000D01*
X140231000Y-70862000D01*
X140228000Y-70861000D01*
X140226000Y-70859000D01*
X140224000Y-70858000D01*
X140222000Y-70856000D01*
X140220000Y-70855000D01*
X140218000Y-70853000D01*
X140216000Y-70851000D01*
X140214000Y-70849000D01*
X140212000Y-70847000D01*
X140211000Y-70845000D01*
X140209000Y-70843000D01*
X140208000Y-70841000D01*
X140206000Y-70839000D01*
X140205000Y-70836000D01*
X140204000Y-70834000D01*
X140203000Y-70831000D01*
X140203000Y-70829000D01*
X140202000Y-70826000D01*
X140202000Y-70824000D01*
X140201000Y-70821000D01*
X140201000Y-70819000D01*
X140201000Y-70816000D01*
X140201000Y-70566000D01*
X140201000Y-70563000D01*
X140201000Y-70561000D01*
X140202000Y-70558000D01*
X140202000Y-70556000D01*
X140203000Y-70553000D01*
X140203000Y-70551000D01*
X140204000Y-70548000D01*
X140205000Y-70546000D01*
X140206000Y-70543000D01*
X140208000Y-70541000D01*
X140209000Y-70539000D01*
X140211000Y-70537000D01*
X140212000Y-70535000D01*
X140214000Y-70533000D01*
X140216000Y-70531000D01*
X140218000Y-70529000D01*
X140220000Y-70527000D01*
X140222000Y-70526000D01*
X140224000Y-70524000D01*
X140226000Y-70523000D01*
X140228000Y-70521000D01*
X140231000Y-70520000D01*
X140233000Y-70519000D01*
X140236000Y-70518000D01*
X140238000Y-70518000D01*
X140241000Y-70517000D01*
X140243000Y-70517000D01*
X140246000Y-70516000D01*
X140248000Y-70516000D01*
X140251000Y-70516000D01*
X140751000Y-70516000D01*
X140754000Y-70516000D01*
X140756000Y-70516000D01*
X140759000Y-70517000D01*
G37*
X141101000Y-69241000D02*
X141751000Y-69241000D01*
X141754000Y-69241000D01*
X141756000Y-69241000D01*
X141759000Y-69240000D01*
X141761000Y-69240000D01*
X141764000Y-69239000D01*
X141766000Y-69239000D01*
X141769000Y-69238000D01*
X141771000Y-69237000D01*
X141774000Y-69236000D01*
X141776000Y-69234000D01*
X141778000Y-69233000D01*
X141780000Y-69231000D01*
X141782000Y-69230000D01*
X141784000Y-69228000D01*
X141786000Y-69226000D01*
X141788000Y-69224000D01*
X141790000Y-69222000D01*
X141791000Y-69220000D01*
X141793000Y-69218000D01*
X141794000Y-69216000D01*
X141796000Y-69214000D01*
X141797000Y-69211000D01*
X141798000Y-69209000D01*
X141799000Y-69206000D01*
X141799000Y-69204000D01*
X141800000Y-69201000D01*
X141800000Y-69199000D01*
X141801000Y-69196000D01*
X141801000Y-69194000D01*
X141801000Y-69191000D01*
X141801000Y-68091000D01*
X141801000Y-68088000D01*
X141801000Y-68086000D01*
X141800000Y-68083000D01*
X141800000Y-68081000D01*
X141799000Y-68078000D01*
X141799000Y-68076000D01*
X141798000Y-68073000D01*
X141797000Y-68071000D01*
X141796000Y-68068000D01*
X141794000Y-68066000D01*
X141793000Y-68064000D01*
X141791000Y-68062000D01*
X141790000Y-68060000D01*
X141788000Y-68058000D01*
X141786000Y-68056000D01*
X141784000Y-68054000D01*
X141782000Y-68052000D01*
X141780000Y-68051000D01*
X141778000Y-68049000D01*
X141776000Y-68048000D01*
X141774000Y-68046000D01*
X141771000Y-68045000D01*
X141769000Y-68044000D01*
X141766000Y-68043000D01*
X141764000Y-68043000D01*
X141761000Y-68042000D01*
X141759000Y-68042000D01*
X141756000Y-68041000D01*
X141754000Y-68041000D01*
X141751000Y-68041000D01*
X141601000Y-68041000D01*
X141598000Y-68041000D01*
X141596000Y-68041000D01*
X141593000Y-68042000D01*
X141591000Y-68042000D01*
X141588000Y-68043000D01*
X141586000Y-68043000D01*
X141583000Y-68044000D01*
X141581000Y-68045000D01*
X141578000Y-68046000D01*
X141576000Y-68048000D01*
X141574000Y-68049000D01*
X141572000Y-68051000D01*
X141570000Y-68052000D01*
X141568000Y-68054000D01*
X141566000Y-68056000D01*
X141564000Y-68058000D01*
X141562000Y-68060000D01*
X141561000Y-68062000D01*
X141559000Y-68064000D01*
X141558000Y-68066000D01*
X141556000Y-68068000D01*
X141555000Y-68071000D01*
X141554000Y-68073000D01*
X141553000Y-68076000D01*
X141553000Y-68078000D01*
X141552000Y-68081000D01*
X141552000Y-68083000D01*
X141551000Y-68086000D01*
X141551000Y-68088000D01*
X141551000Y-68091000D01*
X141551000Y-68391000D01*
X141551000Y-68394000D01*
X141551000Y-68396000D01*
X141550000Y-68399000D01*
X141550000Y-68401000D01*
X141549000Y-68404000D01*
X141549000Y-68406000D01*
X141548000Y-68409000D01*
X141547000Y-68411000D01*
X141546000Y-68414000D01*
X141544000Y-68416000D01*
X141543000Y-68418000D01*
X141541000Y-68420000D01*
X141540000Y-68422000D01*
X141538000Y-68424000D01*
X141536000Y-68426000D01*
X141534000Y-68428000D01*
X141532000Y-68430000D01*
X141530000Y-68431000D01*
X141528000Y-68433000D01*
X141526000Y-68434000D01*
X141524000Y-68436000D01*
X141521000Y-68437000D01*
X141519000Y-68438000D01*
X141516000Y-68439000D01*
X141514000Y-68439000D01*
X141511000Y-68440000D01*
X141509000Y-68440000D01*
X141506000Y-68441000D01*
X141504000Y-68441000D01*
X141501000Y-68441000D01*
X141351000Y-68441000D01*
X141348000Y-68441000D01*
X141346000Y-68441000D01*
X141343000Y-68440000D01*
X141341000Y-68440000D01*
X141338000Y-68439000D01*
X141336000Y-68439000D01*
X141333000Y-68438000D01*
X141331000Y-68437000D01*
X141328000Y-68436000D01*
X141326000Y-68434000D01*
X141324000Y-68433000D01*
X141322000Y-68431000D01*
X141320000Y-68430000D01*
X141318000Y-68428000D01*
X141316000Y-68426000D01*
X141314000Y-68424000D01*
X141312000Y-68422000D01*
X141311000Y-68420000D01*
X141309000Y-68418000D01*
X141308000Y-68416000D01*
X141306000Y-68414000D01*
X141305000Y-68411000D01*
X141304000Y-68409000D01*
X141303000Y-68406000D01*
X141303000Y-68404000D01*
X141302000Y-68401000D01*
X141302000Y-68399000D01*
X141301000Y-68396000D01*
X141301000Y-68394000D01*
X141301000Y-68391000D01*
X141301000Y-68091000D01*
X141301000Y-68088000D01*
X141301000Y-68086000D01*
X141300000Y-68083000D01*
X141300000Y-68081000D01*
X141299000Y-68078000D01*
X141299000Y-68076000D01*
X141298000Y-68073000D01*
X141297000Y-68071000D01*
X141296000Y-68068000D01*
X141294000Y-68066000D01*
X141293000Y-68064000D01*
X141291000Y-68062000D01*
X141290000Y-68060000D01*
X141288000Y-68058000D01*
X141286000Y-68056000D01*
X141284000Y-68054000D01*
X141282000Y-68052000D01*
X141280000Y-68051000D01*
X141278000Y-68049000D01*
X141276000Y-68048000D01*
X141274000Y-68046000D01*
X141271000Y-68045000D01*
X141269000Y-68044000D01*
X141266000Y-68043000D01*
X141264000Y-68043000D01*
X141261000Y-68042000D01*
X141259000Y-68042000D01*
X141256000Y-68041000D01*
X141254000Y-68041000D01*
X141251000Y-68041000D01*
X141101000Y-68041000D01*
X141098000Y-68041000D01*
X141096000Y-68041000D01*
X141093000Y-68042000D01*
X141091000Y-68042000D01*
X141088000Y-68043000D01*
X141086000Y-68043000D01*
X141083000Y-68044000D01*
X141081000Y-68045000D01*
X141078000Y-68046000D01*
X141076000Y-68048000D01*
X141074000Y-68049000D01*
X141072000Y-68051000D01*
X141070000Y-68052000D01*
X141068000Y-68054000D01*
X141066000Y-68056000D01*
X141064000Y-68058000D01*
X141062000Y-68060000D01*
X141061000Y-68062000D01*
X141059000Y-68064000D01*
X141058000Y-68066000D01*
X141056000Y-68068000D01*
X141055000Y-68071000D01*
X141054000Y-68073000D01*
X141053000Y-68076000D01*
X141053000Y-68078000D01*
X141052000Y-68081000D01*
X141052000Y-68083000D01*
X141051000Y-68086000D01*
X141051000Y-68088000D01*
X141051000Y-68091000D01*
X141051000Y-69191000D01*
X141051000Y-69194000D01*
X141051000Y-69196000D01*
X141052000Y-69199000D01*
X141052000Y-69201000D01*
X141053000Y-69204000D01*
X141053000Y-69206000D01*
X141054000Y-69209000D01*
X141055000Y-69211000D01*
X141056000Y-69214000D01*
X141058000Y-69216000D01*
X141059000Y-69218000D01*
X141061000Y-69220000D01*
X141062000Y-69222000D01*
X141064000Y-69224000D01*
X141066000Y-69226000D01*
X141068000Y-69228000D01*
X141070000Y-69230000D01*
X141072000Y-69231000D01*
X141074000Y-69233000D01*
X141076000Y-69234000D01*
X141078000Y-69236000D01*
X141081000Y-69237000D01*
X141083000Y-69238000D01*
X141086000Y-69239000D01*
X141088000Y-69239000D01*
X141091000Y-69240000D01*
X141093000Y-69240000D01*
X141096000Y-69241000D01*
X141098000Y-69241000D01*
X141101000Y-69241000D01*
G36*
X141259000Y-68042000D02*
G01*
X141261000Y-68042000D01*
X141264000Y-68043000D01*
X141266000Y-68043000D01*
X141269000Y-68044000D01*
X141271000Y-68045000D01*
X141274000Y-68046000D01*
X141276000Y-68048000D01*
X141278000Y-68049000D01*
X141280000Y-68051000D01*
X141282000Y-68052000D01*
X141284000Y-68054000D01*
X141286000Y-68056000D01*
X141288000Y-68058000D01*
X141290000Y-68060000D01*
X141291000Y-68062000D01*
X141293000Y-68064000D01*
X141294000Y-68066000D01*
X141296000Y-68068000D01*
X141297000Y-68071000D01*
X141298000Y-68073000D01*
X141299000Y-68076000D01*
X141299000Y-68078000D01*
X141300000Y-68081000D01*
X141300000Y-68083000D01*
X141301000Y-68086000D01*
X141301000Y-68088000D01*
X141301000Y-68091000D01*
X141301000Y-68391000D01*
X141301000Y-68394000D01*
X141301000Y-68396000D01*
X141302000Y-68399000D01*
X141302000Y-68401000D01*
X141303000Y-68404000D01*
X141303000Y-68406000D01*
X141304000Y-68409000D01*
X141305000Y-68411000D01*
X141306000Y-68414000D01*
X141308000Y-68416000D01*
X141309000Y-68418000D01*
X141311000Y-68420000D01*
X141312000Y-68422000D01*
X141314000Y-68424000D01*
X141316000Y-68426000D01*
X141318000Y-68428000D01*
X141320000Y-68430000D01*
X141322000Y-68431000D01*
X141324000Y-68433000D01*
X141326000Y-68434000D01*
X141328000Y-68436000D01*
X141331000Y-68437000D01*
X141333000Y-68438000D01*
X141336000Y-68439000D01*
X141338000Y-68439000D01*
X141341000Y-68440000D01*
X141343000Y-68440000D01*
X141346000Y-68441000D01*
X141348000Y-68441000D01*
X141351000Y-68441000D01*
X141501000Y-68441000D01*
X141504000Y-68441000D01*
X141506000Y-68441000D01*
X141509000Y-68440000D01*
X141511000Y-68440000D01*
X141514000Y-68439000D01*
X141516000Y-68439000D01*
X141519000Y-68438000D01*
X141521000Y-68437000D01*
X141524000Y-68436000D01*
X141526000Y-68434000D01*
X141528000Y-68433000D01*
X141530000Y-68431000D01*
X141532000Y-68430000D01*
X141534000Y-68428000D01*
X141536000Y-68426000D01*
X141538000Y-68424000D01*
X141540000Y-68422000D01*
X141541000Y-68420000D01*
X141543000Y-68418000D01*
X141544000Y-68416000D01*
X141546000Y-68414000D01*
X141547000Y-68411000D01*
X141548000Y-68409000D01*
X141549000Y-68406000D01*
X141549000Y-68404000D01*
X141550000Y-68401000D01*
X141550000Y-68399000D01*
X141551000Y-68396000D01*
X141551000Y-68394000D01*
X141551000Y-68391000D01*
X141551000Y-68091000D01*
X141551000Y-68088000D01*
X141551000Y-68086000D01*
X141552000Y-68083000D01*
X141552000Y-68081000D01*
X141553000Y-68078000D01*
X141553000Y-68076000D01*
X141554000Y-68073000D01*
X141555000Y-68071000D01*
X141556000Y-68068000D01*
X141558000Y-68066000D01*
X141559000Y-68064000D01*
X141561000Y-68062000D01*
X141562000Y-68060000D01*
X141564000Y-68058000D01*
X141566000Y-68056000D01*
X141568000Y-68054000D01*
X141570000Y-68052000D01*
X141572000Y-68051000D01*
X141574000Y-68049000D01*
X141576000Y-68048000D01*
X141578000Y-68046000D01*
X141581000Y-68045000D01*
X141583000Y-68044000D01*
X141586000Y-68043000D01*
X141588000Y-68043000D01*
X141591000Y-68042000D01*
X141593000Y-68042000D01*
X141596000Y-68041000D01*
X141598000Y-68041000D01*
X141601000Y-68041000D01*
X141751000Y-68041000D01*
X141754000Y-68041000D01*
X141756000Y-68041000D01*
X141759000Y-68042000D01*
X141761000Y-68042000D01*
X141764000Y-68043000D01*
X141766000Y-68043000D01*
X141769000Y-68044000D01*
X141771000Y-68045000D01*
X141774000Y-68046000D01*
X141776000Y-68048000D01*
X141778000Y-68049000D01*
X141780000Y-68051000D01*
X141782000Y-68052000D01*
X141784000Y-68054000D01*
X141786000Y-68056000D01*
X141788000Y-68058000D01*
X141790000Y-68060000D01*
X141791000Y-68062000D01*
X141793000Y-68064000D01*
X141794000Y-68066000D01*
X141796000Y-68068000D01*
X141797000Y-68071000D01*
X141798000Y-68073000D01*
X141799000Y-68076000D01*
X141799000Y-68078000D01*
X141800000Y-68081000D01*
X141800000Y-68083000D01*
X141801000Y-68086000D01*
X141801000Y-68088000D01*
X141801000Y-68091000D01*
X141801000Y-69191000D01*
X141801000Y-69194000D01*
X141801000Y-69196000D01*
X141800000Y-69199000D01*
X141800000Y-69201000D01*
X141799000Y-69204000D01*
X141799000Y-69206000D01*
X141798000Y-69209000D01*
X141797000Y-69211000D01*
X141796000Y-69214000D01*
X141794000Y-69216000D01*
X141793000Y-69218000D01*
X141791000Y-69220000D01*
X141790000Y-69222000D01*
X141788000Y-69224000D01*
X141786000Y-69226000D01*
X141784000Y-69228000D01*
X141782000Y-69230000D01*
X141780000Y-69231000D01*
X141778000Y-69233000D01*
X141776000Y-69234000D01*
X141774000Y-69236000D01*
X141771000Y-69237000D01*
X141769000Y-69238000D01*
X141766000Y-69239000D01*
X141764000Y-69239000D01*
X141761000Y-69240000D01*
X141759000Y-69240000D01*
X141756000Y-69241000D01*
X141754000Y-69241000D01*
X141751000Y-69241000D01*
X141101000Y-69241000D01*
X141098000Y-69241000D01*
X141096000Y-69241000D01*
X141093000Y-69240000D01*
X141091000Y-69240000D01*
X141088000Y-69239000D01*
X141086000Y-69239000D01*
X141083000Y-69238000D01*
X141081000Y-69237000D01*
X141078000Y-69236000D01*
X141076000Y-69234000D01*
X141074000Y-69233000D01*
X141072000Y-69231000D01*
X141070000Y-69230000D01*
X141068000Y-69228000D01*
X141066000Y-69226000D01*
X141064000Y-69224000D01*
X141062000Y-69222000D01*
X141061000Y-69220000D01*
X141059000Y-69218000D01*
X141058000Y-69216000D01*
X141056000Y-69214000D01*
X141055000Y-69211000D01*
X141054000Y-69209000D01*
X141053000Y-69206000D01*
X141053000Y-69204000D01*
X141052000Y-69201000D01*
X141052000Y-69199000D01*
X141051000Y-69196000D01*
X141051000Y-69194000D01*
X141051000Y-69191000D01*
X141051000Y-68091000D01*
X141051000Y-68088000D01*
X141051000Y-68086000D01*
X141052000Y-68083000D01*
X141052000Y-68081000D01*
X141053000Y-68078000D01*
X141053000Y-68076000D01*
X141054000Y-68073000D01*
X141055000Y-68071000D01*
X141056000Y-68068000D01*
X141058000Y-68066000D01*
X141059000Y-68064000D01*
X141061000Y-68062000D01*
X141062000Y-68060000D01*
X141064000Y-68058000D01*
X141066000Y-68056000D01*
X141068000Y-68054000D01*
X141070000Y-68052000D01*
X141072000Y-68051000D01*
X141074000Y-68049000D01*
X141076000Y-68048000D01*
X141078000Y-68046000D01*
X141081000Y-68045000D01*
X141083000Y-68044000D01*
X141086000Y-68043000D01*
X141088000Y-68043000D01*
X141091000Y-68042000D01*
X141093000Y-68042000D01*
X141096000Y-68041000D01*
X141098000Y-68041000D01*
X141101000Y-68041000D01*
X141251000Y-68041000D01*
X141254000Y-68041000D01*
X141256000Y-68041000D01*
X141259000Y-68042000D01*
G37*
%TO.C,L2*%
X120822000Y-62366000D02*
X120822000Y-61366000D01*
X120122000Y-60766000D01*
X117622000Y-60766000D01*
X116922000Y-61366000D01*
X116922000Y-62366000D01*
X120822000Y-62366000D01*
G36*
X120822000Y-61366000D02*
G01*
X120822000Y-62366000D01*
X116922000Y-62366000D01*
X116922000Y-61366000D01*
X117622000Y-60766000D01*
X120122000Y-60766000D01*
X120822000Y-61366000D01*
G37*
X120822000Y-64666000D02*
X120822000Y-63666000D01*
X116922000Y-63666000D01*
X116922000Y-64666000D01*
X117622000Y-65266000D01*
X120122000Y-65266000D01*
X120822000Y-64666000D01*
G36*
X120822000Y-64666000D02*
G01*
X120122000Y-65266000D01*
X117622000Y-65266000D01*
X116922000Y-64666000D01*
X116922000Y-63666000D01*
X120822000Y-63666000D01*
X120822000Y-64666000D01*
G37*
%TD*%
D11*
%TO.C,C46*%
X160175000Y-96266000D03*
X159215000Y-96266000D03*
%TD*%
D12*
%TO.C,C51*%
X150622000Y-77105000D03*
X150622000Y-76145000D03*
%TD*%
D13*
%TO.C,R6*%
X130046000Y-84582000D03*
X131066000Y-84582000D03*
%TD*%
D14*
%TO.C,D1*%
X187960000Y-123215500D03*
X187960000Y-121640500D03*
%TD*%
D15*
%TO.C,R29*%
X154686000Y-72138000D03*
X154686000Y-71118000D03*
%TD*%
D16*
%TO.C,U9*%
X151047000Y-80010000D03*
X150197000Y-80010000D03*
X151047000Y-80860000D03*
X150197000Y-80860000D03*
D17*
X151422000Y-78972500D03*
X151022000Y-78972500D03*
X150622000Y-78972500D03*
X150222000Y-78972500D03*
X149822000Y-78972500D03*
D18*
X149159500Y-79635000D03*
X149159500Y-80035000D03*
X149159500Y-80435000D03*
X149159500Y-80835000D03*
X149159500Y-81235000D03*
D17*
X149822000Y-81897500D03*
X150222000Y-81897500D03*
X150622000Y-81897500D03*
X151022000Y-81897500D03*
X151422000Y-81897500D03*
D18*
X152084500Y-81235000D03*
X152084500Y-80835000D03*
X152084500Y-80435000D03*
X152084500Y-80035000D03*
X152084500Y-79635000D03*
%TD*%
D15*
%TO.C,R8*%
X130040000Y-71630000D03*
X130040000Y-70610000D03*
%TD*%
D19*
%TO.C,C43*%
X158223000Y-87630000D03*
X159183000Y-87630000D03*
%TD*%
D20*
%TO.C,U7*%
X115250000Y-61878500D03*
X114300000Y-61878500D03*
X113350000Y-61878500D03*
X113350000Y-64153500D03*
X114300000Y-64153500D03*
X115250000Y-64153500D03*
%TD*%
D21*
%TO.C,SW1*%
X139700000Y-60630000D03*
X144950000Y-60630000D03*
X139700000Y-63830000D03*
X144950000Y-63830000D03*
%TD*%
D19*
%TO.C,C38*%
X153952000Y-81451000D03*
X154912000Y-81451000D03*
%TD*%
D12*
%TO.C,C11*%
X132588000Y-88364000D03*
X132588000Y-87404000D03*
%TD*%
D22*
%TO.C,U3*%
X147697000Y-106240500D03*
X148347000Y-106240500D03*
X148997000Y-106240500D03*
X149647000Y-106240500D03*
X150297000Y-106240500D03*
X150947000Y-106240500D03*
X151597000Y-106240500D03*
X152247000Y-106240500D03*
X152897000Y-106240500D03*
X153547000Y-106240500D03*
X153547000Y-100515500D03*
X152897000Y-100515500D03*
X152247000Y-100515500D03*
X151597000Y-100515500D03*
X150947000Y-100515500D03*
X150297000Y-100515500D03*
X149647000Y-100515500D03*
X148997000Y-100515500D03*
X148347000Y-100515500D03*
X147697000Y-100515500D03*
%TD*%
D23*
%TO.C,U8*%
X141176000Y-71341000D03*
X141676000Y-71341000D03*
D24*
X140476000Y-70116000D03*
%TD*%
D25*
%TO.C,R13*%
X187960000Y-119124000D03*
X187960000Y-120144000D03*
%TD*%
%TO.C,R2*%
X147574000Y-108202000D03*
X147574000Y-109222000D03*
%TD*%
D26*
%TO.C,R14*%
X114302000Y-66064000D03*
X113282000Y-66064000D03*
%TD*%
D27*
%TO.C,C14*%
X135140000Y-71302000D03*
X135140000Y-72262000D03*
%TD*%
D28*
%TO.C,C12*%
X132010000Y-70982000D03*
X133070000Y-70982000D03*
%TD*%
D29*
%TO.C,U6*%
X107232000Y-130693000D03*
X107732000Y-130693000D03*
X108232000Y-130693000D03*
X108732000Y-130693000D03*
X109232000Y-130693000D03*
X109732000Y-130693000D03*
X110232000Y-130693000D03*
X110732000Y-130693000D03*
X111232000Y-130693000D03*
X111732000Y-130693000D03*
X112232000Y-130693000D03*
X112732000Y-130693000D03*
X112732000Y-124968000D03*
X112232000Y-124968000D03*
X111732000Y-124968000D03*
X111232000Y-124968000D03*
X110732000Y-124968000D03*
X110232000Y-124968000D03*
X109732000Y-124968000D03*
X109232000Y-124968000D03*
X108732000Y-124968000D03*
X108232000Y-124968000D03*
X107732000Y-124968000D03*
X107232000Y-124968000D03*
%TD*%
D21*
%TO.C,SW2*%
X157395000Y-60630000D03*
X162645000Y-60630000D03*
X157395000Y-63830000D03*
X162645000Y-63830000D03*
%TD*%
D13*
%TO.C,R16*%
X113282000Y-67334000D03*
X114302000Y-67334000D03*
%TD*%
D19*
%TO.C,C49*%
X153952000Y-78994000D03*
X154912000Y-78994000D03*
%TD*%
%TO.C,C31*%
X141396000Y-67097000D03*
X142356000Y-67097000D03*
%TD*%
D30*
%TO.C,L1*%
X131477500Y-69482000D03*
X133602500Y-69482000D03*
%TD*%
D21*
%TO.C,SW3*%
X174413000Y-119558000D03*
X179663000Y-119558000D03*
X174413000Y-122758000D03*
X179663000Y-122758000D03*
%TD*%
D25*
%TO.C,R31*%
X154686000Y-74420000D03*
X154686000Y-75440000D03*
%TD*%
D26*
%TO.C,R17*%
X143669000Y-73193000D03*
X142649000Y-73193000D03*
%TD*%
D28*
%TO.C,C13*%
X132010000Y-71982000D03*
X133070000Y-71982000D03*
%TD*%
D31*
%TO.C,X2*%
X129342000Y-86276000D03*
X129342000Y-88476000D03*
X131042000Y-88476000D03*
X131042000Y-86276000D03*
%TD*%
D25*
%TO.C,R1*%
X140462000Y-118616000D03*
X140462000Y-119636000D03*
%TD*%
D29*
%TO.C,U5*%
X99076000Y-106240500D03*
X99576000Y-106240500D03*
X100076000Y-106240500D03*
X100576000Y-106240500D03*
X101076000Y-106240500D03*
X101576000Y-106240500D03*
X102076000Y-106240500D03*
X102576000Y-106240500D03*
X103076000Y-106240500D03*
X103576000Y-106240500D03*
X104076000Y-106240500D03*
X104576000Y-106240500D03*
X104576000Y-100515500D03*
X104076000Y-100515500D03*
X103576000Y-100515500D03*
X103076000Y-100515500D03*
X102576000Y-100515500D03*
X102076000Y-100515500D03*
X101576000Y-100515500D03*
X101076000Y-100515500D03*
X100576000Y-100515500D03*
X100076000Y-100515500D03*
X99576000Y-100515500D03*
X99076000Y-100515500D03*
%TD*%
D15*
%TO.C,R3*%
X101854000Y-72646000D03*
X101854000Y-71626000D03*
%TD*%
D32*
%TO.C,R27*%
X160262999Y-94996000D03*
D33*
X159183000Y-94996000D03*
%TD*%
D34*
%TO.C,U10*%
X157114500Y-89490000D03*
X157114500Y-90140000D03*
X157114500Y-90790000D03*
X157114500Y-91440000D03*
X157114500Y-92090000D03*
X157114500Y-92740000D03*
X157114500Y-93390000D03*
X162839500Y-93390000D03*
X162839500Y-92740000D03*
X162839500Y-92090000D03*
X162839500Y-91440000D03*
X162839500Y-90790000D03*
X162839500Y-90140000D03*
X162839500Y-89490000D03*
%TD*%
D22*
%TO.C,U2*%
X140585000Y-116654500D03*
X141235000Y-116654500D03*
X141885000Y-116654500D03*
X142535000Y-116654500D03*
X143185000Y-116654500D03*
X143835000Y-116654500D03*
X144485000Y-116654500D03*
X145135000Y-116654500D03*
X145785000Y-116654500D03*
X146435000Y-116654500D03*
X146435000Y-110929500D03*
X145785000Y-110929500D03*
X145135000Y-110929500D03*
X144485000Y-110929500D03*
X143835000Y-110929500D03*
X143185000Y-110929500D03*
X142535000Y-110929500D03*
X141885000Y-110929500D03*
X141235000Y-110929500D03*
X140585000Y-110929500D03*
%TD*%
D11*
%TO.C,C45*%
X158143000Y-96266000D03*
X157183000Y-96266000D03*
%TD*%
D19*
%TO.C,C44*%
X160048000Y-85090000D03*
X161008000Y-85090000D03*
%TD*%
D11*
%TO.C,C53*%
X172266000Y-108287250D03*
X171306000Y-108287250D03*
%TD*%
D12*
%TO.C,C52*%
X151892000Y-77105000D03*
X151892000Y-76145000D03*
%TD*%
D26*
%TO.C,R4*%
X99824000Y-108712000D03*
X98804000Y-108712000D03*
%TD*%
D12*
%TO.C,C56*%
X159997000Y-102669000D03*
X159997000Y-101709000D03*
%TD*%
D26*
%TO.C,R5*%
X107952000Y-133096000D03*
X106932000Y-133096000D03*
%TD*%
%TO.C,R24*%
X158199000Y-86360000D03*
X157179000Y-86360000D03*
%TD*%
D15*
%TO.C,R9*%
X128990000Y-71630000D03*
X128990000Y-70610000D03*
%TD*%
%TO.C,R15*%
X140352000Y-67099000D03*
X140352000Y-66079000D03*
%TD*%
D14*
%TO.C,D2*%
X183134000Y-123215500D03*
X183134000Y-121640500D03*
%TD*%
D26*
%TO.C,R25*%
X160231000Y-86360000D03*
X159211000Y-86360000D03*
%TD*%
D19*
%TO.C,C36*%
X153952000Y-80181000D03*
X154912000Y-80181000D03*
%TD*%
D12*
%TO.C,C50*%
X149352000Y-77077000D03*
X149352000Y-76117000D03*
%TD*%
D26*
%TO.C,R18*%
X141637000Y-73193000D03*
X140617000Y-73193000D03*
%TD*%
D15*
%TO.C,R11*%
X127757598Y-71630000D03*
X127757598Y-70610000D03*
%TD*%
D27*
%TO.C,C37*%
X151130000Y-83765000D03*
X151130000Y-84725000D03*
%TD*%
D35*
%TO.C,J1*%
X173960000Y-76757000D03*
X173960000Y-77857000D03*
X173960000Y-78957000D03*
X173960000Y-80057000D03*
X173960000Y-81157000D03*
X173960000Y-82257000D03*
X173960000Y-83357000D03*
X173960000Y-84457000D03*
X173960000Y-85407000D03*
D36*
X184460000Y-86357000D03*
D37*
X178260000Y-86357000D03*
D38*
X188610000Y-86357000D03*
D37*
X173960000Y-75207000D03*
D39*
X189060000Y-72857000D03*
%TD*%
D15*
%TO.C,R28*%
X169418000Y-77980000D03*
X169418000Y-76960000D03*
%TD*%
%TO.C,R30*%
X160274000Y-75694000D03*
X160274000Y-74674000D03*
%TD*%
D26*
%TO.C,R32*%
X186438000Y-88138000D03*
X185418000Y-88138000D03*
%TD*%
D25*
%TO.C,R33*%
X183134000Y-119124000D03*
X183134000Y-120144000D03*
%TD*%
D40*
%TO.C,J2*%
X132740000Y-65656000D03*
X131940000Y-65656000D03*
D41*
X130790000Y-65656000D03*
X129790000Y-65656000D03*
X129290000Y-65656000D03*
X128290000Y-65656000D03*
D40*
X127140000Y-65656000D03*
X126340000Y-65656000D03*
X126340000Y-65656000D03*
X127140000Y-65656000D03*
D41*
X127790000Y-65656000D03*
X128790000Y-65656000D03*
X130290000Y-65656000D03*
X131290000Y-65656000D03*
D40*
X131940000Y-65656000D03*
X132740000Y-65656000D03*
D42*
X133860000Y-65081000D03*
D43*
X133860000Y-60901000D03*
D42*
X125220000Y-65081000D03*
D43*
X125220000Y-60901000D03*
%TD*%
D44*
%TO.C,U11*%
X161963000Y-104567500D03*
X161313000Y-104567500D03*
X160663000Y-104567500D03*
X160013000Y-104567500D03*
X160013000Y-108792500D03*
X160663000Y-108792500D03*
X161313000Y-108792500D03*
X161963000Y-108792500D03*
%TD*%
D26*
%TO.C,R26*%
X160233000Y-97536000D03*
X159213000Y-97536000D03*
%TD*%
D15*
%TO.C,R7*%
X135140000Y-69992000D03*
X135140000Y-68972000D03*
%TD*%
D45*
%TO.C,U4*%
X104071500Y-71926000D03*
X104071500Y-72426000D03*
X104071500Y-72926000D03*
X104071500Y-73426000D03*
X104071500Y-73926000D03*
X104071500Y-74426000D03*
X104071500Y-74926000D03*
X104071500Y-75426000D03*
X104071500Y-75926000D03*
X104071500Y-76426000D03*
X104071500Y-76926000D03*
X104071500Y-77426000D03*
X109796500Y-77426000D03*
X109796500Y-76926000D03*
X109796500Y-76426000D03*
X109796500Y-75926000D03*
X109796500Y-75426000D03*
X109796500Y-74926000D03*
X109796500Y-74426000D03*
X109796500Y-73926000D03*
X109796500Y-73426000D03*
X109796500Y-72926000D03*
X109796500Y-72426000D03*
X109796500Y-71926000D03*
%TD*%
D19*
%TO.C,C29*%
X169194000Y-116078000D03*
X170154000Y-116078000D03*
%TD*%
D13*
%TO.C,R12*%
X171450000Y-116078000D03*
X172470000Y-116078000D03*
%TD*%
D46*
%TO.C,U1*%
X128410000Y-77102000D03*
X128410000Y-78232000D03*
X128410000Y-79362000D03*
X129540000Y-77102000D03*
X129540000Y-78232000D03*
X129540000Y-79362000D03*
X130670000Y-77102000D03*
X130670000Y-78232000D03*
X130670000Y-79362000D03*
D47*
X124590000Y-74432000D03*
X124590000Y-74832000D03*
X124590000Y-75232000D03*
X124590000Y-75632000D03*
X124590000Y-76032000D03*
X124590000Y-76432000D03*
X124590000Y-76832000D03*
X124590000Y-77232000D03*
X124590000Y-77632000D03*
X124590000Y-78032000D03*
X124590000Y-78432000D03*
X124590000Y-78832000D03*
X124590000Y-79232000D03*
X124590000Y-79632000D03*
X124590000Y-80032000D03*
X124590000Y-80432000D03*
X124590000Y-80832000D03*
X124590000Y-81232000D03*
X124590000Y-81632000D03*
X124590000Y-82032000D03*
D48*
X125740000Y-83182000D03*
X126140000Y-83182000D03*
X126540000Y-83182000D03*
X126940000Y-83182000D03*
X127340000Y-83182000D03*
X127740000Y-83182000D03*
X128140000Y-83182000D03*
X128540000Y-83182000D03*
X128940000Y-83182000D03*
X129340000Y-83182000D03*
X129740000Y-83182000D03*
X130140000Y-83182000D03*
X130540000Y-83182000D03*
X130940000Y-83182000D03*
X131340000Y-83182000D03*
X131740000Y-83182000D03*
X132140000Y-83182000D03*
X132540000Y-83182000D03*
X132940000Y-83182000D03*
X133340000Y-83182000D03*
D47*
X134490000Y-82032000D03*
X134490000Y-81632000D03*
X134490000Y-81232000D03*
X134490000Y-80832000D03*
X134490000Y-80432000D03*
X134490000Y-80032000D03*
X134490000Y-79632000D03*
X134490000Y-79232000D03*
X134490000Y-78832000D03*
X134490000Y-78432000D03*
X134490000Y-78032000D03*
X134490000Y-77632000D03*
X134490000Y-77232000D03*
X134490000Y-76832000D03*
X134490000Y-76432000D03*
X134490000Y-76032000D03*
X134490000Y-75632000D03*
X134490000Y-75232000D03*
X134490000Y-74832000D03*
X134490000Y-74432000D03*
D48*
X133340000Y-73282000D03*
X132940000Y-73282000D03*
X132540000Y-73282000D03*
X132140000Y-73282000D03*
X131740000Y-73282000D03*
X131340000Y-73282000D03*
X130940000Y-73282000D03*
X130540000Y-73282000D03*
X130140000Y-73282000D03*
X129740000Y-73282000D03*
X129340000Y-73282000D03*
X128940000Y-73282000D03*
X128540000Y-73282000D03*
X128140000Y-73282000D03*
X127740000Y-73282000D03*
X127340000Y-73282000D03*
X126940000Y-73282000D03*
X126540000Y-73282000D03*
X126140000Y-73282000D03*
X125740000Y-73282000D03*
%TD*%
M02*
