%TF.GenerationSoftware,KiCad,Pcbnew,10.0.5*%
%TF.CreationDate,2026-08-03T17:09:22-04:00*%
%TF.ProjectId,Digichiver,44696769-6368-4697-9665-722e6b696361,0*%
%TF.SameCoordinates,Original*%
%TF.FileFunction,Copper,L1,Top*%
%TF.FilePolarity,Positive*%
%FSLAX46Y46*%
G04 Gerber Fmt 4.6, Leading zero omitted, Abs format (unit mm)*
G04 Created by KiCad (PCBNEW 10.0.5) date 2026-08-03 17:09:22*
%MOMM*%
%LPD*%
G01*
G04 APERTURE LIST*
G04 Aperture macros list*
%AMRoundRect*
0 Rectangle with rounded corners*
0 $1 Rounding radius*
0 $2 $3 $4 $5 $6 $7 $8 $9 X,Y pos of 4 corners*
0 Add a 4 corners polygon primitive as box body*
4,1,4,$2,$3,$4,$5,$6,$7,$8,$9,$2,$3,0*
0 Add four circle primitives for the rounded corners*
1,1,$1+$1,$2,$3*
1,1,$1+$1,$4,$5*
1,1,$1+$1,$6,$7*
1,1,$1+$1,$8,$9*
0 Add four rect primitives between the rounded corners*
20,1,$1+$1,$2,$3,$4,$5,0*
20,1,$1+$1,$4,$5,$6,$7,0*
20,1,$1+$1,$6,$7,$8,$9,0*
20,1,$1+$1,$8,$9,$2,$3,0*%
%AMFreePoly0*
4,1,230,1.281581,1.191743,1.283810,1.191000,1.285000,1.191000,1.286581,1.190743,1.288810,1.190000,1.290000,1.190000,1.291581,1.189743,1.294581,1.188743,1.295236,1.188472,1.296920,1.187630,1.299581,1.186743,1.301536,1.185536,1.302964,1.184108,1.304236,1.183472,1.305536,1.182536,1.306964,1.181108,1.308236,1.180472,1.309536,1.179536,1.317536,1.171536,1.318472,1.170236,
1.319108,1.168964,1.320536,1.167536,1.321472,1.166236,1.322108,1.164964,1.323536,1.163536,1.324743,1.161581,1.325630,1.158920,1.326472,1.157236,1.326743,1.156581,1.327743,1.153581,1.328000,1.152000,1.328000,1.150810,1.328743,1.148581,1.329000,1.147000,1.329000,1.145810,1.329743,1.143581,1.330000,1.142000,1.330000,-0.093000,1.329472,-0.095236,1.329000,-0.096180,
1.329000,-0.098000,1.328472,-0.100236,1.328000,-0.101180,1.328000,-0.103000,1.327472,-0.105236,1.326630,-0.106920,1.325743,-0.109581,1.325472,-0.110236,1.324472,-0.112236,1.323536,-0.113536,1.322369,-0.114703,1.321743,-0.116581,1.320536,-0.118536,1.319108,-0.119964,1.318472,-0.121236,1.317536,-0.122536,1.311536,-0.128536,1.310236,-0.129472,1.308964,-0.130108,1.307536,-0.131536,
1.306236,-0.132472,1.304964,-0.133108,1.303536,-0.134536,1.302236,-0.135472,1.300236,-0.136472,1.299581,-0.136743,1.296920,-0.137630,1.295236,-0.138472,1.294581,-0.138743,1.291920,-0.139630,1.290236,-0.140472,1.288000,-0.141000,1.286180,-0.141000,1.285236,-0.141472,1.283000,-0.142000,-0.358000,-0.142000,-0.360236,-0.141472,-0.361180,-0.141000,-0.363000,-0.141000,-0.365236,-0.140472,
-0.366920,-0.139630,-0.369581,-0.138743,-0.370236,-0.138472,-0.371920,-0.137630,-0.374581,-0.136743,-0.375236,-0.136472,-0.377236,-0.135472,-0.378536,-0.134536,-0.379964,-0.133108,-0.381236,-0.132472,-0.382536,-0.131536,-0.383964,-0.130108,-0.385236,-0.129472,-0.386536,-0.128536,-0.392536,-0.122536,-0.393472,-0.121236,-0.394108,-0.119964,-0.395536,-0.118536,-0.396743,-0.116581,-0.397369,-0.114703,
-0.398536,-0.113536,-0.399472,-0.112236,-0.400472,-0.110236,-0.400743,-0.109581,-0.401630,-0.106920,-0.402472,-0.105236,-0.403000,-0.103000,-0.403000,-0.101180,-0.403472,-0.100236,-0.404000,-0.098000,-0.404000,-0.096180,-0.404472,-0.095236,-0.405000,-0.093000,-0.405000,0.093000,-0.404472,0.095236,-0.404000,0.096180,-0.404000,0.098000,-0.403472,0.100236,-0.403000,0.101180,-0.403000,0.103000,
-0.402472,0.105236,-0.401630,0.106920,-0.400743,0.109581,-0.400472,0.110236,-0.399472,0.112236,-0.399160,0.112774,-0.397332,0.115516,-0.396472,0.117236,-0.395536,0.118536,-0.394108,0.119964,-0.393472,0.121236,-0.392536,0.122536,-0.386536,0.128536,-0.385236,0.129472,-0.383964,0.130108,-0.382536,0.131536,-0.381236,0.132472,-0.379964,0.133108,-0.378536,0.134536,-0.377236,0.135472,
-0.375236,0.136472,-0.374581,0.136743,-0.371920,0.137630,-0.370236,0.138472,-0.369581,0.138743,-0.366920,0.139630,-0.365236,0.140472,-0.363000,0.141000,-0.361180,0.141000,-0.360236,0.141472,-0.358000,0.142000,-0.353810,0.142000,-0.351581,0.142743,-0.350000,0.143000,0.871820,0.143000,0.872764,0.143472,0.875000,0.144000,0.875585,0.144000,0.878000,0.145000,0.879585,0.145000,
0.880953,0.145566,0.882764,0.146472,0.883596,0.146668,0.884464,0.147536,0.886170,0.148242,0.886464,0.148536,0.887764,0.149472,0.889764,0.150472,0.890596,0.150668,0.892464,0.152536,0.894170,0.153242,0.896464,0.155536,1.056453,0.316525,1.060757,0.320829,1.061464,0.322536,1.063757,0.324829,1.064464,0.326536,1.064892,0.326964,1.065433,0.328046,1.066464,0.330536,
1.066757,0.330829,1.067000,0.331415,1.067000,0.332000,1.068000,0.334415,1.068000,0.335000,1.068528,0.337236,1.069000,0.338180,1.069000,0.340000,1.069528,0.342236,1.070000,0.343180,1.070000,1.142000,1.070257,1.143581,1.071000,1.145810,1.071000,1.147000,1.071257,1.148581,1.072000,1.150810,1.072000,1.152000,1.072257,1.153581,1.073257,1.156581,1.073528,1.157236,
1.074370,1.158920,1.075257,1.161581,1.076464,1.163536,1.077892,1.164964,1.078528,1.166236,1.079464,1.167536,1.080892,1.168964,1.081528,1.170236,1.082464,1.171536,1.090464,1.179536,1.091764,1.180472,1.093036,1.181108,1.094464,1.182536,1.095764,1.183472,1.097036,1.184108,1.098464,1.185536,1.100419,1.186743,1.103080,1.187630,1.104764,1.188472,1.105419,1.188743,
1.108419,1.189743,1.110000,1.190000,1.111190,1.190000,1.113419,1.190743,1.115000,1.191000,1.116190,1.191000,1.118419,1.191743,1.120000,1.192000,1.280000,1.192000,1.281581,1.191743,1.281581,1.191743,$1*%
%AMFreePoly1*
4,1,153,0.480981,1.042903,0.485496,1.042000,0.491000,1.042000,0.491981,1.041903,0.501981,1.039903,0.502857,1.039642,0.517857,1.033642,0.518236,1.033472,0.522052,1.031564,0.526857,1.029642,0.528000,1.029000,0.531798,1.026151,0.536572,1.023287,0.537000,1.023000,0.541000,1.020000,0.541536,1.019536,0.545288,1.015784,0.549000,1.013000,0.550000,1.012000,0.552784,1.008288,
0.556536,1.004536,0.557000,1.004000,0.560000,1.000000,0.560287,0.999572,0.563151,0.994798,0.566000,0.991000,0.566642,0.989857,0.568564,0.985052,0.570472,0.981236,0.570642,0.980857,0.576642,0.965857,0.576903,0.964981,0.578903,0.954981,0.579000,0.954000,0.579000,0.948496,0.579903,0.943981,0.580000,0.943000,0.580000,-0.892000,0.579903,-0.892981,0.579000,-0.897496,
0.579000,-0.903000,0.578903,-0.903981,0.576903,-0.913981,0.576642,-0.914857,0.570642,-0.929857,0.570472,-0.930236,0.568564,-0.934052,0.566642,-0.938857,0.566000,-0.940000,0.563151,-0.943798,0.560287,-0.948572,0.560000,-0.949000,0.557000,-0.953000,0.556536,-0.953536,0.552784,-0.957288,0.550000,-0.961000,0.549000,-0.962000,0.545288,-0.964784,0.541536,-0.968536,0.541000,-0.969000,
0.537000,-0.972000,0.536572,-0.972287,0.531798,-0.975151,0.528000,-0.978000,0.526857,-0.978642,0.522052,-0.980564,0.518236,-0.982472,0.517857,-0.982642,0.502857,-0.988642,0.501981,-0.988903,0.491981,-0.990903,0.491000,-0.991000,0.485496,-0.991000,0.480981,-0.991903,0.480000,-0.992000,-0.830000,-0.992000,-0.830981,-0.991903,-0.835496,-0.991000,-0.841000,-0.991000,-0.841981,-0.990903,
-0.851981,-0.988903,-0.852857,-0.988642,-0.867857,-0.982642,-0.868236,-0.982472,-0.872052,-0.980564,-0.876857,-0.978642,-0.878000,-0.978000,-0.881798,-0.975151,-0.886572,-0.972287,-0.887000,-0.972000,-0.891000,-0.969000,-0.891536,-0.968536,-0.895288,-0.964784,-0.899000,-0.962000,-0.900000,-0.961000,-0.902784,-0.957288,-0.906536,-0.953536,-0.907000,-0.953000,-0.910000,-0.949000,-0.910287,-0.948572,
-0.913151,-0.943798,-0.916000,-0.940000,-0.916642,-0.938857,-0.918564,-0.934052,-0.920472,-0.930236,-0.920642,-0.929857,-0.926642,-0.914857,-0.926903,-0.913981,-0.928903,-0.903981,-0.929000,-0.903000,-0.929000,-0.897496,-0.929903,-0.892981,-0.930000,-0.892000,-0.930000,0.943000,-0.929903,0.943981,-0.929000,0.948496,-0.929000,0.954000,-0.928903,0.954981,-0.926903,0.964981,-0.926642,0.965857,
-0.920642,0.980857,-0.920472,0.981236,-0.918564,0.985052,-0.916642,0.989857,-0.916000,0.991000,-0.913151,0.994798,-0.910287,0.999572,-0.910000,1.000000,-0.907000,1.004000,-0.906536,1.004536,-0.902784,1.008288,-0.900000,1.012000,-0.899000,1.013000,-0.895288,1.015784,-0.891536,1.019536,-0.891000,1.020000,-0.887000,1.023000,-0.886572,1.023287,-0.881798,1.026151,-0.878000,1.029000,
-0.876857,1.029642,-0.872052,1.031564,-0.868236,1.033472,-0.867857,1.033642,-0.852857,1.039642,-0.851981,1.039903,-0.841981,1.041903,-0.841000,1.042000,-0.835496,1.042000,-0.830981,1.042903,-0.830000,1.043000,0.480000,1.043000,0.480981,1.042903,0.480981,1.042903,$1*%
%AMFreePoly2*
4,1,153,0.830981,1.042903,0.835496,1.042000,0.841000,1.042000,0.841981,1.041903,0.851981,1.039903,0.852857,1.039642,0.867857,1.033642,0.868236,1.033472,0.872052,1.031564,0.876857,1.029642,0.878000,1.029000,0.881798,1.026151,0.886572,1.023287,0.887000,1.023000,0.891000,1.020000,0.891536,1.019536,0.895288,1.015784,0.899000,1.013000,0.900000,1.012000,0.902784,1.008288,
0.906536,1.004536,0.907000,1.004000,0.910000,1.000000,0.910287,0.999572,0.913151,0.994798,0.916000,0.991000,0.916642,0.989857,0.918564,0.985052,0.920472,0.981236,0.920642,0.980857,0.926642,0.965857,0.926903,0.964981,0.928903,0.954981,0.929000,0.954000,0.929000,0.948496,0.929903,0.943981,0.930000,0.943000,0.930000,-0.892000,0.929903,-0.892981,0.929000,-0.897496,
0.929000,-0.903000,0.928903,-0.903981,0.926903,-0.913981,0.926642,-0.914857,0.920642,-0.929857,0.920472,-0.930236,0.918564,-0.934052,0.916642,-0.938857,0.916000,-0.940000,0.913151,-0.943798,0.910287,-0.948572,0.910000,-0.949000,0.907000,-0.953000,0.906536,-0.953536,0.902784,-0.957288,0.900000,-0.961000,0.899000,-0.962000,0.895288,-0.964784,0.891536,-0.968536,0.891000,-0.969000,
0.887000,-0.972000,0.886572,-0.972287,0.881798,-0.975151,0.878000,-0.978000,0.876857,-0.978642,0.872052,-0.980564,0.868236,-0.982472,0.867857,-0.982642,0.852857,-0.988642,0.851981,-0.988903,0.841981,-0.990903,0.841000,-0.991000,0.835496,-0.991000,0.830981,-0.991903,0.830000,-0.992000,-0.480000,-0.992000,-0.480981,-0.991903,-0.485496,-0.991000,-0.491000,-0.991000,-0.491981,-0.990903,
-0.501981,-0.988903,-0.502857,-0.988642,-0.517857,-0.982642,-0.518236,-0.982472,-0.522052,-0.980564,-0.526857,-0.978642,-0.528000,-0.978000,-0.531798,-0.975151,-0.536572,-0.972287,-0.537000,-0.972000,-0.541000,-0.969000,-0.541536,-0.968536,-0.545288,-0.964784,-0.549000,-0.962000,-0.550000,-0.961000,-0.552784,-0.957288,-0.556536,-0.953536,-0.557000,-0.953000,-0.560000,-0.949000,-0.560287,-0.948572,
-0.563151,-0.943798,-0.566000,-0.940000,-0.566642,-0.938857,-0.568564,-0.934052,-0.570472,-0.930236,-0.570642,-0.929857,-0.576642,-0.914857,-0.576903,-0.913981,-0.578903,-0.903981,-0.579000,-0.903000,-0.579000,-0.897496,-0.579903,-0.892981,-0.580000,-0.892000,-0.580000,0.943000,-0.579903,0.943981,-0.579000,0.948496,-0.579000,0.954000,-0.578903,0.954981,-0.576903,0.964981,-0.576642,0.965857,
-0.570642,0.980857,-0.570472,0.981236,-0.568564,0.985052,-0.566642,0.989857,-0.566000,0.991000,-0.563151,0.994798,-0.560287,0.999572,-0.560000,1.000000,-0.557000,1.004000,-0.556536,1.004536,-0.552784,1.008288,-0.550000,1.012000,-0.549000,1.013000,-0.545288,1.015784,-0.541536,1.019536,-0.541000,1.020000,-0.537000,1.023000,-0.536572,1.023287,-0.531798,1.026151,-0.528000,1.029000,
-0.526857,1.029642,-0.522052,1.031564,-0.518236,1.033472,-0.517857,1.033642,-0.502857,1.039642,-0.501981,1.039903,-0.491981,1.041903,-0.491000,1.042000,-0.485496,1.042000,-0.480981,1.042903,-0.480000,1.043000,0.830000,1.043000,0.830981,1.042903,0.830981,1.042903,$1*%
%AMFreePoly3*
4,1,153,0.805981,0.429903,0.810496,0.429000,0.816000,0.429000,0.816981,0.428903,0.826981,0.426903,0.827857,0.426642,0.842857,0.420642,0.843236,0.420472,0.847052,0.418564,0.851857,0.416642,0.853000,0.416000,0.856798,0.413151,0.861572,0.410287,0.862000,0.410000,0.866000,0.407000,0.866536,0.406536,0.870288,0.402784,0.874000,0.400000,0.875000,0.399000,0.877784,0.395288,
0.881536,0.391536,0.882000,0.391000,0.885000,0.387000,0.885287,0.386572,0.888151,0.381798,0.891000,0.378000,0.891642,0.376857,0.893564,0.372052,0.895472,0.368236,0.895642,0.367857,0.901642,0.352857,0.901903,0.351981,0.903903,0.341981,0.904000,0.341000,0.904000,0.335496,0.904903,0.330981,0.905000,0.330000,0.905000,-0.330000,0.904903,-0.330981,0.904000,-0.335496,
0.904000,-0.341000,0.903903,-0.341981,0.901903,-0.351981,0.901642,-0.352857,0.895642,-0.367857,0.895472,-0.368236,0.893564,-0.372052,0.891642,-0.376857,0.891000,-0.378000,0.888151,-0.381798,0.885287,-0.386572,0.885000,-0.387000,0.882000,-0.391000,0.881536,-0.391536,0.877784,-0.395288,0.875000,-0.399000,0.874000,-0.400000,0.870288,-0.402784,0.866536,-0.406536,0.866000,-0.407000,
0.862000,-0.410000,0.861572,-0.410287,0.856798,-0.413151,0.853000,-0.416000,0.851857,-0.416642,0.847052,-0.418564,0.843236,-0.420472,0.842857,-0.420642,0.827857,-0.426642,0.826981,-0.426903,0.816981,-0.428903,0.816000,-0.429000,0.810496,-0.429000,0.805981,-0.429903,0.805000,-0.430000,-0.305000,-0.430000,-0.305981,-0.429903,-0.310496,-0.429000,-0.316000,-0.429000,-0.316981,-0.428903,
-0.326981,-0.426903,-0.327857,-0.426642,-0.342857,-0.420642,-0.343236,-0.420472,-0.347052,-0.418564,-0.351857,-0.416642,-0.353000,-0.416000,-0.356798,-0.413151,-0.361572,-0.410287,-0.362000,-0.410000,-0.366000,-0.407000,-0.366536,-0.406536,-0.370288,-0.402784,-0.374000,-0.400000,-0.375000,-0.399000,-0.377784,-0.395288,-0.381536,-0.391536,-0.382000,-0.391000,-0.385000,-0.387000,-0.385287,-0.386572,
-0.388151,-0.381798,-0.391000,-0.378000,-0.391642,-0.376857,-0.393564,-0.372052,-0.395472,-0.368236,-0.395642,-0.367857,-0.401642,-0.352857,-0.401903,-0.351981,-0.403903,-0.341981,-0.404000,-0.341000,-0.404000,-0.335496,-0.404903,-0.330981,-0.405000,-0.330000,-0.405000,0.330000,-0.404903,0.330981,-0.404000,0.335496,-0.404000,0.341000,-0.403903,0.341981,-0.401903,0.351981,-0.401642,0.352857,
-0.395642,0.367857,-0.395472,0.368236,-0.393564,0.372052,-0.391642,0.376857,-0.391000,0.378000,-0.388151,0.381798,-0.385287,0.386572,-0.385000,0.387000,-0.382000,0.391000,-0.381536,0.391536,-0.377784,0.395288,-0.375000,0.399000,-0.374000,0.400000,-0.370288,0.402784,-0.366536,0.406536,-0.366000,0.407000,-0.362000,0.410000,-0.361572,0.410287,-0.356798,0.413151,-0.353000,0.416000,
-0.351857,0.416642,-0.347052,0.418564,-0.343236,0.420472,-0.342857,0.420642,-0.327857,0.426642,-0.326981,0.426903,-0.316981,0.428903,-0.316000,0.429000,-0.310496,0.429000,-0.305981,0.429903,-0.305000,0.430000,0.805000,0.430000,0.805981,0.429903,0.805981,0.429903,$1*%
%AMFreePoly4*
4,1,222,0.131581,0.304743,0.133810,0.304000,0.135000,0.304000,0.136581,0.303743,0.138810,0.303000,0.140000,0.303000,0.141581,0.302743,0.144581,0.301743,0.145236,0.301472,0.146920,0.300630,0.149581,0.299743,0.151536,0.298536,0.152964,0.297108,0.154236,0.296472,0.155536,0.295536,0.156964,0.294108,0.158236,0.293472,0.159536,0.292536,0.167536,0.284536,0.168472,0.283236,
0.169108,0.281964,0.170536,0.280536,0.171472,0.279236,0.172108,0.277964,0.173536,0.276536,0.174743,0.274581,0.175630,0.271920,0.176472,0.270236,0.176743,0.269581,0.177743,0.266581,0.178000,0.265000,0.178000,0.263810,0.178743,0.261581,0.179000,0.260000,0.179000,0.258810,0.179743,0.256581,0.180000,0.255000,0.180000,0.045496,0.180903,0.040981,0.181000,0.040000,
0.181000,0.034496,0.182813,0.025428,0.188564,0.011052,0.190472,0.007236,0.190642,0.006857,0.192396,0.002472,0.195000,-0.001000,0.195287,-0.001428,0.198151,-0.006201,0.200784,-0.009712,0.204536,-0.013464,0.205000,-0.014000,0.207571,-0.017428,0.211000,-0.020000,0.211536,-0.020464,0.215288,-0.024216,0.218798,-0.026849,0.223572,-0.029713,0.224000,-0.030000,0.227472,-0.032604,
0.231857,-0.034358,0.232236,-0.034528,0.236052,-0.036436,0.250428,-0.042186,0.259496,-0.044000,0.265000,-0.044000,0.265981,-0.044097,0.270496,-0.045000,1.005000,-0.045000,1.006581,-0.045257,1.008810,-0.046000,1.010000,-0.046000,1.011581,-0.046257,1.013810,-0.047000,1.015000,-0.047000,1.016581,-0.047257,1.019581,-0.048257,1.020236,-0.048528,1.021920,-0.049370,1.024581,-0.050257,
1.026536,-0.051464,1.027964,-0.052892,1.029236,-0.053528,1.030536,-0.054464,1.031964,-0.055892,1.033236,-0.056528,1.034536,-0.057464,1.042536,-0.065464,1.043472,-0.066764,1.044108,-0.068036,1.045536,-0.069464,1.046472,-0.070764,1.047108,-0.072036,1.048536,-0.073464,1.049743,-0.075419,1.050630,-0.078080,1.051472,-0.079764,1.051743,-0.080419,1.052743,-0.083419,1.053000,-0.085000,
1.053000,-0.086190,1.053743,-0.088419,1.054000,-0.090000,1.054000,-0.091190,1.054743,-0.093419,1.055000,-0.095000,1.055000,-0.255000,1.054743,-0.256581,1.054000,-0.258810,1.054000,-0.260000,1.053743,-0.261581,1.053000,-0.263810,1.053000,-0.265000,1.052743,-0.266581,1.051743,-0.269581,1.051472,-0.270236,1.050630,-0.271920,1.049743,-0.274581,1.048536,-0.276536,1.047108,-0.277964,
1.046472,-0.279236,1.045536,-0.280536,1.044108,-0.281964,1.043472,-0.283236,1.042536,-0.284536,1.034536,-0.292536,1.033236,-0.293472,1.031964,-0.294108,1.030536,-0.295536,1.029236,-0.296472,1.027964,-0.297108,1.026536,-0.298536,1.024581,-0.299743,1.021920,-0.300630,1.020236,-0.301472,1.019581,-0.301743,1.016581,-0.302743,1.015000,-0.303000,1.013810,-0.303000,1.011581,-0.303743,
1.010000,-0.304000,1.008810,-0.304000,1.006581,-0.304743,1.005000,-0.305000,-0.130000,-0.305000,-0.131581,-0.304743,-0.133810,-0.304000,-0.135000,-0.304000,-0.136581,-0.303743,-0.138810,-0.303000,-0.140000,-0.303000,-0.141581,-0.302743,-0.144581,-0.301743,-0.145236,-0.301472,-0.146920,-0.300630,-0.149581,-0.299743,-0.151536,-0.298536,-0.152964,-0.297108,-0.154236,-0.296472,-0.155536,-0.295536,
-0.156964,-0.294108,-0.158236,-0.293472,-0.159536,-0.292536,-0.167536,-0.284536,-0.168472,-0.283236,-0.169108,-0.281964,-0.170536,-0.280536,-0.171472,-0.279236,-0.172108,-0.277964,-0.173536,-0.276536,-0.174743,-0.274581,-0.175630,-0.271920,-0.176472,-0.270236,-0.176743,-0.269581,-0.177743,-0.266581,-0.178000,-0.265000,-0.178000,-0.263810,-0.178743,-0.261581,-0.179000,-0.260000,-0.179000,-0.258810,
-0.179743,-0.256581,-0.180000,-0.255000,-0.180000,0.255000,-0.179743,0.256581,-0.179000,0.258810,-0.179000,0.260000,-0.178743,0.261581,-0.178000,0.263810,-0.178000,0.265000,-0.177743,0.266581,-0.176743,0.269581,-0.176472,0.270236,-0.175630,0.271920,-0.174743,0.274581,-0.173536,0.276536,-0.172108,0.277964,-0.171472,0.279236,-0.170536,0.280536,-0.169108,0.281964,-0.168472,0.283236,
-0.167536,0.284536,-0.159536,0.292536,-0.158236,0.293472,-0.156964,0.294108,-0.155536,0.295536,-0.154236,0.296472,-0.152964,0.297108,-0.151536,0.298536,-0.149581,0.299743,-0.146920,0.300630,-0.145236,0.301472,-0.144581,0.301743,-0.141581,0.302743,-0.140000,0.303000,-0.138810,0.303000,-0.136581,0.303743,-0.135000,0.304000,-0.133810,0.304000,-0.131581,0.304743,-0.130000,0.305000,
0.130000,0.305000,0.131581,0.304743,0.131581,0.304743,$1*%
%AMFreePoly5*
4,1,222,0.131581,0.304743,0.133810,0.304000,0.135000,0.304000,0.136581,0.303743,0.138810,0.303000,0.140000,0.303000,0.141581,0.302743,0.144581,0.301743,0.145236,0.301472,0.146920,0.300630,0.149581,0.299743,0.151536,0.298536,0.152964,0.297108,0.154236,0.296472,0.155536,0.295536,0.156964,0.294108,0.158236,0.293472,0.159536,0.292536,0.167536,0.284536,0.168472,0.283236,
0.169108,0.281964,0.170536,0.280536,0.171472,0.279236,0.172108,0.277964,0.173536,0.276536,0.174743,0.274581,0.175630,0.271920,0.176472,0.270236,0.176743,0.269581,0.177743,0.266581,0.178000,0.265000,0.178000,0.263810,0.178743,0.261581,0.179000,0.260000,0.179000,0.258810,0.179743,0.256581,0.180000,0.255000,0.180000,-0.255000,0.179743,-0.256581,0.179000,-0.258810,
0.179000,-0.260000,0.178743,-0.261581,0.178000,-0.263810,0.178000,-0.265000,0.177743,-0.266581,0.176743,-0.269581,0.176472,-0.270236,0.175630,-0.271920,0.174743,-0.274581,0.173536,-0.276536,0.172108,-0.277964,0.171472,-0.279236,0.170536,-0.280536,0.169108,-0.281964,0.168472,-0.283236,0.167536,-0.284536,0.159536,-0.292536,0.158236,-0.293472,0.156964,-0.294108,0.155536,-0.295536,
0.154236,-0.296472,0.152964,-0.297108,0.151536,-0.298536,0.149581,-0.299743,0.146920,-0.300630,0.145236,-0.301472,0.144581,-0.301743,0.141581,-0.302743,0.140000,-0.303000,0.138810,-0.303000,0.136581,-0.303743,0.135000,-0.304000,0.133810,-0.304000,0.131581,-0.304743,0.130000,-0.305000,-1.005000,-0.305000,-1.006581,-0.304743,-1.008810,-0.304000,-1.010000,-0.304000,-1.011581,-0.303743,
-1.013810,-0.303000,-1.015000,-0.303000,-1.016581,-0.302743,-1.019581,-0.301743,-1.020236,-0.301472,-1.021920,-0.300630,-1.024581,-0.299743,-1.026536,-0.298536,-1.027964,-0.297108,-1.029236,-0.296472,-1.030536,-0.295536,-1.031964,-0.294108,-1.033236,-0.293472,-1.034536,-0.292536,-1.042536,-0.284536,-1.043472,-0.283236,-1.044108,-0.281964,-1.045536,-0.280536,-1.046472,-0.279236,-1.047108,-0.277964,
-1.048536,-0.276536,-1.049743,-0.274581,-1.050630,-0.271920,-1.051472,-0.270236,-1.051743,-0.269581,-1.052743,-0.266581,-1.053000,-0.265000,-1.053000,-0.263810,-1.053743,-0.261581,-1.054000,-0.260000,-1.054000,-0.258810,-1.054743,-0.256581,-1.055000,-0.255000,-1.055000,-0.095000,-1.054743,-0.093419,-1.054000,-0.091190,-1.054000,-0.090000,-1.053743,-0.088419,-1.053000,-0.086190,-1.053000,-0.085000,
-1.052743,-0.083419,-1.051743,-0.080419,-1.051472,-0.079764,-1.050630,-0.078080,-1.049743,-0.075419,-1.048536,-0.073464,-1.047108,-0.072036,-1.046472,-0.070764,-1.045536,-0.069464,-1.044108,-0.068036,-1.043472,-0.066764,-1.042536,-0.065464,-1.034536,-0.057464,-1.033236,-0.056528,-1.031964,-0.055892,-1.030536,-0.054464,-1.029236,-0.053528,-1.027964,-0.052892,-1.026536,-0.051464,-1.024581,-0.050257,
-1.021920,-0.049370,-1.020236,-0.048528,-1.019581,-0.048257,-1.016581,-0.047257,-1.015000,-0.047000,-1.013810,-0.047000,-1.011581,-0.046257,-1.010000,-0.046000,-1.008810,-0.046000,-1.006581,-0.045257,-1.005000,-0.045000,-0.270496,-0.045000,-0.265981,-0.044097,-0.265000,-0.044000,-0.259496,-0.044000,-0.250428,-0.042186,-0.236052,-0.036436,-0.232236,-0.034528,-0.231857,-0.034358,-0.227472,-0.032604,
-0.224000,-0.030000,-0.223572,-0.029713,-0.218798,-0.026849,-0.215288,-0.024216,-0.211536,-0.020464,-0.211000,-0.020000,-0.207571,-0.017428,-0.205000,-0.014000,-0.204536,-0.013464,-0.200784,-0.009712,-0.198151,-0.006201,-0.195287,-0.001428,-0.195000,-0.001000,-0.192396,0.002472,-0.190642,0.006857,-0.190472,0.007236,-0.188564,0.011052,-0.182813,0.025428,-0.181000,0.034496,-0.181000,0.040000,
-0.180903,0.040981,-0.180000,0.045496,-0.180000,0.255000,-0.179743,0.256581,-0.179000,0.258810,-0.179000,0.260000,-0.178743,0.261581,-0.178000,0.263810,-0.178000,0.265000,-0.177743,0.266581,-0.176743,0.269581,-0.176472,0.270236,-0.175630,0.271920,-0.174743,0.274581,-0.173536,0.276536,-0.172108,0.277964,-0.171472,0.279236,-0.170536,0.280536,-0.169108,0.281964,-0.168472,0.283236,
-0.167536,0.284536,-0.159536,0.292536,-0.158236,0.293472,-0.156964,0.294108,-0.155536,0.295536,-0.154236,0.296472,-0.152964,0.297108,-0.151536,0.298536,-0.149581,0.299743,-0.146920,0.300630,-0.145236,0.301472,-0.144581,0.301743,-0.141581,0.302743,-0.140000,0.303000,-0.138810,0.303000,-0.136581,0.303743,-0.135000,0.304000,-0.133810,0.304000,-0.131581,0.304743,-0.130000,0.305000,
0.130000,0.305000,0.131581,0.304743,0.131581,0.304743,$1*%
%AMFreePoly6*
4,1,17,1.253254,0.753796,1.953254,0.153796,1.954985,0.150383,1.955000,0.150000,1.955000,-0.850000,1.953536,-0.853536,1.950000,-0.855000,-1.950000,-0.855000,-1.953536,-0.853536,-1.955000,-0.850000,-1.955000,0.150000,-1.953536,0.153536,-1.953254,0.153796,-1.253254,0.753796,-1.250000,0.755000,1.250000,0.755000,1.253254,0.753796,1.253254,0.753796,$1*%
%AMFreePoly7*
4,1,17,1.953536,0.853536,1.955000,0.850000,1.955000,-0.150000,1.953536,-0.153536,1.953254,-0.153796,1.253254,-0.753796,1.250000,-0.755000,-1.250000,-0.755000,-1.253254,-0.753796,-1.953254,-0.153796,-1.954985,-0.150383,-1.955000,-0.150000,-1.955000,0.850000,-1.953536,0.853536,-1.950000,0.855000,1.950000,0.855000,1.953536,0.853536,1.953536,0.853536,$1*%
G04 Aperture macros list end*
%TA.AperFunction,SMDPad,CuDef*%
%ADD10RoundRect,0.140000X0.140000X0.170000X-0.140000X0.170000X-0.140000X-0.170000X0.140000X-0.170000X0*%
%TD*%
%TA.AperFunction,SMDPad,CuDef*%
%ADD11RoundRect,0.140000X0.170000X-0.140000X0.170000X0.140000X-0.170000X0.140000X-0.170000X-0.140000X0*%
%TD*%
%TA.AperFunction,SMDPad,CuDef*%
%ADD12RoundRect,0.135000X-0.135000X-0.185000X0.135000X-0.185000X0.135000X0.185000X-0.135000X0.185000X0*%
%TD*%
%TA.AperFunction,SMDPad,CuDef*%
%ADD13RoundRect,0.218750X0.256250X-0.218750X0.256250X0.218750X-0.256250X0.218750X-0.256250X-0.218750X0*%
%TD*%
%TA.AperFunction,SMDPad,CuDef*%
%ADD14RoundRect,0.135000X0.185000X-0.135000X0.185000X0.135000X-0.185000X0.135000X-0.185000X-0.135000X0*%
%TD*%
%TA.AperFunction,SMDPad,CuDef*%
%ADD15RoundRect,0.050000X-0.050000X0.362500X-0.050000X-0.362500X0.050000X-0.362500X0.050000X0.362500X0*%
%TD*%
%TA.AperFunction,SMDPad,CuDef*%
%ADD16RoundRect,0.050000X-0.362500X0.050000X-0.362500X-0.050000X0.362500X-0.050000X0.362500X0.050000X0*%
%TD*%
%TA.AperFunction,HeatsinkPad*%
%ADD17R,1.700000X1.700000*%
%TD*%
%TA.AperFunction,SMDPad,CuDef*%
%ADD18RoundRect,0.140000X-0.140000X-0.170000X0.140000X-0.170000X0.140000X0.170000X-0.140000X0.170000X0*%
%TD*%
%TA.AperFunction,SMDPad,CuDef*%
%ADD19RoundRect,0.150000X-0.150000X0.512500X-0.150000X-0.512500X0.150000X-0.512500X0.150000X0.512500X0*%
%TD*%
%TA.AperFunction,SMDPad,CuDef*%
%ADD20RoundRect,0.250000X-0.525000X-0.250000X0.525000X-0.250000X0.525000X0.250000X-0.525000X0.250000X0*%
%TD*%
%TA.AperFunction,SMDPad,CuDef*%
%ADD21RoundRect,0.100000X0.100000X-0.637500X0.100000X0.637500X-0.100000X0.637500X-0.100000X-0.637500X0*%
%TD*%
%TA.AperFunction,SMDPad,CuDef*%
%ADD22RoundRect,0.050000X0.075000X-0.350000X0.075000X0.350000X-0.075000X0.350000X-0.075000X-0.350000X0*%
%TD*%
%TA.AperFunction,SMDPad,CuDef*%
%ADD23FreePoly0,90.000000*%
%TD*%
%TA.AperFunction,SMDPad,CuDef*%
%ADD24FreePoly1,90.000000*%
%TD*%
%TA.AperFunction,SMDPad,CuDef*%
%ADD25FreePoly2,90.000000*%
%TD*%
%TA.AperFunction,SMDPad,CuDef*%
%ADD26FreePoly3,90.000000*%
%TD*%
%TA.AperFunction,SMDPad,CuDef*%
%ADD27FreePoly4,90.000000*%
%TD*%
%TA.AperFunction,SMDPad,CuDef*%
%ADD28RoundRect,0.049500X0.225500X-0.100500X0.225500X0.100500X-0.225500X0.100500X-0.225500X-0.100500X0*%
%TD*%
%TA.AperFunction,SMDPad,CuDef*%
%ADD29FreePoly5,90.000000*%
%TD*%
%TA.AperFunction,SMDPad,CuDef*%
%ADD30RoundRect,0.135000X-0.185000X0.135000X-0.185000X-0.135000X0.185000X-0.135000X0.185000X0.135000X0*%
%TD*%
%TA.AperFunction,SMDPad,CuDef*%
%ADD31RoundRect,0.135000X0.135000X0.185000X-0.135000X0.185000X-0.135000X-0.185000X0.135000X-0.185000X0*%
%TD*%
%TA.AperFunction,SMDPad,CuDef*%
%ADD32RoundRect,0.140000X-0.170000X0.140000X-0.170000X-0.140000X0.170000X-0.140000X0.170000X0.140000X0*%
%TD*%
%TA.AperFunction,SMDPad,CuDef*%
%ADD33RoundRect,0.115000X-0.115000X-0.195000X0.115000X-0.195000X0.115000X0.195000X-0.115000X0.195000X0*%
%TD*%
%TA.AperFunction,SMDPad,CuDef*%
%ADD34RoundRect,0.075000X0.075000X-0.662500X0.075000X0.662500X-0.075000X0.662500X-0.075000X-0.662500X0*%
%TD*%
%TA.AperFunction,SMDPad,CuDef*%
%ADD35RoundRect,0.218750X-0.218750X-0.381250X0.218750X-0.381250X0.218750X0.381250X-0.218750X0.381250X0*%
%TD*%
%TA.AperFunction,ComponentPad*%
%ADD36O,1.800000X2.800000*%
%TD*%
%TA.AperFunction,SMDPad,CuDef*%
%ADD37RoundRect,0.250000X-0.350000X0.450000X-0.350000X-0.450000X0.350000X-0.450000X0.350000X0.450000X0*%
%TD*%
%TA.AperFunction,SMDPad,CuDef*%
%ADD38RoundRect,0.120000X0.119999X0.200000X-0.119999X0.200000X-0.119999X-0.200000X0.119999X-0.200000X0*%
%TD*%
%TA.AperFunction,SMDPad,CuDef*%
%ADD39RoundRect,0.120000X0.120000X0.200000X-0.120000X0.200000X-0.120000X-0.200000X0.120000X-0.200000X0*%
%TD*%
%TA.AperFunction,ComponentPad*%
%ADD40R,0.850000X0.850000*%
%TD*%
%TA.AperFunction,ComponentPad*%
%ADD41C,0.850000*%
%TD*%
%TA.AperFunction,SMDPad,CuDef*%
%ADD42RoundRect,0.100000X-0.637500X-0.100000X0.637500X-0.100000X0.637500X0.100000X-0.637500X0.100000X0*%
%TD*%
%TA.AperFunction,SMDPad,CuDef*%
%ADD43FreePoly6,180.000000*%
%TD*%
%TA.AperFunction,SMDPad,CuDef*%
%ADD44FreePoly7,180.000000*%
%TD*%
%TA.AperFunction,ComponentPad*%
%ADD45C,3.216000*%
%TD*%
%TA.AperFunction,ComponentPad*%
%ADD46C,1.508000*%
%TD*%
%TA.AperFunction,SMDPad,CuDef*%
%ADD47R,1.200000X0.700000*%
%TD*%
%TA.AperFunction,SMDPad,CuDef*%
%ADD48R,0.800000X1.000000*%
%TD*%
%TA.AperFunction,SMDPad,CuDef*%
%ADD49R,1.200000X1.000000*%
%TD*%
%TA.AperFunction,SMDPad,CuDef*%
%ADD50R,2.800000X1.000000*%
%TD*%
%TA.AperFunction,SMDPad,CuDef*%
%ADD51R,1.900000X1.300000*%
%TD*%
%TA.AperFunction,SMDPad,CuDef*%
%ADD52RoundRect,0.150000X0.150000X0.425000X-0.150000X0.425000X-0.150000X-0.425000X0.150000X-0.425000X0*%
%TD*%
%TA.AperFunction,SMDPad,CuDef*%
%ADD53RoundRect,0.075000X0.075000X0.500000X-0.075000X0.500000X-0.075000X-0.500000X0.075000X-0.500000X0*%
%TD*%
%TA.AperFunction,ComponentPad*%
%ADD54O,1.000000X2.100000*%
%TD*%
%TA.AperFunction,ComponentPad*%
%ADD55O,1.000000X1.800000*%
%TD*%
%TA.AperFunction,SMDPad,CuDef*%
%ADD56RoundRect,0.100000X-0.100000X0.712500X-0.100000X-0.712500X0.100000X-0.712500X0.100000X0.712500X0*%
%TD*%
%TA.AperFunction,SMDPad,CuDef*%
%ADD57RoundRect,0.075000X-0.662500X-0.075000X0.662500X-0.075000X0.662500X0.075000X-0.662500X0.075000X0*%
%TD*%
%TA.AperFunction,ComponentPad*%
%ADD58RoundRect,0.250000X-0.550000X-0.550000X0.550000X-0.550000X0.550000X0.550000X-0.550000X0.550000X0*%
%TD*%
%TA.AperFunction,ComponentPad*%
%ADD59C,1.600000*%
%TD*%
%TA.AperFunction,SMDPad,CuDef*%
%ADD60RoundRect,0.050000X-0.350000X-0.050000X0.350000X-0.050000X0.350000X0.050000X-0.350000X0.050000X0*%
%TD*%
%TA.AperFunction,SMDPad,CuDef*%
%ADD61RoundRect,0.050000X-0.050000X-0.350000X0.050000X-0.350000X0.050000X0.350000X-0.050000X0.350000X0*%
%TD*%
%TA.AperFunction,HeatsinkPad*%
%ADD62R,3.400000X3.400000*%
%TD*%
%TA.AperFunction,ComponentPad*%
%ADD63C,3.000000*%
%TD*%
%TA.AperFunction,ViaPad*%
%ADD64C,0.450000*%
%TD*%
%TA.AperFunction,Conductor*%
%ADD65C,0.200000*%
%TD*%
%TA.AperFunction,Conductor*%
%ADD66C,0.203200*%
%TD*%
%TA.AperFunction,Conductor*%
%ADD67C,0.177800*%
%TD*%
%TA.AperFunction,Conductor*%
%ADD68C,0.508000*%
%TD*%
%TA.AperFunction,Conductor*%
%ADD69C,0.254000*%
%TD*%
%TA.AperFunction,Conductor*%
%ADD70C,0.314058*%
%TD*%
%TA.AperFunction,Conductor*%
%ADD71C,0.381000*%
%TD*%
G04 APERTURE END LIST*
D10*
%TO.P,C46,1*%
%TO.N,Net-(U10C-+)*%
X160175000Y-96266000D03*
%TO.P,C46,2*%
%TO.N,Net-(C45-Pad1)*%
X159215000Y-96266000D03*
%TD*%
D11*
%TO.P,C51,1*%
%TO.N,Net-(U9-IN2P)*%
X150622000Y-77105000D03*
%TO.P,C51,2*%
%TO.N,GND*%
X150622000Y-76145000D03*
%TD*%
D12*
%TO.P,R6,1*%
%TO.N,/Control/XOUT*%
X130046000Y-84582000D03*
%TO.P,R6,2*%
%TO.N,/Control/XR*%
X131066000Y-84582000D03*
%TD*%
D13*
%TO.P,D1,1,K_1*%
%TO.N,GND*%
X187960000Y-123215500D03*
%TO.P,D1,2,A_2*%
%TO.N,Net-(D1-A)*%
X187960000Y-121640500D03*
%TD*%
D14*
%TO.P,R29,1*%
%TO.N,/Control/SD_MOSI*%
X154686000Y-72138000D03*
%TO.P,R29,2*%
%TO.N,+3.3V*%
X154686000Y-71118000D03*
%TD*%
D15*
%TO.P,U9,1,IN1P_1*%
%TO.N,/Audio/RECORDED_SPEECH*%
X151422000Y-78972500D03*
%TO.P,U9,2,IN1M_2*%
%TO.N,Net-(U9-IN1M)*%
X151022000Y-78972500D03*
%TO.P,U9,3,IN2P_3*%
%TO.N,Net-(U9-IN2P)*%
X150622000Y-78972500D03*
%TO.P,U9,4,IN2M_4*%
%TO.N,Net-(U9-IN2M)*%
X150222000Y-78972500D03*
%TO.P,U9,5,VSS_5*%
%TO.N,GND*%
X149822000Y-78972500D03*
D16*
%TO.P,U9,6,SDOUT_6*%
%TO.N,/SDATA*%
X149159500Y-79635000D03*
%TO.P,U9,7,BCLK_7*%
%TO.N,/BCLK*%
X149159500Y-80035000D03*
%TO.P,U9,8,FSYNC_8*%
%TO.N,/FSYNC*%
X149159500Y-80435000D03*
%TO.P,U9,9,IOVDD_9*%
%TO.N,+3.3V*%
X149159500Y-80835000D03*
%TO.P,U9,10,VSS_10*%
%TO.N,GND*%
X149159500Y-81235000D03*
D15*
%TO.P,U9,11,MD1_11*%
X149822000Y-81897500D03*
%TO.P,U9,12,MD0_12*%
X150222000Y-81897500D03*
%TO.P,U9,13,MSZ_13*%
X150622000Y-81897500D03*
%TO.P,U9,14,DREG_14*%
%TO.N,Net-(U9-DREG)*%
X151022000Y-81897500D03*
%TO.P,U9,15,VSS_15*%
%TO.N,GND*%
X151422000Y-81897500D03*
D16*
%TO.P,U9,16,AVDD_16*%
%TO.N,+3.3V*%
X152084500Y-81235000D03*
%TO.P,U9,17,AREG_17*%
%TO.N,Net-(U9-AREG)*%
X152084500Y-80835000D03*
%TO.P,U9,18,VREF_18*%
%TO.N,Net-(U9-VREF)*%
X152084500Y-80435000D03*
%TO.P,U9,19,FTM0_19*%
%TO.N,GND*%
X152084500Y-80035000D03*
%TO.P,U9,20,VSS_20*%
X152084500Y-79635000D03*
D17*
%TO.P,U9,21,PAD_21*%
X150622000Y-80435000D03*
%TD*%
D14*
%TO.P,R8,1*%
%TO.N,/Control/D+*%
X130040000Y-71630000D03*
%TO.P,R8,2*%
%TO.N,/USB_D+*%
X130040000Y-70610000D03*
%TD*%
D18*
%TO.P,C43,1*%
%TO.N,Net-(U10B--)*%
X158223000Y-87630000D03*
%TO.P,C43,2*%
%TO.N,Net-(C43-Pad2)*%
X159183000Y-87630000D03*
%TD*%
D19*
%TO.P,U7,1,SW_1*%
%TO.N,Net-(U7-SW)*%
X115250000Y-61878500D03*
%TO.P,U7,2,GND_2*%
%TO.N,GND*%
X114300000Y-61878500D03*
%TO.P,U7,3,FB_3*%
%TO.N,Net-(U7-FB)*%
X113350000Y-61878500D03*
%TO.P,U7,4,EN_4*%
%TO.N,+5V*%
X113350000Y-64153500D03*
%TO.P,U7,5,VOUT_5*%
%TO.N,/Power/+9V_RAW*%
X114300000Y-64153500D03*
%TO.P,U7,6,VIN_6*%
%TO.N,+5V*%
X115250000Y-64153500D03*
%TD*%
D20*
%TO.P,SW1,1*%
%TO.N,GND*%
X139700000Y-60630000D03*
%TO.P,SW1,2*%
X144950000Y-60630000D03*
%TO.P,SW1,3*%
%TO.N,Net-(R11-Pad2)*%
X139700000Y-63830000D03*
%TO.P,SW1,4*%
X144950000Y-63830000D03*
%TD*%
D18*
%TO.P,C38,1*%
%TO.N,Net-(U9-AREG)*%
X153952000Y-81451000D03*
%TO.P,C38,2*%
%TO.N,GND*%
X154912000Y-81451000D03*
%TD*%
D11*
%TO.P,C11,1*%
%TO.N,/Control/XR*%
X132588000Y-88364000D03*
%TO.P,C11,2*%
%TO.N,GND*%
X132588000Y-87404000D03*
%TD*%
D21*
%TO.P,U3,1,DIR_1*%
%TO.N,Net-(U3-DIR)*%
X147697000Y-106240500D03*
%TO.P,U3,2,A1_2*%
%TO.N,/Digitalker/DIGI_ROM_ADDR8*%
X148347000Y-106240500D03*
%TO.P,U3,3,A2_3*%
%TO.N,/Digitalker/DIGI_ROM_ADDR9*%
X148997000Y-106240500D03*
%TO.P,U3,4,A3_4*%
%TO.N,/Digitalker/DIGI_ROM_ADDR10*%
X149647000Y-106240500D03*
%TO.P,U3,5,A4_5*%
%TO.N,/Digitalker/DIGI_ROM_ADDR11*%
X150297000Y-106240500D03*
%TO.P,U3,6,A5_6*%
%TO.N,/Digitalker/DIGI_ROM_ADDR12*%
X150947000Y-106240500D03*
%TO.P,U3,7,A6_7*%
%TO.N,/Digitalker/DIGI_ROM_ADDR13*%
X151597000Y-106240500D03*
%TO.P,U3,8,A7_8*%
%TO.N,/Digitalker/DIGI_~{ROMEN}*%
X152247000Y-106240500D03*
%TO.P,U3,9,A8_9*%
%TO.N,/Digitalker/DIGI_INTR*%
X152897000Y-106240500D03*
%TO.P,U3,10,GND_10*%
%TO.N,GND*%
X153547000Y-106240500D03*
%TO.P,U3,11,B8_11*%
%TO.N,/INTR*%
X153547000Y-100515500D03*
%TO.P,U3,12,B7_12*%
%TO.N,/~{ROMEN}*%
X152897000Y-100515500D03*
%TO.P,U3,13,B6_13*%
%TO.N,/ROM_ADDR13*%
X152247000Y-100515500D03*
%TO.P,U3,14,B5_14*%
%TO.N,/ROM_ADDR12*%
X151597000Y-100515500D03*
%TO.P,U3,15,B4_15*%
%TO.N,/ROM_ADDR11*%
X150947000Y-100515500D03*
%TO.P,U3,16,B3_16*%
%TO.N,/ROM_ADDR10*%
X150297000Y-100515500D03*
%TO.P,U3,17,B2_17*%
%TO.N,/ROM_ADDR9*%
X149647000Y-100515500D03*
%TO.P,U3,18,B1_18*%
%TO.N,/ROM_ADDR8*%
X148997000Y-100515500D03*
%TO.P,U3,19,~{OE}_19*%
%TO.N,GND*%
X148347000Y-100515500D03*
%TO.P,U3,20,VCC_20*%
%TO.N,+3.3V*%
X147697000Y-100515500D03*
%TD*%
D22*
%TO.P,U8,1,EN_1*%
%TO.N,+5V*%
X141176000Y-71341000D03*
%TO.P,U8,2,FB_2*%
%TO.N,Net-(U8-FB)*%
X141676000Y-71341000D03*
D23*
%TO.P,U8,3,GND_3*%
%TO.N,GND*%
X142188000Y-71341000D03*
D24*
%TO.P,U8,4,VOUT_4*%
%TO.N,/Power/+3V3_RAW*%
X143764000Y-70866000D03*
D25*
%TO.P,U8,5,SW_5*%
%TO.N,unconnected-(U8-SW-Pad5)*%
X143764000Y-68916000D03*
D26*
%TO.P,U8,6,VIN_6*%
%TO.N,+5V*%
X141426000Y-68891000D03*
D27*
%TO.P,U8,7,MODE_7*%
%TO.N,Net-(U8-MODE)*%
X140501000Y-69091000D03*
D28*
%TO.P,U8,8,SS/PG_8*%
%TO.N,unconnected-(U8-SS{slash}PG-Pad8)*%
X140476000Y-70116000D03*
D29*
%TO.P,U8,9,RT/SYNC_9*%
%TO.N,GND*%
X140501000Y-70691000D03*
%TD*%
D30*
%TO.P,R13,1*%
%TO.N,/Control/LED_GR*%
X187960000Y-119124000D03*
%TO.P,R13,2*%
%TO.N,Net-(D1-A)*%
X187960000Y-120144000D03*
%TD*%
%TO.P,R2,1*%
%TO.N,Net-(U3-DIR)*%
X147574000Y-108202000D03*
%TO.P,R2,2*%
%TO.N,+3.3V*%
X147574000Y-109222000D03*
%TD*%
D31*
%TO.P,R14,1*%
%TO.N,/Power/+9V_RAW*%
X114302000Y-66064000D03*
%TO.P,R14,2*%
%TO.N,Net-(U7-FB)*%
X113282000Y-66064000D03*
%TD*%
D32*
%TO.P,C14,1*%
%TO.N,/Control/VREG_AVDD*%
X135140000Y-71302000D03*
%TO.P,C14,2*%
%TO.N,GND*%
X135140000Y-72262000D03*
%TD*%
D33*
%TO.P,C12,1*%
%TO.N,+1V1*%
X132010000Y-70982000D03*
%TO.P,C12,2*%
%TO.N,GND*%
X133070000Y-70982000D03*
%TD*%
D34*
%TO.P,U6,1,V_{CCA}_1*%
%TO.N,+3.3V*%
X107232000Y-130693000D03*
%TO.P,U6,2,DIR_2*%
%TO.N,Net-(U6-DIR)*%
X107732000Y-130693000D03*
%TO.P,U6,3,A1_3*%
%TO.N,/RDATA0*%
X108232000Y-130693000D03*
%TO.P,U6,4,A2_4*%
%TO.N,/RDATA1*%
X108732000Y-130693000D03*
%TO.P,U6,5,A3_5*%
%TO.N,/RDATA2*%
X109232000Y-130693000D03*
%TO.P,U6,6,A4_6*%
%TO.N,/RDATA3*%
X109732000Y-130693000D03*
%TO.P,U6,7,A5_7*%
%TO.N,/RDATA4*%
X110232000Y-130693000D03*
%TO.P,U6,8,A6_8*%
%TO.N,/RDATA5*%
X110732000Y-130693000D03*
%TO.P,U6,9,A7_9*%
%TO.N,/RDATA6*%
X111232000Y-130693000D03*
%TO.P,U6,10,A8_10*%
%TO.N,/RDATA7*%
X111732000Y-130693000D03*
%TO.P,U6,11,GND_11*%
%TO.N,GND*%
X112232000Y-130693000D03*
%TO.P,U6,12,GND_12*%
X112732000Y-130693000D03*
%TO.P,U6,13,GND_13*%
X112732000Y-124968000D03*
%TO.P,U6,14,B8_14*%
%TO.N,/Digitalker/DIGI_RDATA7*%
X112232000Y-124968000D03*
%TO.P,U6,15,B7_15*%
%TO.N,/Digitalker/DIGI_RDATA6*%
X111732000Y-124968000D03*
%TO.P,U6,16,B6_16*%
%TO.N,/Digitalker/DIGI_RDATA5*%
X111232000Y-124968000D03*
%TO.P,U6,17,B5_17*%
%TO.N,/Digitalker/DIGI_RDATA4*%
X110732000Y-124968000D03*
%TO.P,U6,18,B4_18*%
%TO.N,/Digitalker/DIGI_RDATA3*%
X110232000Y-124968000D03*
%TO.P,U6,19,B3_19*%
%TO.N,/Digitalker/DIGI_RDATA2*%
X109732000Y-124968000D03*
%TO.P,U6,20,B2_20*%
%TO.N,/Digitalker/DIGI_RDATA1*%
X109232000Y-124968000D03*
%TO.P,U6,21,B1_21*%
%TO.N,/Digitalker/DIGI_RDATA0*%
X108732000Y-124968000D03*
%TO.P,U6,22,~{OE}_22*%
%TO.N,GND*%
X108232000Y-124968000D03*
%TO.P,U6,23,V_{CCB}_23*%
%TO.N,+5V*%
X107732000Y-124968000D03*
%TO.P,U6,24,V_{CCB}_24*%
X107232000Y-124968000D03*
%TD*%
D20*
%TO.P,SW2,1*%
%TO.N,Net-(R10-Pad2)*%
X157395000Y-60630000D03*
%TO.P,SW2,2*%
X162645000Y-60630000D03*
%TO.P,SW2,3*%
%TO.N,Net-(U1-RUN)*%
X157395000Y-63830000D03*
%TO.P,SW2,4*%
X162645000Y-63830000D03*
%TD*%
D12*
%TO.P,R16,1*%
%TO.N,Net-(U7-FB)*%
X113282000Y-67334000D03*
%TO.P,R16,2*%
%TO.N,GND*%
X114302000Y-67334000D03*
%TD*%
D18*
%TO.P,C49,1*%
%TO.N,/Audio/RECORDED_SPEECH*%
X153952000Y-78994000D03*
%TO.P,C49,2*%
%TO.N,/Digitalker/FILTERED_SPEECH*%
X154912000Y-78994000D03*
%TD*%
%TO.P,C31,1*%
%TO.N,+5V*%
X141396000Y-67097000D03*
%TO.P,C31,2*%
%TO.N,GND*%
X142356000Y-67097000D03*
%TD*%
D35*
%TO.P,L1,1*%
%TO.N,+1V1*%
X131477500Y-69482000D03*
%TO.P,L1,2*%
%TO.N,/Control/VREG_LX*%
X133602500Y-69482000D03*
%TD*%
D20*
%TO.P,SW3,1*%
%TO.N,/Control/BUTTON*%
X174413000Y-119558000D03*
%TO.P,SW3,2*%
X179663000Y-119558000D03*
%TO.P,SW3,3*%
%TO.N,+3.3V*%
X174413000Y-122758000D03*
%TO.P,SW3,4*%
X179663000Y-122758000D03*
%TD*%
D36*
%TO.P,J5,R*%
%TO.N,Net-(J5-PadR)*%
X181080000Y-67278000D03*
%TO.P,J5,RN*%
%TO.N,unconnected-(J5-PadRN)*%
X182880000Y-65278000D03*
%TO.P,J5,S*%
%TO.N,GND*%
X188980000Y-65278000D03*
%TO.P,J5,T*%
%TO.N,Net-(J5-PadT)*%
X186580000Y-67278000D03*
%TO.P,J5,TN*%
%TO.N,unconnected-(J5-PadTN)*%
X177380000Y-65278000D03*
%TD*%
D30*
%TO.P,R31,1*%
%TO.N,/Control/SD_MISO*%
X154686000Y-74420000D03*
%TO.P,R31,2*%
%TO.N,+3.3V*%
X154686000Y-75440000D03*
%TD*%
D31*
%TO.P,R17,1*%
%TO.N,/Power/+3V3_RAW*%
X143669000Y-73193000D03*
%TO.P,R17,2*%
%TO.N,Net-(U8-FB)*%
X142649000Y-73193000D03*
%TD*%
D33*
%TO.P,C13,1*%
%TO.N,+3.3V*%
X132010000Y-71982000D03*
%TO.P,C13,2*%
%TO.N,GND*%
X133070000Y-71982000D03*
%TD*%
D37*
%TO.P,X2,1*%
%TO.N,/Control/XIN*%
X129342000Y-86276000D03*
%TO.P,X2,2*%
%TO.N,GND*%
X129342000Y-88476000D03*
%TO.P,X2,3*%
%TO.N,/Control/XR*%
X131042000Y-88476000D03*
%TO.P,X2,4*%
%TO.N,GND*%
X131042000Y-86276000D03*
%TD*%
D30*
%TO.P,R1,1*%
%TO.N,Net-(U2-DIR)*%
X140462000Y-118616000D03*
%TO.P,R1,2*%
%TO.N,+3.3V*%
X140462000Y-119636000D03*
%TD*%
D34*
%TO.P,U5,1,V_{CCA}_1*%
%TO.N,+3.3V*%
X99076000Y-106240500D03*
%TO.P,U5,2,DIR_2*%
%TO.N,Net-(U5-DIR)*%
X99576000Y-106240500D03*
%TO.P,U5,3,A1_3*%
%TO.N,/SW1*%
X100076000Y-106240500D03*
%TO.P,U5,4,A2_4*%
%TO.N,/SW2*%
X100576000Y-106240500D03*
%TO.P,U5,5,A3_5*%
%TO.N,/SW3*%
X101076000Y-106240500D03*
%TO.P,U5,6,A4_6*%
%TO.N,/SW4*%
X101576000Y-106240500D03*
%TO.P,U5,7,A5_7*%
%TO.N,/SW5*%
X102076000Y-106240500D03*
%TO.P,U5,8,A6_8*%
%TO.N,/SW6*%
X102576000Y-106240500D03*
%TO.P,U5,9,A7_9*%
%TO.N,/SW7*%
X103076000Y-106240500D03*
%TO.P,U5,10,A8_10*%
%TO.N,/SW8*%
X103576000Y-106240500D03*
%TO.P,U5,11,GND_11*%
%TO.N,GND*%
X104076000Y-106240500D03*
%TO.P,U5,12,GND_12*%
X104576000Y-106240500D03*
%TO.P,U5,13,GND_13*%
X104576000Y-100515500D03*
%TO.P,U5,14,B8_14*%
%TO.N,/Digitalker/DIGI_SW8*%
X104076000Y-100515500D03*
%TO.P,U5,15,B7_15*%
%TO.N,/Digitalker/DIGI_SW7*%
X103576000Y-100515500D03*
%TO.P,U5,16,B6_16*%
%TO.N,/Digitalker/DIGI_SW6*%
X103076000Y-100515500D03*
%TO.P,U5,17,B5_17*%
%TO.N,/Digitalker/DIGI_SW5*%
X102576000Y-100515500D03*
%TO.P,U5,18,B4_18*%
%TO.N,/Digitalker/DIGI_SW4*%
X102076000Y-100515500D03*
%TO.P,U5,19,B3_19*%
%TO.N,/Digitalker/DIGI_SW3*%
X101576000Y-100515500D03*
%TO.P,U5,20,B2_20*%
%TO.N,/Digitalker/DIGI_SW2*%
X101076000Y-100515500D03*
%TO.P,U5,21,B1_21*%
%TO.N,/Digitalker/DIGI_SW1*%
X100576000Y-100515500D03*
%TO.P,U5,22,~{OE}_22*%
%TO.N,GND*%
X100076000Y-100515500D03*
%TO.P,U5,23,V_{CCB}_23*%
%TO.N,+5V*%
X99576000Y-100515500D03*
%TO.P,U5,24,V_{CCB}_24*%
X99076000Y-100515500D03*
%TD*%
D14*
%TO.P,R3,1*%
%TO.N,Net-(U4-DIR)*%
X101854000Y-72646000D03*
%TO.P,R3,2*%
%TO.N,+3.3V*%
X101854000Y-71626000D03*
%TD*%
D38*
%TO.P,R27,1*%
%TO.N,/Digitalker/FILTERED_SPEECH*%
X160262999Y-94996000D03*
D39*
%TO.P,R27,2*%
%TO.N,Net-(C45-Pad1)*%
X159183000Y-94996000D03*
%TD*%
D40*
%TO.P,J4,1,Pin_1_1*%
%TO.N,/Power/+9V_RAW*%
X118364000Y-67080000D03*
D41*
%TO.P,J4,2,Pin_2_2*%
%TO.N,+9V*%
X119364000Y-67080000D03*
%TD*%
D42*
%TO.P,U10,1*%
%TO.N,Net-(U10A--)*%
X157114500Y-89490000D03*
%TO.P,U10,2,-_2*%
X157114500Y-90140000D03*
%TO.P,U10,3,+_3*%
%TO.N,Net-(U10A-+)*%
X157114500Y-90790000D03*
%TO.P,U10,4,V+_4*%
%TO.N,+3.3V*%
X157114500Y-91440000D03*
%TO.P,U10,5,+_5*%
%TO.N,Net-(U10B-+)*%
X157114500Y-92090000D03*
%TO.P,U10,6,-_6*%
%TO.N,Net-(U10B--)*%
X157114500Y-92740000D03*
%TO.P,U10,7*%
X157114500Y-93390000D03*
%TO.P,U10,8*%
%TO.N,/Digitalker/FILTERED_SPEECH*%
X162839500Y-93390000D03*
%TO.P,U10,9,-_9*%
X162839500Y-92740000D03*
%TO.P,U10,10,+_10*%
%TO.N,Net-(U10C-+)*%
X162839500Y-92090000D03*
%TO.P,U10,11,V-_11*%
%TO.N,GND*%
X162839500Y-91440000D03*
%TO.P,U10,12,+_12*%
X162839500Y-90790000D03*
%TO.P,U10,13,-_13*%
%TO.N,Net-(U10D--)*%
X162839500Y-90140000D03*
%TO.P,U10,14*%
X162839500Y-89490000D03*
%TD*%
D21*
%TO.P,U2,1,DIR_1*%
%TO.N,Net-(U2-DIR)*%
X140585000Y-116654500D03*
%TO.P,U2,2,A1_2*%
%TO.N,/Digitalker/DIGI_ROM_ADDR0*%
X141235000Y-116654500D03*
%TO.P,U2,3,A2_3*%
%TO.N,/Digitalker/DIGI_ROM_ADDR1*%
X141885000Y-116654500D03*
%TO.P,U2,4,A3_4*%
%TO.N,/Digitalker/DIGI_ROM_ADDR2*%
X142535000Y-116654500D03*
%TO.P,U2,5,A4_5*%
%TO.N,/Digitalker/DIGI_ROM_ADDR3*%
X143185000Y-116654500D03*
%TO.P,U2,6,A5_6*%
%TO.N,/Digitalker/DIGI_ROM_ADDR4*%
X143835000Y-116654500D03*
%TO.P,U2,7,A6_7*%
%TO.N,/Digitalker/DIGI_ROM_ADDR5*%
X144485000Y-116654500D03*
%TO.P,U2,8,A7_8*%
%TO.N,/Digitalker/DIGI_ROM_ADDR6*%
X145135000Y-116654500D03*
%TO.P,U2,9,A8_9*%
%TO.N,/Digitalker/DIGI_ROM_ADDR7*%
X145785000Y-116654500D03*
%TO.P,U2,10,GND_10*%
%TO.N,GND*%
X146435000Y-116654500D03*
%TO.P,U2,11,B8_11*%
%TO.N,/ROM_ADDR7*%
X146435000Y-110929500D03*
%TO.P,U2,12,B7_12*%
%TO.N,/ROM_ADDR6*%
X145785000Y-110929500D03*
%TO.P,U2,13,B6_13*%
%TO.N,/ROM_ADDR5*%
X145135000Y-110929500D03*
%TO.P,U2,14,B5_14*%
%TO.N,/ROM_ADDR4*%
X144485000Y-110929500D03*
%TO.P,U2,15,B4_15*%
%TO.N,/ROM_ADDR3*%
X143835000Y-110929500D03*
%TO.P,U2,16,B3_16*%
%TO.N,/ROM_ADDR2*%
X143185000Y-110929500D03*
%TO.P,U2,17,B2_17*%
%TO.N,/ROM_ADDR1*%
X142535000Y-110929500D03*
%TO.P,U2,18,B1_18*%
%TO.N,/ROM_ADDR0*%
X141885000Y-110929500D03*
%TO.P,U2,19,~{OE}_19*%
%TO.N,GND*%
X141235000Y-110929500D03*
%TO.P,U2,20,VCC_20*%
%TO.N,+3.3V*%
X140585000Y-110929500D03*
%TD*%
D10*
%TO.P,C45,1*%
%TO.N,Net-(C45-Pad1)*%
X158143000Y-96266000D03*
%TO.P,C45,2*%
%TO.N,Net-(U10B--)*%
X157183000Y-96266000D03*
%TD*%
D18*
%TO.P,C44,1*%
%TO.N,Net-(U10B-+)*%
X160048000Y-85090000D03*
%TO.P,C44,2*%
%TO.N,GND*%
X161008000Y-85090000D03*
%TD*%
D10*
%TO.P,C53,1*%
%TO.N,Net-(C53-Pad1)*%
X172266000Y-108287250D03*
%TO.P,C53,2*%
%TO.N,/Digitalker/FILTERED_SPEECH*%
X171306000Y-108287250D03*
%TD*%
D11*
%TO.P,C52,1*%
%TO.N,Net-(U9-IN1M)*%
X151892000Y-77105000D03*
%TO.P,C52,2*%
%TO.N,GND*%
X151892000Y-76145000D03*
%TD*%
D31*
%TO.P,R4,1*%
%TO.N,Net-(U5-DIR)*%
X99824000Y-108712000D03*
%TO.P,R4,2*%
%TO.N,+3.3V*%
X98804000Y-108712000D03*
%TD*%
D11*
%TO.P,C56,1*%
%TO.N,Net-(U11-IN-)*%
X159997000Y-102669000D03*
%TO.P,C56,2*%
%TO.N,GND*%
X159997000Y-101709000D03*
%TD*%
D31*
%TO.P,R5,1*%
%TO.N,Net-(U6-DIR)*%
X107952000Y-133096000D03*
%TO.P,R5,2*%
%TO.N,+3.3V*%
X106932000Y-133096000D03*
%TD*%
%TO.P,R24,1*%
%TO.N,Net-(C43-Pad2)*%
X158199000Y-86360000D03*
%TO.P,R24,2*%
%TO.N,Net-(U10A--)*%
X157179000Y-86360000D03*
%TD*%
D43*
%TO.P,L2,1*%
%TO.N,+5V*%
X118872000Y-64516000D03*
D44*
%TO.P,L2,2*%
%TO.N,Net-(U7-SW)*%
X118872000Y-61516000D03*
%TD*%
D14*
%TO.P,R9,1*%
%TO.N,/Control/D-*%
X128990000Y-71630000D03*
%TO.P,R9,2*%
%TO.N,/USB_D-*%
X128990000Y-70610000D03*
%TD*%
%TO.P,R15,1*%
%TO.N,Net-(U8-MODE)*%
X140352000Y-67099000D03*
%TO.P,R15,2*%
%TO.N,GND*%
X140352000Y-66079000D03*
%TD*%
D13*
%TO.P,D2,1,K_1*%
%TO.N,GND*%
X183134000Y-123215500D03*
%TO.P,D2,2,A_2*%
%TO.N,Net-(D2-A)*%
X183134000Y-121640500D03*
%TD*%
D45*
%TO.P,RV1,*%
%TO.N,*%
X172974000Y-101346000D03*
X181774000Y-101346000D03*
D46*
%TO.P,RV1,1,1_1*%
%TO.N,Net-(C53-Pad1)*%
X174874000Y-108346000D03*
%TO.P,RV1,2,2_2*%
%TO.N,Net-(U11-IN+)*%
X177374000Y-108346000D03*
%TO.P,RV1,3,3_3*%
%TO.N,GND*%
X179874000Y-108346000D03*
%TD*%
D31*
%TO.P,R25,1*%
%TO.N,Net-(U10B-+)*%
X160231000Y-86360000D03*
%TO.P,R25,2*%
%TO.N,Net-(C43-Pad2)*%
X159211000Y-86360000D03*
%TD*%
D18*
%TO.P,C36,1*%
%TO.N,Net-(U9-VREF)*%
X153952000Y-80181000D03*
%TO.P,C36,2*%
%TO.N,GND*%
X154912000Y-80181000D03*
%TD*%
D11*
%TO.P,C50,1*%
%TO.N,Net-(U9-IN2M)*%
X149352000Y-77077000D03*
%TO.P,C50,2*%
%TO.N,GND*%
X149352000Y-76117000D03*
%TD*%
D31*
%TO.P,R18,1*%
%TO.N,Net-(U8-FB)*%
X141637000Y-73193000D03*
%TO.P,R18,2*%
%TO.N,GND*%
X140617000Y-73193000D03*
%TD*%
D14*
%TO.P,R11,1*%
%TO.N,Net-(U1-~{QSPI_SS})*%
X127757598Y-71630000D03*
%TO.P,R11,2*%
%TO.N,Net-(R11-Pad2)*%
X127757598Y-70610000D03*
%TD*%
D32*
%TO.P,C37,1*%
%TO.N,Net-(U9-DREG)*%
X151130000Y-83765000D03*
%TO.P,C37,2*%
%TO.N,GND*%
X151130000Y-84725000D03*
%TD*%
D47*
%TO.P,J1,1,DAT2_1*%
%TO.N,unconnected-(J1-DAT2-Pad1)*%
X173960000Y-76757000D03*
%TO.P,J1,2,DAT3/CD_2*%
%TO.N,/Control/~{SD_CS}*%
X173960000Y-77857000D03*
%TO.P,J1,3,CMD_3*%
%TO.N,/Control/SD_MOSI*%
X173960000Y-78957000D03*
%TO.P,J1,4,VDD_4*%
%TO.N,+3.3V*%
X173960000Y-80057000D03*
%TO.P,J1,5,CLK_5*%
%TO.N,/Control/SD_SCK*%
X173960000Y-81157000D03*
%TO.P,J1,6,VSS_6*%
%TO.N,GND*%
X173960000Y-82257000D03*
%TO.P,J1,7,DAT0_7*%
%TO.N,/Control/SD_MISO*%
X173960000Y-83357000D03*
%TO.P,J1,8,DAT1_8*%
%TO.N,unconnected-(J1-DAT1-Pad8)*%
X173960000Y-84457000D03*
%TO.P,J1,9,DET_A_9*%
%TO.N,+3.3V*%
X173960000Y-85407000D03*
D48*
%TO.P,J1,10,DET_B_10*%
%TO.N,/Control/SD_DET*%
X184460000Y-86357000D03*
D49*
%TO.P,J1,SH,SHIELD_SH*%
%TO.N,GND*%
X178260000Y-86357000D03*
D50*
X188610000Y-86357000D03*
D49*
X173960000Y-75207000D03*
D51*
X189060000Y-72857000D03*
%TD*%
D14*
%TO.P,R28,1*%
%TO.N,/Control/~{SD_CS}*%
X169418000Y-77980000D03*
%TO.P,R28,2*%
%TO.N,+3.3V*%
X169418000Y-76960000D03*
%TD*%
%TO.P,R30,1*%
%TO.N,/Control/SD_SCK*%
X160274000Y-75694000D03*
%TO.P,R30,2*%
%TO.N,+3.3V*%
X160274000Y-74674000D03*
%TD*%
D31*
%TO.P,R32,1*%
%TO.N,GND*%
X186438000Y-88138000D03*
%TO.P,R32,2*%
%TO.N,/Control/SD_DET*%
X185418000Y-88138000D03*
%TD*%
D30*
%TO.P,R33,1*%
%TO.N,/Control/LED_RED*%
X183134000Y-119124000D03*
%TO.P,R33,2*%
%TO.N,Net-(D2-A)*%
X183134000Y-120144000D03*
%TD*%
D52*
%TO.P,J2,A1,GND_A1*%
%TO.N,GND*%
X132740000Y-65656000D03*
%TO.P,J2,A4,VBUS_A4*%
%TO.N,+5V*%
X131940000Y-65656000D03*
D53*
%TO.P,J2,A5,CC1_A5*%
%TO.N,Net-(J2-CC1)*%
X130790000Y-65656000D03*
%TO.P,J2,A6,D+_A6*%
%TO.N,/USB_D+*%
X129790000Y-65656000D03*
%TO.P,J2,A7,D-_A7*%
%TO.N,/USB_D-*%
X129290000Y-65656000D03*
%TO.P,J2,A8,SBU1_A8*%
%TO.N,unconnected-(J2-SBU1-PadA8)*%
X128290000Y-65656000D03*
D52*
%TO.P,J2,A9,VBUS_A9*%
%TO.N,+5V*%
X127140000Y-65656000D03*
%TO.P,J2,A12,GND_A12*%
%TO.N,GND*%
X126340000Y-65656000D03*
%TO.P,J2,B1,GND_B1*%
X126340000Y-65656000D03*
%TO.P,J2,B4,VBUS_B4*%
%TO.N,+5V*%
X127140000Y-65656000D03*
D53*
%TO.P,J2,B5,CC2_B5*%
%TO.N,Net-(J2-CC2)*%
X127790000Y-65656000D03*
%TO.P,J2,B6,D+_B6*%
%TO.N,/USB_D+*%
X128790000Y-65656000D03*
%TO.P,J2,B7,D-_B7*%
%TO.N,/USB_D-*%
X130290000Y-65656000D03*
%TO.P,J2,B8,SBU2_B8*%
%TO.N,unconnected-(J2-SBU2-PadB8)*%
X131290000Y-65656000D03*
D52*
%TO.P,J2,B9,VBUS_B9*%
%TO.N,+5V*%
X131940000Y-65656000D03*
%TO.P,J2,B12,GND_B12*%
%TO.N,GND*%
X132740000Y-65656000D03*
D54*
%TO.P,J2,SH,SHIELD_SH*%
X133860000Y-65081000D03*
D55*
X133860000Y-60901000D03*
D54*
X125220000Y-65081000D03*
D55*
X125220000Y-60901000D03*
%TD*%
D56*
%TO.P,U11,1,~{SD}_1*%
%TO.N,/~{SPEAKER_DISABLE}*%
X161963000Y-104567500D03*
%TO.P,U11,2,NC_2*%
%TO.N,unconnected-(U11-NC-Pad2)*%
X161313000Y-104567500D03*
%TO.P,U11,3,IN+_3*%
%TO.N,Net-(U11-IN+)*%
X160663000Y-104567500D03*
%TO.P,U11,4,IN-_4*%
%TO.N,Net-(U11-IN-)*%
X160013000Y-104567500D03*
%TO.P,U11,5,OUT+_5*%
%TO.N,/Audio/OUT+*%
X160013000Y-108792500D03*
%TO.P,U11,6,VDD_6*%
%TO.N,+3.3V*%
X160663000Y-108792500D03*
%TO.P,U11,7,GND_7*%
%TO.N,GND*%
X161313000Y-108792500D03*
%TO.P,U11,8,OUT-_8*%
%TO.N,/Audio/OUT-*%
X161963000Y-108792500D03*
%TD*%
D31*
%TO.P,R26,1*%
%TO.N,Net-(U10C-+)*%
X160233000Y-97536000D03*
%TO.P,R26,2*%
%TO.N,/Digitalker/V_BIAS*%
X159213000Y-97536000D03*
%TD*%
D40*
%TO.P,J3,1,Pin_1_1*%
%TO.N,/Power/+3V3_RAW*%
X147574000Y-70112000D03*
D41*
%TO.P,J3,2,Pin_2_2*%
%TO.N,+3.3V*%
X147574000Y-71112000D03*
%TD*%
D14*
%TO.P,R7,1*%
%TO.N,/Control/VREG_AVDD*%
X135140000Y-69992000D03*
%TO.P,R7,2*%
%TO.N,+3.3V*%
X135140000Y-68972000D03*
%TD*%
D57*
%TO.P,U4,1,V_{CCA}_1*%
%TO.N,+3.3V*%
X104071500Y-71926000D03*
%TO.P,U4,2,DIR_2*%
%TO.N,Net-(U4-DIR)*%
X104071500Y-72426000D03*
%TO.P,U4,3,A1_3*%
%TO.N,/DIGITALKER_CLK_4MH*%
X104071500Y-72926000D03*
%TO.P,U4,4,A2_4*%
%TO.N,/~{DIGITALKER_CS}*%
X104071500Y-73426000D03*
%TO.P,U4,5,A3_5*%
%TO.N,/~{DIGITALKER_WR}*%
X104071500Y-73926000D03*
%TO.P,U4,6,A4_6*%
%TO.N,/DIGITALKER_CMS*%
X104071500Y-74426000D03*
%TO.P,U4,7,A5_7*%
%TO.N,GND*%
X104071500Y-74926000D03*
%TO.P,U4,8,A6_8*%
X104071500Y-75426000D03*
%TO.P,U4,9,A7_9*%
X104071500Y-75926000D03*
%TO.P,U4,10,A8_10*%
X104071500Y-76426000D03*
%TO.P,U4,11,GND_11*%
X104071500Y-76926000D03*
%TO.P,U4,12,GND_12*%
X104071500Y-77426000D03*
%TO.P,U4,13,GND_13*%
X109796500Y-77426000D03*
%TO.P,U4,14,B8_14*%
X109796500Y-76926000D03*
%TO.P,U4,15,B7_15*%
X109796500Y-76426000D03*
%TO.P,U4,16,B6_16*%
X109796500Y-75926000D03*
%TO.P,U4,17,B5_17*%
X109796500Y-75426000D03*
%TO.P,U4,18,B4_18*%
%TO.N,/Digitalker/DIGI_CMS*%
X109796500Y-74926000D03*
%TO.P,U4,19,B3_19*%
%TO.N,/Digitalker/DIGI_~{WR}*%
X109796500Y-74426000D03*
%TO.P,U4,20,B2_20*%
%TO.N,/Digitalker/DIGI_~{CS}*%
X109796500Y-73926000D03*
%TO.P,U4,21,B1_21*%
%TO.N,/Digitalker/DIGI_CLK_4MHZ*%
X109796500Y-73426000D03*
%TO.P,U4,22,~{OE}_22*%
%TO.N,GND*%
X109796500Y-72926000D03*
%TO.P,U4,23,V_{CCB}_23*%
%TO.N,+5V*%
X109796500Y-72426000D03*
%TO.P,U4,24,V_{CCB}_24*%
X109796500Y-71926000D03*
%TD*%
D18*
%TO.P,C29,1*%
%TO.N,+3.3V*%
X169194000Y-116078000D03*
%TO.P,C29,2*%
%TO.N,/Control/BUTTON*%
X170154000Y-116078000D03*
%TD*%
D58*
%TO.P,XC1,1,OSC_IN_1*%
%TO.N,/Digitalker/DIGI_CLK_4MHZ*%
X122428000Y-96271000D03*
D59*
%TO.P,XC1,2,OSC_OUT_2*%
%TO.N,unconnected-(XC1-OSC_OUT-Pad2)*%
X122428000Y-98811000D03*
%TO.P,XC1,3,~{CS}_3*%
%TO.N,/Digitalker/DIGI_~{CS}*%
X122428000Y-101351000D03*
%TO.P,XC1,4,~{WR}_4*%
%TO.N,/Digitalker/DIGI_~{WR}*%
X122428000Y-103891000D03*
%TO.P,XC1,5,~{ROMEN}_5*%
%TO.N,/Digitalker/DIGI_~{ROMEN}*%
X122428000Y-106431000D03*
%TO.P,XC1,6,INTR_6*%
%TO.N,/Digitalker/DIGI_INTR*%
X122428000Y-108971000D03*
%TO.P,XC1,7,CMS_7*%
%TO.N,/Digitalker/DIGI_CMS*%
X122428000Y-111511000D03*
%TO.P,XC1,8,SW8_(MSB)_8*%
%TO.N,/Digitalker/DIGI_SW8*%
X122428000Y-114051000D03*
%TO.P,XC1,9,SW7_9*%
%TO.N,/Digitalker/DIGI_SW7*%
X122428000Y-116591000D03*
%TO.P,XC1,10,SW6_10*%
%TO.N,/Digitalker/DIGI_SW6*%
X122428000Y-119131000D03*
%TO.P,XC1,11,SW5_11*%
%TO.N,/Digitalker/DIGI_SW5*%
X122428000Y-121671000D03*
%TO.P,XC1,12,SW4_12*%
%TO.N,/Digitalker/DIGI_SW4*%
X122428000Y-124211000D03*
%TO.P,XC1,13,SW3_13*%
%TO.N,/Digitalker/DIGI_SW3*%
X122428000Y-126751000D03*
%TO.P,XC1,14,SW2_14*%
%TO.N,/Digitalker/DIGI_SW2*%
X122428000Y-129291000D03*
%TO.P,XC1,15,SW1_(LSB)_15*%
%TO.N,/Digitalker/DIGI_SW1*%
X122428000Y-131831000D03*
%TO.P,XC1,16,RDATA0_(LSB)_16*%
%TO.N,/Digitalker/DIGI_RDATA0*%
X122428000Y-134371000D03*
%TO.P,XC1,17,RDATA1_17*%
%TO.N,/Digitalker/DIGI_RDATA1*%
X122428000Y-136911000D03*
%TO.P,XC1,18,RDATA2_18*%
%TO.N,/Digitalker/DIGI_RDATA2*%
X122428000Y-139451000D03*
%TO.P,XC1,19,RDATA3_19*%
%TO.N,/Digitalker/DIGI_RDATA3*%
X122428000Y-141991000D03*
%TO.P,XC1,20,VSS_20*%
%TO.N,GND*%
X122428000Y-144531000D03*
%TO.P,XC1,21,RDATA4_21*%
%TO.N,/Digitalker/DIGI_RDATA4*%
X137668000Y-144531000D03*
%TO.P,XC1,22,RDATA5_22*%
%TO.N,/Digitalker/DIGI_RDATA5*%
X137668000Y-141991000D03*
%TO.P,XC1,23,RDATA6_23*%
%TO.N,/Digitalker/DIGI_RDATA6*%
X137668000Y-139451000D03*
%TO.P,XC1,24,RDATA7_24*%
%TO.N,/Digitalker/DIGI_RDATA7*%
X137668000Y-136911000D03*
%TO.P,XC1,25,ADR0_(LSB)_25*%
%TO.N,/Digitalker/DIGI_ROM_ADDR0*%
X137668000Y-134371000D03*
%TO.P,XC1,26,ADR1_26*%
%TO.N,/Digitalker/DIGI_ROM_ADDR1*%
X137668000Y-131831000D03*
%TO.P,XC1,27,ADR2_27*%
%TO.N,/Digitalker/DIGI_ROM_ADDR2*%
X137668000Y-129291000D03*
%TO.P,XC1,28,ADR3_28*%
%TO.N,/Digitalker/DIGI_ROM_ADDR3*%
X137668000Y-126751000D03*
%TO.P,XC1,29,ADR4_29*%
%TO.N,/Digitalker/DIGI_ROM_ADDR4*%
X137668000Y-124211000D03*
%TO.P,XC1,30,ADR5_30*%
%TO.N,/Digitalker/DIGI_ROM_ADDR5*%
X137668000Y-121671000D03*
%TO.P,XC1,31,ADR6_31*%
%TO.N,/Digitalker/DIGI_ROM_ADDR6*%
X137668000Y-119131000D03*
%TO.P,XC1,32,ADR7_32*%
%TO.N,/Digitalker/DIGI_ROM_ADDR7*%
X137668000Y-116591000D03*
%TO.P,XC1,33,ADR8_33*%
%TO.N,/Digitalker/DIGI_ROM_ADDR8*%
X137668000Y-114051000D03*
%TO.P,XC1,34,ADR9_34*%
%TO.N,/Digitalker/DIGI_ROM_ADDR9*%
X137668000Y-111511000D03*
%TO.P,XC1,35,ADR10_35*%
%TO.N,/Digitalker/DIGI_ROM_ADDR10*%
X137668000Y-108971000D03*
%TO.P,XC1,36,ADR11_36*%
%TO.N,/Digitalker/DIGI_ROM_ADDR11*%
X137668000Y-106431000D03*
%TO.P,XC1,37,ADR12_37*%
%TO.N,/Digitalker/DIGI_ROM_ADDR12*%
X137668000Y-103891000D03*
%TO.P,XC1,38,ADR13_(MSB)_38*%
%TO.N,/Digitalker/DIGI_ROM_ADDR13*%
X137668000Y-101351000D03*
%TO.P,XC1,39,SPEECH_OUT_39*%
%TO.N,Net-(XC1-SPEECH_OUT)*%
X137668000Y-98811000D03*
%TO.P,XC1,40,VDD_40*%
%TO.N,+9V*%
X137668000Y-96271000D03*
%TD*%
D12*
%TO.P,R12,1*%
%TO.N,/Control/BUTTON*%
X171450000Y-116078000D03*
%TO.P,R12,2*%
%TO.N,GND*%
X172470000Y-116078000D03*
%TD*%
D60*
%TO.P,U1,1,GPIO4_1*%
%TO.N,/SW1*%
X124590000Y-74432000D03*
%TO.P,U1,2,GPIO5_2*%
%TO.N,/SW2*%
X124590000Y-74832000D03*
%TO.P,U1,3,GPIO6_3*%
%TO.N,/SW3*%
X124590000Y-75232000D03*
%TO.P,U1,4,GPIO7_4*%
%TO.N,/SW4*%
X124590000Y-75632000D03*
%TO.P,U1,5,IOVDD_5*%
%TO.N,+3.3V*%
X124590000Y-76032000D03*
%TO.P,U1,6,GPIO8_6*%
%TO.N,/SW5*%
X124590000Y-76432000D03*
%TO.P,U1,7,GPIO9_7*%
%TO.N,/SW6*%
X124590000Y-76832000D03*
%TO.P,U1,8,GPIO10_8*%
%TO.N,/SW7*%
X124590000Y-77232000D03*
%TO.P,U1,9,GPIO11_9*%
%TO.N,/SW8*%
X124590000Y-77632000D03*
%TO.P,U1,10,DVDD_10*%
%TO.N,+1V1*%
X124590000Y-78032000D03*
%TO.P,U1,11,GPIO12_11*%
%TO.N,/RDATA0*%
X124590000Y-78432000D03*
%TO.P,U1,12,GPIO13_12*%
%TO.N,/RDATA1*%
X124590000Y-78832000D03*
%TO.P,U1,13,GPIO14_13*%
%TO.N,/RDATA2*%
X124590000Y-79232000D03*
%TO.P,U1,14,GPIO15_14*%
%TO.N,/RDATA3*%
X124590000Y-79632000D03*
%TO.P,U1,15,IOVDD_15*%
%TO.N,+3.3V*%
X124590000Y-80032000D03*
%TO.P,U1,16,GPIO16_16*%
%TO.N,/RDATA4*%
X124590000Y-80432000D03*
%TO.P,U1,17,GPIO17_17*%
%TO.N,/RDATA5*%
X124590000Y-80832000D03*
%TO.P,U1,18,GPIO18_18*%
%TO.N,/RDATA6*%
X124590000Y-81232000D03*
%TO.P,U1,19,GPIO19_19*%
%TO.N,/RDATA7*%
X124590000Y-81632000D03*
%TO.P,U1,20,GPIO20_20*%
%TO.N,/ROM_ADDR0*%
X124590000Y-82032000D03*
D61*
%TO.P,U1,21,GPIO21_21*%
%TO.N,/ROM_ADDR1*%
X125740000Y-83182000D03*
%TO.P,U1,22,GPIO22_22*%
%TO.N,/ROM_ADDR2*%
X126140000Y-83182000D03*
%TO.P,U1,23,GPIO23_23*%
%TO.N,/ROM_ADDR3*%
X126540000Y-83182000D03*
%TO.P,U1,24,IOVDD_24*%
%TO.N,+3.3V*%
X126940000Y-83182000D03*
%TO.P,U1,25,GPIO24_25*%
%TO.N,/ROM_ADDR4*%
X127340000Y-83182000D03*
%TO.P,U1,26,GPIO25_26*%
%TO.N,/ROM_ADDR5*%
X127740000Y-83182000D03*
%TO.P,U1,27,GPIO26_27*%
%TO.N,/ROM_ADDR6*%
X128140000Y-83182000D03*
%TO.P,U1,28,GPIO27_28*%
%TO.N,/ROM_ADDR7*%
X128540000Y-83182000D03*
%TO.P,U1,29,IOVDD_29*%
%TO.N,+3.3V*%
X128940000Y-83182000D03*
%TO.P,U1,30,XIN_30*%
%TO.N,/Control/XIN*%
X129340000Y-83182000D03*
%TO.P,U1,31,XOUT_31*%
%TO.N,/Control/XOUT*%
X129740000Y-83182000D03*
%TO.P,U1,32,DVDD_32*%
%TO.N,+1V1*%
X130140000Y-83182000D03*
%TO.P,U1,33,SWCLK_33*%
%TO.N,unconnected-(U1-SWCLK-Pad33)*%
X130540000Y-83182000D03*
%TO.P,U1,34,SWDIO_34*%
%TO.N,unconnected-(U1-SWDIO-Pad34)*%
X130940000Y-83182000D03*
%TO.P,U1,35,RUN_35*%
%TO.N,Net-(U1-RUN)*%
X131340000Y-83182000D03*
%TO.P,U1,36,GPIO28_36*%
%TO.N,/ROM_ADDR8*%
X131740000Y-83182000D03*
%TO.P,U1,37,GPIO29_37*%
%TO.N,/ROM_ADDR9*%
X132140000Y-83182000D03*
%TO.P,U1,38,GPIO30_38*%
%TO.N,/ROM_ADDR10*%
X132540000Y-83182000D03*
%TO.P,U1,39,GPIO31_39*%
%TO.N,/ROM_ADDR11*%
X132940000Y-83182000D03*
%TO.P,U1,40,GPIO32_40*%
%TO.N,/ROM_ADDR12*%
X133340000Y-83182000D03*
D60*
%TO.P,U1,41,IOVDD_41*%
%TO.N,+3.3V*%
X134490000Y-82032000D03*
%TO.P,U1,42,GPIO33_42*%
%TO.N,/ROM_ADDR13*%
X134490000Y-81632000D03*
%TO.P,U1,43,GPIO34_43*%
%TO.N,/~{ROMEN}*%
X134490000Y-81232000D03*
%TO.P,U1,44,GPIO35_44*%
%TO.N,/INTR*%
X134490000Y-80832000D03*
%TO.P,U1,45,GPIO36_45*%
%TO.N,/FSYNC*%
X134490000Y-80432000D03*
%TO.P,U1,46,GPIO37_46*%
%TO.N,/BCLK*%
X134490000Y-80032000D03*
%TO.P,U1,47,GPIO38_47*%
%TO.N,/SDATA*%
X134490000Y-79632000D03*
%TO.P,U1,48,GPIO39_48*%
%TO.N,/Control/BUTTON*%
X134490000Y-79232000D03*
%TO.P,U1,49,GPIO40/ADC0_49*%
%TO.N,/Control/SD_MISO*%
X134490000Y-78832000D03*
%TO.P,U1,50,IOVDD_50*%
%TO.N,+3.3V*%
X134490000Y-78432000D03*
%TO.P,U1,51,DVDD_51*%
%TO.N,+1V1*%
X134490000Y-78032000D03*
%TO.P,U1,52,GPIO41/ADC1_52*%
%TO.N,/Control/~{SD_CS}*%
X134490000Y-77632000D03*
%TO.P,U1,53,GPIO42/ADC2_53*%
%TO.N,/Control/SD_SCK*%
X134490000Y-77232000D03*
%TO.P,U1,54,GPIO43/ADC3_54*%
%TO.N,/Control/SD_MOSI*%
X134490000Y-76832000D03*
%TO.P,U1,55,GPIO44/ADC4_55*%
%TO.N,/Control/SD_DET*%
X134490000Y-76432000D03*
%TO.P,U1,56,GPIO45/ADC5_56*%
%TO.N,/~{SPEAKER_DISABLE}*%
X134490000Y-76032000D03*
%TO.P,U1,57,GPIO46/ADC6_57*%
%TO.N,/Control/LED_RED*%
X134490000Y-75632000D03*
%TO.P,U1,58,GPIO47/ADC7_58*%
%TO.N,/Control/LED_GR*%
X134490000Y-75232000D03*
%TO.P,U1,59,ADC_AVDD_59*%
%TO.N,+3.3V*%
X134490000Y-74832000D03*
%TO.P,U1,60,IOVDD_60*%
X134490000Y-74432000D03*
D61*
%TO.P,U1,61,VREG_AVDD_61*%
%TO.N,/Control/VREG_AVDD*%
X133340000Y-73282000D03*
%TO.P,U1,62,VREG_PGND_62*%
%TO.N,GND*%
X132940000Y-73282000D03*
%TO.P,U1,63,VREG_LX_63*%
%TO.N,/Control/VREG_LX*%
X132540000Y-73282000D03*
%TO.P,U1,64,VREG_VIN_64*%
%TO.N,+3.3V*%
X132140000Y-73282000D03*
%TO.P,U1,65,VREG_FB_65*%
%TO.N,+1V1*%
X131740000Y-73282000D03*
%TO.P,U1,66,USB_DM_66*%
%TO.N,/Control/D+*%
X131340000Y-73282000D03*
%TO.P,U1,67,USB_DP_67*%
%TO.N,/Control/D-*%
X130940000Y-73282000D03*
%TO.P,U1,68,USB_OTP_VDD_68*%
%TO.N,+3.3V*%
X130540000Y-73282000D03*
%TO.P,U1,69,QSPI_IOVDD_69*%
X130140000Y-73282000D03*
%TO.P,U1,70,QSPI_SD3_70*%
%TO.N,unconnected-(U1-QSPI_SD3-Pad70)*%
X129740000Y-73282000D03*
%TO.P,U1,71,QSPI_SCLK_71*%
%TO.N,unconnected-(U1-QSPI_SCLK-Pad71)*%
X129340000Y-73282000D03*
%TO.P,U1,72,QSPI_SD0_72*%
%TO.N,unconnected-(U1-QSPI_SD0-Pad72)*%
X128940000Y-73282000D03*
%TO.P,U1,73,QSPI_SD2_73*%
%TO.N,unconnected-(U1-QSPI_SD2-Pad73)*%
X128540000Y-73282000D03*
%TO.P,U1,74,QSPI_SD1_74*%
%TO.N,unconnected-(U1-QSPI_SD1-Pad74)*%
X128140000Y-73282000D03*
%TO.P,U1,75,~{QSPI_SS}_75*%
%TO.N,Net-(U1-~{QSPI_SS})*%
X127740000Y-73282000D03*
%TO.P,U1,76,IOVDD_76*%
%TO.N,+3.3V*%
X127340000Y-73282000D03*
%TO.P,U1,77,GPIO0_77*%
%TO.N,/DIGITALKER_CLK_4MH*%
X126940000Y-73282000D03*
%TO.P,U1,78,GPIO1_78*%
%TO.N,/~{DIGITALKER_CS}*%
X126540000Y-73282000D03*
%TO.P,U1,79,GPIO2_79*%
%TO.N,/~{DIGITALKER_WR}*%
X126140000Y-73282000D03*
%TO.P,U1,80,GPIO3_80*%
%TO.N,/DIGITALKER_CMS*%
X125740000Y-73282000D03*
D62*
%TO.P,U1,81,GND_81*%
%TO.N,GND*%
X129540000Y-78232000D03*
%TD*%
D63*
%TO.P,LS1,1,1_1*%
%TO.N,/Audio/OUT+*%
X152380000Y-130810000D03*
%TO.P,LS1,2,2_2*%
%TO.N,/Audio/OUT-*%
X162580000Y-130810000D03*
%TD*%
D64*
%TO.N,GND*%
X104648000Y-99314000D03*
X128270000Y-74930000D03*
X126238000Y-80264000D03*
X125476000Y-76962000D03*
X108204000Y-123444000D03*
X135636000Y-73406000D03*
X153162000Y-79756000D03*
X178308000Y-85344000D03*
X106172000Y-130048000D03*
X147320000Y-98044000D03*
X115062000Y-67310000D03*
X128016000Y-82296000D03*
X160020000Y-63246000D03*
X105156000Y-106172000D03*
X160020000Y-100838000D03*
X126492000Y-74168000D03*
X142494000Y-66294000D03*
X140142920Y-71860059D03*
X183134000Y-124460000D03*
X125407910Y-79099766D03*
X152146000Y-84582000D03*
X154940000Y-82296000D03*
X115062000Y-65278000D03*
X128270000Y-87630000D03*
X109982000Y-78486000D03*
X132842000Y-76454000D03*
X175768000Y-70358000D03*
X113255343Y-131840328D03*
X141478000Y-65532000D03*
X133828768Y-71628000D03*
X132588000Y-86360000D03*
X139954000Y-109571000D03*
X152146000Y-82804000D03*
X98044000Y-105664000D03*
X104648000Y-70866000D03*
X112938000Y-123444000D03*
X162080000Y-85090000D03*
X149098000Y-78994000D03*
X129794000Y-62738000D03*
X111252000Y-72898000D03*
X146304000Y-115062000D03*
X142494000Y-72390000D03*
X133858000Y-96266000D03*
X187960000Y-124460000D03*
X137713999Y-78186000D03*
X175260000Y-75184000D03*
X175260000Y-82296000D03*
X187452000Y-73152000D03*
X100076000Y-99314000D03*
X188976000Y-85344000D03*
X150622000Y-75184000D03*
X102870000Y-77216000D03*
X161473000Y-91440000D03*
X114300000Y-60706000D03*
X133855000Y-70866000D03*
X161524000Y-107442000D03*
X131826000Y-81534000D03*
X142325000Y-60706000D03*
X153416000Y-104648000D03*
X172466000Y-115316000D03*
%TO.N,+3.3V*%
X161290000Y-75438000D03*
X140208000Y-120650000D03*
X139192000Y-110490000D03*
X133790000Y-74632000D03*
X135128000Y-68326000D03*
X152400000Y-102616000D03*
X160508000Y-107442000D03*
X175260000Y-80010000D03*
X147574000Y-110236000D03*
X125476000Y-80032000D03*
X154686000Y-70358000D03*
X128940000Y-82332000D03*
X102870000Y-71882000D03*
X169164000Y-116840000D03*
X135382000Y-78157000D03*
X154686000Y-76200000D03*
X99060000Y-107696000D03*
X145034000Y-113792000D03*
X107188000Y-132080000D03*
X125440000Y-76032000D03*
X131290000Y-71732000D03*
X169418000Y-76200000D03*
X147320000Y-99060000D03*
X148268050Y-81031999D03*
X133604000Y-81788000D03*
X152908000Y-81788000D03*
X126940000Y-82332000D03*
X130098260Y-74013027D03*
X177292000Y-122758000D03*
X127340000Y-74032000D03*
X158425000Y-91440000D03*
X175260000Y-85344000D03*
%TO.N,+5V*%
X142240000Y-68580000D03*
X140970000Y-72390000D03*
X141478000Y-66294000D03*
X111252000Y-71910000D03*
X113261531Y-60791000D03*
X132080000Y-66548000D03*
X99135071Y-99060000D03*
X107188000Y-123444000D03*
X112522000Y-64262000D03*
X127000000Y-66548000D03*
X118872000Y-65786000D03*
%TO.N,/Power/+9V_RAW*%
X115316000Y-66064000D03*
%TO.N,Net-(R11-Pad2)*%
X130381058Y-69088000D03*
X127762000Y-69850000D03*
%TO.N,/Digitalker/DIGI_ROM_ADDR8*%
X148336000Y-104902000D03*
%TO.N,/Digitalker/DIGI_ROM_ADDR9*%
X149098000Y-104140000D03*
%TO.N,/Digitalker/DIGI_ROM_ADDR10*%
X149606000Y-104902000D03*
%TO.N,/Digitalker/DIGI_ROM_ADDR11*%
X150368000Y-104140000D03*
%TO.N,/Digitalker/DIGI_ROM_ADDR12*%
X150897000Y-104902000D03*
%TO.N,/Digitalker/DIGI_ROM_ADDR13*%
X151638000Y-104140000D03*
%TO.N,/Digitalker/DIGI_~{ROMEN}*%
X152197000Y-104902000D03*
%TO.N,/Power/+3V3_RAW*%
X144780000Y-72898000D03*
%TO.N,/Control/LED_GR*%
X136652000Y-74676000D03*
X187960000Y-118364000D03*
%TO.N,+1V1*%
X133740000Y-78032000D03*
X130690000Y-74676000D03*
X130140000Y-82332000D03*
X125390000Y-78032000D03*
X131290000Y-70982000D03*
%TO.N,/Digitalker/DIGI_RDATA7*%
X112431143Y-122825050D03*
X117602000Y-130302000D03*
%TO.N,/Digitalker/DIGI_RDATA6*%
X116586000Y-130302000D03*
X111851671Y-122273491D03*
%TO.N,/Digitalker/DIGI_RDATA5*%
X111132000Y-122983259D03*
X115570000Y-130302000D03*
%TO.N,/Digitalker/DIGI_RDATA4*%
X110632000Y-123698000D03*
X114554000Y-130302000D03*
%TO.N,/Digitalker/DIGI_RDATA3*%
X109982000Y-123190000D03*
%TO.N,/Digitalker/DIGI_RDATA2*%
X109371271Y-126796632D03*
%TO.N,/Digitalker/DIGI_RDATA1*%
X108515687Y-126803687D03*
%TO.N,/Digitalker/DIGI_RDATA0*%
X107950000Y-126238000D03*
%TO.N,Net-(R10-Pad2)*%
X160020000Y-60630000D03*
%TO.N,Net-(U1-RUN)*%
X135636000Y-74168000D03*
X135890000Y-82550000D03*
%TO.N,/Digitalker/FILTERED_SPEECH*%
X160909000Y-81153000D03*
%TO.N,/Control/BUTTON*%
X147574000Y-79011000D03*
X170180000Y-114808000D03*
%TO.N,/Control/XIN*%
X129340000Y-84900718D03*
%TO.N,/Digitalker/DIGI_SW8*%
X104394000Y-98552000D03*
%TO.N,/Digitalker/DIGI_SW7*%
X103909252Y-97790000D03*
%TO.N,/Digitalker/DIGI_SW6*%
X103139965Y-97570452D03*
%TO.N,/Digitalker/DIGI_SW5*%
X102476000Y-98298000D03*
%TO.N,/Digitalker/DIGI_SW4*%
X101976000Y-99060000D03*
%TO.N,/Digitalker/DIGI_SW3*%
X101699788Y-101850540D03*
%TO.N,/Digitalker/DIGI_SW2*%
X100900266Y-101878263D03*
%TO.N,/Digitalker/DIGI_SW1*%
X100076000Y-101854000D03*
%TO.N,Net-(U10A-+)*%
X155702000Y-90790000D03*
%TO.N,/Digitalker/DIGI_ROM_ADDR1*%
X141885000Y-126593000D03*
%TO.N,/Digitalker/DIGI_ROM_ADDR2*%
X142494000Y-123190000D03*
%TO.N,/Digitalker/DIGI_ROM_ADDR3*%
X143256000Y-120396000D03*
%TO.N,/Digitalker/DIGI_ROM_ADDR4*%
X143764000Y-119634000D03*
%TO.N,/Digitalker/DIGI_ROM_ADDR5*%
X144526000Y-118872000D03*
%TO.N,/Digitalker/DIGI_ROM_ADDR6*%
X145034000Y-118110000D03*
%TO.N,/USB_D-*%
X130374147Y-66536781D03*
X129342459Y-64820497D03*
%TO.N,/Control/~{SD_CS}*%
X147320000Y-76962000D03*
X167640000Y-77978000D03*
%TO.N,/Control/SD_DET*%
X138684000Y-76307000D03*
X165100000Y-87630000D03*
%TO.N,/Control/LED_RED*%
X137414000Y-74930000D03*
X183134000Y-118364000D03*
%TO.N,Net-(J2-CC1)*%
X130810000Y-64516000D03*
%TO.N,Net-(J2-CC2)*%
X127762000Y-64516000D03*
%TO.N,/~{SPEAKER_DISABLE}*%
X162306000Y-102108000D03*
X137414000Y-75692000D03*
%TO.N,/Digitalker/V_BIAS*%
X157917000Y-97536000D03*
%TO.N,/Digitalker/DIGI_CMS*%
X108458000Y-75692000D03*
%TO.N,/Digitalker/DIGI_~{WR}*%
X108204000Y-74676000D03*
%TO.N,/Digitalker/DIGI_~{CS}*%
X107696000Y-73875997D03*
%TO.N,/Digitalker/DIGI_CLK_4MHZ*%
X108501265Y-73152000D03*
%TD*%
%TO.N,Net-(U10C-+)*%
D65*
X160233000Y-96324000D02*
X160175000Y-96266000D01*
X160233000Y-97536000D02*
X160233000Y-96324000D01*
X159723000Y-95814000D02*
X159723000Y-94469001D01*
X159723000Y-94469001D02*
X162102001Y-92090000D01*
X162102001Y-92090000D02*
X162839500Y-92090000D01*
X160175000Y-96266000D02*
X159723000Y-95814000D01*
%TO.N,Net-(C45-Pad1)*%
X159213000Y-94996000D02*
X159213000Y-96264000D01*
X159215000Y-96266000D02*
X158143000Y-96266000D01*
X159213000Y-96264000D02*
X159215000Y-96266000D01*
%TO.N,Net-(U9-IN2P)*%
X150622000Y-78972500D02*
X150622000Y-77105000D01*
%TO.N,GND*%
X109796500Y-78300500D02*
X109982000Y-78486000D01*
X151422000Y-82080000D02*
X152146000Y-82804000D01*
X129540000Y-79248000D02*
X129540000Y-78232000D01*
X102870000Y-77216000D02*
X103080000Y-77426000D01*
X109796500Y-76426000D02*
X110716000Y-76426000D01*
X104576000Y-100515500D02*
X104576000Y-99386000D01*
X112232000Y-130693000D02*
X112732000Y-130693000D01*
X128270000Y-78232000D02*
X129540000Y-78232000D01*
X146435000Y-115193000D02*
X146304000Y-115062000D01*
X149352000Y-76117000D02*
X150594000Y-76117000D01*
X178260000Y-85392000D02*
X178308000Y-85344000D01*
D66*
X115038000Y-67334000D02*
X115062000Y-67310000D01*
D67*
X183134000Y-123215500D02*
X183134000Y-124460000D01*
D66*
X142356000Y-66432000D02*
X142494000Y-66294000D01*
D65*
X108204000Y-123444000D02*
X108204000Y-124940000D01*
X175221000Y-82257000D02*
X175260000Y-82296000D01*
X110772000Y-76426000D02*
X110998000Y-76200000D01*
X104071500Y-76426000D02*
X103152000Y-76426000D01*
X131826000Y-81534000D02*
X129540000Y-79248000D01*
X161008000Y-85090000D02*
X162080000Y-85090000D01*
X128270000Y-76962000D02*
X129540000Y-78232000D01*
X102870000Y-75692000D02*
X103104000Y-75926000D01*
X109796500Y-77426000D02*
X109796500Y-78300500D01*
X187747000Y-72857000D02*
X187452000Y-73152000D01*
X104071500Y-74926000D02*
X103128000Y-74926000D01*
X110788000Y-77426000D02*
X110998000Y-77216000D01*
X110780000Y-76926000D02*
X109796500Y-76926000D01*
D68*
X125795000Y-65656000D02*
X125220000Y-65081000D01*
D65*
X110764000Y-75926000D02*
X109796500Y-75926000D01*
D66*
X114302000Y-67334000D02*
X115038000Y-67334000D01*
D65*
X103136000Y-75426000D02*
X102870000Y-75692000D01*
D67*
X187960000Y-123215500D02*
X187960000Y-124460000D01*
D65*
X154912000Y-82268000D02*
X154940000Y-82296000D01*
X150872000Y-80435000D02*
X150622000Y-80435000D01*
D68*
X126340000Y-65656000D02*
X125795000Y-65656000D01*
D65*
X152084500Y-79635000D02*
X153041000Y-79635000D01*
X188610000Y-85486000D02*
X188610000Y-86357000D01*
X161313000Y-108792500D02*
X161313000Y-107653000D01*
D68*
X132740000Y-65656000D02*
X133285000Y-65656000D01*
D65*
X111224000Y-72926000D02*
X111252000Y-72898000D01*
D67*
X172470000Y-115320000D02*
X172466000Y-115316000D01*
D65*
X152084500Y-79635000D02*
X151672000Y-79635000D01*
X104071500Y-76926000D02*
X103160000Y-76926000D01*
X150222000Y-81897500D02*
X150222000Y-80835000D01*
X103160000Y-76926000D02*
X102870000Y-77216000D01*
X151022000Y-80035000D02*
X150622000Y-80435000D01*
D66*
X142356000Y-67097000D02*
X142356000Y-66432000D01*
D65*
X186829000Y-88138000D02*
X188610000Y-86357000D01*
X148347000Y-99071000D02*
X147320000Y-98044000D01*
X110716000Y-76426000D02*
X110998000Y-76708000D01*
X103088000Y-76926000D02*
X104071500Y-76926000D01*
D67*
X172470000Y-116078000D02*
X172470000Y-115320000D01*
D65*
X154912000Y-80181000D02*
X154912000Y-81451000D01*
X112732000Y-131316985D02*
X113255343Y-131840328D01*
D66*
X140899000Y-65532000D02*
X140352000Y-66079000D01*
D65*
X109796500Y-72926000D02*
X111224000Y-72926000D01*
X142401000Y-60630000D02*
X142325000Y-60706000D01*
X132504000Y-86276000D02*
X132588000Y-86360000D01*
X104576000Y-99386000D02*
X104648000Y-99314000D01*
X151422000Y-81897500D02*
X151422000Y-82080000D01*
X103152000Y-76426000D02*
X102870000Y-76708000D01*
X132588000Y-86360000D02*
X132588000Y-87404000D01*
X110998000Y-76200000D02*
X110724000Y-75926000D01*
X109796500Y-75426000D02*
X110732000Y-75426000D01*
X151130000Y-84725000D02*
X152003000Y-84725000D01*
X102870000Y-76200000D02*
X103096000Y-76426000D01*
X141235000Y-110192001D02*
X140613999Y-109571000D01*
X103096000Y-76426000D02*
X104071500Y-76426000D01*
D66*
X114300000Y-61878500D02*
X114300000Y-60706000D01*
D65*
X188976000Y-85344000D02*
X188752000Y-85344000D01*
X189060000Y-72857000D02*
X187747000Y-72857000D01*
X131064000Y-78232000D02*
X129540000Y-78232000D01*
X153547000Y-104779000D02*
X153416000Y-104648000D01*
X154912000Y-81451000D02*
X154912000Y-82268000D01*
X161313000Y-107653000D02*
X161524000Y-107442000D01*
X178260000Y-86357000D02*
X178260000Y-85392000D01*
X159997000Y-100861000D02*
X160020000Y-100838000D01*
X152084500Y-80035000D02*
X151022000Y-80035000D01*
X139700000Y-60630000D02*
X142249000Y-60630000D01*
X150222000Y-81897500D02*
X150622000Y-81897500D01*
X104076000Y-106240500D02*
X104576000Y-106240500D01*
X103112000Y-75426000D02*
X104071500Y-75426000D01*
X144950000Y-60630000D02*
X142401000Y-60630000D01*
X110998000Y-77216000D02*
X110708000Y-76926000D01*
X112938000Y-123444000D02*
X112938000Y-123536000D01*
X151672000Y-79635000D02*
X150872000Y-80435000D01*
X103144000Y-75926000D02*
X102870000Y-76200000D01*
X104576000Y-106240500D02*
X105087500Y-106240500D01*
X146435000Y-116654500D02*
X146435000Y-115193000D01*
X104071500Y-75926000D02*
X103144000Y-75926000D01*
X148347000Y-100515500D02*
X148347000Y-99071000D01*
D66*
X140501000Y-70691000D02*
X140181563Y-71010437D01*
X142188000Y-72084000D02*
X142494000Y-72390000D01*
D65*
X150222000Y-80835000D02*
X150622000Y-80435000D01*
X129116000Y-88476000D02*
X129342000Y-88476000D01*
D66*
X140181563Y-72757563D02*
X140617000Y-73193000D01*
D65*
X152883000Y-80035000D02*
X153162000Y-79756000D01*
X162839500Y-90790000D02*
X162123000Y-90790000D01*
X112938000Y-123536000D02*
X112732000Y-123742000D01*
X153041000Y-79635000D02*
X153162000Y-79756000D01*
X100076000Y-100515500D02*
X100076000Y-99314000D01*
D68*
X133285000Y-65656000D02*
X133860000Y-65081000D01*
D65*
X105087500Y-106240500D02*
X105156000Y-106172000D01*
X152084500Y-80035000D02*
X152883000Y-80035000D01*
X149800500Y-78994000D02*
X149822000Y-78972500D01*
X153547000Y-106240500D02*
X153547000Y-104779000D01*
D66*
X140164861Y-71882000D02*
X140142920Y-71860059D01*
D65*
X149098000Y-78994000D02*
X149800500Y-78994000D01*
X110724000Y-75926000D02*
X109796500Y-75926000D01*
X140613999Y-109571000D02*
X139954000Y-109571000D01*
X103080000Y-77426000D02*
X104071500Y-77426000D01*
X109796500Y-77426000D02*
X110788000Y-77426000D01*
D66*
X141478000Y-65532000D02*
X140899000Y-65532000D01*
D65*
X110708000Y-76926000D02*
X109796500Y-76926000D01*
X162123000Y-90790000D02*
X161473000Y-91440000D01*
X188752000Y-85344000D02*
X188610000Y-85486000D01*
X162839500Y-91440000D02*
X161473000Y-91440000D01*
X173983000Y-75184000D02*
X173960000Y-75207000D01*
X110998000Y-75692000D02*
X110764000Y-75926000D01*
X102870000Y-76708000D02*
X103088000Y-76926000D01*
D66*
X140181563Y-71010437D02*
X140181563Y-71882000D01*
D65*
X159997000Y-101709000D02*
X159997000Y-100861000D01*
X129144000Y-87996000D02*
X129342000Y-87996000D01*
X109796500Y-76426000D02*
X110772000Y-76426000D01*
X103128000Y-74926000D02*
X102870000Y-75184000D01*
D66*
X140181563Y-71882000D02*
X140164861Y-71882000D01*
D65*
X110998000Y-76708000D02*
X110780000Y-76926000D01*
X150594000Y-76117000D02*
X150622000Y-76145000D01*
X141235000Y-110929500D02*
X141235000Y-110192001D01*
X150622000Y-76145000D02*
X151892000Y-76145000D01*
X149822000Y-81897500D02*
X150222000Y-81897500D01*
X108204000Y-124940000D02*
X108232000Y-124968000D01*
D66*
X142188000Y-71341000D02*
X142188000Y-72084000D01*
D65*
X112732000Y-130693000D02*
X112732000Y-131316985D01*
D69*
X135140000Y-72910000D02*
X135636000Y-73406000D01*
D65*
X128270000Y-87630000D02*
X129116000Y-88476000D01*
X131042000Y-86276000D02*
X132504000Y-86276000D01*
D69*
X135140000Y-72262000D02*
X135140000Y-72910000D01*
D65*
X126238000Y-80264000D02*
X128270000Y-78232000D01*
X112732000Y-123742000D02*
X112732000Y-124968000D01*
X128270000Y-74930000D02*
X128270000Y-76962000D01*
X152003000Y-84725000D02*
X152146000Y-84582000D01*
X104071500Y-75426000D02*
X103136000Y-75426000D01*
X132842000Y-76454000D02*
X131064000Y-78232000D01*
X173960000Y-82257000D02*
X175221000Y-82257000D01*
X103104000Y-75926000D02*
X104071500Y-75926000D01*
X142249000Y-60630000D02*
X142325000Y-60706000D01*
X150622000Y-76145000D02*
X150622000Y-75184000D01*
X175260000Y-75184000D02*
X173983000Y-75184000D01*
X110732000Y-75426000D02*
X110998000Y-75692000D01*
X149822000Y-81897500D02*
X149159500Y-81235000D01*
D66*
X140181563Y-71882000D02*
X140181563Y-72757563D01*
D65*
X186438000Y-88138000D02*
X186829000Y-88138000D01*
X102870000Y-75184000D02*
X103112000Y-75426000D01*
%TO.N,/Control/XOUT*%
X129740000Y-83182000D02*
X129740000Y-84276000D01*
X129740000Y-84276000D02*
X130046000Y-84582000D01*
%TO.N,/Control/XR*%
X133198000Y-85954000D02*
X132842000Y-85598000D01*
X131066000Y-84584000D02*
X132080000Y-85598000D01*
X132588000Y-88364000D02*
X133198000Y-87754000D01*
X131066000Y-84582000D02*
X131066000Y-84584000D01*
X131154000Y-88364000D02*
X131042000Y-88476000D01*
X132842000Y-85598000D02*
X132080000Y-85598000D01*
X133198000Y-87754000D02*
X133198000Y-85954000D01*
X132588000Y-88364000D02*
X131154000Y-88364000D01*
%TO.N,Net-(D1-A)*%
D67*
X187960000Y-120144000D02*
X187960000Y-121640500D01*
%TO.N,/Control/SD_MOSI*%
D65*
X159004000Y-72136000D02*
X165825000Y-78957000D01*
X148082000Y-72136000D02*
X159004000Y-72136000D01*
X165825000Y-78957000D02*
X173960000Y-78957000D01*
X134490000Y-76832000D02*
X143386000Y-76832000D01*
X143386000Y-76832000D02*
X148082000Y-72136000D01*
%TO.N,+3.3V*%
X147574000Y-109222000D02*
X147574000Y-110236000D01*
X102110000Y-71882000D02*
X101854000Y-71626000D01*
X133790000Y-74632000D02*
X133990000Y-74432000D01*
X134490000Y-82032000D02*
X133848000Y-82032000D01*
X140585000Y-110929500D02*
X139631500Y-110929500D01*
X107232000Y-132036000D02*
X107188000Y-132080000D01*
X149159500Y-80835000D02*
X148465049Y-80835000D01*
X160526000Y-74674000D02*
X161290000Y-75438000D01*
X140462000Y-119636000D02*
X140462000Y-120396000D01*
X107188000Y-132840000D02*
X106932000Y-133096000D01*
X130540000Y-73571287D02*
X130540000Y-73282000D01*
X175213000Y-80057000D02*
X175260000Y-80010000D01*
X173960000Y-80057000D02*
X175213000Y-80057000D01*
X147697000Y-100515500D02*
X147697000Y-99437000D01*
X135107000Y-78432000D02*
X135382000Y-78157000D01*
X175197000Y-85407000D02*
X175260000Y-85344000D01*
X99060000Y-108456000D02*
X98804000Y-108712000D01*
X154686000Y-75440000D02*
X154686000Y-76200000D01*
D67*
X177292000Y-122758000D02*
X179663000Y-122758000D01*
D65*
X160663000Y-108792500D02*
X160663000Y-107597000D01*
X131540000Y-71982000D02*
X132010000Y-71982000D01*
X130140000Y-73971287D02*
X130098260Y-74013027D01*
X152355000Y-81235000D02*
X152908000Y-81788000D01*
X126940000Y-83182000D02*
X126940000Y-82332000D01*
X154686000Y-71118000D02*
X154686000Y-70358000D01*
X130140000Y-73282000D02*
X130140000Y-73971287D01*
X133990000Y-74832000D02*
X134490000Y-74832000D01*
X133990000Y-74432000D02*
X134490000Y-74432000D01*
X135140000Y-68972000D02*
X135140000Y-68338000D01*
D67*
X169194000Y-116078000D02*
X169194000Y-116810000D01*
D65*
X107232000Y-130693000D02*
X107232000Y-132036000D01*
X147697000Y-99437000D02*
X147320000Y-99060000D01*
X133848000Y-82032000D02*
X133604000Y-81788000D01*
X102870000Y-71882000D02*
X102110000Y-71882000D01*
X131290000Y-71732000D02*
X131540000Y-71982000D01*
X139631500Y-110929500D02*
X139192000Y-110490000D01*
X128940000Y-83182000D02*
X128940000Y-82332000D01*
X99076000Y-106240500D02*
X99076000Y-107680000D01*
X104071500Y-71926000D02*
X104096000Y-71926000D01*
X130098260Y-74013027D02*
X130540000Y-73571287D01*
X169418000Y-76960000D02*
X169418000Y-76200000D01*
X173960000Y-85407000D02*
X175197000Y-85407000D01*
X107188000Y-132080000D02*
X107188000Y-132840000D01*
X152084500Y-81235000D02*
X152355000Y-81235000D01*
X104071500Y-71926000D02*
X102914000Y-71926000D01*
X127340000Y-73282000D02*
X127340000Y-74032000D01*
X140462000Y-120396000D02*
X140208000Y-120650000D01*
X132140000Y-72112000D02*
X132010000Y-71982000D01*
X148465049Y-80835000D02*
X148268050Y-81031999D01*
X133790000Y-74632000D02*
X133990000Y-74832000D01*
X102914000Y-71926000D02*
X102870000Y-71882000D01*
X132140000Y-73282000D02*
X132140000Y-72112000D01*
D67*
X174413000Y-122758000D02*
X177292000Y-122758000D01*
D65*
X134490000Y-78432000D02*
X135107000Y-78432000D01*
X124590000Y-76032000D02*
X125440000Y-76032000D01*
D67*
X169194000Y-116810000D02*
X169164000Y-116840000D01*
D65*
X99076000Y-107680000D02*
X99060000Y-107696000D01*
X160663000Y-107597000D02*
X160508000Y-107442000D01*
X157114500Y-91440000D02*
X158425000Y-91440000D01*
X160274000Y-74674000D02*
X160526000Y-74674000D01*
X124590000Y-80032000D02*
X125476000Y-80032000D01*
X99060000Y-107696000D02*
X99060000Y-108456000D01*
X135140000Y-68338000D02*
X135128000Y-68326000D01*
%TO.N,/Audio/RECORDED_SPEECH*%
X153952000Y-78994000D02*
X151443500Y-78994000D01*
X151443500Y-78994000D02*
X151422000Y-78972500D01*
%TO.N,Net-(U9-IN1M)*%
X151022000Y-78972500D02*
X151022000Y-78340000D01*
X151892000Y-77470000D02*
X151892000Y-77105000D01*
X151022000Y-78340000D02*
X151892000Y-77470000D01*
%TO.N,Net-(U9-IN2M)*%
X150222000Y-78972500D02*
X150222000Y-77947000D01*
X150222000Y-77947000D02*
X149352000Y-77077000D01*
%TO.N,/SDATA*%
X134490000Y-79632000D02*
X149156500Y-79632000D01*
X149156500Y-79632000D02*
X149159500Y-79635000D01*
%TO.N,/BCLK*%
X134490000Y-80032000D02*
X148647640Y-80032000D01*
X148647640Y-80032000D02*
X148650640Y-80035000D01*
X148650640Y-80035000D02*
X149159500Y-80035000D01*
%TO.N,/FSYNC*%
X148481954Y-80432000D02*
X148484955Y-80435000D01*
X134490000Y-80432000D02*
X148481954Y-80432000D01*
X148484955Y-80435000D02*
X149159500Y-80435000D01*
%TO.N,Net-(U9-DREG)*%
X151022000Y-81897500D02*
X151022000Y-83657000D01*
X151022000Y-83657000D02*
X151130000Y-83765000D01*
%TO.N,Net-(U9-AREG)*%
X153952000Y-81451000D02*
X153336000Y-80835000D01*
X153336000Y-80835000D02*
X152084500Y-80835000D01*
%TO.N,Net-(U9-VREF)*%
X153952000Y-80181000D02*
X153698000Y-80435000D01*
X153698000Y-80435000D02*
X152084500Y-80435000D01*
%TO.N,/Control/D+*%
X131340000Y-73282000D02*
X131340000Y-72610001D01*
X131340000Y-72610001D02*
X130359999Y-71630000D01*
X130359999Y-71630000D02*
X130040000Y-71630000D01*
%TO.N,/USB_D+*%
D66*
X129869059Y-64602372D02*
X129560584Y-64293897D01*
X129869059Y-64967269D02*
X129869059Y-64602372D01*
X129790000Y-65656000D02*
X129838400Y-65607600D01*
X128790000Y-64504000D02*
X128790000Y-65656000D01*
D70*
X130040000Y-70610000D02*
X130040000Y-70129999D01*
D69*
X129790000Y-66617181D02*
X129799029Y-66626210D01*
D70*
X129799029Y-69889028D02*
X129799029Y-66626210D01*
D66*
X129838400Y-65607600D02*
X129838400Y-64997928D01*
X129560584Y-64293897D02*
X129000103Y-64293897D01*
X129000103Y-64293897D02*
X128790000Y-64504000D01*
D69*
X129790000Y-65656000D02*
X129790000Y-66617181D01*
D70*
X130040000Y-70129999D02*
X129799029Y-69889028D01*
D66*
X129838400Y-64997928D02*
X129869059Y-64967269D01*
%TO.N,Net-(U10B--)*%
D65*
X157114500Y-92740000D02*
X157114500Y-93390000D01*
X157183000Y-96266000D02*
X157183000Y-93458500D01*
X157183000Y-93458500D02*
X157114500Y-93390000D01*
X158223000Y-88190000D02*
X159187000Y-89154000D01*
X159187000Y-89154000D02*
X159187000Y-91948000D01*
X158223000Y-87630000D02*
X158223000Y-88190000D01*
X159187000Y-91948000D02*
X158395000Y-92740000D01*
X158395000Y-92740000D02*
X157114500Y-92740000D01*
%TO.N,Net-(C43-Pad2)*%
X159183000Y-86388000D02*
X159211000Y-86360000D01*
X159183000Y-87630000D02*
X159183000Y-86388000D01*
X158199000Y-86360000D02*
X159211000Y-86360000D01*
%TO.N,Net-(U7-SW)*%
D66*
X118872000Y-61516000D02*
X115612500Y-61516000D01*
X115612500Y-61516000D02*
X115250000Y-61878500D01*
%TO.N,Net-(U7-FB)*%
X111995400Y-63233100D02*
X113350000Y-61878500D01*
X113282000Y-66064000D02*
X111995400Y-64777400D01*
X113282000Y-67334000D02*
X113282000Y-66064000D01*
X111995400Y-64777400D02*
X111995400Y-63233100D01*
%TO.N,+5V*%
X141929000Y-68891000D02*
X142240000Y-68580000D01*
D69*
X107732000Y-124968000D02*
X107732000Y-123988000D01*
D65*
X110736000Y-72426000D02*
X111252000Y-71910000D01*
D66*
X141176000Y-72184000D02*
X141176000Y-71341000D01*
X141426000Y-68891000D02*
X141929000Y-68891000D01*
D65*
X99135071Y-100456429D02*
X99076000Y-100515500D01*
D71*
X113350000Y-63491001D02*
X113350000Y-64153500D01*
D66*
X141396000Y-67097000D02*
X141396000Y-68861000D01*
D71*
X112630500Y-64153500D02*
X112522000Y-64262000D01*
D68*
X127140000Y-65656000D02*
X127140000Y-66408000D01*
D65*
X111236000Y-71926000D02*
X111252000Y-71910000D01*
D71*
X118509500Y-64153500D02*
X118872000Y-64516000D01*
D66*
X141396000Y-67097000D02*
X141396000Y-66376000D01*
D65*
X110454000Y-72426000D02*
X109796500Y-72426000D01*
D66*
X140970000Y-72390000D02*
X141176000Y-72184000D01*
D69*
X107732000Y-123988000D02*
X107188000Y-123444000D01*
D71*
X114593540Y-63016000D02*
X113825001Y-63016000D01*
D69*
X107232000Y-123488000D02*
X107188000Y-123444000D01*
D68*
X131940000Y-65656000D02*
X131940000Y-66408000D01*
X131940000Y-66408000D02*
X132080000Y-66548000D01*
D65*
X109796500Y-72426000D02*
X110736000Y-72426000D01*
D71*
X113825001Y-63016000D02*
X113350000Y-63491001D01*
X115250000Y-64153500D02*
X118509500Y-64153500D01*
X118872000Y-64516000D02*
X118872000Y-65786000D01*
D65*
X99576000Y-99500929D02*
X99135071Y-99060000D01*
X99576000Y-100515500D02*
X99576000Y-99500929D01*
D66*
X141396000Y-66376000D02*
X141478000Y-66294000D01*
D69*
X107232000Y-124968000D02*
X107232000Y-123488000D01*
D71*
X115250000Y-64153500D02*
X115250000Y-63672460D01*
D65*
X109796500Y-71926000D02*
X111236000Y-71926000D01*
D71*
X115250000Y-63672460D02*
X114593540Y-63016000D01*
D68*
X127140000Y-66408000D02*
X127000000Y-66548000D01*
D66*
X141396000Y-68861000D02*
X141426000Y-68891000D01*
D65*
X99135071Y-99060000D02*
X99135071Y-100456429D01*
D71*
X113350000Y-64153500D02*
X112630500Y-64153500D01*
%TO.N,/Power/+9V_RAW*%
D66*
X114302000Y-66064000D02*
X115316000Y-66064000D01*
X114300000Y-64153500D02*
X114300000Y-66062000D01*
X117348000Y-66064000D02*
X118364000Y-67080000D01*
X114300000Y-66062000D02*
X114302000Y-66064000D01*
X115316000Y-66064000D02*
X117348000Y-66064000D01*
%TO.N,Net-(R11-Pad2)*%
D69*
X127757598Y-70610000D02*
X127757598Y-69854402D01*
X131397058Y-68072000D02*
X130381058Y-69088000D01*
X127757598Y-69854402D02*
X127762000Y-69850000D01*
X138608000Y-63830000D02*
X134366000Y-68072000D01*
X144950000Y-63830000D02*
X139700000Y-63830000D01*
X134366000Y-68072000D02*
X131397058Y-68072000D01*
X139700000Y-63830000D02*
X138608000Y-63830000D01*
%TO.N,Net-(U3-DIR)*%
D65*
X147697000Y-108079000D02*
X147574000Y-108202000D01*
X147697000Y-106240500D02*
X147697000Y-108079000D01*
%TO.N,/Digitalker/DIGI_ROM_ADDR8*%
X148347000Y-104913000D02*
X148336000Y-104902000D01*
X148347000Y-106240500D02*
X148347000Y-104913000D01*
%TO.N,/Digitalker/DIGI_ROM_ADDR9*%
X148997000Y-104241000D02*
X149098000Y-104140000D01*
X148997000Y-106240500D02*
X148997000Y-104241000D01*
%TO.N,/Digitalker/DIGI_ROM_ADDR10*%
X149647000Y-104943000D02*
X149606000Y-104902000D01*
X149647000Y-106240500D02*
X149647000Y-104943000D01*
%TO.N,/Digitalker/DIGI_ROM_ADDR11*%
X150297000Y-106240500D02*
X150297000Y-104211000D01*
X150297000Y-104211000D02*
X150368000Y-104140000D01*
%TO.N,/Digitalker/DIGI_ROM_ADDR12*%
X150947000Y-104952000D02*
X150897000Y-104902000D01*
X150947000Y-106240500D02*
X150947000Y-104952000D01*
%TO.N,/Digitalker/DIGI_ROM_ADDR13*%
X151597000Y-104181000D02*
X151638000Y-104140000D01*
X151597000Y-106240500D02*
X151597000Y-104181000D01*
%TO.N,/Digitalker/DIGI_~{ROMEN}*%
X152247000Y-106240500D02*
X152247000Y-104952000D01*
X152247000Y-104952000D02*
X152197000Y-104902000D01*
%TO.N,/Digitalker/DIGI_INTR*%
X152897000Y-106240500D02*
X152897000Y-106923000D01*
X129799000Y-108971000D02*
X122428000Y-108971000D01*
X152897000Y-106923000D02*
X147044000Y-112776000D01*
X133604000Y-112776000D02*
X129799000Y-108971000D01*
X147044000Y-112776000D02*
X133604000Y-112776000D01*
%TO.N,/INTR*%
X153547000Y-99437000D02*
X153547000Y-100515500D01*
X154686000Y-91694000D02*
X154686000Y-98298000D01*
X134490000Y-80832000D02*
X143824000Y-80832000D01*
X143824000Y-80832000D02*
X154686000Y-91694000D01*
X154686000Y-98298000D02*
X153547000Y-99437000D01*
%TO.N,/~{ROMEN}*%
X153670000Y-98298000D02*
X152897000Y-99071000D01*
X152897000Y-99071000D02*
X152897000Y-100515500D01*
X134490000Y-81232000D02*
X142954000Y-81232000D01*
X142954000Y-81232000D02*
X153670000Y-91948000D01*
X153670000Y-91948000D02*
X153670000Y-98298000D01*
%TO.N,/ROM_ADDR13*%
X152654000Y-92202000D02*
X152654000Y-98298000D01*
X152654000Y-98298000D02*
X152247000Y-98705000D01*
X134490000Y-81632000D02*
X142084000Y-81632000D01*
X152247000Y-98705000D02*
X152247000Y-100515500D01*
X142084000Y-81632000D02*
X152654000Y-92202000D01*
%TO.N,/ROM_ADDR12*%
X133340000Y-83182000D02*
X142364000Y-83182000D01*
X142364000Y-83182000D02*
X151638000Y-92456000D01*
X151638000Y-100474500D02*
X151597000Y-100515500D01*
X151638000Y-92456000D02*
X151638000Y-100474500D01*
%TO.N,/ROM_ADDR11*%
X137414000Y-86614000D02*
X144468314Y-86614000D01*
X144468314Y-86614000D02*
X150622000Y-92767686D01*
X133259640Y-83998000D02*
X134798000Y-83998000D01*
X132940000Y-83678360D02*
X133259640Y-83998000D01*
X134798000Y-83998000D02*
X137414000Y-86614000D01*
X150622000Y-97282000D02*
X150947000Y-97607000D01*
X150622000Y-92767686D02*
X150622000Y-97282000D01*
X132940000Y-83182000D02*
X132940000Y-83678360D01*
X150947000Y-97607000D02*
X150947000Y-100515500D01*
%TO.N,/ROM_ADDR10*%
X144018000Y-87376000D02*
X149606000Y-92964000D01*
X150297000Y-97973000D02*
X150297000Y-100515500D01*
X134182000Y-84398000D02*
X137160000Y-87376000D01*
X149606000Y-97282000D02*
X150297000Y-97973000D01*
X149606000Y-92964000D02*
X149606000Y-97282000D01*
X137160000Y-87376000D02*
X144018000Y-87376000D01*
X132540000Y-83182000D02*
X132540000Y-83844046D01*
X133093955Y-84398000D02*
X134182000Y-84398000D01*
X132540000Y-83844046D02*
X133093955Y-84398000D01*
%TO.N,/ROM_ADDR9*%
X148590000Y-93218000D02*
X148590000Y-97282000D01*
X132847265Y-84798000D02*
X133566000Y-84798000D01*
X143510000Y-88138000D02*
X148590000Y-93218000D01*
X148590000Y-97282000D02*
X149647000Y-98339000D01*
X149647000Y-98339000D02*
X149647000Y-100515500D01*
X136906000Y-88138000D02*
X143510000Y-88138000D01*
X132140000Y-84090735D02*
X132847265Y-84798000D01*
X132140000Y-83182000D02*
X132140000Y-84090735D01*
X133566000Y-84798000D02*
X136906000Y-88138000D01*
%TO.N,/ROM_ADDR8*%
X131740000Y-84256421D02*
X132681580Y-85198000D01*
X147574000Y-93472000D02*
X147574000Y-97282000D01*
X148997000Y-98705000D02*
X148997000Y-100515500D01*
X133007686Y-85198000D02*
X136709686Y-88900000D01*
X132681580Y-85198000D02*
X133007686Y-85198000D01*
X143002000Y-88900000D02*
X147574000Y-93472000D01*
X131740000Y-83182000D02*
X131740000Y-84256421D01*
X147574000Y-97282000D02*
X148997000Y-98705000D01*
X136709686Y-88900000D02*
X143002000Y-88900000D01*
%TO.N,Net-(U8-FB)*%
D66*
X141637000Y-73193000D02*
X142649000Y-73193000D01*
X141637000Y-71380000D02*
X141676000Y-71341000D01*
X141637000Y-73193000D02*
X141637000Y-71380000D01*
%TO.N,Net-(U8-MODE)*%
X140501000Y-69091000D02*
X140501000Y-67248000D01*
X140501000Y-67248000D02*
X140352000Y-67099000D01*
%TO.N,/Control/LED_GR*%
D65*
X136652000Y-74684500D02*
X136104500Y-75232000D01*
X136652000Y-74676000D02*
X136652000Y-74684500D01*
X136104500Y-75232000D02*
X134490000Y-75232000D01*
D67*
X187960000Y-119124000D02*
X187960000Y-118364000D01*
%TO.N,/Control/VREG_AVDD*%
D65*
X135140000Y-71302000D02*
X135140000Y-69992000D01*
X133340000Y-73102000D02*
X135140000Y-71302000D01*
X133340000Y-73282000D02*
X133340000Y-73102000D01*
%TO.N,+1V1*%
X130140000Y-83182000D02*
X130140000Y-82332000D01*
X130842360Y-74676000D02*
X131740000Y-73778360D01*
X124590000Y-78032000D02*
X125390000Y-78032000D01*
X131740000Y-73778360D02*
X131740000Y-73282000D01*
X134490000Y-78032000D02*
X133740000Y-78032000D01*
X130690000Y-74676000D02*
X130842360Y-74676000D01*
%TO.N,Net-(U6-DIR)*%
X107732000Y-132876000D02*
X107952000Y-133096000D01*
X107732000Y-130693000D02*
X107732000Y-132876000D01*
%TO.N,/RDATA0*%
X108232000Y-130693000D02*
X108232000Y-128890541D01*
X113538000Y-84836000D02*
X119942000Y-78432000D01*
X112998000Y-126254000D02*
X113538000Y-125714000D01*
X110868541Y-126254000D02*
X112998000Y-126254000D01*
X113538000Y-84836000D02*
X113538000Y-125714000D01*
X119942000Y-78432000D02*
X124590000Y-78432000D01*
X108232000Y-128890541D02*
X110868541Y-126254000D01*
%TO.N,/RDATA1*%
X108732000Y-129032595D02*
X111056594Y-126708000D01*
X114554000Y-84836000D02*
X120558000Y-78832000D01*
X120558000Y-78832000D02*
X124590000Y-78832000D01*
X114554000Y-125916974D02*
X114554000Y-84836000D01*
X108732000Y-130693000D02*
X108732000Y-129032595D01*
X113762974Y-126708000D02*
X114554000Y-125916974D01*
X111056594Y-126708000D02*
X113762974Y-126708000D01*
%TO.N,/RDATA2*%
X121174000Y-79232000D02*
X124590000Y-79232000D01*
X115570000Y-84836000D02*
X115570000Y-126238000D01*
X111244647Y-127162000D02*
X114646000Y-127162000D01*
X109232000Y-130693000D02*
X109232000Y-129174647D01*
X109232000Y-129174647D02*
X111244647Y-127162000D01*
X115570000Y-84836000D02*
X121174000Y-79232000D01*
X114646000Y-127162000D02*
X115570000Y-126238000D01*
%TO.N,/RDATA3*%
X116586000Y-126492000D02*
X116586000Y-84836000D01*
X109732000Y-130693000D02*
X109732000Y-129316700D01*
X115462000Y-127616000D02*
X116586000Y-126492000D01*
X116586000Y-84836000D02*
X121790000Y-79632000D01*
X121790000Y-79632000D02*
X124590000Y-79632000D01*
X111432700Y-127616000D02*
X115462000Y-127616000D01*
X109732000Y-129316700D02*
X111432700Y-127616000D01*
%TO.N,/RDATA4*%
X110232000Y-130693000D02*
X110232000Y-129458752D01*
X111620752Y-128070000D02*
X116278000Y-128070000D01*
X117602000Y-84836000D02*
X122006000Y-80432000D01*
X117602000Y-84836000D02*
X117602000Y-126746000D01*
X122006000Y-80432000D02*
X124590000Y-80432000D01*
X116278000Y-128070000D02*
X117602000Y-126746000D01*
X110232000Y-129458752D02*
X111620752Y-128070000D01*
%TO.N,/RDATA5*%
X118618000Y-84836000D02*
X122622000Y-80832000D01*
X118618000Y-127000000D02*
X118618000Y-84836000D01*
X110732000Y-130693000D02*
X110732000Y-129600804D01*
X111808804Y-128524000D02*
X117094000Y-128524000D01*
X122622000Y-80832000D02*
X124590000Y-80832000D01*
X110732000Y-129600804D02*
X111808804Y-128524000D01*
X117094000Y-128524000D02*
X118618000Y-127000000D01*
%TO.N,/RDATA6*%
X119634000Y-84836000D02*
X123238000Y-81232000D01*
X111232000Y-129742856D02*
X111942856Y-129032000D01*
X111232000Y-130693000D02*
X111232000Y-129742856D01*
X111942856Y-129032000D02*
X117856000Y-129032000D01*
X117856000Y-129032000D02*
X119634000Y-127254000D01*
X119634000Y-84836000D02*
X119634000Y-127254000D01*
X123238000Y-81232000D02*
X124590000Y-81232000D01*
%TO.N,/RDATA7*%
X111732000Y-130693000D02*
X111732000Y-129884908D01*
X118618000Y-129540000D02*
X120650000Y-127508000D01*
X112076908Y-129540000D02*
X118618000Y-129540000D01*
X123854000Y-81632000D02*
X124590000Y-81632000D01*
X120650000Y-84836000D02*
X123854000Y-81632000D01*
X111732000Y-129884908D02*
X112076908Y-129540000D01*
X120650000Y-127508000D02*
X120650000Y-84836000D01*
%TO.N,/Digitalker/DIGI_RDATA7*%
X130810000Y-133096000D02*
X134625000Y-136911000D01*
X117602000Y-130302000D02*
X120396000Y-133096000D01*
X112232000Y-123024193D02*
X112431143Y-122825050D01*
X112232000Y-124968000D02*
X112232000Y-123024193D01*
X134625000Y-136911000D02*
X137668000Y-136911000D01*
X120396000Y-133096000D02*
X130810000Y-133096000D01*
%TO.N,/Digitalker/DIGI_RDATA6*%
X116586000Y-131064000D02*
X121158000Y-135636000D01*
X130302000Y-135636000D02*
X134117000Y-139451000D01*
X134117000Y-139451000D02*
X137668000Y-139451000D01*
X121158000Y-135636000D02*
X130302000Y-135636000D01*
X111732000Y-122393162D02*
X111851671Y-122273491D01*
X116586000Y-130302000D02*
X116586000Y-131064000D01*
X111732000Y-124968000D02*
X111732000Y-122393162D01*
%TO.N,/Digitalker/DIGI_RDATA5*%
X129032000Y-138176000D02*
X132847000Y-141991000D01*
X115570000Y-132588000D02*
X121158000Y-138176000D01*
X111232000Y-124968000D02*
X111232000Y-123083259D01*
X121158000Y-138176000D02*
X129032000Y-138176000D01*
X115570000Y-130302000D02*
X115570000Y-132588000D01*
X111232000Y-123083259D02*
X111132000Y-122983259D01*
X132847000Y-141991000D02*
X137668000Y-141991000D01*
%TO.N,/Digitalker/DIGI_RDATA4*%
X110732000Y-123798000D02*
X110632000Y-123698000D01*
X110732000Y-124968000D02*
X110732000Y-123798000D01*
X131577000Y-144531000D02*
X137668000Y-144531000D01*
X120396000Y-140716000D02*
X127762000Y-140716000D01*
X127762000Y-140716000D02*
X131577000Y-144531000D01*
X114554000Y-134874000D02*
X120396000Y-140716000D01*
X114554000Y-130302000D02*
X114554000Y-134874000D01*
%TO.N,/Digitalker/DIGI_RDATA3*%
X110232000Y-124198090D02*
X109982000Y-123948090D01*
X109982000Y-123948090D02*
X109982000Y-123190000D01*
X110232000Y-124968000D02*
X110232000Y-124198090D01*
%TO.N,/Digitalker/DIGI_RDATA2*%
X109732000Y-126435903D02*
X109371271Y-126796632D01*
X109732000Y-124968000D02*
X109732000Y-126435903D01*
%TO.N,/Digitalker/DIGI_RDATA1*%
X109232000Y-124968000D02*
X109232000Y-126087374D01*
X109232000Y-126087374D02*
X108515687Y-126803687D01*
%TO.N,/Digitalker/DIGI_RDATA0*%
X108231910Y-126238000D02*
X108732000Y-125737910D01*
X108732000Y-125737910D02*
X108732000Y-124968000D01*
X107950000Y-126238000D02*
X108231910Y-126238000D01*
%TO.N,Net-(R10-Pad2)*%
X160020000Y-60630000D02*
X162645000Y-60630000D01*
X157395000Y-60630000D02*
X160020000Y-60630000D01*
%TO.N,Net-(U1-RUN)*%
X156455000Y-64770000D02*
X139954000Y-64770000D01*
X139954000Y-64770000D02*
X138430000Y-66294000D01*
X162645000Y-63830000D02*
X157395000Y-63830000D01*
X131340000Y-82685640D02*
X131340000Y-83182000D01*
X135890000Y-82550000D02*
X135822000Y-82482000D01*
X157395000Y-63830000D02*
X156455000Y-64770000D01*
X138430000Y-72136000D02*
X136398000Y-74168000D01*
X135822000Y-82482000D02*
X131543640Y-82482000D01*
X131543640Y-82482000D02*
X131340000Y-82685640D01*
X138430000Y-66294000D02*
X138430000Y-72136000D01*
X136398000Y-74168000D02*
X135636000Y-74168000D01*
%TO.N,/Digitalker/FILTERED_SPEECH*%
X160909000Y-81153000D02*
X164338000Y-84582000D01*
X162839500Y-93390000D02*
X161839000Y-93390000D01*
X164338000Y-91978999D02*
X163576999Y-92740000D01*
X162839500Y-99820750D02*
X162839500Y-93390000D01*
X164338000Y-84582000D02*
X164338000Y-91978999D01*
X171306000Y-108287250D02*
X162839500Y-99820750D01*
X158750000Y-78994000D02*
X154912000Y-78994000D01*
X163576999Y-92740000D02*
X162839500Y-92740000D01*
X162839500Y-93390000D02*
X162839500Y-92740000D01*
X161839000Y-93390000D02*
X160233000Y-94996000D01*
X160909000Y-81153000D02*
X158750000Y-78994000D01*
%TO.N,/Control/VREG_LX*%
X133602500Y-69482000D02*
X132540000Y-70544500D01*
X132540000Y-70544500D02*
X132540000Y-73282000D01*
%TO.N,/Control/BUTTON*%
D67*
X170154000Y-116078000D02*
X170154000Y-114834000D01*
X170154000Y-114834000D02*
X170180000Y-114808000D01*
X171450000Y-116595000D02*
X171450000Y-116078000D01*
X147574000Y-79011000D02*
X147353000Y-79232000D01*
X179663000Y-119558000D02*
X174413000Y-119558000D01*
X147353000Y-79232000D02*
X134490000Y-79232000D01*
X170154000Y-116078000D02*
X171450000Y-116078000D01*
X174413000Y-119558000D02*
X171450000Y-116595000D01*
%TO.N,/Control/SD_MISO*%
D65*
X173960000Y-83357000D02*
X165399000Y-83357000D01*
X146720000Y-78832000D02*
X134490000Y-78832000D01*
X165399000Y-83357000D02*
X156464000Y-74422000D01*
X149606000Y-74422000D02*
X148336000Y-75692000D01*
X148336000Y-75692000D02*
X148336000Y-77216000D01*
X156464000Y-74422000D02*
X149606000Y-74422000D01*
X148336000Y-77216000D02*
X146720000Y-78832000D01*
%TO.N,/Control/XIN*%
X129340000Y-86274000D02*
X129342000Y-86276000D01*
X129286000Y-86332000D02*
X129342000Y-86276000D01*
X129340000Y-83182000D02*
X129340000Y-86274000D01*
%TO.N,Net-(U2-DIR)*%
X140585000Y-118493000D02*
X140462000Y-118616000D01*
X140585000Y-116654500D02*
X140585000Y-118493000D01*
%TO.N,Net-(U5-DIR)*%
X99585000Y-108473000D02*
X99824000Y-108712000D01*
X99585000Y-106249500D02*
X99585000Y-108473000D01*
X99576000Y-106240500D02*
X99585000Y-106249500D01*
%TO.N,/SW1*%
X100076000Y-104438042D02*
X100076000Y-106240500D01*
X102604542Y-101909500D02*
X100076000Y-104438042D01*
X104739135Y-101909500D02*
X102604542Y-101909500D01*
X115814000Y-74432000D02*
X105410000Y-84836000D01*
X105410000Y-84836000D02*
X105410000Y-101238635D01*
X105410000Y-101238635D02*
X104739135Y-101909500D01*
X124590000Y-74432000D02*
X115814000Y-74432000D01*
%TO.N,/SW2*%
X106420271Y-101531500D02*
X106420271Y-84841729D01*
X100576000Y-106240500D02*
X100576000Y-104580094D01*
X106420271Y-84841729D02*
X116430000Y-74832000D01*
X105588271Y-102363500D02*
X106420271Y-101531500D01*
X100576000Y-104580094D02*
X102792594Y-102363500D01*
X116430000Y-74832000D02*
X124590000Y-74832000D01*
X102792594Y-102363500D02*
X105588271Y-102363500D01*
%TO.N,/SW3*%
X107442000Y-101779771D02*
X106404271Y-102817500D01*
X107442000Y-84836000D02*
X107442000Y-101779771D01*
X102980646Y-102817500D02*
X101076000Y-104722146D01*
X124590000Y-75232000D02*
X117046000Y-75232000D01*
X101076000Y-104722146D02*
X101076000Y-106240500D01*
X117046000Y-75232000D02*
X107442000Y-84836000D01*
X106404271Y-102817500D02*
X102980646Y-102817500D01*
%TO.N,/SW4*%
X107220271Y-103271500D02*
X108452271Y-102039500D01*
X103168699Y-103271500D02*
X107220271Y-103271500D01*
X117662000Y-75632000D02*
X124590000Y-75632000D01*
X108452271Y-84841729D02*
X117662000Y-75632000D01*
X101576000Y-106240500D02*
X101576000Y-104864199D01*
X101576000Y-104864199D02*
X103168699Y-103271500D01*
X108452271Y-102039500D02*
X108452271Y-84841729D01*
%TO.N,/SW5*%
X103356751Y-103725500D02*
X102076000Y-105006251D01*
X102076000Y-105006251D02*
X102076000Y-106240500D01*
X108036271Y-103725500D02*
X103356751Y-103725500D01*
X117878000Y-76432000D02*
X109474000Y-84836000D01*
X109474000Y-84836000D02*
X109474000Y-102287771D01*
X109474000Y-102287771D02*
X108036271Y-103725500D01*
X124590000Y-76432000D02*
X117878000Y-76432000D01*
%TO.N,/SW6*%
X110484271Y-102547500D02*
X110484271Y-84841729D01*
X102576000Y-106240500D02*
X102576000Y-105148303D01*
X118494000Y-76832000D02*
X124590000Y-76832000D01*
X110484271Y-84841729D02*
X118494000Y-76832000D01*
X102576000Y-105148303D02*
X103544803Y-104179500D01*
X103544803Y-104179500D02*
X108852271Y-104179500D01*
X108852271Y-104179500D02*
X110484271Y-102547500D01*
%TO.N,/SW7*%
X103732856Y-104633500D02*
X103076000Y-105290356D01*
X111506000Y-84836000D02*
X111506000Y-102795771D01*
X109668271Y-104633500D02*
X103732856Y-104633500D01*
X119110000Y-77232000D02*
X111506000Y-84836000D01*
X111506000Y-102795771D02*
X109668271Y-104633500D01*
X124590000Y-77232000D02*
X119110000Y-77232000D01*
X103076000Y-105290356D02*
X103076000Y-106240500D01*
%TO.N,/SW8*%
X112516271Y-84841729D02*
X119726000Y-77632000D01*
X119726000Y-77632000D02*
X124590000Y-77632000D01*
X103576000Y-106240500D02*
X103576000Y-105432408D01*
X103920908Y-105087500D02*
X110484271Y-105087500D01*
X110484271Y-105087500D02*
X112516271Y-103055500D01*
X103576000Y-105432408D02*
X103920908Y-105087500D01*
X112516271Y-103055500D02*
X112516271Y-84841729D01*
%TO.N,/Digitalker/DIGI_SW8*%
X104278626Y-98552000D02*
X104048000Y-98782626D01*
X104048000Y-100487500D02*
X104076000Y-100515500D01*
X104394000Y-98552000D02*
X104278626Y-98552000D01*
X104048000Y-98782626D02*
X104048000Y-100487500D01*
%TO.N,/Digitalker/DIGI_SW7*%
X103576000Y-98123252D02*
X103909252Y-97790000D01*
X103576000Y-100515500D02*
X103576000Y-98123252D01*
%TO.N,/Digitalker/DIGI_SW6*%
X103076000Y-97634417D02*
X103139965Y-97570452D01*
X103076000Y-100515500D02*
X103076000Y-97634417D01*
%TO.N,/Digitalker/DIGI_SW5*%
X102576000Y-98398000D02*
X102476000Y-98298000D01*
X102576000Y-100515500D02*
X102576000Y-98398000D01*
%TO.N,/Digitalker/DIGI_SW4*%
X102076000Y-100515500D02*
X102076000Y-99160000D01*
X102076000Y-99160000D02*
X101976000Y-99060000D01*
%TO.N,/Digitalker/DIGI_SW3*%
X101576000Y-101726752D02*
X101699788Y-101850540D01*
X101576000Y-100515500D02*
X101576000Y-101726752D01*
%TO.N,/Digitalker/DIGI_SW2*%
X101076000Y-100515500D02*
X101076000Y-101702529D01*
X101076000Y-101702529D02*
X100900266Y-101878263D01*
%TO.N,/Digitalker/DIGI_SW1*%
X100576000Y-101354000D02*
X100076000Y-101854000D01*
X100576000Y-100515500D02*
X100576000Y-101354000D01*
%TO.N,Net-(U4-DIR)*%
X104071500Y-72426000D02*
X102074000Y-72426000D01*
X102074000Y-72426000D02*
X101854000Y-72646000D01*
%TO.N,Net-(U10A--)*%
X157179000Y-86360000D02*
X157179000Y-89425500D01*
X157114500Y-89490000D02*
X157114500Y-90140000D01*
X157179000Y-89425500D02*
X157114500Y-89490000D01*
%TO.N,Net-(U10A-+)*%
X155702000Y-90790000D02*
X157114500Y-90790000D01*
%TO.N,Net-(U10B-+)*%
X160203000Y-86332000D02*
X160231000Y-86360000D01*
D67*
X160048000Y-85090000D02*
X156718000Y-85090000D01*
X156718000Y-85090000D02*
X154940000Y-86868000D01*
X156098000Y-92090000D02*
X154940000Y-90932000D01*
D65*
X160203000Y-85090000D02*
X160203000Y-86332000D01*
D67*
X154940000Y-86868000D02*
X154940000Y-90932000D01*
X157114500Y-92090000D02*
X156098000Y-92090000D01*
%TO.N,Net-(U10D--)*%
D65*
X162839500Y-89490000D02*
X162839500Y-90140000D01*
%TO.N,/Digitalker/DIGI_ROM_ADDR0*%
X141235000Y-116654500D02*
X141235000Y-126394471D01*
X141235000Y-130804000D02*
X137668000Y-134371000D01*
X141235000Y-126394471D02*
X141132000Y-126497471D01*
X141132000Y-126994529D02*
X141235000Y-127097529D01*
X141235000Y-127097529D02*
X141235000Y-130804000D01*
X141235000Y-116654500D02*
X141224000Y-116665500D01*
X141132000Y-126497471D02*
X141132000Y-126994529D01*
%TO.N,/Digitalker/DIGI_ROM_ADDR1*%
X141885000Y-126593000D02*
X141885000Y-116654500D01*
%TO.N,/Digitalker/DIGI_ROM_ADDR2*%
X142535000Y-123149000D02*
X142494000Y-123190000D01*
X142535000Y-116654500D02*
X142535000Y-123149000D01*
%TO.N,/Digitalker/DIGI_ROM_ADDR3*%
X143164000Y-120304000D02*
X143256000Y-120396000D01*
X143185000Y-116654500D02*
X143164000Y-116675500D01*
X143164000Y-116675500D02*
X143164000Y-120304000D01*
%TO.N,/Digitalker/DIGI_ROM_ADDR4*%
X143835000Y-119563000D02*
X143764000Y-119634000D01*
X143835000Y-116654500D02*
X143835000Y-119563000D01*
%TO.N,/Digitalker/DIGI_ROM_ADDR5*%
X144434000Y-116705500D02*
X144434000Y-118780000D01*
X144485000Y-116654500D02*
X144434000Y-116705500D01*
X144434000Y-118780000D02*
X144526000Y-118872000D01*
%TO.N,/Digitalker/DIGI_ROM_ADDR6*%
X145135000Y-116654500D02*
X145135000Y-118009000D01*
X145135000Y-118009000D02*
X145034000Y-118110000D01*
%TO.N,/Digitalker/DIGI_ROM_ADDR7*%
X138943000Y-115316000D02*
X137668000Y-116591000D01*
X145785000Y-115813000D02*
X145288000Y-115316000D01*
X145785000Y-116654500D02*
X145785000Y-115813000D01*
X145288000Y-115316000D02*
X138943000Y-115316000D01*
%TO.N,/ROM_ADDR7*%
X128540000Y-85328000D02*
X127508000Y-86360000D01*
X128540000Y-83182000D02*
X128540000Y-85328000D01*
X142494000Y-89662000D02*
X146558000Y-93726000D01*
X127508000Y-88900000D02*
X128270000Y-89662000D01*
X128270000Y-89662000D02*
X142494000Y-89662000D01*
X146558000Y-93726000D02*
X146558000Y-110806500D01*
X146558000Y-110806500D02*
X146435000Y-110929500D01*
X127508000Y-86360000D02*
X127508000Y-88900000D01*
%TO.N,/ROM_ADDR6*%
X128016000Y-90424000D02*
X141986000Y-90424000D01*
X128140000Y-83182000D02*
X128140000Y-84966000D01*
X141986000Y-90424000D02*
X145542000Y-93980000D01*
X145785000Y-107685000D02*
X145785000Y-110929500D01*
X145542000Y-93980000D02*
X145542000Y-107442000D01*
X145542000Y-107442000D02*
X145785000Y-107685000D01*
X126746000Y-89154000D02*
X128016000Y-90424000D01*
X128140000Y-84966000D02*
X126746000Y-86360000D01*
X126746000Y-86360000D02*
X126746000Y-89154000D01*
%TO.N,/ROM_ADDR5*%
X127762000Y-91186000D02*
X141478000Y-91186000D01*
X127740000Y-83182000D02*
X127740000Y-84604000D01*
X125984000Y-89408000D02*
X127762000Y-91186000D01*
X145135000Y-108051000D02*
X145135000Y-110929500D01*
X125984000Y-86360000D02*
X125984000Y-89408000D01*
X141478000Y-91186000D02*
X144526000Y-94234000D01*
X144526000Y-107442000D02*
X145135000Y-108051000D01*
X144526000Y-94234000D02*
X144526000Y-107442000D01*
X127740000Y-84604000D02*
X125984000Y-86360000D01*
%TO.N,/ROM_ADDR4*%
X140970000Y-91948000D02*
X143510000Y-94488000D01*
X143510000Y-107442000D02*
X144485000Y-108417000D01*
X125222000Y-89662000D02*
X127508000Y-91948000D01*
X143510000Y-94488000D02*
X143510000Y-107442000D01*
X127508000Y-91948000D02*
X140970000Y-91948000D01*
X127340000Y-83182000D02*
X127340000Y-84242000D01*
X127340000Y-84242000D02*
X125222000Y-86360000D01*
X125222000Y-86360000D02*
X125222000Y-89662000D01*
X144485000Y-108417000D02*
X144485000Y-110929500D01*
%TO.N,/ROM_ADDR3*%
X143835000Y-108783000D02*
X143835000Y-110929500D01*
X126540000Y-83182000D02*
X126540000Y-84280000D01*
X124460000Y-89916000D02*
X127254000Y-92710000D01*
X126540000Y-84280000D02*
X124460000Y-86360000D01*
X127254000Y-92710000D02*
X140462000Y-92710000D01*
X124460000Y-86360000D02*
X124460000Y-89916000D01*
X142494000Y-94742000D02*
X142494000Y-107442000D01*
X142494000Y-107442000D02*
X143835000Y-108783000D01*
X140462000Y-92710000D02*
X142494000Y-94742000D01*
%TO.N,/ROM_ADDR2*%
X139954000Y-93472000D02*
X141478000Y-94996000D01*
X141478000Y-94996000D02*
X141478000Y-107442000D01*
X126140000Y-83182000D02*
X126140000Y-83918000D01*
X127000000Y-93472000D02*
X139954000Y-93472000D01*
X123698000Y-86360000D02*
X123698000Y-90170000D01*
X126140000Y-83918000D02*
X123698000Y-86360000D01*
X143185000Y-109149000D02*
X143185000Y-110929500D01*
X141478000Y-107442000D02*
X143185000Y-109149000D01*
X123698000Y-90170000D02*
X127000000Y-93472000D01*
%TO.N,/ROM_ADDR1*%
X140462000Y-107442000D02*
X142535000Y-109515000D01*
X142535000Y-109515000D02*
X142535000Y-110929500D01*
X122936000Y-90424000D02*
X126746000Y-94234000D01*
X122936000Y-86300000D02*
X122936000Y-90424000D01*
X125740000Y-83496000D02*
X122936000Y-86300000D01*
X139446000Y-94234000D02*
X140462000Y-95250000D01*
X125740000Y-83182000D02*
X125740000Y-83496000D01*
X126746000Y-94234000D02*
X139446000Y-94234000D01*
X140462000Y-95250000D02*
X140462000Y-107442000D01*
%TO.N,/ROM_ADDR0*%
X124590000Y-82166000D02*
X122174000Y-84582000D01*
X122174000Y-90678000D02*
X126492000Y-94996000D01*
X124590000Y-82032000D02*
X124590000Y-82166000D01*
X139446000Y-107442000D02*
X141885000Y-109881000D01*
X122174000Y-84582000D02*
X122174000Y-90678000D01*
X141885000Y-109881000D02*
X141885000Y-110929500D01*
X139446000Y-95504000D02*
X139446000Y-107442000D01*
X138938000Y-94996000D02*
X139446000Y-95504000D01*
X126492000Y-94996000D02*
X138938000Y-94996000D01*
%TO.N,Net-(C53-Pad1)*%
X174815250Y-108287250D02*
X174874000Y-108346000D01*
X172266000Y-108287250D02*
X174815250Y-108287250D01*
%TO.N,Net-(U11-IN-)*%
X160013000Y-102685000D02*
X159997000Y-102669000D01*
X160013000Y-104567500D02*
X160013000Y-102685000D01*
%TO.N,/Control/D-*%
X129750000Y-72390000D02*
X128990000Y-71630000D01*
X130544360Y-72390000D02*
X129750000Y-72390000D01*
X130940000Y-72785640D02*
X130544360Y-72390000D01*
X130940000Y-73282000D02*
X130940000Y-72785640D01*
%TO.N,/USB_D-*%
D70*
X128990000Y-70129999D02*
X129230971Y-69889028D01*
D69*
X129290000Y-64872956D02*
X129290000Y-65656000D01*
X130290000Y-66452634D02*
X130374147Y-66536781D01*
D70*
X128990000Y-70610000D02*
X128990000Y-70129999D01*
D69*
X129290000Y-65656000D02*
X129290000Y-66567181D01*
X129342459Y-64820497D02*
X129290000Y-64872956D01*
X130290000Y-65656000D02*
X130290000Y-66452634D01*
D70*
X129230971Y-69889028D02*
X129230971Y-66626210D01*
D69*
X129290000Y-66567181D02*
X129230971Y-66626210D01*
%TO.N,Net-(D2-A)*%
D67*
X183134000Y-120144000D02*
X183134000Y-121640500D01*
%TO.N,Net-(U11-IN+)*%
D65*
X160663000Y-105379999D02*
X160663000Y-104567500D01*
X175992000Y-109728000D02*
X165011001Y-109728000D01*
X177374000Y-108346000D02*
X175992000Y-109728000D01*
X165011001Y-109728000D02*
X160663000Y-105379999D01*
%TO.N,Net-(U1-~{QSPI_SS})*%
X127740000Y-71647598D02*
X127757598Y-71630000D01*
X127740000Y-73282000D02*
X127740000Y-71647598D01*
%TO.N,/Control/~{SD_CS}*%
X172720000Y-77978000D02*
X172841000Y-77857000D01*
X138084000Y-77632000D02*
X134490000Y-77632000D01*
X138430000Y-77978000D02*
X138084000Y-77632000D01*
X147320000Y-76962000D02*
X146812000Y-76962000D01*
X145796000Y-77978000D02*
X138430000Y-77978000D01*
X146812000Y-76962000D02*
X145796000Y-77978000D01*
X167640000Y-77978000D02*
X172720000Y-77978000D01*
X172841000Y-77857000D02*
X173960000Y-77857000D01*
%TO.N,/Control/SD_SCK*%
X144764000Y-77232000D02*
X134490000Y-77232000D01*
X148844000Y-73152000D02*
X144764000Y-77232000D01*
X157734000Y-73152000D02*
X148844000Y-73152000D01*
X173960000Y-81157000D02*
X165739000Y-81157000D01*
X165739000Y-81157000D02*
X157734000Y-73152000D01*
%TO.N,/Control/SD_DET*%
X165100000Y-87630000D02*
X183187000Y-87630000D01*
X138559000Y-76432000D02*
X134490000Y-76432000D01*
X184460000Y-86357000D02*
X184460000Y-87180000D01*
X184460000Y-87180000D02*
X185418000Y-88138000D01*
X138684000Y-76307000D02*
X138559000Y-76432000D01*
X183187000Y-87630000D02*
X184460000Y-86357000D01*
%TO.N,/Control/LED_RED*%
X136712000Y-75632000D02*
X134490000Y-75632000D01*
D67*
X183134000Y-119124000D02*
X183134000Y-118364000D01*
D65*
X137414000Y-74930000D02*
X136712000Y-75632000D01*
%TO.N,Net-(J2-CC1)*%
X130790000Y-65656000D02*
X130790000Y-64536000D01*
X130790000Y-64536000D02*
X130810000Y-64516000D01*
%TO.N,Net-(J2-CC2)*%
X127790000Y-64544000D02*
X127762000Y-64516000D01*
X127790000Y-65656000D02*
X127790000Y-64544000D01*
%TO.N,/~{SPEAKER_DISABLE}*%
X137074000Y-76032000D02*
X134490000Y-76032000D01*
X137378997Y-75727003D02*
X137074000Y-76032000D01*
X137414000Y-75692000D02*
X137378997Y-75656997D01*
X161963000Y-104567500D02*
X161963000Y-102451000D01*
X137378997Y-75656997D02*
X137378997Y-75727003D01*
X161963000Y-102451000D02*
X162306000Y-102108000D01*
%TO.N,/Audio/OUT+*%
D71*
X157162500Y-128016000D02*
X155384500Y-129794000D01*
X160013000Y-110011251D02*
X160670500Y-110668751D01*
X160013000Y-108792500D02*
X160013000Y-110011251D01*
X160670500Y-110668751D02*
X160670500Y-122852486D01*
X153396000Y-129794000D02*
X152380000Y-130810000D01*
X160670500Y-122852486D02*
X157162500Y-126360486D01*
X155384500Y-129794000D02*
X153396000Y-129794000D01*
X157162500Y-126360486D02*
X157162500Y-128016000D01*
%TO.N,/Audio/OUT-*%
X161963000Y-108792500D02*
X161963000Y-110011251D01*
X161305500Y-110668751D02*
X161305500Y-123115514D01*
X157797500Y-126623514D02*
X157797500Y-128016000D01*
X161564000Y-129794000D02*
X162580000Y-130810000D01*
X157797500Y-128016000D02*
X159575500Y-129794000D01*
X159575500Y-129794000D02*
X161564000Y-129794000D01*
X161305500Y-123115514D02*
X157797500Y-126623514D01*
X161963000Y-110011251D02*
X161305500Y-110668751D01*
%TO.N,/Digitalker/V_BIAS*%
D65*
X157917000Y-97536000D02*
X159213000Y-97536000D01*
%TO.N,/DIGITALKER_CLK_4MH*%
X108712000Y-69088000D02*
X104874000Y-72926000D01*
X126940000Y-73282000D02*
X126940000Y-70552000D01*
X126940000Y-70552000D02*
X125476000Y-69088000D01*
X125476000Y-69088000D02*
X108712000Y-69088000D01*
X104874000Y-72926000D02*
X104071500Y-72926000D01*
%TO.N,/~{DIGITALKER_CS}*%
X126540000Y-71168000D02*
X125222000Y-69850000D01*
X108712000Y-69850000D02*
X105136000Y-73426000D01*
X126540000Y-73282000D02*
X126540000Y-71168000D01*
X125222000Y-69850000D02*
X108712000Y-69850000D01*
X105136000Y-73426000D02*
X104071500Y-73426000D01*
%TO.N,/~{DIGITALKER_WR}*%
X124968000Y-70612000D02*
X108712000Y-70612000D01*
X126140000Y-71784000D02*
X124968000Y-70612000D01*
X108712000Y-70612000D02*
X105398000Y-73926000D01*
X105398000Y-73926000D02*
X104071500Y-73926000D01*
X126140000Y-73282000D02*
X126140000Y-71784000D01*
%TO.N,/DIGITALKER_CMS*%
X108712000Y-71374000D02*
X105660000Y-74426000D01*
X125740000Y-73282000D02*
X125740000Y-72400000D01*
X125740000Y-72400000D02*
X124714000Y-71374000D01*
X105660000Y-74426000D02*
X104071500Y-74426000D01*
X124714000Y-71374000D02*
X108712000Y-71374000D01*
%TO.N,/Digitalker/DIGI_CMS*%
X108458000Y-75692000D02*
X108458000Y-75280000D01*
X108458000Y-75280000D02*
X108812000Y-74926000D01*
X108812000Y-74926000D02*
X109796500Y-74926000D01*
%TO.N,/Digitalker/DIGI_~{WR}*%
X109026590Y-74426000D02*
X109796500Y-74426000D01*
X108458000Y-74422000D02*
X109022590Y-74422000D01*
X108204000Y-74676000D02*
X108458000Y-74422000D01*
X109022590Y-74422000D02*
X109026590Y-74426000D01*
%TO.N,/Digitalker/DIGI_~{CS}*%
X107746003Y-73926000D02*
X107696000Y-73875997D01*
X109796500Y-73926000D02*
X107746003Y-73926000D01*
%TO.N,/Digitalker/DIGI_CLK_4MHZ*%
X108524530Y-73426000D02*
X109796500Y-73426000D01*
X108501265Y-73402735D02*
X108524530Y-73426000D01*
X108501265Y-73152000D02*
X108501265Y-73402735D01*
%TD*%
%TA.AperFunction,Conductor*%
%TO.N,/Power/+3V3_RAW*%
G36*
X147737001Y-69853728D02*
G01*
X147779960Y-69871522D01*
X147806476Y-69898036D01*
X147806478Y-69898040D01*
X147824270Y-69940994D01*
X147828000Y-69959745D01*
X147828000Y-70248254D01*
X147824270Y-70267005D01*
X147806478Y-70309959D01*
X147779960Y-70336478D01*
X147779959Y-70336478D01*
X147737005Y-70354270D01*
X147718254Y-70358000D01*
X145542000Y-70358000D01*
X145542000Y-73296254D01*
X145538270Y-73315005D01*
X145520478Y-73357959D01*
X145493960Y-73384478D01*
X145493959Y-73384478D01*
X145451005Y-73402270D01*
X145432254Y-73406000D01*
X143619746Y-73406000D01*
X143600995Y-73402270D01*
X143558040Y-73384478D01*
X143531523Y-73357962D01*
X143513728Y-73315001D01*
X143510000Y-73296254D01*
X143510000Y-70467745D01*
X143513728Y-70448999D01*
X143531523Y-70406037D01*
X143558034Y-70379524D01*
X143600998Y-70361728D01*
X143619746Y-70358000D01*
X145034000Y-70358000D01*
X145034000Y-69959745D01*
X145037728Y-69940999D01*
X145055523Y-69898037D01*
X145082034Y-69871524D01*
X145124998Y-69853728D01*
X145143746Y-69850000D01*
X147718254Y-69850000D01*
X147737001Y-69853728D01*
G37*
%TD.AperFunction*%
%TD*%
%TA.AperFunction,Conductor*%
%TO.N,+1V1*%
G36*
X132175648Y-69496352D02*
G01*
X132190000Y-69531000D01*
X132190000Y-71283000D01*
X132175648Y-71317648D01*
X132141000Y-71332000D01*
X131447636Y-71332000D01*
X131434954Y-71330330D01*
X131346021Y-71306500D01*
X131346018Y-71306500D01*
X131233982Y-71306500D01*
X131233979Y-71306500D01*
X131145046Y-71330330D01*
X131132364Y-71332000D01*
X131089000Y-71332000D01*
X131054352Y-71317648D01*
X131040000Y-71283000D01*
X131040000Y-69531000D01*
X131054352Y-69496352D01*
X131089000Y-69482000D01*
X132141000Y-69482000D01*
X132175648Y-69496352D01*
G37*
%TD.AperFunction*%
%TD*%
%TA.AperFunction,Conductor*%
%TO.N,GND*%
G36*
X134149999Y-70685727D02*
G01*
X134156893Y-70688583D01*
X134183413Y-70715098D01*
X134186271Y-70721999D01*
X134190000Y-70740747D01*
X134190000Y-71754974D01*
X134186458Y-71773265D01*
X134179887Y-71789596D01*
X134169776Y-71805240D01*
X133804839Y-72185354D01*
X133349714Y-72659404D01*
X133334040Y-72670346D01*
X133318001Y-72677377D01*
X133298328Y-72681500D01*
X133265322Y-72681500D01*
X133221484Y-72690219D01*
X133192258Y-72696033D01*
X133109398Y-72751397D01*
X133109397Y-72751398D01*
X133054033Y-72834258D01*
X133054033Y-72834260D01*
X133039500Y-72907322D01*
X133039500Y-72907325D01*
X133039500Y-72923252D01*
X133038382Y-72925949D01*
X133035771Y-72942003D01*
X133032916Y-72948896D01*
X133026021Y-72955790D01*
X133025148Y-72957900D01*
X133022876Y-72958935D01*
X133006398Y-72975414D01*
X132999503Y-72978270D01*
X132980753Y-72982000D01*
X132899247Y-72982000D01*
X132880499Y-72978271D01*
X132873601Y-72975414D01*
X132867886Y-72969699D01*
X132860218Y-72967136D01*
X132855134Y-72956947D01*
X132847085Y-72948898D01*
X132844227Y-72941997D01*
X132840500Y-72923252D01*
X132840500Y-70740747D01*
X132844227Y-70722002D01*
X132847083Y-70715106D01*
X132873594Y-70688588D01*
X132880502Y-70685726D01*
X132899247Y-70682000D01*
X134131253Y-70682000D01*
X134149999Y-70685727D01*
G37*
%TD.AperFunction*%
%TD*%
M02*
